G04 #@! TF.FileFunction,Copper,L4,Bot,Mixed*
%FSLAX46Y46*%
G04 Gerber Fmt 4.6, Leading zero omitted, Abs format (unit mm)*
G04 Created by KiCad (PCBNEW 4.0.7-e2-6376~58~ubuntu16.04.1) date Wed Dec 20 13:06:43 2017*
%MOMM*%
%LPD*%
G01*
G04 APERTURE LIST*
%ADD10C,0.100000*%
%ADD11C,1.600000*%
%ADD12R,1.600000X1.600000*%
%ADD13R,1.800000X1.800000*%
%ADD14C,1.800000*%
%ADD15R,1.900000X1.900000*%
%ADD16C,1.900000*%
%ADD17R,1.727200X1.727200*%
%ADD18O,1.727200X1.727200*%
%ADD19C,6.400000*%
%ADD20C,2.400000*%
%ADD21O,2.400000X2.400000*%
%ADD22O,1.600000X1.600000*%
%ADD23C,2.000000*%
%ADD24R,1.750000X1.750000*%
%ADD25C,1.750000*%
%ADD26C,3.000000*%
%ADD27R,1.700000X1.700000*%
%ADD28C,1.778000*%
%ADD29C,0.500000*%
%ADD30C,0.150000*%
%ADD31C,1.000000*%
G04 APERTURE END LIST*
D10*
D11*
X141605000Y-110490000D03*
X136605000Y-110490000D03*
X85090000Y-128905000D03*
X85090000Y-133905000D03*
X106680000Y-120650000D03*
X106680000Y-125650000D03*
X153670000Y-126365000D03*
X148670000Y-126365000D03*
D12*
X68580000Y-47625000D03*
D11*
X71080000Y-47625000D03*
D12*
X86360000Y-49530000D03*
D11*
X86360000Y-52030000D03*
D12*
X69850000Y-43180000D03*
D11*
X69850000Y-40680000D03*
D12*
X69850000Y-52070000D03*
D11*
X69850000Y-54570000D03*
D12*
X86360000Y-57785000D03*
D11*
X86360000Y-55285000D03*
X98425000Y-45720000D03*
X98425000Y-50720000D03*
X106680000Y-92075000D03*
X111680000Y-92075000D03*
X127635000Y-69850000D03*
X127635000Y-74850000D03*
D13*
X72390000Y-129540000D03*
D14*
X74930000Y-129540000D03*
D15*
X157353000Y-32004000D03*
D16*
X157353000Y-34504000D03*
X157353000Y-37004000D03*
X157353000Y-39504000D03*
D17*
X59690000Y-33655000D03*
D18*
X62230000Y-33655000D03*
X59690000Y-36195000D03*
X62230000Y-36195000D03*
X59690000Y-38735000D03*
X62230000Y-38735000D03*
X59690000Y-41275000D03*
X62230000Y-41275000D03*
X59690000Y-43815000D03*
X62230000Y-43815000D03*
D17*
X59690000Y-55880000D03*
D18*
X62230000Y-55880000D03*
X59690000Y-58420000D03*
X62230000Y-58420000D03*
X59690000Y-60960000D03*
X62230000Y-60960000D03*
X59690000Y-63500000D03*
X62230000Y-63500000D03*
X59690000Y-66040000D03*
X62230000Y-66040000D03*
D17*
X163830000Y-65405000D03*
D18*
X161290000Y-65405000D03*
X163830000Y-62865000D03*
X161290000Y-62865000D03*
X163830000Y-60325000D03*
X161290000Y-60325000D03*
X163830000Y-57785000D03*
X161290000Y-57785000D03*
X163830000Y-55245000D03*
X161290000Y-55245000D03*
D19*
X58420000Y-24130000D03*
X100330000Y-24130000D03*
X164465000Y-23876000D03*
X164465000Y-136525000D03*
X151765000Y-62230000D03*
X58420000Y-136525000D03*
D17*
X59690000Y-78105000D03*
D18*
X62230000Y-78105000D03*
X59690000Y-80645000D03*
X62230000Y-80645000D03*
X59690000Y-83185000D03*
X62230000Y-83185000D03*
X59690000Y-85725000D03*
X62230000Y-85725000D03*
X59690000Y-88265000D03*
X62230000Y-88265000D03*
X59690000Y-90805000D03*
X62230000Y-90805000D03*
X59690000Y-93345000D03*
X62230000Y-93345000D03*
X59690000Y-95885000D03*
X62230000Y-95885000D03*
X59690000Y-98425000D03*
X62230000Y-98425000D03*
X59690000Y-100965000D03*
X62230000Y-100965000D03*
X59690000Y-103505000D03*
X62230000Y-103505000D03*
X59690000Y-106045000D03*
X62230000Y-106045000D03*
X59690000Y-108585000D03*
X62230000Y-108585000D03*
X59690000Y-111125000D03*
X62230000Y-111125000D03*
X59690000Y-113665000D03*
X62230000Y-113665000D03*
X59690000Y-116205000D03*
X62230000Y-116205000D03*
X59690000Y-118745000D03*
X62230000Y-118745000D03*
X59690000Y-121285000D03*
X62230000Y-121285000D03*
X59690000Y-123825000D03*
X62230000Y-123825000D03*
X59690000Y-126365000D03*
X62230000Y-126365000D03*
D20*
X68580000Y-114300000D03*
D21*
X68580000Y-101600000D03*
D20*
X68580000Y-130175000D03*
D21*
X68580000Y-117475000D03*
D20*
X73660000Y-114300000D03*
D21*
X73660000Y-101600000D03*
D12*
X143510000Y-61595000D03*
D22*
X143510000Y-64135000D03*
X143510000Y-66675000D03*
X143510000Y-69215000D03*
X143510000Y-71755000D03*
X143510000Y-74295000D03*
X143510000Y-76835000D03*
X143510000Y-79375000D03*
D12*
X125730000Y-92710000D03*
D22*
X125730000Y-95250000D03*
X125730000Y-97790000D03*
X125730000Y-100330000D03*
X125730000Y-102870000D03*
X125730000Y-105410000D03*
X125730000Y-107950000D03*
X125730000Y-110490000D03*
D23*
X147955000Y-55300000D03*
X147955000Y-50800000D03*
X154455000Y-55300000D03*
X154455000Y-50800000D03*
D24*
X133985000Y-94615000D03*
D25*
X133985000Y-97155000D03*
X133985000Y-99695000D03*
X133985000Y-92075000D03*
X133985000Y-89535000D03*
X133985000Y-86995000D03*
X131445000Y-97155000D03*
X131445000Y-99695000D03*
X131445000Y-102235000D03*
X131445000Y-94615000D03*
X131445000Y-92075000D03*
X131445000Y-89535000D03*
X133985000Y-102235000D03*
X136525000Y-102235000D03*
X139065000Y-102235000D03*
X141605000Y-102235000D03*
X144145000Y-102235000D03*
X133985000Y-104775000D03*
X136525000Y-104775000D03*
X139065000Y-104775000D03*
X141605000Y-104775000D03*
X144145000Y-104775000D03*
X146685000Y-104775000D03*
X146685000Y-102235000D03*
X146685000Y-99695000D03*
X146685000Y-97155000D03*
X146685000Y-94615000D03*
X146685000Y-92075000D03*
X146685000Y-89535000D03*
X149225000Y-102235000D03*
X149225000Y-99695000D03*
X149225000Y-97155000D03*
X149225000Y-94615000D03*
X149225000Y-92075000D03*
X149225000Y-89535000D03*
X144145000Y-89535000D03*
X141605000Y-89535000D03*
X139065000Y-89535000D03*
X136525000Y-89535000D03*
X131445000Y-89535000D03*
X146685000Y-86995000D03*
X144145000Y-86995000D03*
X141605000Y-86995000D03*
X139065000Y-86995000D03*
X136525000Y-86995000D03*
X133985000Y-86995000D03*
D12*
X96520000Y-136525000D03*
D22*
X81280000Y-103505000D03*
X96520000Y-133985000D03*
X81280000Y-106045000D03*
X96520000Y-131445000D03*
X81280000Y-108585000D03*
X96520000Y-128905000D03*
X81280000Y-111125000D03*
X96520000Y-126365000D03*
X81280000Y-113665000D03*
X96520000Y-123825000D03*
X81280000Y-116205000D03*
X96520000Y-121285000D03*
X81280000Y-118745000D03*
X96520000Y-118745000D03*
X81280000Y-121285000D03*
X96520000Y-116205000D03*
X81280000Y-123825000D03*
X96520000Y-113665000D03*
X81280000Y-126365000D03*
X96520000Y-111125000D03*
X81280000Y-128905000D03*
X96520000Y-108585000D03*
X81280000Y-131445000D03*
X96520000Y-106045000D03*
X81280000Y-133985000D03*
X96520000Y-103505000D03*
X81280000Y-136525000D03*
D12*
X118110000Y-129540000D03*
D22*
X102870000Y-96520000D03*
X118110000Y-127000000D03*
X102870000Y-99060000D03*
X118110000Y-124460000D03*
X102870000Y-101600000D03*
X118110000Y-121920000D03*
X102870000Y-104140000D03*
X118110000Y-119380000D03*
X102870000Y-106680000D03*
X118110000Y-116840000D03*
X102870000Y-109220000D03*
X118110000Y-114300000D03*
X102870000Y-111760000D03*
X118110000Y-111760000D03*
X102870000Y-114300000D03*
X118110000Y-109220000D03*
X102870000Y-116840000D03*
X118110000Y-106680000D03*
X102870000Y-119380000D03*
X118110000Y-104140000D03*
X102870000Y-121920000D03*
X118110000Y-101600000D03*
X102870000Y-124460000D03*
X118110000Y-99060000D03*
X102870000Y-127000000D03*
X118110000Y-96520000D03*
X102870000Y-129540000D03*
D12*
X155575000Y-114935000D03*
D22*
X122555000Y-130175000D03*
X153035000Y-114935000D03*
X125095000Y-130175000D03*
X150495000Y-114935000D03*
X127635000Y-130175000D03*
X147955000Y-114935000D03*
X130175000Y-130175000D03*
X145415000Y-114935000D03*
X132715000Y-130175000D03*
X142875000Y-114935000D03*
X135255000Y-130175000D03*
X140335000Y-114935000D03*
X137795000Y-130175000D03*
X137795000Y-114935000D03*
X140335000Y-130175000D03*
X135255000Y-114935000D03*
X142875000Y-130175000D03*
X132715000Y-114935000D03*
X145415000Y-130175000D03*
X130175000Y-114935000D03*
X147955000Y-130175000D03*
X127635000Y-114935000D03*
X150495000Y-130175000D03*
X125095000Y-114935000D03*
X153035000Y-130175000D03*
X122555000Y-114935000D03*
X155575000Y-130175000D03*
D24*
X114300000Y-71755000D03*
D25*
X111760000Y-71755000D03*
X109220000Y-71755000D03*
X116840000Y-71755000D03*
X119380000Y-71755000D03*
X121920000Y-71755000D03*
X111760000Y-69215000D03*
X109220000Y-69215000D03*
X106680000Y-69215000D03*
X114300000Y-69215000D03*
X116840000Y-69215000D03*
X119380000Y-69215000D03*
X106680000Y-71755000D03*
X106680000Y-74295000D03*
X106680000Y-76835000D03*
X106680000Y-79375000D03*
X106680000Y-81915000D03*
X104140000Y-71755000D03*
X104140000Y-74295000D03*
X104140000Y-76835000D03*
X104140000Y-79375000D03*
X104140000Y-81915000D03*
X104140000Y-84455000D03*
X106680000Y-84455000D03*
X109220000Y-84455000D03*
X111760000Y-84455000D03*
X114300000Y-84455000D03*
X116840000Y-84455000D03*
X119380000Y-84455000D03*
X106680000Y-86995000D03*
X109220000Y-86995000D03*
X111760000Y-86995000D03*
X114300000Y-86995000D03*
X116840000Y-86995000D03*
X119380000Y-86995000D03*
X119380000Y-81915000D03*
X119380000Y-79375000D03*
X119380000Y-76835000D03*
X119380000Y-74295000D03*
X119380000Y-69215000D03*
X121920000Y-84455000D03*
X121920000Y-81915000D03*
X121920000Y-79375000D03*
X121920000Y-76835000D03*
X121920000Y-74295000D03*
X121920000Y-71755000D03*
D12*
X142875000Y-43180000D03*
D22*
X127635000Y-50800000D03*
X140335000Y-43180000D03*
X130175000Y-50800000D03*
X137795000Y-43180000D03*
X132715000Y-50800000D03*
X135255000Y-43180000D03*
X135255000Y-50800000D03*
X132715000Y-43180000D03*
X137795000Y-50800000D03*
X130175000Y-43180000D03*
X140335000Y-50800000D03*
X127635000Y-43180000D03*
X142875000Y-50800000D03*
D12*
X79375000Y-64770000D03*
D22*
X86995000Y-87630000D03*
X79375000Y-67310000D03*
X86995000Y-85090000D03*
X79375000Y-69850000D03*
X86995000Y-82550000D03*
X79375000Y-72390000D03*
X86995000Y-80010000D03*
X79375000Y-74930000D03*
X86995000Y-77470000D03*
X79375000Y-77470000D03*
X86995000Y-74930000D03*
X79375000Y-80010000D03*
X86995000Y-72390000D03*
X79375000Y-82550000D03*
X86995000Y-69850000D03*
X79375000Y-85090000D03*
X86995000Y-67310000D03*
X79375000Y-87630000D03*
X86995000Y-64770000D03*
D12*
X90805000Y-64770000D03*
D22*
X98425000Y-87630000D03*
X90805000Y-67310000D03*
X98425000Y-85090000D03*
X90805000Y-69850000D03*
X98425000Y-82550000D03*
X90805000Y-72390000D03*
X98425000Y-80010000D03*
X90805000Y-74930000D03*
X98425000Y-77470000D03*
X90805000Y-77470000D03*
X98425000Y-74930000D03*
X90805000Y-80010000D03*
X98425000Y-72390000D03*
X90805000Y-82550000D03*
X98425000Y-69850000D03*
X90805000Y-85090000D03*
X98425000Y-67310000D03*
X90805000Y-87630000D03*
X98425000Y-64770000D03*
D12*
X75565000Y-87630000D03*
D22*
X67945000Y-64770000D03*
X75565000Y-85090000D03*
X67945000Y-67310000D03*
X75565000Y-82550000D03*
X67945000Y-69850000D03*
X75565000Y-80010000D03*
X67945000Y-72390000D03*
X75565000Y-77470000D03*
X67945000Y-74930000D03*
X75565000Y-74930000D03*
X67945000Y-77470000D03*
X75565000Y-72390000D03*
X67945000Y-80010000D03*
X75565000Y-69850000D03*
X67945000Y-82550000D03*
X75565000Y-67310000D03*
X67945000Y-85090000D03*
X75565000Y-64770000D03*
X67945000Y-87630000D03*
D12*
X74295000Y-29210000D03*
D22*
X81915000Y-57150000D03*
X74295000Y-31750000D03*
X81915000Y-54610000D03*
X74295000Y-34290000D03*
X81915000Y-52070000D03*
X74295000Y-36830000D03*
X81915000Y-49530000D03*
X74295000Y-39370000D03*
X81915000Y-46990000D03*
X74295000Y-41910000D03*
X81915000Y-44450000D03*
X74295000Y-44450000D03*
X81915000Y-41910000D03*
X74295000Y-46990000D03*
X81915000Y-39370000D03*
X74295000Y-49530000D03*
X81915000Y-36830000D03*
X74295000Y-52070000D03*
X81915000Y-34290000D03*
X74295000Y-54610000D03*
X81915000Y-31750000D03*
X74295000Y-57150000D03*
X81915000Y-29210000D03*
D24*
X106680000Y-52070000D03*
D25*
X106680000Y-54610000D03*
X106680000Y-57150000D03*
X106680000Y-49530000D03*
X106680000Y-46990000D03*
X106680000Y-44450000D03*
X104140000Y-54610000D03*
X104140000Y-57150000D03*
X104140000Y-59690000D03*
X104140000Y-52070000D03*
X104140000Y-49530000D03*
X104140000Y-46990000D03*
X106680000Y-59690000D03*
X109220000Y-59690000D03*
X111760000Y-59690000D03*
X114300000Y-59690000D03*
X116840000Y-59690000D03*
X106680000Y-62230000D03*
X109220000Y-62230000D03*
X111760000Y-62230000D03*
X114300000Y-62230000D03*
X116840000Y-62230000D03*
X119380000Y-62230000D03*
X119380000Y-59690000D03*
X119380000Y-57150000D03*
X119380000Y-54610000D03*
X119380000Y-52070000D03*
X119380000Y-49530000D03*
X119380000Y-46990000D03*
X121920000Y-59690000D03*
X121920000Y-57150000D03*
X121920000Y-54610000D03*
X121920000Y-52070000D03*
X121920000Y-49530000D03*
X121920000Y-46990000D03*
X116840000Y-46990000D03*
X114300000Y-46990000D03*
X111760000Y-46990000D03*
X109220000Y-46990000D03*
X104140000Y-46990000D03*
X119380000Y-44450000D03*
X116840000Y-44450000D03*
X114300000Y-44450000D03*
X111760000Y-44450000D03*
X109220000Y-44450000D03*
X106680000Y-44450000D03*
D12*
X128905000Y-63500000D03*
D11*
X128905000Y-55880000D03*
X136525000Y-55880000D03*
X136525000Y-63500000D03*
D12*
X86995000Y-34290000D03*
D11*
X94615000Y-34290000D03*
X94615000Y-41910000D03*
X86995000Y-41910000D03*
D13*
X144653000Y-36068000D03*
D14*
X147193000Y-36068000D03*
D26*
X124841000Y-25908000D03*
X147341000Y-25908000D03*
D27*
X114935000Y-136525000D03*
X104775000Y-136525000D03*
X151765000Y-79375000D03*
X151765000Y-69850000D03*
X76200000Y-22860000D03*
D20*
X126365000Y-36068000D03*
D21*
X139065000Y-36068000D03*
D27*
X69850000Y-22860000D03*
D28*
X113030000Y-24765000D03*
X107950000Y-24765000D03*
X113030000Y-30353000D03*
X110490000Y-30353000D03*
X107950000Y-30353000D03*
D12*
X72390000Y-97155000D03*
D11*
X74890000Y-97155000D03*
X135255000Y-80010000D03*
X140255000Y-80010000D03*
D17*
X163830000Y-125730000D03*
D18*
X161290000Y-125730000D03*
X163830000Y-123190000D03*
X161290000Y-123190000D03*
X163830000Y-120650000D03*
X161290000Y-120650000D03*
X163830000Y-118110000D03*
X161290000Y-118110000D03*
X163830000Y-115570000D03*
X161290000Y-115570000D03*
X163830000Y-113030000D03*
X161290000Y-113030000D03*
X163830000Y-110490000D03*
X161290000Y-110490000D03*
X163830000Y-107950000D03*
X161290000Y-107950000D03*
X163830000Y-105410000D03*
X161290000Y-105410000D03*
X163830000Y-102870000D03*
X161290000Y-102870000D03*
X163830000Y-100330000D03*
X161290000Y-100330000D03*
X163830000Y-97790000D03*
X161290000Y-97790000D03*
X163830000Y-95250000D03*
X161290000Y-95250000D03*
X163830000Y-92710000D03*
X161290000Y-92710000D03*
X163830000Y-90170000D03*
X161290000Y-90170000D03*
X163830000Y-87630000D03*
X161290000Y-87630000D03*
X163830000Y-85090000D03*
X161290000Y-85090000D03*
X163830000Y-82550000D03*
X161290000Y-82550000D03*
X163830000Y-80010000D03*
X161290000Y-80010000D03*
X163830000Y-77470000D03*
X161290000Y-77470000D03*
D20*
X92710000Y-92075000D03*
D21*
X100330000Y-92075000D03*
D20*
X68580000Y-92075000D03*
D21*
X76200000Y-92075000D03*
D20*
X80645000Y-92075000D03*
D21*
X88265000Y-92075000D03*
D12*
X139700000Y-76200000D03*
D22*
X132080000Y-68580000D03*
X139700000Y-73660000D03*
X132080000Y-71120000D03*
X139700000Y-71120000D03*
X132080000Y-73660000D03*
X139700000Y-68580000D03*
X132080000Y-76200000D03*
D29*
X125971300Y-83190600D03*
X131959400Y-82622400D03*
X140195500Y-95778700D03*
X71830500Y-71329300D03*
X135080200Y-81608600D03*
X136888600Y-100312100D03*
X139290600Y-117659100D03*
X137594100Y-118075900D03*
X119662900Y-115572400D03*
X121623000Y-94585300D03*
X142320100Y-97769500D03*
X114806700Y-98571000D03*
X104304300Y-105243300D03*
X113542800Y-98471800D03*
X101870900Y-89165000D03*
X141025700Y-70028600D03*
X115682100Y-100547200D03*
X116956300Y-115117700D03*
X112323400Y-99699200D03*
X101497000Y-102708500D03*
X123743000Y-84447000D03*
X126621700Y-88365400D03*
X110928300Y-99373100D03*
X123461000Y-89743500D03*
X133012600Y-79815100D03*
X135641700Y-85262100D03*
X146604600Y-85567500D03*
X124595000Y-90649700D03*
X142595600Y-119736100D03*
X124294700Y-86271600D03*
X132538800Y-103576200D03*
X137237600Y-71792300D03*
X108241500Y-92504000D03*
X125370700Y-75600600D03*
X102291100Y-55004200D03*
X108526500Y-90404300D03*
X123628200Y-86276300D03*
X104209400Y-91154700D03*
X132874600Y-82069000D03*
X132489800Y-80248200D03*
X115065100Y-113303200D03*
X72650900Y-86415800D03*
X115407500Y-77454500D03*
X138531400Y-84995300D03*
X139059200Y-84595800D03*
D30*
X74295000Y-52070000D02*
X69850000Y-52070000D01*
X70689700Y-54570000D02*
X69850000Y-54570000D01*
X73269700Y-57150000D02*
X70689700Y-54570000D01*
X74295000Y-57150000D02*
X73269700Y-57150000D01*
X84699700Y-57150000D02*
X85334700Y-57785000D01*
X81915000Y-57150000D02*
X84699700Y-57150000D01*
X86360000Y-57785000D02*
X85334700Y-57785000D01*
X85685000Y-54610000D02*
X86360000Y-55285000D01*
X81915000Y-54610000D02*
X85685000Y-54610000D01*
X139065000Y-36068000D02*
X144653000Y-36068000D01*
X59690000Y-116205000D02*
X60778900Y-116205000D01*
X144389700Y-114510100D02*
X144389700Y-114935000D01*
X141394900Y-111515300D02*
X144389700Y-114510100D01*
X127780600Y-111515300D02*
X141394900Y-111515300D01*
X126755300Y-110490000D02*
X127780600Y-111515300D01*
X125730000Y-110490000D02*
X125730000Y-109464700D01*
X125730000Y-110490000D02*
X126755300Y-110490000D01*
X145415000Y-114935000D02*
X144389700Y-114935000D01*
X163830000Y-82550000D02*
X162741100Y-82550000D01*
X119345300Y-103080000D02*
X125730000Y-109464700D01*
X117025000Y-103080000D02*
X119345300Y-103080000D01*
X112059200Y-108045800D02*
X117025000Y-103080000D01*
X101598500Y-108045800D02*
X112059200Y-108045800D01*
X99600200Y-110044100D02*
X101598500Y-108045800D01*
X89886500Y-110044100D02*
X99600200Y-110044100D01*
X82694700Y-117235900D02*
X89886500Y-110044100D01*
X73193800Y-117235900D02*
X82694700Y-117235900D01*
X71951700Y-115993800D02*
X73193800Y-117235900D01*
X64852800Y-115993800D02*
X71951700Y-115993800D01*
X63972100Y-115113100D02*
X64852800Y-115993800D01*
X61758000Y-115113100D02*
X63972100Y-115113100D01*
X60778900Y-116092200D02*
X61758000Y-115113100D01*
X60778900Y-116205000D02*
X60778900Y-116092200D01*
X133213800Y-83190600D02*
X125971300Y-83190600D01*
X133488600Y-82915800D02*
X133213800Y-83190600D01*
X147405100Y-82915800D02*
X133488600Y-82915800D01*
X148133500Y-83644200D02*
X147405100Y-82915800D01*
X161759700Y-83644200D02*
X148133500Y-83644200D01*
X162741100Y-82662800D02*
X161759700Y-83644200D01*
X162741100Y-82550000D02*
X162741100Y-82662800D01*
X60778900Y-36082200D02*
X60778900Y-36195000D01*
X61936100Y-34925000D02*
X60778900Y-36082200D01*
X70094700Y-34925000D02*
X61936100Y-34925000D01*
X73269700Y-31750000D02*
X70094700Y-34925000D01*
X74295000Y-31750000D02*
X73269700Y-31750000D01*
X59690000Y-36195000D02*
X60778900Y-36195000D01*
X60778900Y-41162200D02*
X60778900Y-41275000D01*
X61936100Y-40005000D02*
X60778900Y-41162200D01*
X67122900Y-40005000D02*
X61936100Y-40005000D01*
X74107900Y-33020000D02*
X67122900Y-40005000D01*
X77079700Y-33020000D02*
X74107900Y-33020000D01*
X80889700Y-29210000D02*
X77079700Y-33020000D01*
X81915000Y-29210000D02*
X80889700Y-29210000D01*
X59690000Y-41275000D02*
X60778900Y-41275000D01*
X67554600Y-41275000D02*
X62230000Y-41275000D01*
X73269600Y-35560000D02*
X67554600Y-41275000D01*
X77079700Y-35560000D02*
X73269600Y-35560000D01*
X80889700Y-31750000D02*
X77079700Y-35560000D01*
X81915000Y-31750000D02*
X80889700Y-31750000D01*
X59802800Y-62411100D02*
X59690000Y-62411100D01*
X60960000Y-61253900D02*
X59802800Y-62411100D01*
X60960000Y-60640700D02*
X60960000Y-61253900D01*
X61729700Y-59871000D02*
X60960000Y-60640700D01*
X62328500Y-59871000D02*
X61729700Y-59871000D01*
X63707800Y-58491700D02*
X62328500Y-59871000D01*
X63707800Y-56227900D02*
X63707800Y-58491700D01*
X69273600Y-50662100D02*
X63707800Y-56227900D01*
X69565300Y-50662100D02*
X69273600Y-50662100D01*
X72943800Y-47283600D02*
X69565300Y-50662100D01*
X72943800Y-46828000D02*
X72943800Y-47283600D01*
X74051800Y-45720000D02*
X72943800Y-46828000D01*
X74539700Y-45720000D02*
X74051800Y-45720000D01*
X80889700Y-39370000D02*
X74539700Y-45720000D01*
X81915000Y-39370000D02*
X80889700Y-39370000D01*
X59690000Y-63500000D02*
X59690000Y-62411100D01*
X163830000Y-65405000D02*
X162741100Y-65405000D01*
X162741100Y-65541100D02*
X162741100Y-65405000D01*
X151447200Y-76835000D02*
X162741100Y-65541100D01*
X144535300Y-76835000D02*
X151447200Y-76835000D01*
X143510000Y-76835000D02*
X144535300Y-76835000D01*
X142059900Y-77259800D02*
X142484700Y-76835000D01*
X140383900Y-77259800D02*
X142059900Y-77259800D01*
X136510400Y-81133300D02*
X140383900Y-77259800D01*
X124847700Y-81133300D02*
X136510400Y-81133300D01*
X122965600Y-83015400D02*
X124847700Y-81133300D01*
X113987100Y-83015400D02*
X122965600Y-83015400D01*
X111447000Y-80475300D02*
X113987100Y-83015400D01*
X105240300Y-80475300D02*
X111447000Y-80475300D01*
X104140000Y-79375000D02*
X105240300Y-80475300D01*
X143510000Y-76835000D02*
X142484700Y-76835000D01*
X163830000Y-62865000D02*
X162741100Y-62865000D01*
X149483900Y-74295000D02*
X143510000Y-74295000D01*
X159643900Y-64135000D02*
X149483900Y-74295000D01*
X161583900Y-64135000D02*
X159643900Y-64135000D01*
X162741100Y-62977800D02*
X161583900Y-64135000D01*
X162741100Y-62865000D02*
X162741100Y-62977800D01*
X141605100Y-75174600D02*
X142484700Y-74295000D01*
X138340100Y-75174600D02*
X141605100Y-75174600D01*
X132727300Y-80787400D02*
X138340100Y-75174600D01*
X120507600Y-80787400D02*
X132727300Y-80787400D01*
X119380000Y-81915000D02*
X120507600Y-80787400D01*
X143510000Y-74295000D02*
X142484700Y-74295000D01*
X163830000Y-60325000D02*
X162741100Y-60325000D01*
X143510000Y-71755000D02*
X144535300Y-71755000D01*
X162741100Y-60437800D02*
X162741100Y-60325000D01*
X161583900Y-61595000D02*
X162741100Y-60437800D01*
X159542000Y-61595000D02*
X161583900Y-61595000D01*
X153639700Y-67497300D02*
X159542000Y-61595000D01*
X148793000Y-67497300D02*
X153639700Y-67497300D01*
X144535300Y-71755000D02*
X148793000Y-67497300D01*
X143510000Y-71755000D02*
X142484700Y-71755000D01*
X142484700Y-72325400D02*
X142484700Y-71755000D01*
X140090300Y-74719800D02*
X142484700Y-72325400D01*
X136698300Y-74719800D02*
X140090300Y-74719800D01*
X133482400Y-77935700D02*
X136698300Y-74719800D01*
X112254300Y-77935700D02*
X133482400Y-77935700D01*
X108613600Y-74295000D02*
X112254300Y-77935700D01*
X106680000Y-74295000D02*
X108613600Y-74295000D01*
X162741100Y-57897800D02*
X162741100Y-57785000D01*
X161583900Y-59055000D02*
X162741100Y-57897800D01*
X159822400Y-59055000D02*
X161583900Y-59055000D01*
X152363200Y-66514200D02*
X159822400Y-59055000D01*
X147236100Y-66514200D02*
X152363200Y-66514200D01*
X144535300Y-69215000D02*
X147236100Y-66514200D01*
X143510000Y-69215000D02*
X144535300Y-69215000D01*
X163830000Y-57785000D02*
X162741100Y-57785000D01*
X143510000Y-69215000D02*
X142484700Y-69215000D01*
X142484700Y-69790000D02*
X142484700Y-69215000D01*
X139884700Y-72390000D02*
X142484700Y-69790000D01*
X138112900Y-72390000D02*
X139884700Y-72390000D01*
X135572900Y-74930000D02*
X138112900Y-72390000D01*
X131599800Y-74930000D02*
X135572900Y-74930000D01*
X129694800Y-76835000D02*
X131599800Y-74930000D01*
X121920000Y-76835000D02*
X129694800Y-76835000D01*
X125730000Y-95250000D02*
X126755300Y-95250000D01*
X59690000Y-76620700D02*
X59690000Y-78105000D01*
X67730700Y-68580000D02*
X59690000Y-76620700D01*
X69332900Y-68580000D02*
X67730700Y-68580000D01*
X74594800Y-63318100D02*
X69332900Y-68580000D01*
X104902800Y-63318100D02*
X74594800Y-63318100D01*
X110490000Y-68905300D02*
X104902800Y-63318100D01*
X110490000Y-69520200D02*
X110490000Y-68905300D01*
X111285200Y-70315400D02*
X110490000Y-69520200D01*
X111936400Y-70315400D02*
X111285200Y-70315400D01*
X113199600Y-71578600D02*
X111936400Y-70315400D01*
X113199600Y-72772300D02*
X113199600Y-71578600D01*
X113325900Y-72898600D02*
X113199600Y-72772300D01*
X126736100Y-72898600D02*
X113325900Y-72898600D01*
X131054700Y-68580000D02*
X126736100Y-72898600D01*
X132080000Y-68580000D02*
X131054700Y-68580000D01*
X163830000Y-80010000D02*
X162741100Y-80010000D01*
X130810000Y-95250000D02*
X126755300Y-95250000D01*
X131445000Y-94615000D02*
X130810000Y-95250000D01*
X132608700Y-95778700D02*
X140195500Y-95778700D01*
X131445000Y-94615000D02*
X132608700Y-95778700D01*
X131966300Y-82615500D02*
X131959400Y-82622400D01*
X158702200Y-82615500D02*
X131966300Y-82615500D01*
X160037700Y-81280000D02*
X158702200Y-82615500D01*
X161583900Y-81280000D02*
X160037700Y-81280000D01*
X162741100Y-80122800D02*
X161583900Y-81280000D01*
X162741100Y-80010000D02*
X162741100Y-80122800D01*
X79375000Y-67310000D02*
X78349700Y-67310000D01*
X62230000Y-80645000D02*
X62230000Y-79556100D01*
X81462700Y-68372400D02*
X80400300Y-67310000D01*
X96337300Y-68372400D02*
X81462700Y-68372400D01*
X97399700Y-67310000D02*
X96337300Y-68372400D01*
X98425000Y-67310000D02*
X97399700Y-67310000D01*
X79375000Y-67310000D02*
X80400300Y-67310000D01*
X76835200Y-68824500D02*
X78349700Y-67310000D01*
X75007600Y-68824500D02*
X76835200Y-68824500D01*
X70416700Y-73415400D02*
X75007600Y-68824500D01*
X67567300Y-73415400D02*
X70416700Y-73415400D01*
X63525200Y-77457500D02*
X67567300Y-73415400D01*
X63525200Y-78373700D02*
X63525200Y-77457500D01*
X62342800Y-79556100D02*
X63525200Y-78373700D01*
X62230000Y-79556100D02*
X62342800Y-79556100D01*
X90805000Y-82550000D02*
X86995000Y-82550000D01*
X79375000Y-69850000D02*
X78349700Y-69850000D01*
X62230000Y-83185000D02*
X62230000Y-82096100D01*
X81425700Y-68824600D02*
X80400300Y-69850000D01*
X96374300Y-68824600D02*
X81425700Y-68824600D01*
X97399700Y-69850000D02*
X96374300Y-68824600D01*
X98425000Y-69850000D02*
X97399700Y-69850000D01*
X79375000Y-69850000D02*
X80400300Y-69850000D01*
X62342800Y-82096100D02*
X62230000Y-82096100D01*
X64581700Y-79857200D02*
X62342800Y-82096100D01*
X64581700Y-76825900D02*
X64581700Y-79857200D01*
X67585800Y-73821800D02*
X64581700Y-76825900D01*
X70892400Y-73821800D02*
X67585800Y-73821800D01*
X73838900Y-70875300D02*
X70892400Y-73821800D01*
X77324400Y-70875300D02*
X73838900Y-70875300D01*
X78349700Y-69850000D02*
X77324400Y-70875300D01*
X90805000Y-80010000D02*
X86995000Y-80010000D01*
X67945000Y-69850000D02*
X67945000Y-70875300D01*
X59690000Y-85725000D02*
X59690000Y-84636100D01*
X59802800Y-84636100D02*
X59690000Y-84636100D01*
X60960000Y-83478900D02*
X59802800Y-84636100D01*
X60960000Y-77732100D02*
X60960000Y-83478900D01*
X67816800Y-70875300D02*
X60960000Y-77732100D01*
X67945000Y-70875300D02*
X67816800Y-70875300D01*
X81458600Y-73448300D02*
X80400300Y-72390000D01*
X96341400Y-73448300D02*
X81458600Y-73448300D01*
X97399700Y-72390000D02*
X96341400Y-73448300D01*
X98425000Y-72390000D02*
X97399700Y-72390000D01*
X79781500Y-72390000D02*
X79765300Y-72390000D01*
X79781500Y-72390000D02*
X80400300Y-72390000D01*
X79472600Y-72390000D02*
X79472700Y-72390000D01*
X79375000Y-72390000D02*
X79472600Y-72390000D01*
X79472700Y-72390000D02*
X79765300Y-72390000D01*
X67642200Y-81401700D02*
X63318900Y-85725000D01*
X68991200Y-81401700D02*
X67642200Y-81401700D01*
X74437500Y-75955400D02*
X68991200Y-81401700D01*
X75998400Y-75955400D02*
X74437500Y-75955400D01*
X79472700Y-72481100D02*
X75998400Y-75955400D01*
X79472700Y-72390000D02*
X79472700Y-72481100D01*
X62230000Y-85725000D02*
X63318900Y-85725000D01*
X90805000Y-77470000D02*
X86995000Y-77470000D01*
X81427100Y-75956800D02*
X80400300Y-74930000D01*
X96372900Y-75956800D02*
X81427100Y-75956800D01*
X97399700Y-74930000D02*
X96372900Y-75956800D01*
X98425000Y-74930000D02*
X97399700Y-74930000D01*
X79375000Y-74930000D02*
X79887700Y-74930000D01*
X79887700Y-74930000D02*
X80400300Y-74930000D01*
X67614200Y-83969700D02*
X63318900Y-88265000D01*
X69519400Y-83969700D02*
X67614200Y-83969700D01*
X74749100Y-78740000D02*
X69519400Y-83969700D01*
X76077700Y-78740000D02*
X74749100Y-78740000D01*
X79887700Y-74930000D02*
X76077700Y-78740000D01*
X62230000Y-88265000D02*
X63318900Y-88265000D01*
X90805000Y-74930000D02*
X86995000Y-74930000D01*
X59690000Y-90805000D02*
X59690000Y-89716100D01*
X86995000Y-74930000D02*
X85969700Y-74930000D01*
X61141000Y-86210400D02*
X61925600Y-86995000D01*
X61141000Y-85232600D02*
X61141000Y-86210400D01*
X61918600Y-84455000D02*
X61141000Y-85232600D01*
X62523500Y-84455000D02*
X61918600Y-84455000D01*
X65861800Y-81116700D02*
X62523500Y-84455000D01*
X65861800Y-77013200D02*
X65861800Y-81116700D01*
X67945000Y-74930000D02*
X65861800Y-77013200D01*
X60778900Y-88141700D02*
X61925600Y-86995000D01*
X60778900Y-88763400D02*
X60778900Y-88141700D01*
X59826200Y-89716100D02*
X60778900Y-88763400D01*
X59690000Y-89716100D02*
X59826200Y-89716100D01*
X84936100Y-73896400D02*
X85969700Y-74930000D01*
X78573300Y-73896400D02*
X84936100Y-73896400D01*
X76025100Y-76444600D02*
X78573300Y-73896400D01*
X75060200Y-76444600D02*
X76025100Y-76444600D01*
X69215000Y-82289800D02*
X75060200Y-76444600D01*
X69215000Y-82765400D02*
X69215000Y-82289800D01*
X68311100Y-83669300D02*
X69215000Y-82765400D01*
X66494300Y-83669300D02*
X68311100Y-83669300D01*
X63168600Y-86995000D02*
X66494300Y-83669300D01*
X61925600Y-86995000D02*
X63168600Y-86995000D01*
X96367800Y-76438100D02*
X97399700Y-77470000D01*
X81432200Y-76438100D02*
X96367800Y-76438100D01*
X80400300Y-77470000D02*
X81432200Y-76438100D01*
X98425000Y-77470000D02*
X97399700Y-77470000D01*
X79375000Y-77470000D02*
X79903900Y-77470000D01*
X79903900Y-77470000D02*
X80400300Y-77470000D01*
X67614200Y-86509700D02*
X63318900Y-90805000D01*
X69183200Y-86509700D02*
X67614200Y-86509700D01*
X74657500Y-81035400D02*
X69183200Y-86509700D01*
X76338500Y-81035400D02*
X74657500Y-81035400D01*
X79903900Y-77470000D02*
X76338500Y-81035400D01*
X62230000Y-90805000D02*
X63318900Y-90805000D01*
X90805000Y-72390000D02*
X86995000Y-72390000D01*
X86995000Y-72390000D02*
X85969700Y-72390000D01*
X71432400Y-77470000D02*
X67945000Y-77470000D01*
X74997800Y-73904600D02*
X71432400Y-77470000D01*
X76260600Y-73904600D02*
X74997800Y-73904600D01*
X78823000Y-71342200D02*
X76260600Y-73904600D01*
X84921900Y-71342200D02*
X78823000Y-71342200D01*
X85969700Y-72390000D02*
X84921900Y-71342200D01*
X63684200Y-93345000D02*
X62230000Y-93345000D01*
X74295000Y-82734200D02*
X63684200Y-93345000D01*
X74295000Y-82338100D02*
X74295000Y-82734200D01*
X75297300Y-81335800D02*
X74295000Y-82338100D01*
X77023900Y-81335800D02*
X75297300Y-81335800D01*
X78349700Y-80010000D02*
X77023900Y-81335800D01*
X79375000Y-80010000D02*
X78349700Y-80010000D01*
X81432200Y-81041900D02*
X80400300Y-80010000D01*
X96367800Y-81041900D02*
X81432200Y-81041900D01*
X97399700Y-80010000D02*
X96367800Y-81041900D01*
X98425000Y-80010000D02*
X97399700Y-80010000D01*
X79375000Y-80010000D02*
X80400300Y-80010000D01*
X90805000Y-69850000D02*
X86995000Y-69850000D01*
X84777900Y-71041800D02*
X85969700Y-69850000D01*
X78410800Y-71041800D02*
X84777900Y-71041800D01*
X75848400Y-73604200D02*
X78410800Y-71041800D01*
X73631000Y-73604200D02*
X75848400Y-73604200D01*
X71035200Y-76200000D02*
X73631000Y-73604200D01*
X67731800Y-76200000D02*
X71035200Y-76200000D01*
X66902200Y-77029600D02*
X67731800Y-76200000D01*
X66902200Y-77941900D02*
X66902200Y-77029600D01*
X67945000Y-78984700D02*
X66902200Y-77941900D01*
X67945000Y-80010000D02*
X67945000Y-78984700D01*
X86995000Y-69850000D02*
X85969700Y-69850000D01*
X62230000Y-95885000D02*
X62230000Y-94796100D01*
X79375000Y-82550000D02*
X78349700Y-82550000D01*
X63153800Y-94796100D02*
X62230000Y-94796100D01*
X73998000Y-83951900D02*
X63153800Y-94796100D01*
X76947800Y-83951900D02*
X73998000Y-83951900D01*
X78349700Y-82550000D02*
X76947800Y-83951900D01*
X81432200Y-83581900D02*
X80400300Y-82550000D01*
X96367800Y-83581900D02*
X81432200Y-83581900D01*
X97399700Y-82550000D02*
X96367800Y-83581900D01*
X98425000Y-82550000D02*
X97399700Y-82550000D01*
X79375000Y-82550000D02*
X80400300Y-82550000D01*
X90805000Y-67310000D02*
X86995000Y-67310000D01*
X86995000Y-67310000D02*
X85969700Y-67310000D01*
X74710600Y-68449200D02*
X71830500Y-71329300D01*
X75919700Y-68449200D02*
X74710600Y-68449200D01*
X78091100Y-66277800D02*
X75919700Y-68449200D01*
X84937500Y-66277800D02*
X78091100Y-66277800D01*
X85969700Y-67310000D02*
X84937500Y-66277800D01*
X79375000Y-85090000D02*
X78349700Y-85090000D01*
X62230000Y-98425000D02*
X62230000Y-97336100D01*
X62342800Y-97336100D02*
X62230000Y-97336100D01*
X63681000Y-95997900D02*
X62342800Y-97336100D01*
X63681000Y-94693600D02*
X63681000Y-95997900D01*
X72465500Y-85909100D02*
X63681000Y-94693600D01*
X72997000Y-85909100D02*
X72465500Y-85909100D01*
X73203300Y-86115400D02*
X72997000Y-85909100D01*
X77324300Y-86115400D02*
X73203300Y-86115400D01*
X78349700Y-85090000D02*
X77324300Y-86115400D01*
X81425700Y-86115400D02*
X80400300Y-85090000D01*
X96374300Y-86115400D02*
X81425700Y-86115400D01*
X97399700Y-85090000D02*
X96374300Y-86115400D01*
X98425000Y-85090000D02*
X97399700Y-85090000D01*
X79375000Y-85090000D02*
X80400300Y-85090000D01*
X59690000Y-118745000D02*
X60778900Y-118745000D01*
X163830000Y-120650000D02*
X162741100Y-120650000D01*
X139245200Y-104775000D02*
X139065000Y-104775000D01*
X149225000Y-114754800D02*
X139245200Y-104775000D01*
X149225000Y-115131600D02*
X149225000Y-114754800D01*
X153473400Y-119380000D02*
X149225000Y-115131600D01*
X161583900Y-119380000D02*
X153473400Y-119380000D01*
X162741100Y-120537200D02*
X161583900Y-119380000D01*
X162741100Y-120650000D02*
X162741100Y-120537200D01*
X85270200Y-116205000D02*
X96520000Y-116205000D01*
X81641200Y-119834000D02*
X85270200Y-116205000D01*
X61731800Y-119834000D02*
X81641200Y-119834000D01*
X60778900Y-118881100D02*
X61731800Y-119834000D01*
X60778900Y-118745000D02*
X60778900Y-118881100D01*
X96520000Y-116205000D02*
X97545300Y-116205000D01*
X100509900Y-113240400D02*
X97545300Y-116205000D01*
X104305100Y-113240400D02*
X100509900Y-113240400D01*
X104605500Y-112940000D02*
X104305100Y-113240400D01*
X113364700Y-112940000D02*
X104605500Y-112940000D01*
X117084700Y-109220000D02*
X113364700Y-112940000D01*
X118110000Y-109220000D02*
X117084700Y-109220000D01*
X120830200Y-109220000D02*
X118110000Y-109220000D01*
X126365000Y-114754800D02*
X120830200Y-109220000D01*
X126365000Y-115149300D02*
X126365000Y-114754800D01*
X127566400Y-116350700D02*
X126365000Y-115149300D01*
X132814000Y-116350700D02*
X127566400Y-116350700D01*
X134229700Y-114935000D02*
X132814000Y-116350700D01*
X135255000Y-114935000D02*
X134229700Y-114935000D01*
X132202400Y-114935000D02*
X131689700Y-114935000D01*
X126364900Y-113909600D02*
X119135300Y-106680000D01*
X128124400Y-113909600D02*
X126364900Y-113909600D01*
X128798700Y-114583900D02*
X128124400Y-113909600D01*
X128798700Y-115060300D02*
X128798700Y-114583900D01*
X129747200Y-116008800D02*
X128798700Y-115060300D01*
X130615900Y-116008800D02*
X129747200Y-116008800D01*
X131689700Y-114935000D02*
X130615900Y-116008800D01*
X118622700Y-106680000D02*
X119135300Y-106680000D01*
X96520000Y-113665000D02*
X97545300Y-113665000D01*
X118622700Y-106680000D02*
X118110000Y-106680000D01*
X98270300Y-112940000D02*
X97545300Y-113665000D01*
X103810700Y-112940000D02*
X98270300Y-112940000D01*
X106079400Y-110671300D02*
X103810700Y-112940000D01*
X113093400Y-110671300D02*
X106079400Y-110671300D01*
X117084700Y-106680000D02*
X113093400Y-110671300D01*
X118110000Y-106680000D02*
X117084700Y-106680000D01*
X163830000Y-123190000D02*
X162741100Y-123190000D01*
X132202400Y-114935000D02*
X132715000Y-114935000D01*
X162741100Y-123077200D02*
X162741100Y-123190000D01*
X161583900Y-121920000D02*
X162741100Y-123077200D01*
X150898400Y-121920000D02*
X161583900Y-121920000D01*
X144065600Y-115087200D02*
X150898400Y-121920000D01*
X144065600Y-114610900D02*
X144065600Y-115087200D01*
X143347900Y-113893200D02*
X144065600Y-114610900D01*
X134782100Y-113893200D02*
X143347900Y-113893200D01*
X133740300Y-114935000D02*
X134782100Y-113893200D01*
X132715000Y-114935000D02*
X133740300Y-114935000D01*
X162741100Y-117997200D02*
X162741100Y-118110000D01*
X161583900Y-116840000D02*
X162741100Y-117997200D01*
X159536300Y-116840000D02*
X161583900Y-116840000D01*
X155769200Y-113072900D02*
X159536300Y-116840000D01*
X149902900Y-113072900D02*
X155769200Y-113072900D01*
X141605000Y-104775000D02*
X149902900Y-113072900D01*
X163830000Y-118110000D02*
X162741100Y-118110000D01*
X137795000Y-114935000D02*
X136769700Y-114935000D01*
X64350700Y-122316800D02*
X63318900Y-121285000D01*
X82693800Y-122316800D02*
X64350700Y-122316800D01*
X86265600Y-118745000D02*
X82693800Y-122316800D01*
X96520000Y-118745000D02*
X86265600Y-118745000D01*
X62230000Y-121285000D02*
X63318900Y-121285000D01*
X120849700Y-111760000D02*
X118110000Y-111760000D01*
X123680400Y-114590700D02*
X120849700Y-111760000D01*
X123680400Y-115004000D02*
X123680400Y-114590700D01*
X125327500Y-116651100D02*
X123680400Y-115004000D01*
X135053600Y-116651100D02*
X125327500Y-116651100D01*
X136769700Y-114935000D02*
X135053600Y-116651100D01*
X98333000Y-118745000D02*
X96520000Y-118745000D01*
X101508000Y-115570000D02*
X98333000Y-118745000D01*
X113527000Y-115570000D02*
X101508000Y-115570000D01*
X117084700Y-112012300D02*
X113527000Y-115570000D01*
X117084700Y-111760000D02*
X117084700Y-112012300D01*
X118110000Y-111760000D02*
X117084700Y-111760000D01*
X63318900Y-124913900D02*
X63318900Y-123825000D01*
X68580000Y-130175000D02*
X63318900Y-124913900D01*
X62230000Y-123825000D02*
X63318900Y-123825000D01*
X143510000Y-79375000D02*
X142484700Y-79375000D01*
X140251100Y-81608600D02*
X135080200Y-81608600D01*
X142484700Y-79375000D02*
X140251100Y-81608600D01*
X153116100Y-92710000D02*
X161290000Y-92710000D01*
X149809000Y-96017100D02*
X153116100Y-92710000D01*
X145523800Y-96017100D02*
X149809000Y-96017100D01*
X144385900Y-97155000D02*
X145523800Y-96017100D01*
X133985000Y-97155000D02*
X144385900Y-97155000D01*
X155575000Y-114935000D02*
X154549700Y-114935000D01*
X125730000Y-102870000D02*
X126755300Y-102870000D01*
X127220700Y-103335400D02*
X126755300Y-102870000D01*
X132107400Y-103335400D02*
X127220700Y-103335400D01*
X132341900Y-103100900D02*
X132107400Y-103335400D01*
X132735800Y-103100900D02*
X132341900Y-103100900D01*
X132970300Y-103335400D02*
X132735800Y-103100900D01*
X139188800Y-103335400D02*
X132970300Y-103335400D01*
X140335000Y-104481600D02*
X139188800Y-103335400D01*
X140335000Y-105085700D02*
X140335000Y-104481600D01*
X148858700Y-113609400D02*
X140335000Y-105085700D01*
X153224100Y-113609400D02*
X148858700Y-113609400D01*
X154549700Y-114935000D02*
X153224100Y-113609400D01*
X129930300Y-104775000D02*
X126755300Y-107950000D01*
X133985000Y-104775000D02*
X129930300Y-104775000D01*
X125730000Y-107950000D02*
X126755300Y-107950000D01*
X156472200Y-95250000D02*
X161290000Y-95250000D01*
X153444200Y-98278000D02*
X156472200Y-95250000D01*
X148526900Y-98278000D02*
X153444200Y-98278000D01*
X148226300Y-98578600D02*
X148526900Y-98278000D01*
X138622100Y-98578600D02*
X148226300Y-98578600D01*
X136888600Y-100312100D02*
X138622100Y-98578600D01*
X163830000Y-110490000D02*
X162741100Y-110490000D01*
X162741100Y-110377200D02*
X162741100Y-110490000D01*
X161754200Y-109390300D02*
X162741100Y-110377200D01*
X149737100Y-109390300D02*
X161754200Y-109390300D01*
X145415000Y-105068200D02*
X149737100Y-109390300D01*
X145415000Y-103505000D02*
X145415000Y-105068200D01*
X144145000Y-102235000D02*
X145415000Y-103505000D01*
X118110000Y-119380000D02*
X118622700Y-119380000D01*
X118622700Y-119380000D02*
X119135300Y-119380000D01*
X98384500Y-125525800D02*
X97545300Y-126365000D01*
X103808900Y-125525800D02*
X98384500Y-125525800D01*
X105814900Y-123519800D02*
X103808900Y-125525800D01*
X114482900Y-123519800D02*
X105814900Y-123519800D01*
X118622700Y-119380000D02*
X114482900Y-123519800D01*
X96520000Y-126365000D02*
X97545300Y-126365000D01*
X120914700Y-117600600D02*
X119135300Y-119380000D01*
X139232100Y-117600600D02*
X120914700Y-117600600D01*
X139290600Y-117659100D02*
X139232100Y-117600600D01*
X96520000Y-123825000D02*
X97545300Y-123825000D01*
X118110000Y-116840000D02*
X117084700Y-116840000D01*
X163830000Y-113030000D02*
X162741100Y-113030000D01*
X142875000Y-114935000D02*
X141849700Y-114935000D01*
X118110000Y-116840000D02*
X119135300Y-116840000D01*
X151005500Y-111635500D02*
X144145000Y-104775000D01*
X161459400Y-111635500D02*
X151005500Y-111635500D01*
X162741100Y-112917200D02*
X161459400Y-111635500D01*
X162741100Y-113030000D02*
X162741100Y-112917200D01*
X119547100Y-117251800D02*
X119135300Y-116840000D01*
X139025700Y-117251800D02*
X119547100Y-117251800D01*
X139093700Y-117183800D02*
X139025700Y-117251800D01*
X139600900Y-117183800D02*
X139093700Y-117183800D01*
X141849700Y-114935000D02*
X139600900Y-117183800D01*
X98187200Y-123183100D02*
X97545300Y-123825000D01*
X98187200Y-123183000D02*
X98187200Y-123183100D01*
X110741700Y-123183000D02*
X98187200Y-123183000D01*
X117084700Y-116840000D02*
X110741700Y-123183000D01*
X163830000Y-107950000D02*
X162741100Y-107950000D01*
X148465500Y-106555500D02*
X146685000Y-104775000D01*
X161459400Y-106555500D02*
X148465500Y-106555500D01*
X162741100Y-107837200D02*
X161459400Y-106555500D01*
X162741100Y-107950000D02*
X162741100Y-107837200D01*
X96520000Y-128905000D02*
X97545300Y-128905000D01*
X117597400Y-121920000D02*
X117084700Y-121920000D01*
X114645900Y-124358800D02*
X117084700Y-121920000D01*
X106079300Y-124358800D02*
X114645900Y-124358800D01*
X104611800Y-125826300D02*
X106079300Y-124358800D01*
X100624000Y-125826300D02*
X104611800Y-125826300D01*
X97545300Y-128905000D02*
X100624000Y-125826300D01*
X117597400Y-121920000D02*
X118110000Y-121920000D01*
X122979400Y-118075900D02*
X137594100Y-118075900D01*
X119135300Y-121920000D02*
X122979400Y-118075900D01*
X118110000Y-121920000D02*
X119135300Y-121920000D01*
X81280000Y-128905000D02*
X82305300Y-128905000D01*
X117879600Y-115572400D02*
X119662900Y-115572400D01*
X111532000Y-121920000D02*
X117879600Y-115572400D01*
X102870000Y-121920000D02*
X111532000Y-121920000D01*
X88599600Y-122610700D02*
X82305300Y-128905000D01*
X101154000Y-122610700D02*
X88599600Y-122610700D01*
X101844700Y-121920000D02*
X101154000Y-122610700D01*
X102870000Y-121920000D02*
X101844700Y-121920000D01*
X162741100Y-102757200D02*
X162741100Y-102870000D01*
X161477600Y-101493700D02*
X162741100Y-102757200D01*
X150400100Y-101493700D02*
X161477600Y-101493700D01*
X150028300Y-101121900D02*
X150400100Y-101493700D01*
X147798100Y-101121900D02*
X150028300Y-101121900D01*
X146685000Y-102235000D02*
X147798100Y-101121900D01*
X163830000Y-102870000D02*
X162741100Y-102870000D01*
X135293700Y-97769500D02*
X142320100Y-97769500D01*
X134785000Y-98278200D02*
X135293700Y-97769500D01*
X130491900Y-98278200D02*
X134785000Y-98278200D01*
X128733700Y-96520000D02*
X130491900Y-98278200D01*
X123557700Y-96520000D02*
X128733700Y-96520000D01*
X121623000Y-94585300D02*
X123557700Y-96520000D01*
X88865300Y-112185000D02*
X82305300Y-118745000D01*
X101419700Y-112185000D02*
X88865300Y-112185000D01*
X101844700Y-111760000D02*
X101419700Y-112185000D01*
X102870000Y-111760000D02*
X101844700Y-111760000D01*
X81280000Y-118745000D02*
X82305300Y-118745000D01*
X163830000Y-97790000D02*
X162741100Y-97790000D01*
X162741100Y-97677200D02*
X162741100Y-97790000D01*
X161742600Y-96678700D02*
X162741100Y-97677200D01*
X159393900Y-96678700D02*
X161742600Y-96678700D01*
X157494200Y-98578400D02*
X159393900Y-96678700D01*
X148651400Y-98578400D02*
X157494200Y-98578400D01*
X147534800Y-99695000D02*
X148651400Y-98578400D01*
X146685000Y-99695000D02*
X147534800Y-99695000D01*
X115369100Y-98008600D02*
X114806700Y-98571000D01*
X118835000Y-98008600D02*
X115369100Y-98008600D01*
X119986900Y-99160500D02*
X118835000Y-98008600D01*
X128819600Y-99160500D02*
X119986900Y-99160500D01*
X130454500Y-100795400D02*
X128819600Y-99160500D01*
X145584600Y-100795400D02*
X130454500Y-100795400D01*
X146685000Y-99695000D02*
X145584600Y-100795400D01*
X108134400Y-105243300D02*
X114806700Y-98571000D01*
X104304300Y-105243300D02*
X108134400Y-105243300D01*
X147814500Y-93485500D02*
X146685000Y-94615000D01*
X150861300Y-93485500D02*
X147814500Y-93485500D01*
X152767500Y-91579300D02*
X150861300Y-93485500D01*
X161746500Y-91579300D02*
X152767500Y-91579300D01*
X162741100Y-92573900D02*
X161746500Y-91579300D01*
X162741100Y-92710000D02*
X162741100Y-92573900D01*
X163830000Y-92710000D02*
X162741100Y-92710000D01*
X110099700Y-133985000D02*
X96520000Y-133985000D01*
X117084700Y-127000000D02*
X110099700Y-133985000D01*
X118110000Y-127000000D02*
X117084700Y-127000000D01*
X117904600Y-94110000D02*
X113542800Y-98471800D01*
X129152800Y-94110000D02*
X117904600Y-94110000D01*
X129748200Y-93514600D02*
X129152800Y-94110000D01*
X145584600Y-93514600D02*
X129748200Y-93514600D01*
X146685000Y-94615000D02*
X145584600Y-93514600D01*
X99059900Y-135010400D02*
X97545300Y-136525000D01*
X111614300Y-135010400D02*
X99059900Y-135010400D01*
X117084700Y-129540000D02*
X111614300Y-135010400D01*
X118110000Y-129540000D02*
X117084700Y-129540000D01*
X96520000Y-136525000D02*
X97545300Y-136525000D01*
X163830000Y-87630000D02*
X162741100Y-87630000D01*
X152337700Y-90674600D02*
X147955000Y-90674600D01*
X154293400Y-88718900D02*
X152337700Y-90674600D01*
X161788400Y-88718900D02*
X154293400Y-88718900D01*
X162741100Y-87766200D02*
X161788400Y-88718900D01*
X162741100Y-87630000D02*
X162741100Y-87766200D01*
X147955000Y-90805000D02*
X147955000Y-90674600D01*
X146685000Y-92075000D02*
X147955000Y-90805000D01*
X147955000Y-86245300D02*
X147955000Y-90674600D01*
X145829600Y-84119900D02*
X147955000Y-86245300D01*
X134408500Y-84119900D02*
X145829600Y-84119900D01*
X133606100Y-84922300D02*
X134408500Y-84119900D01*
X123435400Y-84922300D02*
X133606100Y-84922300D01*
X122035300Y-86322400D02*
X123435400Y-84922300D01*
X121610100Y-86322400D02*
X122035300Y-86322400D01*
X118767500Y-89165000D02*
X121610100Y-86322400D01*
X101870900Y-89165000D02*
X118767500Y-89165000D01*
X132715000Y-130175000D02*
X133740300Y-130175000D01*
X161290000Y-105410000D02*
X162378900Y-105410000D01*
X136473300Y-127442000D02*
X133740300Y-130175000D01*
X161161100Y-127442000D02*
X136473300Y-127442000D01*
X162741100Y-125862000D02*
X161161100Y-127442000D01*
X162741100Y-124773100D02*
X162741100Y-125862000D01*
X162873100Y-124641100D02*
X162741100Y-124773100D01*
X164374600Y-124641100D02*
X162873100Y-124641100D01*
X165270500Y-123745200D02*
X164374600Y-124641100D01*
X165270500Y-107845400D02*
X165270500Y-123745200D01*
X164105100Y-106680000D02*
X165270500Y-107845400D01*
X163536100Y-106680000D02*
X164105100Y-106680000D01*
X162378900Y-105522800D02*
X163536100Y-106680000D01*
X162378900Y-105410000D02*
X162378900Y-105522800D01*
X120650000Y-58420000D02*
X119380000Y-57150000D01*
X128044800Y-58420000D02*
X120650000Y-58420000D01*
X139653400Y-70028600D02*
X128044800Y-58420000D01*
X141025700Y-70028600D02*
X139653400Y-70028600D01*
X101419900Y-107104800D02*
X101844700Y-106680000D01*
X88865500Y-107104800D02*
X101419900Y-107104800D01*
X82305300Y-113665000D02*
X88865500Y-107104800D01*
X81280000Y-113665000D02*
X82305300Y-113665000D01*
X102870000Y-106680000D02*
X101844700Y-106680000D01*
X163830000Y-105410000D02*
X162741100Y-105410000D01*
X151130000Y-104140000D02*
X149225000Y-102235000D01*
X161583900Y-104140000D02*
X151130000Y-104140000D01*
X162741100Y-105297200D02*
X161583900Y-104140000D01*
X162741100Y-105410000D02*
X162741100Y-105297200D01*
X118110000Y-124460000D02*
X117084700Y-124460000D01*
X110099700Y-131445000D02*
X96520000Y-131445000D01*
X117084700Y-124460000D02*
X110099700Y-131445000D01*
X123186200Y-100547200D02*
X115682100Y-100547200D01*
X123994400Y-101355400D02*
X123186200Y-100547200D01*
X128311300Y-101355400D02*
X123994400Y-101355400D01*
X128570900Y-101095800D02*
X128311300Y-101355400D01*
X144603800Y-101095800D02*
X128570900Y-101095800D01*
X145415000Y-101907000D02*
X144603800Y-101095800D01*
X145415000Y-102533600D02*
X145415000Y-101907000D01*
X146265000Y-103383600D02*
X145415000Y-102533600D01*
X148076400Y-103383600D02*
X146265000Y-103383600D01*
X149225000Y-102235000D02*
X148076400Y-103383600D01*
X163718600Y-99218700D02*
X163830000Y-99330100D01*
X149701300Y-99218700D02*
X163718600Y-99218700D01*
X149225000Y-99695000D02*
X149701300Y-99218700D01*
X163830000Y-100330000D02*
X163830000Y-99330100D01*
X81280000Y-126365000D02*
X82305300Y-126365000D01*
X102357400Y-119380000D02*
X101844700Y-119380000D01*
X86360000Y-122310300D02*
X82305300Y-126365000D01*
X98914400Y-122310300D02*
X86360000Y-122310300D01*
X101844700Y-119380000D02*
X98914400Y-122310300D01*
X102357400Y-119380000D02*
X102870000Y-119380000D01*
X112694000Y-119380000D02*
X116956300Y-115117700D01*
X102870000Y-119380000D02*
X112694000Y-119380000D01*
X122703700Y-83671300D02*
X121920000Y-84455000D01*
X133157900Y-83671300D02*
X122703700Y-83671300D01*
X133613100Y-83216100D02*
X133157900Y-83671300D01*
X146624900Y-83216100D02*
X133613100Y-83216100D01*
X147409700Y-84000900D02*
X146624900Y-83216100D01*
X164356800Y-84000900D02*
X147409700Y-84000900D01*
X164934500Y-84578600D02*
X164356800Y-84000900D01*
X164934500Y-98225600D02*
X164934500Y-84578600D01*
X163830000Y-99330100D02*
X164934500Y-98225600D01*
X163830000Y-95250000D02*
X162741100Y-95250000D01*
X83654800Y-123825000D02*
X81280000Y-123825000D01*
X87464800Y-120015000D02*
X83654800Y-123825000D01*
X97695600Y-120015000D02*
X87464800Y-120015000D01*
X100870600Y-116840000D02*
X97695600Y-120015000D01*
X102870000Y-116840000D02*
X100870600Y-116840000D01*
X162741100Y-95137200D02*
X162741100Y-95250000D01*
X161743400Y-94139500D02*
X162741100Y-95137200D01*
X152240500Y-94139500D02*
X161743400Y-94139500D01*
X149225000Y-97155000D02*
X152240500Y-94139500D01*
X113002000Y-99699200D02*
X112323400Y-99699200D01*
X115015800Y-97685400D02*
X113002000Y-99699200D01*
X122746400Y-97685400D02*
X115015800Y-97685400D01*
X123876400Y-98815400D02*
X122746400Y-97685400D01*
X128311300Y-98815400D02*
X123876400Y-98815400D01*
X128548100Y-98578600D02*
X128311300Y-98815400D01*
X136403000Y-98578600D02*
X128548100Y-98578600D01*
X136703400Y-98278200D02*
X136403000Y-98578600D01*
X148101800Y-98278200D02*
X136703400Y-98278200D01*
X149225000Y-97155000D02*
X148101800Y-98278200D01*
X86099900Y-131445000D02*
X81280000Y-131445000D01*
X92659900Y-124885000D02*
X86099900Y-131445000D01*
X101419700Y-124885000D02*
X92659900Y-124885000D01*
X101844700Y-124460000D02*
X101419700Y-124885000D01*
X102870000Y-124460000D02*
X101844700Y-124460000D01*
X162741100Y-90282800D02*
X162741100Y-90170000D01*
X161745000Y-91278900D02*
X162741100Y-90282800D01*
X150021100Y-91278900D02*
X161745000Y-91278900D01*
X149225000Y-92075000D02*
X150021100Y-91278900D01*
X163830000Y-90170000D02*
X162741100Y-90170000D01*
X108690000Y-102708500D02*
X101497000Y-102708500D01*
X111703900Y-99694600D02*
X108690000Y-102708500D01*
X111703900Y-99638600D02*
X111703900Y-99694600D01*
X117532800Y-93809700D02*
X111703900Y-99638600D01*
X128087800Y-93809700D02*
X117532800Y-93809700D01*
X128722000Y-93175500D02*
X128087800Y-93809700D01*
X148124500Y-93175500D02*
X128722000Y-93175500D01*
X149225000Y-92075000D02*
X148124500Y-93175500D01*
X163830000Y-85090000D02*
X162741100Y-85090000D01*
X148556600Y-86360000D02*
X149225000Y-86360000D01*
X146016100Y-83819500D02*
X148556600Y-86360000D01*
X134284200Y-83819500D02*
X146016100Y-83819500D01*
X133656700Y-84447000D02*
X134284200Y-83819500D01*
X123743000Y-84447000D02*
X133656700Y-84447000D01*
X149225000Y-89535000D02*
X149225000Y-86360000D01*
X162741100Y-85202800D02*
X162741100Y-85090000D01*
X161583900Y-86360000D02*
X162741100Y-85202800D01*
X149225000Y-86360000D02*
X161583900Y-86360000D01*
X130175000Y-130175000D02*
X131200300Y-130175000D01*
X161290000Y-107950000D02*
X162378900Y-107950000D01*
X137034500Y-124340800D02*
X131200300Y-130175000D01*
X164226600Y-124340800D02*
X137034500Y-124340800D01*
X164919300Y-123648100D02*
X164226600Y-124340800D01*
X164919300Y-109982700D02*
X164919300Y-123648100D01*
X164026500Y-109089900D02*
X164919300Y-109982700D01*
X163406000Y-109089900D02*
X164026500Y-109089900D01*
X162378900Y-108062800D02*
X163406000Y-109089900D01*
X162378900Y-107950000D02*
X162378900Y-108062800D01*
X81280000Y-111125000D02*
X82305300Y-111125000D01*
X102870000Y-104140000D02*
X101844700Y-104140000D01*
X101419900Y-104564800D02*
X101844700Y-104140000D01*
X88865500Y-104564800D02*
X101419900Y-104564800D01*
X82305300Y-111125000D02*
X88865500Y-104564800D01*
X102870000Y-99060000D02*
X103895300Y-99060000D01*
X81280000Y-106045000D02*
X82305300Y-106045000D01*
X89290300Y-99060000D02*
X102870000Y-99060000D01*
X82305300Y-106045000D02*
X89290300Y-99060000D01*
X104208400Y-99373100D02*
X110928300Y-99373100D01*
X103895300Y-99060000D02*
X104208400Y-99373100D01*
X122091600Y-88365400D02*
X126621700Y-88365400D01*
X111083900Y-99373100D02*
X122091600Y-88365400D01*
X110928300Y-99373100D02*
X111083900Y-99373100D01*
X142975400Y-88365400D02*
X144145000Y-89535000D01*
X126621700Y-88365400D02*
X142975400Y-88365400D01*
X140490300Y-90649700D02*
X141605000Y-89535000D01*
X130359000Y-90649700D02*
X140490300Y-90649700D01*
X129452800Y-89743500D02*
X130359000Y-90649700D01*
X123461000Y-89743500D02*
X129452800Y-89743500D01*
X96520000Y-106045000D02*
X97545300Y-106045000D01*
X116293900Y-99060000D02*
X118110000Y-99060000D01*
X109635300Y-105718600D02*
X116293900Y-99060000D01*
X104107400Y-105718600D02*
X109635300Y-105718600D01*
X104043400Y-105654600D02*
X104107400Y-105718600D01*
X97935700Y-105654600D02*
X104043400Y-105654600D01*
X97545300Y-106045000D02*
X97935700Y-105654600D01*
X110853800Y-110370900D02*
X117084700Y-104140000D01*
X98299400Y-110370900D02*
X110853800Y-110370900D01*
X97545300Y-111125000D02*
X98299400Y-110370900D01*
X96520000Y-111125000D02*
X97545300Y-111125000D01*
X118110000Y-104140000D02*
X117084700Y-104140000D01*
X125249700Y-112305000D02*
X118110000Y-105165300D01*
X127032300Y-112305000D02*
X125249700Y-112305000D01*
X129149700Y-114422400D02*
X127032300Y-112305000D01*
X129149700Y-114935000D02*
X129149700Y-114422400D01*
X130175000Y-114935000D02*
X129149700Y-114935000D01*
X118110000Y-104140000D02*
X118110000Y-105165300D01*
X146529600Y-85492500D02*
X146604600Y-85567500D01*
X135872100Y-85492500D02*
X146529600Y-85492500D01*
X135641700Y-85262100D02*
X135872100Y-85492500D01*
X105579700Y-73194700D02*
X104140000Y-71755000D01*
X105579700Y-74769800D02*
X105579700Y-73194700D01*
X106374900Y-75565000D02*
X105579700Y-74769800D01*
X108630000Y-75565000D02*
X106374900Y-75565000D01*
X111301100Y-78236100D02*
X108630000Y-75565000D01*
X131433600Y-78236100D02*
X111301100Y-78236100D01*
X133012600Y-79815100D02*
X131433600Y-78236100D01*
X102870000Y-101600000D02*
X103895300Y-101600000D01*
X89290300Y-101600000D02*
X102870000Y-101600000D01*
X82305300Y-108585000D02*
X89290300Y-101600000D01*
X81280000Y-108585000D02*
X82305300Y-108585000D01*
X120268000Y-90649700D02*
X124595000Y-90649700D01*
X111403600Y-99514100D02*
X120268000Y-90649700D01*
X111403600Y-99570100D02*
X111403600Y-99514100D01*
X109373700Y-101600000D02*
X111403600Y-99570100D01*
X103895300Y-101600000D02*
X109373700Y-101600000D01*
X145251800Y-88101800D02*
X144145000Y-86995000D01*
X145251800Y-90026200D02*
X145251800Y-88101800D01*
X144328000Y-90950000D02*
X145251800Y-90026200D01*
X124895300Y-90950000D02*
X144328000Y-90950000D01*
X124595000Y-90649700D02*
X124895300Y-90950000D01*
X134019200Y-119736100D02*
X123580300Y-130175000D01*
X142595600Y-119736100D02*
X134019200Y-119736100D01*
X122555000Y-130175000D02*
X123580300Y-130175000D01*
X124702400Y-85863900D02*
X124294700Y-86271600D01*
X140473900Y-85863900D02*
X124702400Y-85863900D01*
X141605000Y-86995000D02*
X140473900Y-85863900D01*
X124294700Y-86369000D02*
X124294700Y-86271600D01*
X122868900Y-87794800D02*
X124294700Y-86369000D01*
X122172000Y-87794800D02*
X122868900Y-87794800D01*
X113446800Y-96520000D02*
X122172000Y-87794800D01*
X102870000Y-96520000D02*
X113446800Y-96520000D01*
X101419900Y-96944800D02*
X101844700Y-96520000D01*
X88865500Y-96944800D02*
X101419900Y-96944800D01*
X82305300Y-103505000D02*
X88865500Y-96944800D01*
X81280000Y-103505000D02*
X82305300Y-103505000D01*
X102870000Y-96520000D02*
X101844700Y-96520000D01*
X118110000Y-101600000D02*
X119135300Y-101600000D01*
X152216000Y-120650000D02*
X161290000Y-120650000D01*
X146685000Y-115119000D02*
X152216000Y-120650000D01*
X146685000Y-114037000D02*
X146685000Y-115119000D01*
X141822800Y-109174800D02*
X146685000Y-114037000D01*
X139368600Y-109174800D02*
X141822800Y-109174800D01*
X135148700Y-104954900D02*
X139368600Y-109174800D01*
X135148700Y-104351100D02*
X135148700Y-104954900D01*
X134433400Y-103635800D02*
X135148700Y-104351100D01*
X132598400Y-103635800D02*
X134433400Y-103635800D01*
X132538800Y-103576200D02*
X132598400Y-103635800D01*
X131022900Y-65577600D02*
X137237600Y-71792300D01*
X127807600Y-65577600D02*
X131022900Y-65577600D01*
X121920000Y-59690000D02*
X127807600Y-65577600D01*
X132196500Y-103918500D02*
X132538800Y-103576200D01*
X121453800Y-103918500D02*
X132196500Y-103918500D01*
X119135300Y-101600000D02*
X121453800Y-103918500D01*
X110939300Y-107745400D02*
X117084700Y-101600000D01*
X98384900Y-107745400D02*
X110939300Y-107745400D01*
X97545300Y-108585000D02*
X98384900Y-107745400D01*
X96520000Y-108585000D02*
X97545300Y-108585000D01*
X118110000Y-101600000D02*
X117084700Y-101600000D01*
X81280000Y-116205000D02*
X81280000Y-115179700D01*
X106751100Y-93994400D02*
X108241500Y-92504000D01*
X103895400Y-93994400D02*
X106751100Y-93994400D01*
X101245400Y-96644400D02*
X103895400Y-93994400D01*
X86686200Y-96644400D02*
X101245400Y-96644400D01*
X80233400Y-103097200D02*
X86686200Y-96644400D01*
X80233400Y-114133100D02*
X80233400Y-103097200D01*
X81280000Y-115179700D02*
X80233400Y-114133100D01*
X114044700Y-75600600D02*
X125370700Y-75600600D01*
X110320400Y-71876300D02*
X114044700Y-75600600D01*
X110320400Y-71292000D02*
X110320400Y-71876300D01*
X109619700Y-70591300D02*
X110320400Y-71292000D01*
X108056300Y-70591300D02*
X109619700Y-70591300D01*
X106680000Y-69215000D02*
X108056300Y-70591300D01*
X132080000Y-71120000D02*
X132080000Y-70094700D01*
X109220000Y-53461700D02*
X109220000Y-46990000D01*
X102291100Y-54896400D02*
X102291100Y-55004200D01*
X103725800Y-53461700D02*
X102291100Y-54896400D01*
X109220000Y-53461700D02*
X103725800Y-53461700D01*
X133153300Y-69021400D02*
X132080000Y-70094700D01*
X133153300Y-68132900D02*
X133153300Y-69021400D01*
X132251000Y-67230600D02*
X133153300Y-68132900D01*
X127334000Y-67230600D02*
X132251000Y-67230600D01*
X121063400Y-60960000D02*
X127334000Y-67230600D01*
X114001300Y-60960000D02*
X121063400Y-60960000D01*
X113030000Y-59988700D02*
X114001300Y-60960000D01*
X113030000Y-57271700D02*
X113030000Y-59988700D01*
X109220000Y-53461700D02*
X113030000Y-57271700D01*
X129717400Y-51857100D02*
X128660300Y-50800000D01*
X135712600Y-51857100D02*
X129717400Y-51857100D01*
X136769700Y-50800000D02*
X135712600Y-51857100D01*
X137795000Y-50800000D02*
X136769700Y-50800000D01*
X127635000Y-50800000D02*
X128660300Y-50800000D01*
X74295000Y-39370000D02*
X75320300Y-39370000D01*
X107889600Y-38039600D02*
X114300000Y-44450000D01*
X76650700Y-38039600D02*
X107889600Y-38039600D01*
X75320300Y-39370000D02*
X76650700Y-38039600D01*
X105568800Y-58261200D02*
X106680000Y-57150000D01*
X100744900Y-58261200D02*
X105568800Y-58261200D01*
X89473700Y-46990000D02*
X100744900Y-58261200D01*
X81915000Y-46990000D02*
X89473700Y-46990000D01*
X74295000Y-41910000D02*
X75320300Y-41910000D01*
X105650000Y-38340000D02*
X111760000Y-44450000D01*
X78890300Y-38340000D02*
X105650000Y-38340000D01*
X75320300Y-41910000D02*
X78890300Y-38340000D01*
X113030000Y-60960000D02*
X114300000Y-62230000D01*
X111404800Y-60960000D02*
X113030000Y-60960000D01*
X110490000Y-60045200D02*
X111404800Y-60960000D01*
X110490000Y-59365000D02*
X110490000Y-60045200D01*
X107005000Y-55880000D02*
X110490000Y-59365000D01*
X99860000Y-55880000D02*
X107005000Y-55880000D01*
X88430000Y-44450000D02*
X99860000Y-55880000D01*
X81915000Y-44450000D02*
X88430000Y-44450000D01*
X115463700Y-45613700D02*
X116840000Y-46990000D01*
X104862300Y-45613700D02*
X115463700Y-45613700D01*
X102183900Y-42935300D02*
X104862300Y-45613700D01*
X83965600Y-42935300D02*
X102183900Y-42935300D01*
X82940300Y-41910000D02*
X83965600Y-42935300D01*
X81915000Y-41910000D02*
X82940300Y-41910000D01*
X117942000Y-56048000D02*
X114300000Y-59690000D01*
X117942000Y-46516800D02*
X117942000Y-56048000D01*
X117314800Y-45889600D02*
X117942000Y-46516800D01*
X116696100Y-45889600D02*
X117314800Y-45889600D01*
X115570000Y-44763500D02*
X116696100Y-45889600D01*
X115570000Y-44085700D02*
X115570000Y-44763500D01*
X108314300Y-36830000D02*
X115570000Y-44085700D01*
X81915000Y-36830000D02*
X108314300Y-36830000D01*
X60778900Y-105932200D02*
X60778900Y-106045000D01*
X61936100Y-104775000D02*
X60778900Y-105932200D01*
X68452400Y-104775000D02*
X61936100Y-104775000D01*
X73060000Y-100167400D02*
X68452400Y-104775000D01*
X73522900Y-100167400D02*
X73060000Y-100167400D01*
X80189900Y-93500400D02*
X73522900Y-100167400D01*
X94641100Y-93500400D02*
X80189900Y-93500400D01*
X97802500Y-90339000D02*
X94641100Y-93500400D01*
X108461200Y-90339000D02*
X97802500Y-90339000D01*
X108526500Y-90404300D02*
X108461200Y-90339000D01*
X59690000Y-106045000D02*
X60778900Y-106045000D01*
X59690000Y-108585000D02*
X60778900Y-108585000D01*
X122575100Y-87329400D02*
X123628200Y-86276300D01*
X122212500Y-87329400D02*
X122575100Y-87329400D01*
X118629200Y-90912700D02*
X122212500Y-87329400D01*
X108186400Y-90912700D02*
X118629200Y-90912700D01*
X107953100Y-90679400D02*
X108186400Y-90912700D01*
X103835100Y-90679400D02*
X107953100Y-90679400D01*
X99157900Y-95356600D02*
X103835100Y-90679400D01*
X83100600Y-95356600D02*
X99157900Y-95356600D01*
X71142200Y-107315000D02*
X83100600Y-95356600D01*
X61936100Y-107315000D02*
X71142200Y-107315000D01*
X60778900Y-108472200D02*
X61936100Y-107315000D01*
X60778900Y-108585000D02*
X60778900Y-108472200D01*
X59690000Y-123825000D02*
X59690000Y-122736100D01*
X99707000Y-95657100D02*
X104209400Y-91154700D01*
X83397800Y-95657100D02*
X99707000Y-95657100D01*
X64300900Y-114754000D02*
X83397800Y-95657100D01*
X59586500Y-114754000D02*
X64300900Y-114754000D01*
X58592000Y-115748500D02*
X59586500Y-114754000D01*
X58592000Y-121750900D02*
X58592000Y-115748500D01*
X59577200Y-122736100D02*
X58592000Y-121750900D01*
X59690000Y-122736100D02*
X59577200Y-122736100D01*
X161290000Y-80010000D02*
X160201100Y-80010000D01*
X132889600Y-82084000D02*
X132874600Y-82069000D01*
X158127100Y-82084000D02*
X132889600Y-82084000D01*
X160201100Y-80010000D02*
X158127100Y-82084000D01*
X132262600Y-80475400D02*
X132489800Y-80248200D01*
X112690700Y-80475400D02*
X132262600Y-80475400D01*
X110320300Y-78105000D02*
X112690700Y-80475400D01*
X105410000Y-78105000D02*
X110320300Y-78105000D01*
X104140000Y-76835000D02*
X105410000Y-78105000D01*
X118110000Y-114300000D02*
X117084700Y-114300000D01*
X96520000Y-121285000D02*
X97545300Y-121285000D01*
X163830000Y-115570000D02*
X162741100Y-115570000D01*
X142768700Y-103398700D02*
X141605000Y-102235000D01*
X142768700Y-104954900D02*
X142768700Y-103398700D01*
X149749800Y-111936000D02*
X142768700Y-104954900D01*
X157338200Y-111936000D02*
X149749800Y-111936000D01*
X159702200Y-114300000D02*
X157338200Y-111936000D01*
X161583900Y-114300000D02*
X159702200Y-114300000D01*
X162741100Y-115457200D02*
X161583900Y-114300000D01*
X162741100Y-115570000D02*
X162741100Y-115457200D01*
X140335000Y-114935000D02*
X139309700Y-114935000D01*
X118110000Y-114300000D02*
X119135300Y-114300000D01*
X137293200Y-116951500D02*
X139309700Y-114935000D01*
X121786800Y-116951500D02*
X137293200Y-116951500D01*
X119135300Y-114300000D02*
X121786800Y-116951500D01*
X100634700Y-118195600D02*
X97545300Y-121285000D01*
X113189100Y-118195600D02*
X100634700Y-118195600D01*
X117084700Y-114300000D02*
X113189100Y-118195600D01*
X81280000Y-121285000D02*
X82305300Y-121285000D01*
X118110000Y-70485000D02*
X119380000Y-71755000D01*
X118110000Y-68880700D02*
X118110000Y-70485000D01*
X114678900Y-65449600D02*
X118110000Y-68880700D01*
X113410700Y-65449600D02*
X114678900Y-65449600D01*
X110533500Y-62572400D02*
X113410700Y-65449600D01*
X110533500Y-61003500D02*
X110533500Y-62572400D01*
X109220000Y-59690000D02*
X110533500Y-61003500D01*
X86325400Y-117264900D02*
X82305300Y-121285000D01*
X98879800Y-117264900D02*
X86325400Y-117264900D01*
X101844700Y-114300000D02*
X98879800Y-117264900D01*
X102357400Y-114300000D02*
X101844700Y-114300000D01*
X102357400Y-114300000D02*
X102870000Y-114300000D01*
X102870000Y-114300000D02*
X103895300Y-114300000D01*
X104892100Y-113303200D02*
X115065100Y-113303200D01*
X103895300Y-114300000D02*
X104892100Y-113303200D01*
X153035000Y-130175000D02*
X154060300Y-130175000D01*
X161290000Y-100330000D02*
X162378900Y-100330000D01*
X162378900Y-100442800D02*
X162378900Y-100330000D01*
X163642400Y-101706300D02*
X162378900Y-100442800D01*
X164229400Y-101706300D02*
X163642400Y-101706300D01*
X165614700Y-103091600D02*
X164229400Y-101706300D01*
X165614700Y-125999300D02*
X165614700Y-103091600D01*
X163699600Y-127914400D02*
X165614700Y-125999300D01*
X156320900Y-127914400D02*
X163699600Y-127914400D01*
X154060300Y-130175000D02*
X156320900Y-127914400D01*
X115570000Y-70485000D02*
X116840000Y-71755000D01*
X115570000Y-68580000D02*
X115570000Y-70485000D01*
X109220000Y-62230000D02*
X115570000Y-68580000D01*
X101990300Y-86604700D02*
X104140000Y-84455000D01*
X89045600Y-86604700D02*
X101990300Y-86604700D01*
X88020300Y-87630000D02*
X89045600Y-86604700D01*
X86995000Y-87630000D02*
X88020300Y-87630000D01*
X83893800Y-86415800D02*
X72650900Y-86415800D01*
X86156300Y-88678300D02*
X83893800Y-86415800D01*
X101260600Y-88678300D02*
X86156300Y-88678300D01*
X101549500Y-88389400D02*
X101260600Y-88678300D01*
X107825600Y-88389400D02*
X101549500Y-88389400D01*
X109220000Y-86995000D02*
X107825600Y-88389400D01*
X79375000Y-64770000D02*
X80400300Y-64770000D01*
X113294700Y-77454500D02*
X115407500Y-77454500D01*
X107950000Y-72109800D02*
X113294700Y-77454500D01*
X107950000Y-71449100D02*
X107950000Y-72109800D01*
X106879600Y-70378700D02*
X107950000Y-71449100D01*
X105857800Y-70378700D02*
X106879600Y-70378700D01*
X99160400Y-63681300D02*
X105857800Y-70378700D01*
X81489000Y-63681300D02*
X99160400Y-63681300D01*
X80400300Y-64770000D02*
X81489000Y-63681300D01*
X115570000Y-85725000D02*
X116840000Y-86995000D01*
X113979600Y-85725000D02*
X115570000Y-85725000D01*
X113199700Y-84945100D02*
X113979600Y-85725000D01*
X113199700Y-84338400D02*
X113199700Y-84945100D01*
X112026800Y-83165500D02*
X113199700Y-84338400D01*
X103825700Y-83165500D02*
X112026800Y-83165500D01*
X101523300Y-80863100D02*
X103825700Y-83165500D01*
X101523300Y-68919600D02*
X101523300Y-80863100D01*
X98399000Y-65795300D02*
X101523300Y-68919600D01*
X92855600Y-65795300D02*
X98399000Y-65795300D01*
X91830300Y-64770000D02*
X92855600Y-65795300D01*
X90805000Y-64770000D02*
X91830300Y-64770000D01*
X75565000Y-87630000D02*
X76590300Y-87630000D01*
X77939000Y-88978700D02*
X76590300Y-87630000D01*
X101385100Y-88978700D02*
X77939000Y-88978700D01*
X101674100Y-88689700D02*
X101385100Y-88978700D01*
X117685300Y-88689700D02*
X101674100Y-88689700D01*
X119380000Y-86995000D02*
X117685300Y-88689700D01*
X118110000Y-85725000D02*
X119380000Y-84455000D01*
X118110000Y-87324900D02*
X118110000Y-85725000D01*
X117320300Y-88114600D02*
X118110000Y-87324900D01*
X111299800Y-88114600D02*
X117320300Y-88114600D01*
X110490100Y-87304900D02*
X111299800Y-88114600D01*
X110490100Y-86689900D02*
X110490100Y-87304900D01*
X109694800Y-85894600D02*
X110490100Y-86689900D01*
X105061700Y-85894600D02*
X109694800Y-85894600D01*
X103326300Y-87630000D02*
X105061700Y-85894600D01*
X98425000Y-87630000D02*
X103326300Y-87630000D01*
D31*
X107950000Y-30353000D02*
X107950000Y-27305000D01*
X123317000Y-25908000D02*
X124841000Y-25908000D01*
X121920000Y-27305000D02*
X123317000Y-25908000D01*
X107950000Y-27305000D02*
X121920000Y-27305000D01*
X149556700Y-25908000D02*
X155652700Y-32004000D01*
X157353000Y-32004000D02*
X155652700Y-32004000D01*
X147341000Y-25908000D02*
X149556700Y-25908000D01*
D30*
X73415300Y-96285000D02*
X73415300Y-97155000D01*
X76200000Y-93500300D02*
X73415300Y-96285000D01*
X76200000Y-92075000D02*
X76200000Y-93500300D01*
X72390000Y-97155000D02*
X73415300Y-97155000D01*
X138674700Y-76590300D02*
X135255000Y-80010000D01*
X138674700Y-76200000D02*
X138674700Y-76590300D01*
X139700000Y-76200000D02*
X138674700Y-76200000D01*
X105538900Y-70613900D02*
X106680000Y-71755000D01*
X103616300Y-70613900D02*
X105538900Y-70613900D01*
X102998600Y-71231600D02*
X103616300Y-70613900D01*
X102998600Y-79803100D02*
X102998600Y-71231600D01*
X103971200Y-80775700D02*
X102998600Y-79803100D01*
X110104300Y-80775700D02*
X103971200Y-80775700D01*
X112644300Y-83315700D02*
X110104300Y-80775700D01*
X119797300Y-83315700D02*
X112644300Y-83315700D01*
X120790100Y-84308500D02*
X119797300Y-83315700D01*
X120790100Y-84894900D02*
X120790100Y-84308500D01*
X121498700Y-85603500D02*
X120790100Y-84894900D01*
X122329300Y-85603500D02*
X121498700Y-85603500D01*
X123026800Y-84906000D02*
X122329300Y-85603500D01*
X123026800Y-84471200D02*
X123026800Y-84906000D01*
X123526300Y-83971700D02*
X123026800Y-84471200D01*
X133282400Y-83971700D02*
X123526300Y-83971700D01*
X133737700Y-83516400D02*
X133282400Y-83971700D01*
X146500400Y-83516400D02*
X133737700Y-83516400D01*
X148074000Y-85090000D02*
X146500400Y-83516400D01*
X161290000Y-85090000D02*
X148074000Y-85090000D01*
X154455000Y-55300000D02*
X147955000Y-55300000D01*
X138322900Y-84786800D02*
X138531400Y-84995300D01*
X134591200Y-84786800D02*
X138322900Y-84786800D01*
X133855100Y-85522900D02*
X134591200Y-84786800D01*
X123697000Y-85522900D02*
X133855100Y-85522900D01*
X122190800Y-87029100D02*
X123697000Y-85522900D01*
X122087900Y-87029100D02*
X122190800Y-87029100D01*
X119188000Y-89929000D02*
X122087900Y-87029100D01*
X108329600Y-89929000D02*
X119188000Y-89929000D01*
X108317900Y-89940700D02*
X108329600Y-89929000D01*
X94844300Y-89940700D02*
X108317900Y-89940700D01*
X92710000Y-92075000D02*
X94844300Y-89940700D01*
X138949700Y-84486300D02*
X139059200Y-84595800D01*
X134466900Y-84486300D02*
X138949700Y-84486300D01*
X133730600Y-85222600D02*
X134466900Y-84486300D01*
X123572400Y-85222600D02*
X133730600Y-85222600D01*
X122066300Y-86728700D02*
X123572400Y-85222600D01*
X121629200Y-86728700D02*
X122066300Y-86728700D01*
X118729200Y-89628700D02*
X121629200Y-86728700D01*
X108205100Y-89628700D02*
X118729200Y-89628700D01*
X108193500Y-89640300D02*
X108205100Y-89628700D01*
X71014700Y-89640300D02*
X108193500Y-89640300D01*
X68580000Y-92075000D02*
X71014700Y-89640300D01*
M02*
