G04 #@! TF.FileFunction,Soldermask,Bot*
%FSLAX46Y46*%
G04 Gerber Fmt 4.6, Leading zero omitted, Abs format (unit mm)*
G04 Created by KiCad (PCBNEW 4.0.7-e2-6376~58~ubuntu16.04.1) date Wed Dec 20 13:06:43 2017*
%MOMM*%
%LPD*%
G01*
G04 APERTURE LIST*
%ADD10C,0.100000*%
%ADD11C,1.600000*%
%ADD12R,1.600000X1.600000*%
%ADD13R,1.800000X1.800000*%
%ADD14C,1.800000*%
%ADD15R,1.900000X1.900000*%
%ADD16C,1.900000*%
%ADD17R,1.727200X1.727200*%
%ADD18O,1.727200X1.727200*%
%ADD19C,6.400000*%
%ADD20C,2.400000*%
%ADD21O,2.400000X2.400000*%
%ADD22O,1.600000X1.600000*%
%ADD23C,2.000000*%
%ADD24R,1.750000X1.750000*%
%ADD25C,1.750000*%
%ADD26C,3.000000*%
%ADD27C,2.700000*%
%ADD28R,1.700000X1.700000*%
%ADD29C,1.778000*%
G04 APERTURE END LIST*
D10*
D11*
X141605000Y-110490000D03*
X136605000Y-110490000D03*
X85090000Y-128905000D03*
X85090000Y-133905000D03*
X106680000Y-120650000D03*
X106680000Y-125650000D03*
X153670000Y-126365000D03*
X148670000Y-126365000D03*
D12*
X68580000Y-47625000D03*
D11*
X71080000Y-47625000D03*
D12*
X86360000Y-49530000D03*
D11*
X86360000Y-52030000D03*
D12*
X69850000Y-43180000D03*
D11*
X69850000Y-40680000D03*
D12*
X69850000Y-52070000D03*
D11*
X69850000Y-54570000D03*
D12*
X86360000Y-57785000D03*
D11*
X86360000Y-55285000D03*
X98425000Y-45720000D03*
X98425000Y-50720000D03*
X106680000Y-92075000D03*
X111680000Y-92075000D03*
X127635000Y-69850000D03*
X127635000Y-74850000D03*
D13*
X72390000Y-129540000D03*
D14*
X74930000Y-129540000D03*
D15*
X157353000Y-32004000D03*
D16*
X157353000Y-34504000D03*
X157353000Y-37004000D03*
X157353000Y-39504000D03*
D11*
X164533000Y-32004000D03*
X164533000Y-39504000D03*
D17*
X59690000Y-33655000D03*
D18*
X62230000Y-33655000D03*
X59690000Y-36195000D03*
X62230000Y-36195000D03*
X59690000Y-38735000D03*
X62230000Y-38735000D03*
X59690000Y-41275000D03*
X62230000Y-41275000D03*
X59690000Y-43815000D03*
X62230000Y-43815000D03*
D17*
X59690000Y-55880000D03*
D18*
X62230000Y-55880000D03*
X59690000Y-58420000D03*
X62230000Y-58420000D03*
X59690000Y-60960000D03*
X62230000Y-60960000D03*
X59690000Y-63500000D03*
X62230000Y-63500000D03*
X59690000Y-66040000D03*
X62230000Y-66040000D03*
D17*
X163830000Y-65405000D03*
D18*
X161290000Y-65405000D03*
X163830000Y-62865000D03*
X161290000Y-62865000D03*
X163830000Y-60325000D03*
X161290000Y-60325000D03*
X163830000Y-57785000D03*
X161290000Y-57785000D03*
X163830000Y-55245000D03*
X161290000Y-55245000D03*
D19*
X58420000Y-24130000D03*
X100330000Y-24130000D03*
X164465000Y-23876000D03*
X164465000Y-136525000D03*
X151765000Y-62230000D03*
X58420000Y-136525000D03*
D17*
X59690000Y-78105000D03*
D18*
X62230000Y-78105000D03*
X59690000Y-80645000D03*
X62230000Y-80645000D03*
X59690000Y-83185000D03*
X62230000Y-83185000D03*
X59690000Y-85725000D03*
X62230000Y-85725000D03*
X59690000Y-88265000D03*
X62230000Y-88265000D03*
X59690000Y-90805000D03*
X62230000Y-90805000D03*
X59690000Y-93345000D03*
X62230000Y-93345000D03*
X59690000Y-95885000D03*
X62230000Y-95885000D03*
X59690000Y-98425000D03*
X62230000Y-98425000D03*
X59690000Y-100965000D03*
X62230000Y-100965000D03*
X59690000Y-103505000D03*
X62230000Y-103505000D03*
X59690000Y-106045000D03*
X62230000Y-106045000D03*
X59690000Y-108585000D03*
X62230000Y-108585000D03*
X59690000Y-111125000D03*
X62230000Y-111125000D03*
X59690000Y-113665000D03*
X62230000Y-113665000D03*
X59690000Y-116205000D03*
X62230000Y-116205000D03*
X59690000Y-118745000D03*
X62230000Y-118745000D03*
X59690000Y-121285000D03*
X62230000Y-121285000D03*
X59690000Y-123825000D03*
X62230000Y-123825000D03*
X59690000Y-126365000D03*
X62230000Y-126365000D03*
D20*
X68580000Y-114300000D03*
D21*
X68580000Y-101600000D03*
D20*
X68580000Y-130175000D03*
D21*
X68580000Y-117475000D03*
D20*
X73660000Y-114300000D03*
D21*
X73660000Y-101600000D03*
D12*
X143510000Y-61595000D03*
D22*
X143510000Y-64135000D03*
X143510000Y-66675000D03*
X143510000Y-69215000D03*
X143510000Y-71755000D03*
X143510000Y-74295000D03*
X143510000Y-76835000D03*
X143510000Y-79375000D03*
D12*
X125730000Y-92710000D03*
D22*
X125730000Y-95250000D03*
X125730000Y-97790000D03*
X125730000Y-100330000D03*
X125730000Y-102870000D03*
X125730000Y-105410000D03*
X125730000Y-107950000D03*
X125730000Y-110490000D03*
D23*
X147955000Y-55300000D03*
X147955000Y-50800000D03*
X154455000Y-55300000D03*
X154455000Y-50800000D03*
D24*
X133985000Y-94615000D03*
D25*
X133985000Y-97155000D03*
X133985000Y-99695000D03*
X133985000Y-92075000D03*
X133985000Y-89535000D03*
X133985000Y-86995000D03*
X131445000Y-97155000D03*
X131445000Y-99695000D03*
X131445000Y-102235000D03*
X131445000Y-94615000D03*
X131445000Y-92075000D03*
X131445000Y-89535000D03*
X133985000Y-102235000D03*
X136525000Y-102235000D03*
X139065000Y-102235000D03*
X141605000Y-102235000D03*
X144145000Y-102235000D03*
X133985000Y-104775000D03*
X136525000Y-104775000D03*
X139065000Y-104775000D03*
X141605000Y-104775000D03*
X144145000Y-104775000D03*
X146685000Y-104775000D03*
X146685000Y-102235000D03*
X146685000Y-99695000D03*
X146685000Y-97155000D03*
X146685000Y-94615000D03*
X146685000Y-92075000D03*
X146685000Y-89535000D03*
X149225000Y-102235000D03*
X149225000Y-99695000D03*
X149225000Y-97155000D03*
X149225000Y-94615000D03*
X149225000Y-92075000D03*
X149225000Y-89535000D03*
X144145000Y-89535000D03*
X141605000Y-89535000D03*
X139065000Y-89535000D03*
X136525000Y-89535000D03*
X131445000Y-89535000D03*
X146685000Y-86995000D03*
X144145000Y-86995000D03*
X141605000Y-86995000D03*
X139065000Y-86995000D03*
X136525000Y-86995000D03*
X133985000Y-86995000D03*
D12*
X96520000Y-136525000D03*
D22*
X81280000Y-103505000D03*
X96520000Y-133985000D03*
X81280000Y-106045000D03*
X96520000Y-131445000D03*
X81280000Y-108585000D03*
X96520000Y-128905000D03*
X81280000Y-111125000D03*
X96520000Y-126365000D03*
X81280000Y-113665000D03*
X96520000Y-123825000D03*
X81280000Y-116205000D03*
X96520000Y-121285000D03*
X81280000Y-118745000D03*
X96520000Y-118745000D03*
X81280000Y-121285000D03*
X96520000Y-116205000D03*
X81280000Y-123825000D03*
X96520000Y-113665000D03*
X81280000Y-126365000D03*
X96520000Y-111125000D03*
X81280000Y-128905000D03*
X96520000Y-108585000D03*
X81280000Y-131445000D03*
X96520000Y-106045000D03*
X81280000Y-133985000D03*
X96520000Y-103505000D03*
X81280000Y-136525000D03*
D12*
X118110000Y-129540000D03*
D22*
X102870000Y-96520000D03*
X118110000Y-127000000D03*
X102870000Y-99060000D03*
X118110000Y-124460000D03*
X102870000Y-101600000D03*
X118110000Y-121920000D03*
X102870000Y-104140000D03*
X118110000Y-119380000D03*
X102870000Y-106680000D03*
X118110000Y-116840000D03*
X102870000Y-109220000D03*
X118110000Y-114300000D03*
X102870000Y-111760000D03*
X118110000Y-111760000D03*
X102870000Y-114300000D03*
X118110000Y-109220000D03*
X102870000Y-116840000D03*
X118110000Y-106680000D03*
X102870000Y-119380000D03*
X118110000Y-104140000D03*
X102870000Y-121920000D03*
X118110000Y-101600000D03*
X102870000Y-124460000D03*
X118110000Y-99060000D03*
X102870000Y-127000000D03*
X118110000Y-96520000D03*
X102870000Y-129540000D03*
D12*
X155575000Y-114935000D03*
D22*
X122555000Y-130175000D03*
X153035000Y-114935000D03*
X125095000Y-130175000D03*
X150495000Y-114935000D03*
X127635000Y-130175000D03*
X147955000Y-114935000D03*
X130175000Y-130175000D03*
X145415000Y-114935000D03*
X132715000Y-130175000D03*
X142875000Y-114935000D03*
X135255000Y-130175000D03*
X140335000Y-114935000D03*
X137795000Y-130175000D03*
X137795000Y-114935000D03*
X140335000Y-130175000D03*
X135255000Y-114935000D03*
X142875000Y-130175000D03*
X132715000Y-114935000D03*
X145415000Y-130175000D03*
X130175000Y-114935000D03*
X147955000Y-130175000D03*
X127635000Y-114935000D03*
X150495000Y-130175000D03*
X125095000Y-114935000D03*
X153035000Y-130175000D03*
X122555000Y-114935000D03*
X155575000Y-130175000D03*
D24*
X114300000Y-71755000D03*
D25*
X111760000Y-71755000D03*
X109220000Y-71755000D03*
X116840000Y-71755000D03*
X119380000Y-71755000D03*
X121920000Y-71755000D03*
X111760000Y-69215000D03*
X109220000Y-69215000D03*
X106680000Y-69215000D03*
X114300000Y-69215000D03*
X116840000Y-69215000D03*
X119380000Y-69215000D03*
X106680000Y-71755000D03*
X106680000Y-74295000D03*
X106680000Y-76835000D03*
X106680000Y-79375000D03*
X106680000Y-81915000D03*
X104140000Y-71755000D03*
X104140000Y-74295000D03*
X104140000Y-76835000D03*
X104140000Y-79375000D03*
X104140000Y-81915000D03*
X104140000Y-84455000D03*
X106680000Y-84455000D03*
X109220000Y-84455000D03*
X111760000Y-84455000D03*
X114300000Y-84455000D03*
X116840000Y-84455000D03*
X119380000Y-84455000D03*
X106680000Y-86995000D03*
X109220000Y-86995000D03*
X111760000Y-86995000D03*
X114300000Y-86995000D03*
X116840000Y-86995000D03*
X119380000Y-86995000D03*
X119380000Y-81915000D03*
X119380000Y-79375000D03*
X119380000Y-76835000D03*
X119380000Y-74295000D03*
X119380000Y-69215000D03*
X121920000Y-84455000D03*
X121920000Y-81915000D03*
X121920000Y-79375000D03*
X121920000Y-76835000D03*
X121920000Y-74295000D03*
X121920000Y-71755000D03*
D12*
X142875000Y-43180000D03*
D22*
X127635000Y-50800000D03*
X140335000Y-43180000D03*
X130175000Y-50800000D03*
X137795000Y-43180000D03*
X132715000Y-50800000D03*
X135255000Y-43180000D03*
X135255000Y-50800000D03*
X132715000Y-43180000D03*
X137795000Y-50800000D03*
X130175000Y-43180000D03*
X140335000Y-50800000D03*
X127635000Y-43180000D03*
X142875000Y-50800000D03*
D12*
X79375000Y-64770000D03*
D22*
X86995000Y-87630000D03*
X79375000Y-67310000D03*
X86995000Y-85090000D03*
X79375000Y-69850000D03*
X86995000Y-82550000D03*
X79375000Y-72390000D03*
X86995000Y-80010000D03*
X79375000Y-74930000D03*
X86995000Y-77470000D03*
X79375000Y-77470000D03*
X86995000Y-74930000D03*
X79375000Y-80010000D03*
X86995000Y-72390000D03*
X79375000Y-82550000D03*
X86995000Y-69850000D03*
X79375000Y-85090000D03*
X86995000Y-67310000D03*
X79375000Y-87630000D03*
X86995000Y-64770000D03*
D12*
X90805000Y-64770000D03*
D22*
X98425000Y-87630000D03*
X90805000Y-67310000D03*
X98425000Y-85090000D03*
X90805000Y-69850000D03*
X98425000Y-82550000D03*
X90805000Y-72390000D03*
X98425000Y-80010000D03*
X90805000Y-74930000D03*
X98425000Y-77470000D03*
X90805000Y-77470000D03*
X98425000Y-74930000D03*
X90805000Y-80010000D03*
X98425000Y-72390000D03*
X90805000Y-82550000D03*
X98425000Y-69850000D03*
X90805000Y-85090000D03*
X98425000Y-67310000D03*
X90805000Y-87630000D03*
X98425000Y-64770000D03*
D12*
X75565000Y-87630000D03*
D22*
X67945000Y-64770000D03*
X75565000Y-85090000D03*
X67945000Y-67310000D03*
X75565000Y-82550000D03*
X67945000Y-69850000D03*
X75565000Y-80010000D03*
X67945000Y-72390000D03*
X75565000Y-77470000D03*
X67945000Y-74930000D03*
X75565000Y-74930000D03*
X67945000Y-77470000D03*
X75565000Y-72390000D03*
X67945000Y-80010000D03*
X75565000Y-69850000D03*
X67945000Y-82550000D03*
X75565000Y-67310000D03*
X67945000Y-85090000D03*
X75565000Y-64770000D03*
X67945000Y-87630000D03*
D12*
X74295000Y-29210000D03*
D22*
X81915000Y-57150000D03*
X74295000Y-31750000D03*
X81915000Y-54610000D03*
X74295000Y-34290000D03*
X81915000Y-52070000D03*
X74295000Y-36830000D03*
X81915000Y-49530000D03*
X74295000Y-39370000D03*
X81915000Y-46990000D03*
X74295000Y-41910000D03*
X81915000Y-44450000D03*
X74295000Y-44450000D03*
X81915000Y-41910000D03*
X74295000Y-46990000D03*
X81915000Y-39370000D03*
X74295000Y-49530000D03*
X81915000Y-36830000D03*
X74295000Y-52070000D03*
X81915000Y-34290000D03*
X74295000Y-54610000D03*
X81915000Y-31750000D03*
X74295000Y-57150000D03*
X81915000Y-29210000D03*
D24*
X106680000Y-52070000D03*
D25*
X106680000Y-54610000D03*
X106680000Y-57150000D03*
X106680000Y-49530000D03*
X106680000Y-46990000D03*
X106680000Y-44450000D03*
X104140000Y-54610000D03*
X104140000Y-57150000D03*
X104140000Y-59690000D03*
X104140000Y-52070000D03*
X104140000Y-49530000D03*
X104140000Y-46990000D03*
X106680000Y-59690000D03*
X109220000Y-59690000D03*
X111760000Y-59690000D03*
X114300000Y-59690000D03*
X116840000Y-59690000D03*
X106680000Y-62230000D03*
X109220000Y-62230000D03*
X111760000Y-62230000D03*
X114300000Y-62230000D03*
X116840000Y-62230000D03*
X119380000Y-62230000D03*
X119380000Y-59690000D03*
X119380000Y-57150000D03*
X119380000Y-54610000D03*
X119380000Y-52070000D03*
X119380000Y-49530000D03*
X119380000Y-46990000D03*
X121920000Y-59690000D03*
X121920000Y-57150000D03*
X121920000Y-54610000D03*
X121920000Y-52070000D03*
X121920000Y-49530000D03*
X121920000Y-46990000D03*
X116840000Y-46990000D03*
X114300000Y-46990000D03*
X111760000Y-46990000D03*
X109220000Y-46990000D03*
X104140000Y-46990000D03*
X119380000Y-44450000D03*
X116840000Y-44450000D03*
X114300000Y-44450000D03*
X111760000Y-44450000D03*
X109220000Y-44450000D03*
X106680000Y-44450000D03*
D12*
X128905000Y-63500000D03*
D11*
X128905000Y-55880000D03*
X136525000Y-55880000D03*
X136525000Y-63500000D03*
D12*
X86995000Y-34290000D03*
D11*
X94615000Y-34290000D03*
X94615000Y-41910000D03*
X86995000Y-41910000D03*
D13*
X144653000Y-36068000D03*
D14*
X147193000Y-36068000D03*
D26*
X124841000Y-25908000D03*
X147341000Y-25908000D03*
D27*
X136091000Y-25908000D03*
D28*
X114935000Y-136525000D03*
X104775000Y-136525000D03*
X151765000Y-79375000D03*
X151765000Y-69850000D03*
X76200000Y-22860000D03*
D20*
X126365000Y-36068000D03*
D21*
X139065000Y-36068000D03*
D28*
X69850000Y-22860000D03*
D29*
X113030000Y-24765000D03*
X107950000Y-24765000D03*
X113030000Y-30353000D03*
X110490000Y-30353000D03*
X107950000Y-30353000D03*
D12*
X72390000Y-97155000D03*
D11*
X74890000Y-97155000D03*
X135255000Y-80010000D03*
X140255000Y-80010000D03*
D17*
X163830000Y-125730000D03*
D18*
X161290000Y-125730000D03*
X163830000Y-123190000D03*
X161290000Y-123190000D03*
X163830000Y-120650000D03*
X161290000Y-120650000D03*
X163830000Y-118110000D03*
X161290000Y-118110000D03*
X163830000Y-115570000D03*
X161290000Y-115570000D03*
X163830000Y-113030000D03*
X161290000Y-113030000D03*
X163830000Y-110490000D03*
X161290000Y-110490000D03*
X163830000Y-107950000D03*
X161290000Y-107950000D03*
X163830000Y-105410000D03*
X161290000Y-105410000D03*
X163830000Y-102870000D03*
X161290000Y-102870000D03*
X163830000Y-100330000D03*
X161290000Y-100330000D03*
X163830000Y-97790000D03*
X161290000Y-97790000D03*
X163830000Y-95250000D03*
X161290000Y-95250000D03*
X163830000Y-92710000D03*
X161290000Y-92710000D03*
X163830000Y-90170000D03*
X161290000Y-90170000D03*
X163830000Y-87630000D03*
X161290000Y-87630000D03*
X163830000Y-85090000D03*
X161290000Y-85090000D03*
X163830000Y-82550000D03*
X161290000Y-82550000D03*
X163830000Y-80010000D03*
X161290000Y-80010000D03*
X163830000Y-77470000D03*
X161290000Y-77470000D03*
D20*
X92710000Y-92075000D03*
D21*
X100330000Y-92075000D03*
D20*
X68580000Y-92075000D03*
D21*
X76200000Y-92075000D03*
D20*
X80645000Y-92075000D03*
D21*
X88265000Y-92075000D03*
D12*
X139700000Y-76200000D03*
D22*
X132080000Y-68580000D03*
X139700000Y-73660000D03*
X132080000Y-71120000D03*
X139700000Y-71120000D03*
X132080000Y-73660000D03*
X139700000Y-68580000D03*
X132080000Y-76200000D03*
M02*
