G04 #@! TF.GenerationSoftware,KiCad,Pcbnew,5.1.4-e60b266~84~ubuntu18.04.1*
G04 #@! TF.CreationDate,2019-10-20T16:14:38+01:00*
G04 #@! TF.ProjectId,pluto,706c7574-6f2e-46b6-9963-61645f706362,rev?*
G04 #@! TF.SameCoordinates,Original*
G04 #@! TF.FileFunction,Legend,Bot*
G04 #@! TF.FilePolarity,Positive*
%FSLAX46Y46*%
G04 Gerber Fmt 4.6, Leading zero omitted, Abs format (unit mm)*
G04 Created by KiCad (PCBNEW 5.1.4-e60b266~84~ubuntu18.04.1) date 2019-10-20 16:14:38*
%MOMM*%
%LPD*%
G04 APERTURE LIST*
%ADD10R,1.422400X1.422400*%
%ADD11C,1.422400*%
%ADD12R,1.800000X1.800000*%
%ADD13C,1.800000*%
%ADD14C,1.778000*%
%ADD15C,0.100000*%
%ADD16C,1.700000*%
%ADD17O,2.200000X1.700000*%
%ADD18O,1.727200X1.727200*%
%ADD19R,1.727200X1.727200*%
%ADD20C,6.400000*%
%ADD21C,2.000000*%
%ADD22O,1.600000X1.600000*%
%ADD23R,1.600000X1.600000*%
%ADD24R,1.700000X1.700000*%
G04 APERTURE END LIST*
%LPC*%
D10*
X71501000Y-116332000D03*
D11*
X71501000Y-118872000D03*
X71501000Y-121412000D03*
X71501000Y-113792000D03*
X71501000Y-111252000D03*
X68961000Y-118872000D03*
X68961000Y-121412000D03*
X68961000Y-123952000D03*
X68961000Y-116332000D03*
X68961000Y-113792000D03*
X71501000Y-123952000D03*
X74041000Y-123952000D03*
X76581000Y-123952000D03*
X79121000Y-123952000D03*
X81661000Y-123952000D03*
X71501000Y-126492000D03*
X74041000Y-126492000D03*
X76581000Y-126492000D03*
X79121000Y-126492000D03*
X81661000Y-126492000D03*
X84201000Y-126492000D03*
X84201000Y-123952000D03*
X84201000Y-121412000D03*
X84201000Y-118872000D03*
X84201000Y-116332000D03*
X84201000Y-113792000D03*
X84201000Y-108712000D03*
X86741000Y-123952000D03*
X86741000Y-121412000D03*
X86741000Y-118872000D03*
X86741000Y-116332000D03*
X86741000Y-113792000D03*
X86741000Y-111252000D03*
X84201000Y-111252000D03*
X81661000Y-111252000D03*
X79121000Y-111252000D03*
X76581000Y-111252000D03*
X74041000Y-111252000D03*
X68961000Y-111252000D03*
X81661000Y-108712000D03*
X79121000Y-108712000D03*
X76581000Y-108712000D03*
X74041000Y-108712000D03*
X71501000Y-108712000D03*
X86741000Y-83312000D03*
X86741000Y-85852000D03*
X86741000Y-88392000D03*
X86741000Y-90932000D03*
X86741000Y-93472000D03*
X84201000Y-80772000D03*
X84201000Y-85852000D03*
X84201000Y-88392000D03*
X84201000Y-90932000D03*
X84201000Y-93472000D03*
X84201000Y-96012000D03*
X84201000Y-98552000D03*
X81661000Y-98552000D03*
X79121000Y-98552000D03*
X76581000Y-98552000D03*
X74041000Y-98552000D03*
X71501000Y-98552000D03*
X86741000Y-96012000D03*
X81661000Y-96012000D03*
X79121000Y-96012000D03*
X76581000Y-96012000D03*
X74041000Y-96012000D03*
X71501000Y-96012000D03*
X68961000Y-96012000D03*
X68961000Y-93472000D03*
X68961000Y-90932000D03*
X68961000Y-88392000D03*
X68961000Y-85852000D03*
X68961000Y-83312000D03*
X71501000Y-93472000D03*
X71501000Y-90932000D03*
X71501000Y-88392000D03*
X71501000Y-85852000D03*
X71501000Y-83312000D03*
X81661000Y-80772000D03*
X79121000Y-80772000D03*
X71501000Y-80772000D03*
X74041000Y-80772000D03*
X76581000Y-80772000D03*
X84201000Y-83312000D03*
X81661000Y-83312000D03*
X74041000Y-83312000D03*
X76581000Y-83312000D03*
D10*
X79121000Y-83312000D03*
D12*
X118948000Y-104648000D03*
D13*
X118948000Y-107188000D03*
D12*
X133731000Y-42164000D03*
D13*
X133731000Y-44704000D03*
D14*
X153797000Y-54356000D03*
X153797000Y-49276000D03*
X148209000Y-54356000D03*
X148209000Y-51816000D03*
X148209000Y-49276000D03*
D15*
G36*
X144511504Y-60619204D02*
G01*
X144535773Y-60622804D01*
X144559571Y-60628765D01*
X144582671Y-60637030D01*
X144604849Y-60647520D01*
X144625893Y-60660133D01*
X144645598Y-60674747D01*
X144663777Y-60691223D01*
X144680253Y-60709402D01*
X144694867Y-60729107D01*
X144707480Y-60750151D01*
X144717970Y-60772329D01*
X144726235Y-60795429D01*
X144732196Y-60819227D01*
X144735796Y-60843496D01*
X144737000Y-60868000D01*
X144737000Y-62068000D01*
X144735796Y-62092504D01*
X144732196Y-62116773D01*
X144726235Y-62140571D01*
X144717970Y-62163671D01*
X144707480Y-62185849D01*
X144694867Y-62206893D01*
X144680253Y-62226598D01*
X144663777Y-62244777D01*
X144645598Y-62261253D01*
X144625893Y-62275867D01*
X144604849Y-62288480D01*
X144582671Y-62298970D01*
X144559571Y-62307235D01*
X144535773Y-62313196D01*
X144511504Y-62316796D01*
X144487000Y-62318000D01*
X142787000Y-62318000D01*
X142762496Y-62316796D01*
X142738227Y-62313196D01*
X142714429Y-62307235D01*
X142691329Y-62298970D01*
X142669151Y-62288480D01*
X142648107Y-62275867D01*
X142628402Y-62261253D01*
X142610223Y-62244777D01*
X142593747Y-62226598D01*
X142579133Y-62206893D01*
X142566520Y-62185849D01*
X142556030Y-62163671D01*
X142547765Y-62140571D01*
X142541804Y-62116773D01*
X142538204Y-62092504D01*
X142537000Y-62068000D01*
X142537000Y-60868000D01*
X142538204Y-60843496D01*
X142541804Y-60819227D01*
X142547765Y-60795429D01*
X142556030Y-60772329D01*
X142566520Y-60750151D01*
X142579133Y-60729107D01*
X142593747Y-60709402D01*
X142610223Y-60691223D01*
X142628402Y-60674747D01*
X142648107Y-60660133D01*
X142669151Y-60647520D01*
X142691329Y-60637030D01*
X142714429Y-60628765D01*
X142738227Y-60622804D01*
X142762496Y-60619204D01*
X142787000Y-60618000D01*
X144487000Y-60618000D01*
X144511504Y-60619204D01*
X144511504Y-60619204D01*
G37*
D16*
X143637000Y-61468000D03*
D17*
X143637000Y-63968000D03*
X143637000Y-66468000D03*
X143637000Y-68968000D03*
D16*
X150817000Y-61468000D03*
X150817000Y-68968000D03*
D18*
X70993000Y-64516000D03*
X68453000Y-64516000D03*
X70993000Y-61976000D03*
X68453000Y-61976000D03*
X70993000Y-59436000D03*
X68453000Y-59436000D03*
X70993000Y-56896000D03*
X68453000Y-56896000D03*
X70993000Y-54356000D03*
D19*
X68453000Y-54356000D03*
X58420000Y-54356000D03*
D18*
X60960000Y-54356000D03*
X58420000Y-56896000D03*
X60960000Y-56896000D03*
X58420000Y-59436000D03*
X60960000Y-59436000D03*
X58420000Y-61976000D03*
X60960000Y-61976000D03*
X58420000Y-64516000D03*
X60960000Y-64516000D03*
D19*
X127127000Y-135890000D03*
D18*
X127127000Y-133350000D03*
X129667000Y-135890000D03*
X129667000Y-133350000D03*
X132207000Y-135890000D03*
X132207000Y-133350000D03*
X134747000Y-135890000D03*
X134747000Y-133350000D03*
X137287000Y-135890000D03*
X137287000Y-133350000D03*
X139827000Y-135890000D03*
X139827000Y-133350000D03*
X142367000Y-135890000D03*
X142367000Y-133350000D03*
D20*
X58394600Y-44856400D03*
X151257000Y-43688000D03*
X151257000Y-136398000D03*
X58420000Y-136398000D03*
D19*
X58801000Y-75692000D03*
D18*
X61341000Y-75692000D03*
X58801000Y-78232000D03*
X61341000Y-78232000D03*
X58801000Y-80772000D03*
X61341000Y-80772000D03*
X58801000Y-83312000D03*
X61341000Y-83312000D03*
X58801000Y-85852000D03*
X61341000Y-85852000D03*
X58801000Y-88392000D03*
X61341000Y-88392000D03*
X58801000Y-90932000D03*
X61341000Y-90932000D03*
X58801000Y-93472000D03*
X61341000Y-93472000D03*
X58801000Y-96012000D03*
X61341000Y-96012000D03*
X58801000Y-98552000D03*
X61341000Y-98552000D03*
X58801000Y-101092000D03*
X61341000Y-101092000D03*
X58801000Y-103632000D03*
X61341000Y-103632000D03*
X58801000Y-106172000D03*
X61341000Y-106172000D03*
X58801000Y-108712000D03*
X61341000Y-108712000D03*
X58801000Y-111252000D03*
X61341000Y-111252000D03*
X58801000Y-113792000D03*
X61341000Y-113792000D03*
X58801000Y-116332000D03*
X61341000Y-116332000D03*
X58801000Y-118872000D03*
X61341000Y-118872000D03*
X58801000Y-121412000D03*
X61341000Y-121412000D03*
X58801000Y-123952000D03*
X61341000Y-123952000D03*
D21*
X128293000Y-54428000D03*
X128293000Y-58928000D03*
X121793000Y-54428000D03*
X121793000Y-58928000D03*
X101069000Y-58928000D03*
X101069000Y-54428000D03*
X107569000Y-58928000D03*
X107569000Y-54428000D03*
D11*
X95377000Y-123952000D03*
X95377000Y-121412000D03*
X95377000Y-118872000D03*
X95377000Y-116332000D03*
X95377000Y-113792000D03*
X97917000Y-126492000D03*
X97917000Y-121412000D03*
X97917000Y-118872000D03*
X97917000Y-116332000D03*
X97917000Y-113792000D03*
X97917000Y-111252000D03*
X97917000Y-108712000D03*
X100457000Y-108712000D03*
X102997000Y-108712000D03*
X105537000Y-108712000D03*
X108077000Y-108712000D03*
X110617000Y-108712000D03*
X95377000Y-111252000D03*
X100457000Y-111252000D03*
X102997000Y-111252000D03*
X105537000Y-111252000D03*
X108077000Y-111252000D03*
X110617000Y-111252000D03*
X113157000Y-111252000D03*
X113157000Y-113792000D03*
X113157000Y-116332000D03*
X113157000Y-118872000D03*
X113157000Y-121412000D03*
X113157000Y-123952000D03*
X110617000Y-113792000D03*
X110617000Y-116332000D03*
X110617000Y-118872000D03*
X110617000Y-121412000D03*
X110617000Y-123952000D03*
X100457000Y-126492000D03*
X102997000Y-126492000D03*
X110617000Y-126492000D03*
X108077000Y-126492000D03*
X105537000Y-126492000D03*
X97917000Y-123952000D03*
X100457000Y-123952000D03*
X108077000Y-123952000D03*
X105537000Y-123952000D03*
D10*
X102997000Y-123952000D03*
D22*
X151511000Y-125984000D03*
X118491000Y-110744000D03*
X148971000Y-125984000D03*
X121031000Y-110744000D03*
X146431000Y-125984000D03*
X123571000Y-110744000D03*
X143891000Y-125984000D03*
X126111000Y-110744000D03*
X141351000Y-125984000D03*
X128651000Y-110744000D03*
X138811000Y-125984000D03*
X131191000Y-110744000D03*
X136271000Y-125984000D03*
X133731000Y-110744000D03*
X133731000Y-125984000D03*
X136271000Y-110744000D03*
X131191000Y-125984000D03*
X138811000Y-110744000D03*
X128651000Y-125984000D03*
X141351000Y-110744000D03*
X126111000Y-125984000D03*
X143891000Y-110744000D03*
X123571000Y-125984000D03*
X146431000Y-110744000D03*
X121031000Y-125984000D03*
X148971000Y-110744000D03*
X118491000Y-125984000D03*
D23*
X151511000Y-110744000D03*
X91973400Y-100381000D03*
D22*
X119913400Y-92761000D03*
X94513400Y-100381000D03*
X117373400Y-92761000D03*
X97053400Y-100381000D03*
X114833400Y-92761000D03*
X99593400Y-100381000D03*
X112293400Y-92761000D03*
X102133400Y-100381000D03*
X109753400Y-92761000D03*
X104673400Y-100381000D03*
X107213400Y-92761000D03*
X107213400Y-100381000D03*
X104673400Y-92761000D03*
X109753400Y-100381000D03*
X102133400Y-92761000D03*
X112293400Y-100381000D03*
X99593400Y-92761000D03*
X114833400Y-100381000D03*
X97053400Y-92761000D03*
X117373400Y-100381000D03*
X94513400Y-92761000D03*
X119913400Y-100381000D03*
X91973400Y-92761000D03*
D10*
X106858000Y-71831200D03*
D11*
X104318000Y-71831200D03*
X101778000Y-71831200D03*
X109398000Y-71831200D03*
X111938000Y-71831200D03*
X104318000Y-69291200D03*
X101778000Y-69291200D03*
X99238000Y-69291200D03*
X106858000Y-69291200D03*
X109398000Y-69291200D03*
X99238000Y-71831200D03*
X99238000Y-74371200D03*
X99238000Y-76911200D03*
X99238000Y-79451200D03*
X99238000Y-81991200D03*
X96698000Y-71831200D03*
X96698000Y-74371200D03*
X96698000Y-76911200D03*
X96698000Y-79451200D03*
X96698000Y-81991200D03*
X96698000Y-84531200D03*
X99238000Y-84531200D03*
X101778000Y-84531200D03*
X104318000Y-84531200D03*
X106858000Y-84531200D03*
X109398000Y-84531200D03*
X114478000Y-84531200D03*
X99238000Y-87071200D03*
X101778000Y-87071200D03*
X104318000Y-87071200D03*
X106858000Y-87071200D03*
X109398000Y-87071200D03*
X111938000Y-87071200D03*
X111938000Y-84531200D03*
X111938000Y-81991200D03*
X111938000Y-79451200D03*
X111938000Y-76911200D03*
X111938000Y-74371200D03*
X111938000Y-69291200D03*
X114478000Y-81991200D03*
X114478000Y-79451200D03*
X114478000Y-76911200D03*
X114478000Y-74371200D03*
X114478000Y-71831200D03*
D24*
X127381000Y-43688000D03*
X120777000Y-43688000D03*
X114173000Y-43688000D03*
X107569000Y-43688000D03*
X100457000Y-43688000D03*
X93853000Y-43688000D03*
D11*
X134706300Y-90198600D03*
X132166300Y-87658600D03*
X134706300Y-87658600D03*
X134706300Y-92738600D03*
X134706300Y-95278600D03*
X134706300Y-97818600D03*
X134706300Y-100358600D03*
X134706300Y-102898600D03*
X132166300Y-102898600D03*
X137246300Y-90198600D03*
X137246300Y-92738600D03*
X137246300Y-95278600D03*
X137246300Y-97818600D03*
X137246300Y-100358600D03*
X132166300Y-100358600D03*
X129626300Y-100358600D03*
X127086300Y-100358600D03*
X124546300Y-100358600D03*
X124546300Y-97818600D03*
X124546300Y-95278600D03*
X124546300Y-92738600D03*
X129626300Y-102898600D03*
X127086300Y-102898600D03*
X127086300Y-97818600D03*
X127086300Y-95278600D03*
X127086300Y-92738600D03*
X127086300Y-90198600D03*
X127086300Y-87658600D03*
X129626300Y-87658600D03*
X124546300Y-90198600D03*
X129626300Y-90198600D03*
D10*
X132166300Y-90198600D03*
D19*
X67437000Y-136144000D03*
D18*
X67437000Y-133604000D03*
X69977000Y-136144000D03*
X69977000Y-133604000D03*
X72517000Y-136144000D03*
X72517000Y-133604000D03*
X75057000Y-136144000D03*
X75057000Y-133604000D03*
X77597000Y-136144000D03*
X77597000Y-133604000D03*
X80137000Y-136144000D03*
X80137000Y-133604000D03*
X82677000Y-136144000D03*
X82677000Y-133604000D03*
X85217000Y-136144000D03*
X85217000Y-133604000D03*
X87757000Y-136144000D03*
X87757000Y-133604000D03*
X90297000Y-136144000D03*
X90297000Y-133604000D03*
X92837000Y-136144000D03*
X92837000Y-133604000D03*
X95377000Y-136144000D03*
X95377000Y-133604000D03*
X97917000Y-136144000D03*
X97917000Y-133604000D03*
X100457000Y-136144000D03*
X100457000Y-133604000D03*
X102997000Y-136144000D03*
X102997000Y-133604000D03*
X105537000Y-136144000D03*
X105537000Y-133604000D03*
X108077000Y-136144000D03*
X108077000Y-133604000D03*
X110617000Y-136144000D03*
X110617000Y-133604000D03*
X113157000Y-136144000D03*
X113157000Y-133604000D03*
X115697000Y-136144000D03*
X115697000Y-133604000D03*
M02*
