G04 #@! TF.GenerationSoftware,KiCad,Pcbnew,5.1.4-e60b266~84~ubuntu18.04.1*
G04 #@! TF.CreationDate,2019-10-27T20:46:02+00:00*
G04 #@! TF.ProjectId,pluto,706c7574-6f2e-46b6-9963-61645f706362,rev?*
G04 #@! TF.SameCoordinates,Original*
G04 #@! TF.FileFunction,Copper,L4,Bot*
G04 #@! TF.FilePolarity,Positive*
%FSLAX46Y46*%
G04 Gerber Fmt 4.6, Leading zero omitted, Abs format (unit mm)*
G04 Created by KiCad (PCBNEW 5.1.4-e60b266~84~ubuntu18.04.1) date 2019-10-27 20:46:02*
%MOMM*%
%LPD*%
G04 APERTURE LIST*
%ADD10R,1.422400X1.422400*%
%ADD11C,1.422400*%
%ADD12R,1.800000X1.800000*%
%ADD13C,1.800000*%
%ADD14C,1.778000*%
%ADD15C,0.100000*%
%ADD16C,1.700000*%
%ADD17O,2.200000X1.700000*%
%ADD18O,1.727200X1.727200*%
%ADD19R,1.727200X1.727200*%
%ADD20C,6.400000*%
%ADD21C,2.000000*%
%ADD22O,1.600000X1.600000*%
%ADD23R,1.600000X1.600000*%
%ADD24R,1.700000X1.700000*%
%ADD25C,0.500000*%
%ADD26C,0.150000*%
G04 APERTURE END LIST*
D10*
X71501000Y-116332000D03*
D11*
X71501000Y-118872000D03*
X71501000Y-121412000D03*
X71501000Y-113792000D03*
X71501000Y-111252000D03*
X68961000Y-118872000D03*
X68961000Y-121412000D03*
X68961000Y-123952000D03*
X68961000Y-116332000D03*
X68961000Y-113792000D03*
X71501000Y-123952000D03*
X74041000Y-123952000D03*
X76581000Y-123952000D03*
X79121000Y-123952000D03*
X81661000Y-123952000D03*
X71501000Y-126492000D03*
X74041000Y-126492000D03*
X76581000Y-126492000D03*
X79121000Y-126492000D03*
X81661000Y-126492000D03*
X84201000Y-126492000D03*
X84201000Y-123952000D03*
X84201000Y-121412000D03*
X84201000Y-118872000D03*
X84201000Y-116332000D03*
X84201000Y-113792000D03*
X84201000Y-108712000D03*
X86741000Y-123952000D03*
X86741000Y-121412000D03*
X86741000Y-118872000D03*
X86741000Y-116332000D03*
X86741000Y-113792000D03*
X86741000Y-111252000D03*
X84201000Y-111252000D03*
X81661000Y-111252000D03*
X79121000Y-111252000D03*
X76581000Y-111252000D03*
X74041000Y-111252000D03*
X68961000Y-111252000D03*
X81661000Y-108712000D03*
X79121000Y-108712000D03*
X76581000Y-108712000D03*
X74041000Y-108712000D03*
X71501000Y-108712000D03*
X86741000Y-83312000D03*
X86741000Y-85852000D03*
X86741000Y-88392000D03*
X86741000Y-90932000D03*
X86741000Y-93472000D03*
X84201000Y-80772000D03*
X84201000Y-85852000D03*
X84201000Y-88392000D03*
X84201000Y-90932000D03*
X84201000Y-93472000D03*
X84201000Y-96012000D03*
X84201000Y-98552000D03*
X81661000Y-98552000D03*
X79121000Y-98552000D03*
X76581000Y-98552000D03*
X74041000Y-98552000D03*
X71501000Y-98552000D03*
X86741000Y-96012000D03*
X81661000Y-96012000D03*
X79121000Y-96012000D03*
X76581000Y-96012000D03*
X74041000Y-96012000D03*
X71501000Y-96012000D03*
X68961000Y-96012000D03*
X68961000Y-93472000D03*
X68961000Y-90932000D03*
X68961000Y-88392000D03*
X68961000Y-85852000D03*
X68961000Y-83312000D03*
X71501000Y-93472000D03*
X71501000Y-90932000D03*
X71501000Y-88392000D03*
X71501000Y-85852000D03*
X71501000Y-83312000D03*
X81661000Y-80772000D03*
X79121000Y-80772000D03*
X71501000Y-80772000D03*
X74041000Y-80772000D03*
X76581000Y-80772000D03*
X84201000Y-83312000D03*
X81661000Y-83312000D03*
X74041000Y-83312000D03*
X76581000Y-83312000D03*
D10*
X79121000Y-83312000D03*
D12*
X118948000Y-104648000D03*
D13*
X118948000Y-107188000D03*
D12*
X133731000Y-42164000D03*
D13*
X133731000Y-44704000D03*
D14*
X153289000Y-54356000D03*
X153289000Y-49276000D03*
X147701000Y-54356000D03*
X147701000Y-51816000D03*
X147701000Y-49276000D03*
D15*
G36*
X144511504Y-60619204D02*
G01*
X144535773Y-60622804D01*
X144559571Y-60628765D01*
X144582671Y-60637030D01*
X144604849Y-60647520D01*
X144625893Y-60660133D01*
X144645598Y-60674747D01*
X144663777Y-60691223D01*
X144680253Y-60709402D01*
X144694867Y-60729107D01*
X144707480Y-60750151D01*
X144717970Y-60772329D01*
X144726235Y-60795429D01*
X144732196Y-60819227D01*
X144735796Y-60843496D01*
X144737000Y-60868000D01*
X144737000Y-62068000D01*
X144735796Y-62092504D01*
X144732196Y-62116773D01*
X144726235Y-62140571D01*
X144717970Y-62163671D01*
X144707480Y-62185849D01*
X144694867Y-62206893D01*
X144680253Y-62226598D01*
X144663777Y-62244777D01*
X144645598Y-62261253D01*
X144625893Y-62275867D01*
X144604849Y-62288480D01*
X144582671Y-62298970D01*
X144559571Y-62307235D01*
X144535773Y-62313196D01*
X144511504Y-62316796D01*
X144487000Y-62318000D01*
X142787000Y-62318000D01*
X142762496Y-62316796D01*
X142738227Y-62313196D01*
X142714429Y-62307235D01*
X142691329Y-62298970D01*
X142669151Y-62288480D01*
X142648107Y-62275867D01*
X142628402Y-62261253D01*
X142610223Y-62244777D01*
X142593747Y-62226598D01*
X142579133Y-62206893D01*
X142566520Y-62185849D01*
X142556030Y-62163671D01*
X142547765Y-62140571D01*
X142541804Y-62116773D01*
X142538204Y-62092504D01*
X142537000Y-62068000D01*
X142537000Y-60868000D01*
X142538204Y-60843496D01*
X142541804Y-60819227D01*
X142547765Y-60795429D01*
X142556030Y-60772329D01*
X142566520Y-60750151D01*
X142579133Y-60729107D01*
X142593747Y-60709402D01*
X142610223Y-60691223D01*
X142628402Y-60674747D01*
X142648107Y-60660133D01*
X142669151Y-60647520D01*
X142691329Y-60637030D01*
X142714429Y-60628765D01*
X142738227Y-60622804D01*
X142762496Y-60619204D01*
X142787000Y-60618000D01*
X144487000Y-60618000D01*
X144511504Y-60619204D01*
X144511504Y-60619204D01*
G37*
D16*
X143637000Y-61468000D03*
D17*
X143637000Y-63968000D03*
X143637000Y-66468000D03*
X143637000Y-68968000D03*
D18*
X70993000Y-64516000D03*
X68453000Y-64516000D03*
X70993000Y-61976000D03*
X68453000Y-61976000D03*
X70993000Y-59436000D03*
X68453000Y-59436000D03*
X70993000Y-56896000D03*
X68453000Y-56896000D03*
X70993000Y-54356000D03*
D19*
X68453000Y-54356000D03*
X58420000Y-54356000D03*
D18*
X60960000Y-54356000D03*
X58420000Y-56896000D03*
X60960000Y-56896000D03*
X58420000Y-59436000D03*
X60960000Y-59436000D03*
X58420000Y-61976000D03*
X60960000Y-61976000D03*
X58420000Y-64516000D03*
X60960000Y-64516000D03*
D19*
X127127000Y-135890000D03*
D18*
X127127000Y-133350000D03*
X129667000Y-135890000D03*
X129667000Y-133350000D03*
X132207000Y-135890000D03*
X132207000Y-133350000D03*
X134747000Y-135890000D03*
X134747000Y-133350000D03*
X137287000Y-135890000D03*
X137287000Y-133350000D03*
X139827000Y-135890000D03*
X139827000Y-133350000D03*
X142367000Y-135890000D03*
X142367000Y-133350000D03*
D20*
X58394600Y-44856400D03*
X150749000Y-43688000D03*
X151257000Y-136398000D03*
X58420000Y-136398000D03*
D19*
X58801000Y-75692000D03*
D18*
X61341000Y-75692000D03*
X58801000Y-78232000D03*
X61341000Y-78232000D03*
X58801000Y-80772000D03*
X61341000Y-80772000D03*
X58801000Y-83312000D03*
X61341000Y-83312000D03*
X58801000Y-85852000D03*
X61341000Y-85852000D03*
X58801000Y-88392000D03*
X61341000Y-88392000D03*
X58801000Y-90932000D03*
X61341000Y-90932000D03*
X58801000Y-93472000D03*
X61341000Y-93472000D03*
X58801000Y-96012000D03*
X61341000Y-96012000D03*
X58801000Y-98552000D03*
X61341000Y-98552000D03*
X58801000Y-101092000D03*
X61341000Y-101092000D03*
X58801000Y-103632000D03*
X61341000Y-103632000D03*
X58801000Y-106172000D03*
X61341000Y-106172000D03*
X58801000Y-108712000D03*
X61341000Y-108712000D03*
X58801000Y-111252000D03*
X61341000Y-111252000D03*
X58801000Y-113792000D03*
X61341000Y-113792000D03*
X58801000Y-116332000D03*
X61341000Y-116332000D03*
X58801000Y-118872000D03*
X61341000Y-118872000D03*
X58801000Y-121412000D03*
X61341000Y-121412000D03*
X58801000Y-123952000D03*
X61341000Y-123952000D03*
D21*
X128293000Y-54428000D03*
X128293000Y-58928000D03*
X121793000Y-54428000D03*
X121793000Y-58928000D03*
X101069000Y-58928000D03*
X101069000Y-54428000D03*
X107569000Y-58928000D03*
X107569000Y-54428000D03*
D11*
X95377000Y-123952000D03*
X95377000Y-121412000D03*
X95377000Y-118872000D03*
X95377000Y-116332000D03*
X95377000Y-113792000D03*
X97917000Y-126492000D03*
X97917000Y-121412000D03*
X97917000Y-118872000D03*
X97917000Y-116332000D03*
X97917000Y-113792000D03*
X97917000Y-111252000D03*
X97917000Y-108712000D03*
X100457000Y-108712000D03*
X102997000Y-108712000D03*
X105537000Y-108712000D03*
X108077000Y-108712000D03*
X110617000Y-108712000D03*
X95377000Y-111252000D03*
X100457000Y-111252000D03*
X102997000Y-111252000D03*
X105537000Y-111252000D03*
X108077000Y-111252000D03*
X110617000Y-111252000D03*
X113157000Y-111252000D03*
X113157000Y-113792000D03*
X113157000Y-116332000D03*
X113157000Y-118872000D03*
X113157000Y-121412000D03*
X113157000Y-123952000D03*
X110617000Y-113792000D03*
X110617000Y-116332000D03*
X110617000Y-118872000D03*
X110617000Y-121412000D03*
X110617000Y-123952000D03*
X100457000Y-126492000D03*
X102997000Y-126492000D03*
X110617000Y-126492000D03*
X108077000Y-126492000D03*
X105537000Y-126492000D03*
X97917000Y-123952000D03*
X100457000Y-123952000D03*
X108077000Y-123952000D03*
X105537000Y-123952000D03*
D10*
X102997000Y-123952000D03*
D22*
X151511000Y-125984000D03*
X118491000Y-110744000D03*
X148971000Y-125984000D03*
X121031000Y-110744000D03*
X146431000Y-125984000D03*
X123571000Y-110744000D03*
X143891000Y-125984000D03*
X126111000Y-110744000D03*
X141351000Y-125984000D03*
X128651000Y-110744000D03*
X138811000Y-125984000D03*
X131191000Y-110744000D03*
X136271000Y-125984000D03*
X133731000Y-110744000D03*
X133731000Y-125984000D03*
X136271000Y-110744000D03*
X131191000Y-125984000D03*
X138811000Y-110744000D03*
X128651000Y-125984000D03*
X141351000Y-110744000D03*
X126111000Y-125984000D03*
X143891000Y-110744000D03*
X123571000Y-125984000D03*
X146431000Y-110744000D03*
X121031000Y-125984000D03*
X148971000Y-110744000D03*
X118491000Y-125984000D03*
D23*
X151511000Y-110744000D03*
X91973400Y-100381000D03*
D22*
X119913400Y-92761000D03*
X94513400Y-100381000D03*
X117373400Y-92761000D03*
X97053400Y-100381000D03*
X114833400Y-92761000D03*
X99593400Y-100381000D03*
X112293400Y-92761000D03*
X102133400Y-100381000D03*
X109753400Y-92761000D03*
X104673400Y-100381000D03*
X107213400Y-92761000D03*
X107213400Y-100381000D03*
X104673400Y-92761000D03*
X109753400Y-100381000D03*
X102133400Y-92761000D03*
X112293400Y-100381000D03*
X99593400Y-92761000D03*
X114833400Y-100381000D03*
X97053400Y-92761000D03*
X117373400Y-100381000D03*
X94513400Y-92761000D03*
X119913400Y-100381000D03*
X91973400Y-92761000D03*
D10*
X106858000Y-71831200D03*
D11*
X104318000Y-71831200D03*
X101778000Y-71831200D03*
X109398000Y-71831200D03*
X111938000Y-71831200D03*
X104318000Y-69291200D03*
X101778000Y-69291200D03*
X99238000Y-69291200D03*
X106858000Y-69291200D03*
X109398000Y-69291200D03*
X99238000Y-71831200D03*
X99238000Y-74371200D03*
X99238000Y-76911200D03*
X99238000Y-79451200D03*
X99238000Y-81991200D03*
X96698000Y-71831200D03*
X96698000Y-74371200D03*
X96698000Y-76911200D03*
X96698000Y-79451200D03*
X96698000Y-81991200D03*
X96698000Y-84531200D03*
X99238000Y-84531200D03*
X101778000Y-84531200D03*
X104318000Y-84531200D03*
X106858000Y-84531200D03*
X109398000Y-84531200D03*
X114478000Y-84531200D03*
X99238000Y-87071200D03*
X101778000Y-87071200D03*
X104318000Y-87071200D03*
X106858000Y-87071200D03*
X109398000Y-87071200D03*
X111938000Y-87071200D03*
X111938000Y-84531200D03*
X111938000Y-81991200D03*
X111938000Y-79451200D03*
X111938000Y-76911200D03*
X111938000Y-74371200D03*
X111938000Y-69291200D03*
X114478000Y-81991200D03*
X114478000Y-79451200D03*
X114478000Y-76911200D03*
X114478000Y-74371200D03*
X114478000Y-71831200D03*
D24*
X127381000Y-43688000D03*
X120777000Y-43688000D03*
X114173000Y-43688000D03*
X107569000Y-43688000D03*
X100457000Y-43688000D03*
X93853000Y-43688000D03*
D11*
X134706300Y-90198600D03*
X132166300Y-87658600D03*
X134706300Y-87658600D03*
X134706300Y-92738600D03*
X134706300Y-95278600D03*
X134706300Y-97818600D03*
X134706300Y-100358600D03*
X134706300Y-102898600D03*
X132166300Y-102898600D03*
X137246300Y-90198600D03*
X137246300Y-92738600D03*
X137246300Y-95278600D03*
X137246300Y-97818600D03*
X137246300Y-100358600D03*
X132166300Y-100358600D03*
X129626300Y-100358600D03*
X127086300Y-100358600D03*
X124546300Y-100358600D03*
X124546300Y-97818600D03*
X124546300Y-95278600D03*
X124546300Y-92738600D03*
X129626300Y-102898600D03*
X127086300Y-102898600D03*
X127086300Y-97818600D03*
X127086300Y-95278600D03*
X127086300Y-92738600D03*
X127086300Y-90198600D03*
X127086300Y-87658600D03*
X129626300Y-87658600D03*
X124546300Y-90198600D03*
X129626300Y-90198600D03*
D10*
X132166300Y-90198600D03*
D19*
X67437000Y-136144000D03*
D18*
X67437000Y-133604000D03*
X69977000Y-136144000D03*
X69977000Y-133604000D03*
X72517000Y-136144000D03*
X72517000Y-133604000D03*
X75057000Y-136144000D03*
X75057000Y-133604000D03*
X77597000Y-136144000D03*
X77597000Y-133604000D03*
X80137000Y-136144000D03*
X80137000Y-133604000D03*
X82677000Y-136144000D03*
X82677000Y-133604000D03*
X85217000Y-136144000D03*
X85217000Y-133604000D03*
X87757000Y-136144000D03*
X87757000Y-133604000D03*
X90297000Y-136144000D03*
X90297000Y-133604000D03*
X92837000Y-136144000D03*
X92837000Y-133604000D03*
X95377000Y-136144000D03*
X95377000Y-133604000D03*
X97917000Y-136144000D03*
X97917000Y-133604000D03*
X100457000Y-136144000D03*
X100457000Y-133604000D03*
X102997000Y-136144000D03*
X102997000Y-133604000D03*
X105537000Y-136144000D03*
X105537000Y-133604000D03*
X108077000Y-136144000D03*
X108077000Y-133604000D03*
X110617000Y-136144000D03*
X110617000Y-133604000D03*
X113157000Y-136144000D03*
X113157000Y-133604000D03*
X115697000Y-136144000D03*
X115697000Y-133604000D03*
D25*
X140630300Y-101997600D03*
X91059000Y-118845700D03*
X129165400Y-82888300D03*
X126873000Y-70298200D03*
X82699100Y-57721500D03*
X129648800Y-63813900D03*
X121285000Y-68777800D03*
X146200800Y-104290800D03*
X104175700Y-64805300D03*
X134493000Y-70260200D03*
X147190500Y-77844200D03*
X112945000Y-57903700D03*
X143129000Y-46501300D03*
X93853000Y-51981200D03*
X78105000Y-46599800D03*
X136033500Y-81077200D03*
X127278100Y-80316900D03*
X73460300Y-103631100D03*
X68421800Y-103502800D03*
X138375800Y-46868300D03*
X141810900Y-78314400D03*
X123977800Y-78275100D03*
X146189100Y-121757000D03*
X97899800Y-96368600D03*
X143617000Y-82033500D03*
X148227000Y-121250800D03*
X76525700Y-53339600D03*
X126646800Y-107102600D03*
X136712900Y-78076500D03*
X138370800Y-50315600D03*
X89939700Y-121862600D03*
X124942100Y-116431300D03*
X58653100Y-130840500D03*
X107213000Y-65880600D03*
X150333000Y-84795300D03*
X143617000Y-72990500D03*
X131213200Y-83285500D03*
X123921700Y-83345200D03*
X119345700Y-83345200D03*
X77813200Y-49824700D03*
X94860000Y-97471900D03*
X114856800Y-58102500D03*
X133993500Y-80923300D03*
X79899100Y-58591000D03*
X145010000Y-77581300D03*
X143129000Y-48551400D03*
X126162000Y-83443800D03*
X124333000Y-61883300D03*
X148251700Y-104595100D03*
X133731000Y-51423900D03*
X131823000Y-65082900D03*
X135407000Y-75770300D03*
X131851300Y-119535000D03*
X70459800Y-103771200D03*
X148567000Y-72981700D03*
X109481400Y-108934400D03*
X100738800Y-103443200D03*
X113826400Y-125678100D03*
X131770300Y-77971500D03*
X115865000Y-97621800D03*
X111080700Y-95268700D03*
X112029900Y-130611900D03*
X99485400Y-117104600D03*
X114988200Y-111506100D03*
X102662900Y-114472900D03*
X129626300Y-85923700D03*
X136423400Y-103675100D03*
X107680100Y-131312700D03*
X123407500Y-97347300D03*
X100660700Y-130651400D03*
X104650300Y-114166800D03*
X105329700Y-114464700D03*
X110273400Y-96515700D03*
X91931700Y-54135400D03*
X131484400Y-85439900D03*
X98591700Y-119794600D03*
X98813200Y-130245300D03*
X114948100Y-128159500D03*
X122291900Y-127829500D03*
X122265000Y-104598300D03*
X114601300Y-98097100D03*
D26*
X106858000Y-87071200D02*
X103158800Y-90770400D01*
X103158800Y-90770400D02*
X103158800Y-94293900D01*
X103158800Y-94293900D02*
X100738800Y-96713900D01*
X100738800Y-96713900D02*
X100738800Y-103443200D01*
X109528100Y-136144000D02*
X109528100Y-136031200D01*
X109528100Y-136031200D02*
X108370900Y-134874000D01*
X108370900Y-134874000D02*
X107735500Y-134874000D01*
X107735500Y-134874000D02*
X106979900Y-134118400D01*
X106979900Y-134118400D02*
X106979900Y-125898700D01*
X106979900Y-125898700D02*
X108077000Y-124801600D01*
X108077000Y-124801600D02*
X108077000Y-123952000D01*
X110617000Y-136144000D02*
X109528100Y-136144000D01*
X109481400Y-108934400D02*
X109353300Y-109062500D01*
X109353300Y-109062500D02*
X109353300Y-112643500D01*
X109353300Y-112643500D02*
X108077000Y-113919800D01*
X108077000Y-113919800D02*
X108077000Y-123952000D01*
X86741000Y-85852000D02*
X85427100Y-87165900D01*
X85427100Y-87165900D02*
X84095500Y-87165900D01*
X84095500Y-87165900D02*
X75344000Y-95917400D01*
X75344000Y-95917400D02*
X75344000Y-107409000D01*
X75344000Y-107409000D02*
X74041000Y-108712000D01*
X113157000Y-135055100D02*
X113269800Y-135055100D01*
X113269800Y-135055100D02*
X114247400Y-134077500D01*
X114247400Y-134077500D02*
X114247400Y-130598500D01*
X114247400Y-130598500D02*
X113826400Y-130177500D01*
X113826400Y-130177500D02*
X113826400Y-125678100D01*
X113157000Y-136144000D02*
X113157000Y-135055100D01*
X143891000Y-110744000D02*
X143891000Y-90092200D01*
X143891000Y-90092200D02*
X131770300Y-77971500D01*
X58801000Y-78232000D02*
X58801000Y-79320900D01*
X58801000Y-79320900D02*
X58937200Y-79320900D01*
X58937200Y-79320900D02*
X59889900Y-80273600D01*
X59889900Y-80273600D02*
X59889900Y-80887300D01*
X59889900Y-80887300D02*
X61203300Y-82200700D01*
X61203300Y-82200700D02*
X65309700Y-82200700D01*
X65309700Y-82200700D02*
X68961000Y-85852000D01*
X61341000Y-78232000D02*
X62429900Y-78232000D01*
X62429900Y-78232000D02*
X68575900Y-84378000D01*
X68575900Y-84378000D02*
X70027000Y-84378000D01*
X70027000Y-84378000D02*
X71501000Y-85852000D01*
X61341000Y-80772000D02*
X64512800Y-80772000D01*
X64512800Y-80772000D02*
X68557900Y-84817100D01*
X68557900Y-84817100D02*
X69250700Y-84817100D01*
X69250700Y-84817100D02*
X70231000Y-85797400D01*
X70231000Y-85797400D02*
X70231000Y-87122000D01*
X70231000Y-87122000D02*
X71501000Y-88392000D01*
X61341000Y-83312000D02*
X62429900Y-83312000D01*
X62429900Y-83312000D02*
X62429900Y-84400900D01*
X62429900Y-84400900D02*
X68961000Y-90932000D01*
X61341000Y-85852000D02*
X62429900Y-85852000D01*
X62429900Y-85852000D02*
X68461900Y-91884000D01*
X68461900Y-91884000D02*
X70549000Y-91884000D01*
X70549000Y-91884000D02*
X71501000Y-90932000D01*
X61341000Y-88392000D02*
X62429900Y-88392000D01*
X62429900Y-88392000D02*
X67509900Y-93472000D01*
X67509900Y-93472000D02*
X68961000Y-93472000D01*
X62429900Y-90932000D02*
X65909500Y-94411600D01*
X65909500Y-94411600D02*
X70561400Y-94411600D01*
X70561400Y-94411600D02*
X71501000Y-93472000D01*
X61341000Y-90932000D02*
X62429900Y-90932000D01*
X127086300Y-95278600D02*
X128427900Y-95278600D01*
X128427900Y-95278600D02*
X133117400Y-99968100D01*
X133117400Y-99968100D02*
X133117400Y-105397500D01*
X133117400Y-105397500D02*
X131191000Y-107323900D01*
X131191000Y-107323900D02*
X131191000Y-110744000D01*
X84201000Y-83312000D02*
X84201000Y-82971400D01*
X84201000Y-82971400D02*
X96611200Y-70561200D01*
X96611200Y-70561200D02*
X100508000Y-70561200D01*
X100508000Y-70561200D02*
X101778000Y-69291200D01*
X72517000Y-136144000D02*
X72517000Y-135055100D01*
X71501000Y-111252000D02*
X72453500Y-112204500D01*
X72453500Y-112204500D02*
X72453500Y-124324100D01*
X72453500Y-124324100D02*
X71555600Y-125222000D01*
X71555600Y-125222000D02*
X71431600Y-125222000D01*
X71431600Y-125222000D02*
X70542600Y-126111000D01*
X70542600Y-126111000D02*
X70542600Y-127696300D01*
X70542600Y-127696300D02*
X71366300Y-128520000D01*
X71366300Y-128520000D02*
X71366300Y-134017200D01*
X71366300Y-134017200D02*
X72404200Y-135055100D01*
X72404200Y-135055100D02*
X72517000Y-135055100D01*
X104318000Y-69291200D02*
X105694300Y-70667500D01*
X105694300Y-70667500D02*
X114640400Y-70667500D01*
X114640400Y-70667500D02*
X115865000Y-71892100D01*
X115865000Y-71892100D02*
X115865000Y-97621800D01*
X124546300Y-97818600D02*
X125546500Y-98818800D01*
X125546500Y-98818800D02*
X127306300Y-98818800D01*
X127306300Y-98818800D02*
X128651000Y-100163500D01*
X128651000Y-100163500D02*
X128651000Y-110744000D01*
X68961000Y-113792000D02*
X69906000Y-114737000D01*
X69906000Y-114737000D02*
X69906000Y-130684200D01*
X69906000Y-130684200D02*
X68856900Y-131733300D01*
X68856900Y-131733300D02*
X68856900Y-134047800D01*
X68856900Y-134047800D02*
X69864200Y-135055100D01*
X69864200Y-135055100D02*
X69977000Y-135055100D01*
X69977000Y-136144000D02*
X69977000Y-135055100D01*
X124546300Y-95278600D02*
X121925900Y-97899000D01*
X121925900Y-97899000D02*
X121925900Y-101226500D01*
X121925900Y-101226500D02*
X120795400Y-102357000D01*
X120795400Y-102357000D02*
X120795400Y-106989300D01*
X120795400Y-106989300D02*
X116136200Y-111648500D01*
X116136200Y-111648500D02*
X116136200Y-113352800D01*
X116136200Y-113352800D02*
X113157000Y-116332000D01*
X111080700Y-95268700D02*
X110771200Y-95268700D01*
X110771200Y-95268700D02*
X108461400Y-92958900D01*
X108461400Y-92958900D02*
X108461400Y-81832500D01*
X108461400Y-81832500D02*
X102839000Y-76210100D01*
X102839000Y-76210100D02*
X102839000Y-69005000D01*
X102839000Y-69005000D02*
X102151500Y-68317500D01*
X102151500Y-68317500D02*
X100211700Y-68317500D01*
X100211700Y-68317500D02*
X99238000Y-69291200D01*
X75057000Y-136144000D02*
X73968100Y-136144000D01*
X68961000Y-111252000D02*
X70206400Y-112497400D01*
X70206400Y-112497400D02*
X70206400Y-128148200D01*
X70206400Y-128148200D02*
X71066000Y-129007800D01*
X71066000Y-129007800D02*
X71066000Y-136254700D01*
X71066000Y-136254700D02*
X72056100Y-137244800D01*
X72056100Y-137244800D02*
X72980100Y-137244800D01*
X72980100Y-137244800D02*
X73968100Y-136256800D01*
X73968100Y-136256800D02*
X73968100Y-136144000D01*
X84201000Y-80772000D02*
X95681800Y-69291200D01*
X95681800Y-69291200D02*
X99238000Y-69291200D01*
X105537000Y-123952000D02*
X104147700Y-125341300D01*
X104147700Y-125341300D02*
X104147700Y-128824400D01*
X104147700Y-128824400D02*
X100457000Y-132515100D01*
X100457000Y-133604000D02*
X100457000Y-132515100D01*
X113157000Y-123952000D02*
X111890400Y-122685400D01*
X111890400Y-122685400D02*
X111890400Y-113685000D01*
X111890400Y-113685000D02*
X113386800Y-112188600D01*
X113386800Y-112188600D02*
X113569500Y-112188600D01*
X113569500Y-112188600D02*
X114212600Y-111545500D01*
X114212600Y-111545500D02*
X114212600Y-111184700D01*
X114212600Y-111184700D02*
X117073200Y-108324100D01*
X117073200Y-108324100D02*
X117073200Y-102499900D01*
X117073200Y-102499900D02*
X118587600Y-100985500D01*
X118587600Y-100985500D02*
X118587600Y-97355100D01*
X118587600Y-97355100D02*
X124757200Y-91185500D01*
X124757200Y-91185500D02*
X127493500Y-91185500D01*
X127493500Y-91185500D02*
X128052100Y-90626900D01*
X128052100Y-90626900D02*
X128052100Y-86575800D01*
X128052100Y-86575800D02*
X116227000Y-74750700D01*
X116227000Y-74750700D02*
X116227000Y-63086000D01*
X116227000Y-63086000D02*
X107569000Y-54428000D01*
X113157000Y-123952000D02*
X112029900Y-125079100D01*
X112029900Y-125079100D02*
X112029900Y-130611900D01*
X110617000Y-113792000D02*
X112220400Y-112188600D01*
X112220400Y-112188600D02*
X112220400Y-110530900D01*
X112220400Y-110530900D02*
X116022000Y-106729300D01*
X116022000Y-106729300D02*
X116022000Y-98986700D01*
X116022000Y-98986700D02*
X116940900Y-98067800D01*
X116940900Y-98067800D02*
X116940900Y-97804000D01*
X116940900Y-97804000D02*
X120426100Y-94318800D01*
X120426100Y-94318800D02*
X120426100Y-92761000D01*
X120426100Y-92761000D02*
X120938700Y-92761000D01*
X119913400Y-92761000D02*
X120426100Y-92761000D01*
X127086300Y-90198600D02*
X126131500Y-89243800D01*
X126131500Y-89243800D02*
X124137200Y-89243800D01*
X124137200Y-89243800D02*
X120938700Y-92442300D01*
X120938700Y-92442300D02*
X120938700Y-92761000D01*
X82677000Y-136144000D02*
X82677000Y-135055100D01*
X99485400Y-117104600D02*
X99485400Y-119609000D01*
X99485400Y-119609000D02*
X98674200Y-120420200D01*
X98674200Y-120420200D02*
X89057200Y-120420200D01*
X89057200Y-120420200D02*
X87128800Y-122348600D01*
X87128800Y-122348600D02*
X86995600Y-122348600D01*
X86995600Y-122348600D02*
X85577400Y-123766800D01*
X85577400Y-123766800D02*
X85577400Y-123924700D01*
X85577400Y-123924700D02*
X84613500Y-124888600D01*
X84613500Y-124888600D02*
X84440600Y-124888600D01*
X84440600Y-124888600D02*
X83225000Y-126104200D01*
X83225000Y-126104200D02*
X83225000Y-129673200D01*
X83225000Y-129673200D02*
X83773600Y-130221800D01*
X83773600Y-130221800D02*
X83773600Y-134071300D01*
X83773600Y-134071300D02*
X82789800Y-135055100D01*
X82789800Y-135055100D02*
X82677000Y-135055100D01*
X80137000Y-136144000D02*
X83081400Y-139088400D01*
X83081400Y-139088400D02*
X135663300Y-139088400D01*
X135663300Y-139088400D02*
X138557000Y-136194700D01*
X138557000Y-136194700D02*
X138557000Y-135584700D01*
X138557000Y-135584700D02*
X139340700Y-134801000D01*
X139340700Y-134801000D02*
X139950400Y-134801000D01*
X139950400Y-134801000D02*
X140916000Y-133835400D01*
X140916000Y-133835400D02*
X140916000Y-132140500D01*
X140916000Y-132140500D02*
X135220200Y-126444700D01*
X135220200Y-126444700D02*
X135220200Y-120629300D01*
X135220200Y-120629300D02*
X138811000Y-117038500D01*
X138811000Y-117038500D02*
X138811000Y-110744000D01*
X124546300Y-92738600D02*
X118888000Y-98396900D01*
X118888000Y-98396900D02*
X118888000Y-101779100D01*
X118888000Y-101779100D02*
X117373600Y-103293500D01*
X117373600Y-103293500D02*
X117373600Y-108448500D01*
X117373600Y-108448500D02*
X114512900Y-111309200D01*
X114512900Y-111309200D02*
X114512900Y-112436100D01*
X114512900Y-112436100D02*
X113157000Y-113792000D01*
X113157000Y-111252000D02*
X113157000Y-111676900D01*
X113157000Y-111676900D02*
X111553700Y-113280200D01*
X111553700Y-113280200D02*
X111553700Y-130935000D01*
X111553700Y-130935000D02*
X111720300Y-131101600D01*
X111720300Y-131101600D02*
X111720300Y-136654100D01*
X111720300Y-136654100D02*
X110794200Y-137580200D01*
X110794200Y-137580200D02*
X94775100Y-137580200D01*
X94775100Y-137580200D02*
X93930000Y-136735100D01*
X93930000Y-136735100D02*
X93930000Y-135616100D01*
X93930000Y-135616100D02*
X93365300Y-135051400D01*
X93365300Y-135051400D02*
X87285700Y-135051400D01*
X87285700Y-135051400D02*
X86305900Y-136031200D01*
X86305900Y-136031200D02*
X86305900Y-136144000D01*
X117373400Y-101406300D02*
X116322400Y-102457300D01*
X116322400Y-102457300D02*
X116322400Y-108086600D01*
X116322400Y-108086600D02*
X113157000Y-111252000D01*
X85217000Y-136144000D02*
X86305900Y-136144000D01*
X117373400Y-99355700D02*
X117373400Y-97796300D01*
X117373400Y-97796300D02*
X124546300Y-90623400D01*
X124546300Y-90623400D02*
X124546300Y-90198600D01*
X117373400Y-100381000D02*
X117373400Y-99355700D01*
X117373400Y-100381000D02*
X117373400Y-101406300D01*
X91385900Y-136144000D02*
X91385900Y-136286600D01*
X91385900Y-136286600D02*
X92979800Y-137880500D01*
X92979800Y-137880500D02*
X113003100Y-137880500D01*
X113003100Y-137880500D02*
X114608000Y-136275600D01*
X114608000Y-136275600D02*
X114608000Y-128491600D01*
X114608000Y-128491600D02*
X114472800Y-128356400D01*
X114472800Y-128356400D02*
X114472800Y-121287400D01*
X114472800Y-121287400D02*
X113327400Y-120142000D01*
X113327400Y-120142000D02*
X113071800Y-120142000D01*
X113071800Y-120142000D02*
X112194700Y-119264900D01*
X112194700Y-119264900D02*
X112194700Y-115871300D01*
X112194700Y-115871300D02*
X113004000Y-115062000D01*
X113004000Y-115062000D02*
X113266200Y-115062000D01*
X113266200Y-115062000D02*
X114988200Y-113340000D01*
X114988200Y-113340000D02*
X114988200Y-111506100D01*
X137246300Y-90198600D02*
X136209000Y-91235900D01*
X136209000Y-91235900D02*
X133795300Y-91235900D01*
X133795300Y-91235900D02*
X133495000Y-91536200D01*
X133495000Y-91536200D02*
X126957800Y-91536200D01*
X126957800Y-91536200D02*
X125483000Y-93011000D01*
X125483000Y-93011000D02*
X125483000Y-93141400D01*
X125483000Y-93141400D02*
X124524300Y-94100100D01*
X124524300Y-94100100D02*
X124295700Y-94100100D01*
X124295700Y-94100100D02*
X120972600Y-97423200D01*
X120972600Y-97423200D02*
X120972600Y-100772000D01*
X120972600Y-100772000D02*
X118505300Y-103239300D01*
X118505300Y-103239300D02*
X118229100Y-103239300D01*
X118229100Y-103239300D02*
X117673900Y-103794500D01*
X117673900Y-103794500D02*
X117673900Y-108820400D01*
X117673900Y-108820400D02*
X114988200Y-111506100D01*
X112293400Y-101406300D02*
X112293400Y-109575600D01*
X112293400Y-109575600D02*
X110617000Y-111252000D01*
X90297000Y-136144000D02*
X91385900Y-136144000D01*
X112293400Y-100893600D02*
X112293400Y-100381000D01*
X112293400Y-100893600D02*
X112293400Y-101406300D01*
X107111800Y-107765000D02*
X105138100Y-107765000D01*
X105138100Y-107765000D02*
X103954000Y-108949100D01*
X103954000Y-108949100D02*
X103954000Y-112084800D01*
X103954000Y-112084800D02*
X101887300Y-114151500D01*
X101887300Y-114151500D02*
X101887300Y-114706500D01*
X101887300Y-114706500D02*
X100846900Y-115746900D01*
X100846900Y-115746900D02*
X100846900Y-120585600D01*
X100846900Y-120585600D02*
X99163000Y-122269500D01*
X99163000Y-122269500D02*
X99163000Y-129922800D01*
X99163000Y-129922800D02*
X99288500Y-130048300D01*
X99288500Y-130048300D02*
X99288500Y-130442300D01*
X99288500Y-130442300D02*
X96809600Y-132921200D01*
X96809600Y-132921200D02*
X96809600Y-134160100D01*
X96809600Y-134160100D02*
X95914600Y-135055100D01*
X95914600Y-135055100D02*
X95377000Y-135055100D01*
X107111800Y-107765000D02*
X107111800Y-101507900D01*
X107111800Y-101507900D02*
X107213400Y-101406300D01*
X108077000Y-111252000D02*
X107111800Y-110286800D01*
X107111800Y-110286800D02*
X107111800Y-107765000D01*
X95377000Y-136144000D02*
X95377000Y-135055100D01*
X107213400Y-100381000D02*
X107213400Y-101406300D01*
X102997000Y-111252000D02*
X102997000Y-112617000D01*
X102997000Y-112617000D02*
X101587000Y-114027000D01*
X101587000Y-114027000D02*
X101587000Y-114582000D01*
X101587000Y-114582000D02*
X100342000Y-115827000D01*
X100342000Y-115827000D02*
X100342000Y-120315700D01*
X100342000Y-120315700D02*
X97860000Y-122797700D01*
X97860000Y-122797700D02*
X97722300Y-122797700D01*
X97722300Y-122797700D02*
X96713900Y-123806100D01*
X96713900Y-123806100D02*
X96713900Y-124643300D01*
X96713900Y-124643300D02*
X96509200Y-124848000D01*
X96509200Y-124848000D02*
X96509200Y-134035700D01*
X96509200Y-134035700D02*
X95809000Y-134735900D01*
X95809000Y-134735900D02*
X95210800Y-134735900D01*
X95210800Y-134735900D02*
X94234400Y-135712300D01*
X94234400Y-135712300D02*
X94234400Y-136587100D01*
X94234400Y-136587100D02*
X94909600Y-137262300D01*
X94909600Y-137262300D02*
X98385900Y-137262300D01*
X98385900Y-137262300D02*
X99368100Y-136280100D01*
X99368100Y-136280100D02*
X99368100Y-136144000D01*
X100457000Y-136144000D02*
X99368100Y-136144000D01*
X102133400Y-101406300D02*
X101999900Y-101539800D01*
X101999900Y-101539800D02*
X101999900Y-110254900D01*
X101999900Y-110254900D02*
X102997000Y-111252000D01*
X102133400Y-100381000D02*
X102133400Y-101406300D01*
X105537000Y-136144000D02*
X104448100Y-136144000D01*
X102662900Y-114472900D02*
X102662900Y-115205500D01*
X102662900Y-115205500D02*
X101683100Y-116185300D01*
X101683100Y-116185300D02*
X101683100Y-128897400D01*
X101683100Y-128897400D02*
X99347800Y-131232700D01*
X99347800Y-131232700D02*
X99347800Y-134044200D01*
X99347800Y-134044200D02*
X100358600Y-135055000D01*
X100358600Y-135055000D02*
X100957400Y-135055000D01*
X100957400Y-135055000D02*
X101727000Y-135824600D01*
X101727000Y-135824600D02*
X101727000Y-136440900D01*
X101727000Y-136440900D02*
X102561900Y-137275800D01*
X102561900Y-137275800D02*
X103429100Y-137275800D01*
X103429100Y-137275800D02*
X104448100Y-136256800D01*
X104448100Y-136256800D02*
X104448100Y-136144000D01*
X97053400Y-101406300D02*
X99187000Y-103539900D01*
X99187000Y-103539900D02*
X99187000Y-109982000D01*
X99187000Y-109982000D02*
X100457000Y-111252000D01*
X97053400Y-100381000D02*
X97053400Y-101406300D01*
X129626300Y-87658600D02*
X129626300Y-85923700D01*
X128651000Y-125984000D02*
X128651000Y-124958700D01*
X136064100Y-103675100D02*
X136064100Y-106359000D01*
X136064100Y-106359000D02*
X132705700Y-109717400D01*
X132705700Y-109717400D02*
X132705700Y-120904000D01*
X132705700Y-120904000D02*
X128651000Y-124958700D01*
X136423400Y-103675100D02*
X136064100Y-103675100D01*
X136064100Y-103675100D02*
X136064100Y-101716400D01*
X136064100Y-101716400D02*
X134706300Y-100358600D01*
X101778000Y-84531200D02*
X100772000Y-85537200D01*
X100772000Y-85537200D02*
X98901900Y-85537200D01*
X98901900Y-85537200D02*
X93458400Y-90980700D01*
X93458400Y-90980700D02*
X91135200Y-90980700D01*
X91135200Y-90980700D02*
X87373900Y-94742000D01*
X87373900Y-94742000D02*
X86683100Y-94742000D01*
X86683100Y-94742000D02*
X85562500Y-95862600D01*
X85562500Y-95862600D02*
X85562500Y-97190500D01*
X85562500Y-97190500D02*
X84201000Y-98552000D01*
X114833400Y-99355700D02*
X115228200Y-99355700D01*
X115228200Y-99355700D02*
X116640600Y-97943300D01*
X116640600Y-97943300D02*
X116640600Y-97548500D01*
X116640600Y-97548500D02*
X118643400Y-95545700D01*
X118643400Y-95545700D02*
X118643400Y-92576400D01*
X118643400Y-92576400D02*
X123561200Y-87658600D01*
X123561200Y-87658600D02*
X127086300Y-87658600D01*
X114833400Y-100381000D02*
X114833400Y-99355700D01*
X110617000Y-108712000D02*
X109653700Y-109675300D01*
X109653700Y-109675300D02*
X109653700Y-112980200D01*
X109653700Y-112980200D02*
X109052900Y-113581000D01*
X109052900Y-113581000D02*
X109052900Y-129939900D01*
X109052900Y-129939900D02*
X107680100Y-131312700D01*
X108077000Y-108712000D02*
X109052900Y-109687900D01*
X109052900Y-109687900D02*
X109052900Y-111624000D01*
X109052900Y-111624000D02*
X106985400Y-113691500D01*
X106985400Y-113691500D02*
X104436300Y-113691500D01*
X104436300Y-113691500D02*
X104145900Y-113981900D01*
X104145900Y-113981900D02*
X104145900Y-114536600D01*
X104145900Y-114536600D02*
X102060400Y-116622100D01*
X102060400Y-116622100D02*
X102060400Y-129251700D01*
X102060400Y-129251700D02*
X100660700Y-130651400D01*
X134706300Y-92738600D02*
X133103000Y-94341900D01*
X133103000Y-94341900D02*
X126683600Y-94341900D01*
X126683600Y-94341900D02*
X125816400Y-95209100D01*
X125816400Y-95209100D02*
X125816400Y-95334900D01*
X125816400Y-95334900D02*
X124294400Y-96856900D01*
X124294400Y-96856900D02*
X123897900Y-96856900D01*
X123897900Y-96856900D02*
X123407500Y-97347300D01*
X109753400Y-101406300D02*
X108077000Y-103082700D01*
X108077000Y-103082700D02*
X108077000Y-108712000D01*
X109753400Y-100381000D02*
X109753400Y-101406300D01*
X105537000Y-108712000D02*
X104360300Y-109888700D01*
X104360300Y-109888700D02*
X104360300Y-112103300D01*
X104360300Y-112103300D02*
X102187600Y-114276000D01*
X102187600Y-114276000D02*
X102187600Y-115205100D01*
X102187600Y-115205100D02*
X101147300Y-116245400D01*
X101147300Y-116245400D02*
X101147300Y-120710000D01*
X101147300Y-120710000D02*
X99463300Y-122394000D01*
X99463300Y-122394000D02*
X99463300Y-129798300D01*
X99463300Y-129798300D02*
X99588800Y-129923800D01*
X99588800Y-129923800D02*
X99588800Y-130566800D01*
X99588800Y-130566800D02*
X99027200Y-131128400D01*
X99027200Y-131128400D02*
X99027200Y-134057700D01*
X99027200Y-134057700D02*
X98029800Y-135055100D01*
X98029800Y-135055100D02*
X97917000Y-135055100D01*
X97917000Y-136144000D02*
X97917000Y-135055100D01*
X102997000Y-136144000D02*
X102997000Y-135055100D01*
X104650300Y-114166800D02*
X104650300Y-120376800D01*
X104650300Y-120376800D02*
X106478400Y-122204900D01*
X106478400Y-122204900D02*
X106478400Y-124353500D01*
X106478400Y-124353500D02*
X105518400Y-125313500D01*
X105518400Y-125313500D02*
X105288800Y-125313500D01*
X105288800Y-125313500D02*
X104448000Y-126154300D01*
X104448000Y-126154300D02*
X104448000Y-133716900D01*
X104448000Y-133716900D02*
X103109800Y-135055100D01*
X103109800Y-135055100D02*
X102997000Y-135055100D01*
X99593400Y-101406300D02*
X99593400Y-107848400D01*
X99593400Y-107848400D02*
X100457000Y-108712000D01*
X99593400Y-100381000D02*
X99593400Y-101406300D01*
X105329700Y-114464700D02*
X106778800Y-115913800D01*
X106778800Y-115913800D02*
X106778800Y-125462700D01*
X106778800Y-125462700D02*
X106626000Y-125615500D01*
X106626000Y-125615500D02*
X106626000Y-134693000D01*
X106626000Y-134693000D02*
X108077000Y-136144000D01*
X94513400Y-101406300D02*
X97917000Y-104809900D01*
X97917000Y-104809900D02*
X97917000Y-108712000D01*
X94513400Y-100381000D02*
X94513400Y-101406300D01*
X86741000Y-96012000D02*
X88222500Y-94530500D01*
X88222500Y-94530500D02*
X99274500Y-94530500D01*
X99274500Y-94530500D02*
X100978200Y-92826800D01*
X100978200Y-92826800D02*
X100978200Y-92281100D01*
X100978200Y-92281100D02*
X105588000Y-87671300D01*
X105588000Y-87671300D02*
X105588000Y-85801200D01*
X105588000Y-85801200D02*
X106858000Y-84531200D01*
X84201000Y-108712000D02*
X86741000Y-106172000D01*
X86741000Y-106172000D02*
X86741000Y-96012000D01*
X137246300Y-100358600D02*
X137246300Y-105840300D01*
X137246300Y-105840300D02*
X135001000Y-108085600D01*
X135001000Y-108085600D02*
X135001000Y-120423800D01*
X135001000Y-120423800D02*
X129921000Y-125503800D01*
X129921000Y-125503800D02*
X129921000Y-126168700D01*
X129921000Y-126168700D02*
X129072600Y-127017100D01*
X129072600Y-127017100D02*
X128169400Y-127017100D01*
X128169400Y-127017100D02*
X127136300Y-125984000D01*
X126111000Y-125984000D02*
X127136300Y-125984000D01*
X121031000Y-125984000D02*
X121031000Y-124958700D01*
X132166300Y-100358600D02*
X131002700Y-101522200D01*
X131002700Y-101522200D02*
X131002700Y-103392400D01*
X131002700Y-103392400D02*
X129770900Y-104624200D01*
X129770900Y-104624200D02*
X129770900Y-116218800D01*
X129770900Y-116218800D02*
X121031000Y-124958700D01*
X97917000Y-113792000D02*
X96959500Y-114749500D01*
X96959500Y-114749500D02*
X94219400Y-114749500D01*
X94219400Y-114749500D02*
X92025000Y-112555100D01*
X92025000Y-112555100D02*
X84175000Y-112555100D01*
X84175000Y-112555100D02*
X82964100Y-111344200D01*
X82964100Y-111344200D02*
X82964100Y-110015100D01*
X82964100Y-110015100D02*
X81661000Y-108712000D01*
X81661000Y-108712000D02*
X82898000Y-107475000D01*
X82898000Y-107475000D02*
X82898000Y-95987100D01*
X82898000Y-95987100D02*
X84143100Y-94742000D01*
X84143100Y-94742000D02*
X85471000Y-94742000D01*
X85471000Y-94742000D02*
X86741000Y-93472000D01*
X80090600Y-111252000D02*
X80090600Y-95042400D01*
X80090600Y-95042400D02*
X84201000Y-90932000D01*
X97917000Y-116332000D02*
X96980400Y-117268600D01*
X96980400Y-117268600D02*
X91136600Y-117268600D01*
X91136600Y-117268600D02*
X88913100Y-115045100D01*
X88913100Y-115045100D02*
X83641300Y-115045100D01*
X83641300Y-115045100D02*
X80090600Y-111494400D01*
X80090600Y-111494400D02*
X80090600Y-111252000D01*
X80090600Y-111252000D02*
X79121000Y-111252000D01*
X121031000Y-110744000D02*
X121031000Y-109718700D01*
X127086300Y-100358600D02*
X123270600Y-104174300D01*
X123270600Y-104174300D02*
X123270600Y-107479100D01*
X123270600Y-107479100D02*
X121031000Y-109718700D01*
X126111000Y-110744000D02*
X126111000Y-109718700D01*
X124546300Y-100358600D02*
X125496600Y-99408300D01*
X125496600Y-99408300D02*
X127470900Y-99408300D01*
X127470900Y-99408300D02*
X128023900Y-99961300D01*
X128023900Y-99961300D02*
X128023900Y-107805800D01*
X128023900Y-107805800D02*
X126111000Y-109718700D01*
X97917000Y-118872000D02*
X96969600Y-119819400D01*
X96969600Y-119819400D02*
X83791600Y-119819400D01*
X83791600Y-119819400D02*
X76581000Y-112608800D01*
X76581000Y-112608800D02*
X76581000Y-111252000D01*
X76581000Y-111252000D02*
X75644500Y-110315500D01*
X75644500Y-110315500D02*
X75644500Y-108324200D01*
X75644500Y-108324200D02*
X77517600Y-106451100D01*
X77517600Y-106451100D02*
X77517600Y-95075400D01*
X77517600Y-95075400D02*
X84201000Y-88392000D01*
X134706300Y-102898600D02*
X134706300Y-106990800D01*
X134706300Y-106990800D02*
X132310900Y-109386200D01*
X132310900Y-109386200D02*
X132310900Y-116218800D01*
X132310900Y-116218800D02*
X123571000Y-124958700D01*
X123571000Y-125984000D02*
X123571000Y-124958700D01*
X95377000Y-113792000D02*
X93839800Y-112254800D01*
X93839800Y-112254800D02*
X85203800Y-112254800D01*
X85203800Y-112254800D02*
X84201000Y-111252000D01*
X84201000Y-111252000D02*
X83264500Y-110315500D01*
X83264500Y-110315500D02*
X83264500Y-96948500D01*
X83264500Y-96948500D02*
X84201000Y-96012000D01*
X119516300Y-125984000D02*
X120544600Y-127012300D01*
X120544600Y-127012300D02*
X121513400Y-127012300D01*
X121513400Y-127012300D02*
X122301000Y-126224700D01*
X122301000Y-126224700D02*
X122301000Y-125420500D01*
X122301000Y-125420500D02*
X130071200Y-117650300D01*
X130071200Y-117650300D02*
X130071200Y-104993700D01*
X130071200Y-104993700D02*
X132166300Y-102898600D01*
X118491000Y-125984000D02*
X119516300Y-125984000D01*
X81661000Y-111252000D02*
X80724400Y-110315400D01*
X80724400Y-110315400D02*
X80724400Y-103099500D01*
X80724400Y-103099500D02*
X82597600Y-101226300D01*
X82597600Y-101226300D02*
X82597600Y-95075400D01*
X82597600Y-95075400D02*
X84201000Y-93472000D01*
X81661000Y-111252000D02*
X83264400Y-112855400D01*
X83264400Y-112855400D02*
X91900400Y-112855400D01*
X91900400Y-112855400D02*
X95377000Y-116332000D01*
X99238000Y-84531200D02*
X97634600Y-86134600D01*
X97634600Y-86134600D02*
X93410600Y-86134600D01*
X93410600Y-86134600D02*
X87343200Y-92202000D01*
X87343200Y-92202000D02*
X85471000Y-92202000D01*
X85471000Y-92202000D02*
X84201000Y-93472000D01*
X95377000Y-118872000D02*
X94440400Y-117935400D01*
X94440400Y-117935400D02*
X83948300Y-117935400D01*
X83948300Y-117935400D02*
X77667700Y-111654800D01*
X77667700Y-111654800D02*
X77667700Y-109798700D01*
X77667700Y-109798700D02*
X76581000Y-108712000D01*
X127086300Y-102898600D02*
X123571000Y-106413900D01*
X123571000Y-106413900D02*
X123571000Y-110744000D01*
X86741000Y-88392000D02*
X85471000Y-89662000D01*
X85471000Y-89662000D02*
X84118100Y-89662000D01*
X84118100Y-89662000D02*
X77849400Y-95930700D01*
X77849400Y-95930700D02*
X77849400Y-107443600D01*
X77849400Y-107443600D02*
X76581000Y-108712000D01*
X105698700Y-92761000D02*
X109453400Y-96515700D01*
X109453400Y-96515700D02*
X110273400Y-96515700D01*
X104673400Y-92761000D02*
X105698700Y-92761000D01*
X111938000Y-81991200D02*
X103139400Y-73192600D01*
X103139400Y-73192600D02*
X103139400Y-65343100D01*
X103139400Y-65343100D02*
X91931700Y-54135400D01*
X138205600Y-95278600D02*
X139871000Y-96944000D01*
X139871000Y-96944000D02*
X139871000Y-121358700D01*
X139871000Y-121358700D02*
X136271000Y-124958700D01*
X137246300Y-95278600D02*
X138205600Y-95278600D01*
X138205600Y-95278600D02*
X138205600Y-89776900D01*
X138205600Y-89776900D02*
X133868600Y-85439900D01*
X133868600Y-85439900D02*
X131484400Y-85439900D01*
X136271000Y-125984000D02*
X136271000Y-124958700D01*
X97053400Y-92761000D02*
X97053400Y-91735700D01*
X97053400Y-91735700D02*
X100508100Y-88281000D01*
X100508100Y-88281000D02*
X100508100Y-86968400D01*
X100508100Y-86968400D02*
X101554500Y-85922000D01*
X101554500Y-85922000D02*
X101718600Y-85922000D01*
X101718600Y-85922000D02*
X102733900Y-84906700D01*
X102733900Y-84906700D02*
X102733900Y-77867100D01*
X102733900Y-77867100D02*
X99238000Y-74371200D01*
X99593400Y-92761000D02*
X99593400Y-91735700D01*
X99593400Y-91735700D02*
X103050000Y-88279100D01*
X103050000Y-88279100D02*
X103050000Y-76846000D01*
X103050000Y-76846000D02*
X99622700Y-73418700D01*
X99622700Y-73418700D02*
X97650500Y-73418700D01*
X97650500Y-73418700D02*
X96698000Y-74371200D01*
X86741000Y-83312000D02*
X86741000Y-81788200D01*
X86741000Y-81788200D02*
X96698000Y-71831200D01*
X71501000Y-108712000D02*
X75043600Y-105169400D01*
X75043600Y-105169400D02*
X75043600Y-95782400D01*
X75043600Y-95782400D02*
X84037400Y-86788600D01*
X84037400Y-86788600D02*
X84597300Y-86788600D01*
X84597300Y-86788600D02*
X85804400Y-85581500D01*
X85804400Y-85581500D02*
X85804400Y-84248600D01*
X85804400Y-84248600D02*
X86741000Y-83312000D01*
X98591700Y-119794600D02*
X98266500Y-120119800D01*
X98266500Y-120119800D02*
X81870300Y-120119800D01*
X81870300Y-120119800D02*
X81719900Y-119969400D01*
X77597000Y-136144000D02*
X77597000Y-135055100D01*
X77597000Y-135055100D02*
X77733100Y-135055100D01*
X77733100Y-135055100D02*
X78741100Y-134047100D01*
X78741100Y-134047100D02*
X78741100Y-133071700D01*
X78741100Y-133071700D02*
X78159600Y-132490200D01*
X78159600Y-132490200D02*
X78159600Y-123529700D01*
X78159600Y-123529700D02*
X81719900Y-119969400D01*
X81719900Y-119969400D02*
X75311100Y-113560600D01*
X75311100Y-113560600D02*
X75311100Y-111151200D01*
X75311100Y-111151200D02*
X74141900Y-109982000D01*
X74141900Y-109982000D02*
X72771000Y-109982000D01*
X72771000Y-109982000D02*
X71501000Y-108712000D01*
X136271000Y-110744000D02*
X136271000Y-109718700D01*
X127086300Y-92738600D02*
X132899300Y-92738600D01*
X132899300Y-92738600D02*
X133853400Y-91784500D01*
X133853400Y-91784500D02*
X135151600Y-91784500D01*
X135151600Y-91784500D02*
X136309800Y-92942700D01*
X136309800Y-92942700D02*
X136309800Y-95681500D01*
X136309800Y-95681500D02*
X137176900Y-96548600D01*
X137176900Y-96548600D02*
X137302800Y-96548600D01*
X137302800Y-96548600D02*
X138202100Y-97447900D01*
X138202100Y-97447900D02*
X138202100Y-107787600D01*
X138202100Y-107787600D02*
X136271000Y-109718700D01*
X97917000Y-121412000D02*
X96359500Y-122969500D01*
X96359500Y-122969500D02*
X96359500Y-124422600D01*
X96359500Y-124422600D02*
X95377000Y-125405100D01*
X95377000Y-125405100D02*
X95377000Y-132515100D01*
X79121000Y-98552000D02*
X78182200Y-99490800D01*
X78182200Y-99490800D02*
X78182200Y-111692300D01*
X78182200Y-111692300D02*
X83774400Y-117284500D01*
X83774400Y-117284500D02*
X85788500Y-117284500D01*
X85788500Y-117284500D02*
X86741000Y-116332000D01*
X95377000Y-133604000D02*
X95377000Y-132515100D01*
X108077000Y-132515100D02*
X109353300Y-131238800D01*
X109353300Y-131238800D02*
X109353300Y-113705500D01*
X109353300Y-113705500D02*
X110870200Y-112188600D01*
X110870200Y-112188600D02*
X111029500Y-112188600D01*
X111029500Y-112188600D02*
X111843100Y-111375000D01*
X111843100Y-111375000D02*
X111843100Y-110450700D01*
X111843100Y-110450700D02*
X113439000Y-108854800D01*
X113439000Y-108854800D02*
X113439000Y-100325400D01*
X113439000Y-100325400D02*
X115667300Y-98097100D01*
X115667300Y-98097100D02*
X116062000Y-98097100D01*
X116062000Y-98097100D02*
X116340300Y-97818800D01*
X116340300Y-97818800D02*
X116340300Y-94819400D01*
X116340300Y-94819400D02*
X117373400Y-93786300D01*
X108077000Y-133604000D02*
X108077000Y-132515100D01*
X117373400Y-92761000D02*
X117373400Y-93786300D01*
X97917000Y-123952000D02*
X98862600Y-124897600D01*
X98862600Y-124897600D02*
X98862600Y-130195900D01*
X98862600Y-130195900D02*
X98813200Y-130245300D01*
X84201000Y-113792000D02*
X82854800Y-113792000D01*
X82854800Y-113792000D02*
X80424000Y-111361200D01*
X80424000Y-111361200D02*
X80424000Y-97249000D01*
X80424000Y-97249000D02*
X81661000Y-96012000D01*
X79121000Y-126492000D02*
X79121000Y-129986000D01*
X79121000Y-129986000D02*
X81256900Y-132121900D01*
X81256900Y-132121900D02*
X81256900Y-136688800D01*
X81256900Y-136688800D02*
X83356200Y-138788100D01*
X83356200Y-138788100D02*
X128356100Y-138788100D01*
X128356100Y-138788100D02*
X131118100Y-136026100D01*
X131118100Y-136026100D02*
X131118100Y-135890000D01*
X132207000Y-135890000D02*
X131118100Y-135890000D01*
X79121000Y-123952000D02*
X80391100Y-125222100D01*
X80391100Y-125222100D02*
X80391100Y-128839200D01*
X80391100Y-128839200D02*
X81557300Y-130005400D01*
X81557300Y-130005400D02*
X81557300Y-136564300D01*
X81557300Y-136564300D02*
X83480800Y-138487800D01*
X83480800Y-138487800D02*
X122276500Y-138487800D01*
X122276500Y-138487800D02*
X126325400Y-134438900D01*
X126325400Y-134438900D02*
X130165400Y-134438900D01*
X130165400Y-134438900D02*
X131118100Y-133486200D01*
X131118100Y-133486200D02*
X131118100Y-133350000D01*
X132207000Y-133350000D02*
X131118100Y-133350000D01*
X137287000Y-135890000D02*
X136198100Y-135890000D01*
X136198100Y-135890000D02*
X136198100Y-135753800D01*
X136198100Y-135753800D02*
X135245400Y-134801100D01*
X135245400Y-134801100D02*
X134627200Y-134801100D01*
X134627200Y-134801100D02*
X133477000Y-133650900D01*
X133477000Y-133650900D02*
X133477000Y-133042800D01*
X133477000Y-133042800D02*
X132691700Y-132257500D01*
X132691700Y-132257500D02*
X122628200Y-132257500D01*
X122628200Y-132257500D02*
X116698200Y-138187500D01*
X116698200Y-138187500D02*
X85663400Y-138187500D01*
X85663400Y-138187500D02*
X84125100Y-136649200D01*
X84125100Y-136649200D02*
X84125100Y-126567900D01*
X84125100Y-126567900D02*
X84201000Y-126492000D01*
X136198100Y-133350000D02*
X136198100Y-133213900D01*
X136198100Y-133213900D02*
X131485200Y-128501000D01*
X131485200Y-128501000D02*
X115289600Y-128501000D01*
X115289600Y-128501000D02*
X114948100Y-128159500D01*
X137287000Y-133350000D02*
X136198100Y-133350000D01*
X138738100Y-133350000D02*
X138738100Y-133213900D01*
X138738100Y-133213900D02*
X133353700Y-127829500D01*
X133353700Y-127829500D02*
X122291900Y-127829500D01*
X139827000Y-133350000D02*
X138738100Y-133350000D01*
X58801000Y-75692000D02*
X58801000Y-76780900D01*
X58801000Y-76780900D02*
X58664900Y-76780900D01*
X58664900Y-76780900D02*
X57705600Y-77740200D01*
X57705600Y-77740200D02*
X57705600Y-83816200D01*
X57705600Y-83816200D02*
X58652400Y-84763000D01*
X58652400Y-84763000D02*
X59273100Y-84763000D01*
X59273100Y-84763000D02*
X60252000Y-85741900D01*
X60252000Y-85741900D02*
X60252000Y-91417400D01*
X60252000Y-91417400D02*
X61036600Y-92202000D01*
X61036600Y-92202000D02*
X61672700Y-92202000D01*
X61672700Y-92202000D02*
X66732200Y-97261500D01*
X66732200Y-97261500D02*
X66732200Y-105296300D01*
X66732200Y-105296300D02*
X71126300Y-109690400D01*
X71126300Y-109690400D02*
X71754700Y-109690400D01*
X71754700Y-109690400D02*
X73104300Y-111040000D01*
X73104300Y-111040000D02*
X73104300Y-125555300D01*
X73104300Y-125555300D02*
X74041000Y-126492000D01*
X59889900Y-103632000D02*
X59889900Y-103768200D01*
X59889900Y-103768200D02*
X60842600Y-104720900D01*
X60842600Y-104720900D02*
X65354900Y-104720900D01*
X65354900Y-104720900D02*
X70624700Y-109990700D01*
X70624700Y-109990700D02*
X71600000Y-109990700D01*
X71600000Y-109990700D02*
X72753900Y-111144600D01*
X72753900Y-111144600D02*
X72753900Y-125239100D01*
X72753900Y-125239100D02*
X71501000Y-126492000D01*
X58801000Y-103632000D02*
X59889900Y-103632000D01*
X58801000Y-106172000D02*
X59889900Y-106172000D01*
X59889900Y-106172000D02*
X59889900Y-106308200D01*
X59889900Y-106308200D02*
X60842600Y-107260900D01*
X60842600Y-107260900D02*
X66301800Y-107260900D01*
X66301800Y-107260900D02*
X70525800Y-111484900D01*
X70525800Y-111484900D02*
X70525800Y-122976800D01*
X70525800Y-122976800D02*
X71501000Y-123952000D01*
X114833400Y-93786300D02*
X114601300Y-94018400D01*
X114601300Y-94018400D02*
X114601300Y-98097100D01*
X114833400Y-92761000D02*
X114833400Y-93786300D01*
X122265000Y-104598300D02*
X122265000Y-106852100D01*
X122265000Y-106852100D02*
X119648300Y-109468800D01*
X119648300Y-109468800D02*
X119648300Y-123114700D01*
X119648300Y-123114700D02*
X117457200Y-125305800D01*
X117457200Y-125305800D02*
X117457200Y-126400500D01*
X117457200Y-126400500D02*
X118374200Y-127317500D01*
X118374200Y-127317500D02*
X129857500Y-127317500D01*
X129857500Y-127317500D02*
X131191000Y-125984000D01*
X112293400Y-92761000D02*
X112293400Y-95185000D01*
X112293400Y-95185000D02*
X108713900Y-98764500D01*
X108713900Y-98764500D02*
X102276600Y-98764500D01*
X102276600Y-98764500D02*
X101108000Y-99933100D01*
X101108000Y-99933100D02*
X101108000Y-101599800D01*
X101108000Y-101599800D02*
X101393600Y-101885400D01*
X101393600Y-101885400D02*
X101393600Y-113627200D01*
X101393600Y-113627200D02*
X101286700Y-113734100D01*
X101286700Y-113734100D02*
X101286700Y-114301400D01*
X101286700Y-114301400D02*
X98019100Y-117569000D01*
X98019100Y-117569000D02*
X89682900Y-117569000D01*
X89682900Y-117569000D02*
X87506300Y-115392400D01*
X87506300Y-115392400D02*
X85140600Y-115392400D01*
X85140600Y-115392400D02*
X84201000Y-116332000D01*
X109753400Y-92761000D02*
X109753400Y-91735700D01*
X109753400Y-91735700D02*
X113208000Y-88281100D01*
X113208000Y-88281100D02*
X113208000Y-73101200D01*
X113208000Y-73101200D02*
X114478000Y-71831200D01*
M02*
