M48
; DRILL file {KiCad 5.1.4-e60b266~84~ubuntu18.04.1} date Sun 27 Oct 2019 20:44:53 GMT
; FORMAT={-:-/ absolute / inch / decimal}
; #@! TF.CreationDate,2019-10-27T20:44:53+00:00
; #@! TF.GenerationSoftware,Kicad,Pcbnew,5.1.4-e60b266~84~ubuntu18.04.1
FMAT,2
INCH
T1C0.0118
T2C0.0315
T3C0.0354
T4C0.0394
T5C0.0400
T6C0.0430
T7C0.0433
T8C0.0472
T9C0.1260
T10C0.0669
%
G90
G05
T1
X2.3092Y-5.1512
X2.6938Y-4.0749
X2.774Y-4.0855
X2.8921Y-4.08
X3.0128Y-2.1
X3.0635Y-1.9616
X3.075Y-1.8346
X3.1456Y-2.3067
X3.2559Y-2.2725
X3.5409Y-4.7977
X3.585Y-4.679
X3.6194Y-2.1313
X3.695Y-2.0465
X3.7346Y-3.8375
X3.8543Y-3.794
X3.8816Y-4.7163
X3.8903Y-5.1278
X3.9167Y-4.6104
X3.963Y-5.1438
X3.9661Y-4.0726
X4.0418Y-4.5068
X4.1014Y-2.5514
X4.1201Y-4.4948
X4.1468Y-4.5065
X4.221Y-2.5937
X4.2394Y-5.1698
X4.3103Y-4.2888
X4.3415Y-3.7998
X4.3733Y-3.7507
X4.4106Y-5.1422
X4.4467Y-2.2797
X4.4814Y-4.948
X4.5119Y-3.8621
X4.5219Y-2.2875
X4.5255Y-5.0456
X4.5271Y-4.39
X4.5616Y-3.8434
X4.6986Y-3.2813
X4.775Y-2.7078
X4.8136Y-4.118
X4.8146Y-5.0327
X4.8586Y-3.8326
X4.8788Y-3.2813
X4.881Y-3.0817
X4.895Y-2.4364
X4.919Y-4.5839
X4.967Y-3.2852
X4.9861Y-4.2166
X4.995Y-2.7676
X5.0109Y-3.1621
X5.0853Y-3.2633
X5.1034Y-3.3828
X5.1043Y-2.5124
X5.1659Y-3.279
X5.1766Y-3.3638
X5.1878Y-3.0697
X5.1899Y-2.5623
X5.191Y-4.7061
X5.265Y-2.0246
X5.2753Y-3.186
X5.295Y-2.7661
X5.331Y-2.9831
X5.3556Y-3.192
X5.371Y-4.0817
X5.3824Y-3.0739
X5.4477Y-1.9809
X5.4479Y-1.8452
X5.5366Y-4.0157
X5.5831Y-3.0832
X5.635Y-1.8308
X5.635Y-1.9115
X5.6542Y-2.8736
X5.6542Y-3.2297
X5.7091Y-3.0544
X5.7555Y-4.7936
X5.7559Y-4.1059
X5.7949Y-3.0647
X5.8357Y-4.7737
X5.8367Y-4.1179
X5.8491Y-2.8733
X5.9186Y-3.3384
T2
X2.715Y-4.38
X2.715Y-4.48
X2.715Y-4.58
X2.715Y-4.68
X2.715Y-4.78
X2.715Y-4.88
X2.815Y-4.28
X2.815Y-4.38
X2.815Y-4.48
X2.815Y-4.58
X2.815Y-4.68
X2.815Y-4.78
X2.815Y-4.88
X2.815Y-4.98
X2.915Y-4.28
X2.915Y-4.38
X2.915Y-4.88
X2.915Y-4.98
X3.015Y-4.28
X3.015Y-4.38
X3.015Y-4.88
X3.015Y-4.98
X3.115Y-4.28
X3.115Y-4.38
X3.115Y-4.88
X3.115Y-4.98
X3.215Y-4.28
X3.215Y-4.38
X3.215Y-4.88
X3.215Y-4.98
X3.315Y-4.28
X3.315Y-4.38
X3.315Y-4.48
X3.315Y-4.58
X3.315Y-4.68
X3.315Y-4.78
X3.315Y-4.88
X3.315Y-4.98
X3.415Y-4.38
X3.415Y-4.48
X3.415Y-4.58
X3.415Y-4.68
X3.415Y-4.78
X3.415Y-4.88
X3.621Y-3.652
X3.621Y-3.952
X3.721Y-3.652
X3.721Y-3.952
X3.821Y-3.652
X3.821Y-3.952
X3.921Y-3.652
X3.921Y-3.952
X4.021Y-3.652
X4.021Y-3.952
X4.121Y-3.652
X4.121Y-3.952
X4.221Y-3.652
X4.221Y-3.952
X4.321Y-3.652
X4.321Y-3.952
X4.421Y-3.652
X4.421Y-3.952
X4.521Y-3.652
X4.521Y-3.952
X4.621Y-3.652
X4.621Y-3.952
X4.721Y-3.652
X4.721Y-3.952
X4.665Y-4.36
X4.665Y-4.96
X4.765Y-4.36
X4.765Y-4.96
X4.865Y-4.36
X4.865Y-4.96
X4.965Y-4.36
X4.965Y-4.96
X5.065Y-4.36
X5.065Y-4.96
X5.165Y-4.36
X5.165Y-4.96
X5.265Y-4.36
X5.265Y-4.96
X5.365Y-4.36
X5.365Y-4.96
X5.465Y-4.36
X5.465Y-4.96
X5.565Y-4.36
X5.565Y-4.96
X5.665Y-4.36
X5.665Y-4.96
X5.765Y-4.36
X5.765Y-4.96
X5.865Y-4.36
X5.865Y-4.96
X5.965Y-4.36
X5.965Y-4.96
X3.755Y-4.38
X3.755Y-4.48
X3.755Y-4.58
X3.755Y-4.68
X3.755Y-4.78
X3.755Y-4.88
X3.855Y-4.28
X3.855Y-4.38
X3.855Y-4.48
X3.855Y-4.58
X3.855Y-4.68
X3.855Y-4.78
X3.855Y-4.88
X3.855Y-4.98
X3.955Y-4.28
X3.955Y-4.38
X3.955Y-4.88
X3.955Y-4.98
X4.055Y-4.28
X4.055Y-4.38
X4.055Y-4.88
X4.055Y-4.98
X4.155Y-4.28
X4.155Y-4.38
X4.155Y-4.88
X4.155Y-4.98
X4.255Y-4.28
X4.255Y-4.38
X4.255Y-4.88
X4.255Y-4.98
X4.355Y-4.28
X4.355Y-4.38
X4.355Y-4.48
X4.355Y-4.58
X4.355Y-4.68
X4.355Y-4.78
X4.355Y-4.88
X4.355Y-4.98
X4.455Y-4.38
X4.455Y-4.48
X4.455Y-4.58
X4.455Y-4.68
X4.455Y-4.78
X4.455Y-4.88
X3.807Y-2.828
X3.807Y-2.928
X3.807Y-3.028
X3.807Y-3.128
X3.807Y-3.228
X3.807Y-3.328
X3.907Y-2.728
X3.907Y-2.828
X3.907Y-2.928
X3.907Y-3.028
X3.907Y-3.128
X3.907Y-3.228
X3.907Y-3.328
X3.907Y-3.428
X4.007Y-2.728
X4.007Y-2.828
X4.007Y-3.328
X4.007Y-3.428
X4.107Y-2.728
X4.107Y-2.828
X4.107Y-3.328
X4.107Y-3.428
X4.207Y-2.728
X4.207Y-2.828
X4.207Y-3.328
X4.207Y-3.428
X4.307Y-2.728
X4.307Y-2.828
X4.307Y-3.328
X4.307Y-3.428
X4.407Y-2.728
X4.407Y-2.828
X4.407Y-2.928
X4.407Y-3.028
X4.407Y-3.128
X4.407Y-3.228
X4.407Y-3.328
X4.407Y-3.428
X4.507Y-2.828
X4.507Y-2.928
X4.507Y-3.028
X4.507Y-3.128
X4.507Y-3.228
X4.507Y-3.328
X2.715Y-3.28
X2.715Y-3.38
X2.715Y-3.48
X2.715Y-3.58
X2.715Y-3.68
X2.715Y-3.78
X2.815Y-3.18
X2.815Y-3.28
X2.815Y-3.38
X2.815Y-3.48
X2.815Y-3.58
X2.815Y-3.68
X2.815Y-3.78
X2.815Y-3.88
X2.915Y-3.18
X2.915Y-3.28
X2.915Y-3.78
X2.915Y-3.88
X3.015Y-3.18
X3.015Y-3.28
X3.015Y-3.78
X3.015Y-3.88
X3.115Y-3.18
X3.115Y-3.28
X3.115Y-3.78
X3.115Y-3.88
X3.215Y-3.18
X3.215Y-3.28
X3.215Y-3.78
X3.215Y-3.88
X3.315Y-3.18
X3.315Y-3.28
X3.315Y-3.38
X3.315Y-3.48
X3.315Y-3.58
X3.315Y-3.68
X3.315Y-3.78
X3.315Y-3.88
X3.415Y-3.28
X3.415Y-3.38
X3.415Y-3.48
X3.415Y-3.58
X3.415Y-3.68
X3.415Y-3.78
X4.9034Y-3.5511
X4.9034Y-3.6511
X4.9034Y-3.7511
X4.9034Y-3.8511
X4.9034Y-3.9511
X5.0034Y-3.4511
X5.0034Y-3.5511
X5.0034Y-3.6511
X5.0034Y-3.7511
X5.0034Y-3.8511
X5.0034Y-3.9511
X5.0034Y-4.0511
X5.1034Y-3.4511
X5.1034Y-3.5511
X5.1034Y-3.9511
X5.1034Y-4.0511
X5.2034Y-3.4511
X5.2034Y-3.5511
X5.2034Y-3.9511
X5.2034Y-4.0511
X5.3034Y-3.4511
X5.3034Y-3.5511
X5.3034Y-3.6511
X5.3034Y-3.7511
X5.3034Y-3.8511
X5.3034Y-3.9511
X5.3034Y-4.0511
X5.4034Y-3.5511
X5.4034Y-3.6511
X5.4034Y-3.7511
X5.4034Y-3.8511
X5.4034Y-3.9511
T3
X5.265Y-1.66
X5.265Y-1.76
X4.683Y-4.12
X4.683Y-4.22
T4
X3.955Y-1.72
X3.695Y-1.72
X5.015Y-1.72
X4.755Y-1.72
X4.495Y-1.72
X4.235Y-1.72
T5
X2.695Y-2.14
X2.695Y-2.24
X2.695Y-2.34
X2.695Y-2.44
X2.695Y-2.54
X2.795Y-2.14
X2.795Y-2.24
X2.795Y-2.34
X2.795Y-2.44
X2.795Y-2.54
X2.655Y-5.26
X2.655Y-5.36
X2.755Y-5.26
X2.755Y-5.36
X2.855Y-5.26
X2.855Y-5.36
X2.955Y-5.26
X2.955Y-5.36
X3.055Y-5.26
X3.055Y-5.36
X3.155Y-5.26
X3.155Y-5.36
X3.255Y-5.26
X3.255Y-5.36
X3.355Y-5.26
X3.355Y-5.36
X3.455Y-5.26
X3.455Y-5.36
X3.555Y-5.26
X3.555Y-5.36
X3.655Y-5.26
X3.655Y-5.36
X3.755Y-5.26
X3.755Y-5.36
X3.855Y-5.26
X3.855Y-5.36
X3.955Y-5.26
X3.955Y-5.36
X4.055Y-5.26
X4.055Y-5.36
X4.155Y-5.26
X4.155Y-5.36
X4.255Y-5.26
X4.255Y-5.36
X4.355Y-5.26
X4.355Y-5.36
X4.455Y-5.26
X4.455Y-5.36
X4.555Y-5.26
X4.555Y-5.36
X2.3Y-2.14
X2.3Y-2.24
X2.3Y-2.34
X2.3Y-2.44
X2.3Y-2.54
X2.4Y-2.14
X2.4Y-2.24
X2.4Y-2.34
X2.4Y-2.44
X2.4Y-2.54
X5.005Y-5.25
X5.005Y-5.35
X5.105Y-5.25
X5.105Y-5.35
X5.205Y-5.25
X5.205Y-5.35
X5.305Y-5.25
X5.305Y-5.35
X5.405Y-5.25
X5.405Y-5.35
X5.505Y-5.25
X5.505Y-5.35
X5.605Y-5.25
X5.605Y-5.35
X2.315Y-2.98
X2.315Y-3.08
X2.315Y-3.18
X2.315Y-3.28
X2.315Y-3.38
X2.315Y-3.48
X2.315Y-3.58
X2.315Y-3.68
X2.315Y-3.78
X2.315Y-3.88
X2.315Y-3.98
X2.315Y-4.08
X2.315Y-4.18
X2.315Y-4.28
X2.315Y-4.38
X2.315Y-4.48
X2.315Y-4.58
X2.315Y-4.68
X2.315Y-4.78
X2.315Y-4.88
X2.415Y-2.98
X2.415Y-3.08
X2.415Y-3.18
X2.415Y-3.28
X2.415Y-3.38
X2.415Y-3.48
X2.415Y-3.58
X2.415Y-3.68
X2.415Y-3.78
X2.415Y-3.88
X2.415Y-3.98
X2.415Y-4.08
X2.415Y-4.18
X2.415Y-4.28
X2.415Y-4.38
X2.415Y-4.48
X2.415Y-4.58
X2.415Y-4.68
X2.415Y-4.78
X2.415Y-4.88
T6
X5.815Y-1.94
X5.815Y-2.04
X5.815Y-2.14
X6.035Y-1.94
X6.035Y-2.14
T7
X3.9791Y-2.1428
X3.9791Y-2.32
X4.235Y-2.1428
X4.235Y-2.32
X4.795Y-2.1428
X4.795Y-2.32
X5.0509Y-2.1428
X5.0509Y-2.32
T8
X5.655Y-2.42
X5.655Y-2.5184
X5.655Y-2.6169
X5.655Y-2.7153
T9
X5.935Y-1.72
X2.299Y-1.766
X5.955Y-5.37
X2.3Y-5.37
T10
X5.9377Y-2.42
X5.9377Y-2.7153
T0
M30
