M48
;DRILL file {KiCad 4.0.7-e2-6376~58~ubuntu16.04.1} date Wed Dec 20 13:06:52 2017
;FORMAT={3:3/ absolute / metric / suppress trailing zeros}
FMAT,2
METRIC,LZ
T1C0.300
T2C0.800
T3C0.900
T4C0.950
T5C1.000
T6C1.016
T7C1.092
T8C1.100
T9C1.200
T10C1.300
T11C3.200
T12C1.600
T13C2.700
%
G90
G05
M71
T1
X071831Y-071329
X072651Y-086416
X101497Y-102709
X101871Y-089165
X102291Y-055004
X104209Y-091155
X104304Y-105243
X108242Y-092504
X108526Y-090404
X110928Y-099373
X112323Y-099699
X113543Y-098472
X114807Y-098571
X115065Y-113303
X115408Y-077455
X115682Y-100547
X116956Y-115118
X119663Y-115572
X121623Y-094585
X123461Y-089743
X123628Y-086276
X123743Y-084447
X124295Y-086272
X124595Y-09065
X125371Y-075601
X125971Y-083191
X126622Y-088365
X131959Y-082622
X13249Y-080248
X132539Y-103576
X132875Y-082069
X133013Y-079815
X13508Y-081609
X135642Y-085262
X136889Y-100312
X137238Y-071792
X137594Y-118076
X138531Y-084995
X139059Y-084596
X139291Y-117659
X140196Y-095779
X141026Y-070029
X14232Y-097769
X142596Y-119736
X146605Y-085568
T2
X067945Y-06477
X067945Y-06731
X067945Y-06985
X067945Y-07239
X067945Y-07493
X067945Y-07747
X067945Y-08001
X067945Y-08255
X067945Y-08509
X067945Y-08763
X06858Y-047625
X06985Y-04068
X06985Y-04318
X06985Y-05207
X06985Y-05457
X07108Y-047625
X07239Y-097155
X074295Y-02921
X074295Y-03175
X074295Y-03429
X074295Y-03683
X074295Y-03937
X074295Y-04191
X074295Y-04445
X074295Y-04699
X074295Y-04953
X074295Y-05207
X074295Y-05461
X074295Y-05715
X07489Y-097155
X075565Y-06477
X075565Y-06731
X075565Y-06985
X075565Y-07239
X075565Y-07493
X075565Y-07747
X075565Y-08001
X075565Y-08255
X075565Y-08509
X075565Y-08763
X079375Y-06477
X079375Y-06731
X079375Y-06985
X079375Y-07239
X079375Y-07493
X079375Y-07747
X079375Y-08001
X079375Y-08255
X079375Y-08509
X079375Y-08763
X08128Y-103505
X08128Y-106045
X08128Y-108585
X08128Y-111125
X08128Y-113665
X08128Y-116205
X08128Y-118745
X08128Y-121285
X08128Y-123825
X08128Y-126365
X08128Y-128905
X08128Y-131445
X08128Y-133985
X08128Y-136525
X081915Y-02921
X081915Y-03175
X081915Y-03429
X081915Y-03683
X081915Y-03937
X081915Y-04191
X081915Y-04445
X081915Y-04699
X081915Y-04953
X081915Y-05207
X081915Y-05461
X081915Y-05715
X08509Y-128905
X08509Y-133905
X08636Y-04953
X08636Y-05203
X08636Y-055285
X08636Y-057785
X086995Y-03429
X086995Y-04191
X086995Y-06477
X086995Y-06731
X086995Y-06985
X086995Y-07239
X086995Y-07493
X086995Y-07747
X086995Y-08001
X086995Y-08255
X086995Y-08509
X086995Y-08763
X090805Y-06477
X090805Y-06731
X090805Y-06985
X090805Y-07239
X090805Y-07493
X090805Y-07747
X090805Y-08001
X090805Y-08255
X090805Y-08509
X090805Y-08763
X094615Y-03429
X094615Y-04191
X09652Y-103505
X09652Y-106045
X09652Y-108585
X09652Y-111125
X09652Y-113665
X09652Y-116205
X09652Y-118745
X09652Y-121285
X09652Y-123825
X09652Y-126365
X09652Y-128905
X09652Y-131445
X09652Y-133985
X09652Y-136525
X098425Y-04572
X098425Y-05072
X098425Y-06477
X098425Y-06731
X098425Y-06985
X098425Y-07239
X098425Y-07493
X098425Y-07747
X098425Y-08001
X098425Y-08255
X098425Y-08509
X098425Y-08763
X10287Y-09652
X10287Y-09906
X10287Y-1016
X10287Y-10414
X10287Y-10668
X10287Y-10922
X10287Y-11176
X10287Y-1143
X10287Y-11684
X10287Y-11938
X10287Y-12192
X10287Y-12446
X10287Y-127
X10287Y-12954
X10668Y-092075
X10668Y-12065
X10668Y-12565
X11168Y-092075
X11811Y-09652
X11811Y-09906
X11811Y-1016
X11811Y-10414
X11811Y-10668
X11811Y-10922
X11811Y-11176
X11811Y-1143
X11811Y-11684
X11811Y-11938
X11811Y-12192
X11811Y-12446
X11811Y-127
X11811Y-12954
X122555Y-114935
X122555Y-130175
X125095Y-114935
X125095Y-130175
X12573Y-09271
X12573Y-09525
X12573Y-09779
X12573Y-10033
X12573Y-10287
X12573Y-10541
X12573Y-10795
X12573Y-11049
X127635Y-04318
X127635Y-0508
X127635Y-06985
X127635Y-07485
X127635Y-114935
X127635Y-130175
X128905Y-05588
X128905Y-0635
X130175Y-04318
X130175Y-0508
X130175Y-114935
X130175Y-130175
X13208Y-06858
X13208Y-07112
X13208Y-07366
X13208Y-0762
X132715Y-04318
X132715Y-0508
X132715Y-114935
X132715Y-130175
X135255Y-04318
X135255Y-0508
X135255Y-08001
X135255Y-114935
X135255Y-130175
X136525Y-05588
X136525Y-0635
X136605Y-11049
X137795Y-04318
X137795Y-0508
X137795Y-114935
X137795Y-130175
X1397Y-06858
X1397Y-07112
X1397Y-07366
X1397Y-0762
X140255Y-08001
X140335Y-04318
X140335Y-0508
X140335Y-114935
X140335Y-130175
X141605Y-11049
X142875Y-04318
X142875Y-0508
X142875Y-114935
X142875Y-130175
X14351Y-061595
X14351Y-064135
X14351Y-066675
X14351Y-069215
X14351Y-071755
X14351Y-074295
X14351Y-076835
X14351Y-079375
X145415Y-114935
X145415Y-130175
X147955Y-114935
X147955Y-130175
X14867Y-126365
X150495Y-114935
X150495Y-130175
X153035Y-114935
X153035Y-130175
X15367Y-126365
X155575Y-114935
X155575Y-130175
T3
X07239Y-12954
X07493Y-12954
X144653Y-036068
X147193Y-036068
T4
X10414Y-04699
X10414Y-04699
X10414Y-04953
X10414Y-05207
X10414Y-05461
X10414Y-05715
X10414Y-05969
X10414Y-071755
X10414Y-074295
X10414Y-076835
X10414Y-079375
X10414Y-081915
X10414Y-084455
X10668Y-04445
X10668Y-04445
X10668Y-04699
X10668Y-04953
X10668Y-05207
X10668Y-05461
X10668Y-05715
X10668Y-05969
X10668Y-06223
X10668Y-069215
X10668Y-071755
X10668Y-074295
X10668Y-076835
X10668Y-079375
X10668Y-081915
X10668Y-084455
X10668Y-086995
X10922Y-04445
X10922Y-04699
X10922Y-05969
X10922Y-06223
X10922Y-069215
X10922Y-071755
X10922Y-084455
X10922Y-086995
X11176Y-04445
X11176Y-04699
X11176Y-05969
X11176Y-06223
X11176Y-069215
X11176Y-071755
X11176Y-084455
X11176Y-086995
X1143Y-04445
X1143Y-04699
X1143Y-05969
X1143Y-06223
X1143Y-069215
X1143Y-071755
X1143Y-084455
X1143Y-086995
X11684Y-04445
X11684Y-04699
X11684Y-05969
X11684Y-06223
X11684Y-069215
X11684Y-071755
X11684Y-084455
X11684Y-086995
X11938Y-04445
X11938Y-04699
X11938Y-04953
X11938Y-05207
X11938Y-05461
X11938Y-05715
X11938Y-05969
X11938Y-06223
X11938Y-069215
X11938Y-069215
X11938Y-071755
X11938Y-074295
X11938Y-076835
X11938Y-079375
X11938Y-081915
X11938Y-084455
X11938Y-086995
X12192Y-04699
X12192Y-04953
X12192Y-05207
X12192Y-05461
X12192Y-05715
X12192Y-05969
X12192Y-071755
X12192Y-071755
X12192Y-074295
X12192Y-076835
X12192Y-079375
X12192Y-081915
X12192Y-084455
X131445Y-089535
X131445Y-089535
X131445Y-092075
X131445Y-094615
X131445Y-097155
X131445Y-099695
X131445Y-102235
X133985Y-086995
X133985Y-086995
X133985Y-089535
X133985Y-092075
X133985Y-094615
X133985Y-097155
X133985Y-099695
X133985Y-102235
X133985Y-104775
X136525Y-086995
X136525Y-089535
X136525Y-102235
X136525Y-104775
X139065Y-086995
X139065Y-089535
X139065Y-102235
X139065Y-104775
X141605Y-086995
X141605Y-089535
X141605Y-102235
X141605Y-104775
X144145Y-086995
X144145Y-089535
X144145Y-102235
X144145Y-104775
X146685Y-086995
X146685Y-089535
X146685Y-092075
X146685Y-094615
X146685Y-097155
X146685Y-099695
X146685Y-102235
X146685Y-104775
X149225Y-089535
X149225Y-092075
X149225Y-094615
X149225Y-097155
X149225Y-099695
X149225Y-102235
T5
X06985Y-02286
X0762Y-02286
X104775Y-136525
X114935Y-136525
X151765Y-06985
X151765Y-079375
T6
X05969Y-033655
X05969Y-036195
X05969Y-038735
X05969Y-041275
X05969Y-043815
X05969Y-05588
X05969Y-05842
X05969Y-06096
X05969Y-0635
X05969Y-06604
X05969Y-078105
X05969Y-080645
X05969Y-083185
X05969Y-085725
X05969Y-088265
X05969Y-090805
X05969Y-093345
X05969Y-095885
X05969Y-098425
X05969Y-100965
X05969Y-103505
X05969Y-106045
X05969Y-108585
X05969Y-111125
X05969Y-113665
X05969Y-116205
X05969Y-118745
X05969Y-121285
X05969Y-123825
X05969Y-126365
X06223Y-033655
X06223Y-036195
X06223Y-038735
X06223Y-041275
X06223Y-043815
X06223Y-05588
X06223Y-05842
X06223Y-06096
X06223Y-0635
X06223Y-06604
X06223Y-078105
X06223Y-080645
X06223Y-083185
X06223Y-085725
X06223Y-088265
X06223Y-090805
X06223Y-093345
X06223Y-095885
X06223Y-098425
X06223Y-100965
X06223Y-103505
X06223Y-106045
X06223Y-108585
X06223Y-111125
X06223Y-113665
X06223Y-116205
X06223Y-118745
X06223Y-121285
X06223Y-123825
X06223Y-126365
X16129Y-055245
X16129Y-057785
X16129Y-060325
X16129Y-062865
X16129Y-065405
X16129Y-07747
X16129Y-08001
X16129Y-08255
X16129Y-08509
X16129Y-08763
X16129Y-09017
X16129Y-09271
X16129Y-09525
X16129Y-09779
X16129Y-10033
X16129Y-10287
X16129Y-10541
X16129Y-10795
X16129Y-11049
X16129Y-11303
X16129Y-11557
X16129Y-11811
X16129Y-12065
X16129Y-12319
X16129Y-12573
X16383Y-055245
X16383Y-057785
X16383Y-060325
X16383Y-062865
X16383Y-065405
X16383Y-07747
X16383Y-08001
X16383Y-08255
X16383Y-08509
X16383Y-08763
X16383Y-09017
X16383Y-09271
X16383Y-09525
X16383Y-09779
X16383Y-10033
X16383Y-10287
X16383Y-10541
X16383Y-10795
X16383Y-11049
X16383Y-11303
X16383Y-11557
X16383Y-11811
X16383Y-12065
X16383Y-12319
X16383Y-12573
T7
X10795Y-024765
X10795Y-030353
X11049Y-030353
X11303Y-024765
X11303Y-030353
T8
X147955Y-0508
X147955Y-0553
X154455Y-0508
X154455Y-0553
T9
X06858Y-092075
X06858Y-1016
X06858Y-1143
X06858Y-117475
X06858Y-130175
X07366Y-1016
X07366Y-1143
X0762Y-092075
X080645Y-092075
X088265Y-092075
X09271Y-092075
X10033Y-092075
X126365Y-036068
X139065Y-036068
X157353Y-032004
X157353Y-034504
X157353Y-037004
X157353Y-039504
T10
X124841Y-025908
X147341Y-025908
T11
X05842Y-02413
X05842Y-136525
X10033Y-02413
X151765Y-06223
X164465Y-023876
X164465Y-136525
T12
X164533Y-032004
X164533Y-039504
T13
X136091Y-025908
T0
M30
