G04 #@! TF.FileFunction,Legend,Top*
%FSLAX46Y46*%
G04 Gerber Fmt 4.6, Leading zero omitted, Abs format (unit mm)*
G04 Created by KiCad (PCBNEW 4.0.7-e2-6376~58~ubuntu16.04.1) date Tue Dec 19 13:26:44 2017*
%MOMM*%
%LPD*%
G01*
G04 APERTURE LIST*
%ADD10C,0.100000*%
%ADD11C,0.300000*%
%ADD12C,0.200000*%
%ADD13C,0.120000*%
%ADD14C,0.150000*%
%ADD15C,1.600000*%
%ADD16R,1.600000X1.600000*%
%ADD17R,1.800000X1.800000*%
%ADD18C,1.800000*%
%ADD19R,1.900000X1.900000*%
%ADD20C,1.900000*%
%ADD21R,1.727200X1.727200*%
%ADD22O,1.727200X1.727200*%
%ADD23C,6.400000*%
%ADD24C,2.400000*%
%ADD25O,2.400000X2.400000*%
%ADD26O,1.600000X1.600000*%
%ADD27C,2.000000*%
%ADD28R,1.750000X1.750000*%
%ADD29C,1.750000*%
%ADD30C,3.000000*%
%ADD31C,2.700000*%
%ADD32R,1.700000X1.700000*%
%ADD33C,1.778000*%
G04 APERTURE END LIST*
D10*
D11*
X116883571Y-31035000D02*
X115383571Y-31035000D01*
X115383571Y-30463572D01*
X115455000Y-30320714D01*
X115526429Y-30249286D01*
X115669286Y-30177857D01*
X115883571Y-30177857D01*
X116026429Y-30249286D01*
X116097857Y-30320714D01*
X116169286Y-30463572D01*
X116169286Y-31035000D01*
X116883571Y-29320714D02*
X116812143Y-29463572D01*
X116740714Y-29535000D01*
X116597857Y-29606429D01*
X116169286Y-29606429D01*
X116026429Y-29535000D01*
X115955000Y-29463572D01*
X115883571Y-29320714D01*
X115883571Y-29106429D01*
X115955000Y-28963572D01*
X116026429Y-28892143D01*
X116169286Y-28820714D01*
X116597857Y-28820714D01*
X116740714Y-28892143D01*
X116812143Y-28963572D01*
X116883571Y-29106429D01*
X116883571Y-29320714D01*
X115883571Y-28320714D02*
X116883571Y-28035000D01*
X116169286Y-27749286D01*
X116883571Y-27463571D01*
X115883571Y-27177857D01*
X116812143Y-26035000D02*
X116883571Y-26177857D01*
X116883571Y-26463571D01*
X116812143Y-26606428D01*
X116669286Y-26677857D01*
X116097857Y-26677857D01*
X115955000Y-26606428D01*
X115883571Y-26463571D01*
X115883571Y-26177857D01*
X115955000Y-26035000D01*
X116097857Y-25963571D01*
X116240714Y-25963571D01*
X116383571Y-26677857D01*
X116883571Y-25320714D02*
X115883571Y-25320714D01*
X116169286Y-25320714D02*
X116026429Y-25249286D01*
X115955000Y-25177857D01*
X115883571Y-25035000D01*
X115883571Y-24892143D01*
X115383571Y-22963572D02*
X115383571Y-22677858D01*
X115455000Y-22535000D01*
X115597857Y-22392143D01*
X115883571Y-22320715D01*
X116383571Y-22320715D01*
X116669286Y-22392143D01*
X116812143Y-22535000D01*
X116883571Y-22677858D01*
X116883571Y-22963572D01*
X116812143Y-23106429D01*
X116669286Y-23249286D01*
X116383571Y-23320715D01*
X115883571Y-23320715D01*
X115597857Y-23249286D01*
X115455000Y-23106429D01*
X115383571Y-22963572D01*
X115883571Y-21677857D02*
X116883571Y-21677857D01*
X116026429Y-21677857D02*
X115955000Y-21606429D01*
X115883571Y-21463571D01*
X115883571Y-21249286D01*
X115955000Y-21106429D01*
X116097857Y-21035000D01*
X116883571Y-21035000D01*
D12*
X117475000Y-138430000D02*
X117475000Y-132715000D01*
X146685000Y-138430000D02*
X117475000Y-138430000D01*
X146685000Y-132715000D02*
X146685000Y-138430000D01*
X117475000Y-132715000D02*
X146685000Y-132715000D01*
D11*
X120472859Y-134658571D02*
X120472859Y-133158571D01*
X121044287Y-133158571D01*
X121187145Y-133230000D01*
X121258573Y-133301429D01*
X121330002Y-133444286D01*
X121330002Y-133658571D01*
X121258573Y-133801429D01*
X121187145Y-133872857D01*
X121044287Y-133944286D01*
X120472859Y-133944286D01*
X122187145Y-134658571D02*
X122044287Y-134587143D01*
X121972859Y-134444286D01*
X121972859Y-133158571D01*
X123401430Y-133658571D02*
X123401430Y-134658571D01*
X122758573Y-133658571D02*
X122758573Y-134444286D01*
X122830001Y-134587143D01*
X122972859Y-134658571D01*
X123187144Y-134658571D01*
X123330001Y-134587143D01*
X123401430Y-134515714D01*
X123901430Y-133658571D02*
X124472859Y-133658571D01*
X124115716Y-133158571D02*
X124115716Y-134444286D01*
X124187144Y-134587143D01*
X124330002Y-134658571D01*
X124472859Y-134658571D01*
X125187145Y-134658571D02*
X125044287Y-134587143D01*
X124972859Y-134515714D01*
X124901430Y-134372857D01*
X124901430Y-133944286D01*
X124972859Y-133801429D01*
X125044287Y-133730000D01*
X125187145Y-133658571D01*
X125401430Y-133658571D01*
X125544287Y-133730000D01*
X125615716Y-133801429D01*
X125687145Y-133944286D01*
X125687145Y-134372857D01*
X125615716Y-134515714D01*
X125544287Y-134587143D01*
X125401430Y-134658571D01*
X125187145Y-134658571D01*
X127258573Y-133158571D02*
X127758573Y-134658571D01*
X128258573Y-133158571D01*
X128687144Y-133301429D02*
X128758573Y-133230000D01*
X128901430Y-133158571D01*
X129258573Y-133158571D01*
X129401430Y-133230000D01*
X129472859Y-133301429D01*
X129544287Y-133444286D01*
X129544287Y-133587143D01*
X129472859Y-133801429D01*
X128615716Y-134658571D01*
X129544287Y-134658571D01*
X130187144Y-134515714D02*
X130258572Y-134587143D01*
X130187144Y-134658571D01*
X130115715Y-134587143D01*
X130187144Y-134515714D01*
X130187144Y-134658571D01*
X131187144Y-133158571D02*
X131330001Y-133158571D01*
X131472858Y-133230000D01*
X131544287Y-133301429D01*
X131615716Y-133444286D01*
X131687144Y-133730000D01*
X131687144Y-134087143D01*
X131615716Y-134372857D01*
X131544287Y-134515714D01*
X131472858Y-134587143D01*
X131330001Y-134658571D01*
X131187144Y-134658571D01*
X131044287Y-134587143D01*
X130972858Y-134515714D01*
X130901430Y-134372857D01*
X130830001Y-134087143D01*
X130830001Y-133730000D01*
X130901430Y-133444286D01*
X130972858Y-133301429D01*
X131044287Y-133230000D01*
X131187144Y-133158571D01*
X133472858Y-134658571D02*
X133472858Y-133158571D01*
X133830001Y-133158571D01*
X134044286Y-133230000D01*
X134187144Y-133372857D01*
X134258572Y-133515714D01*
X134330001Y-133801429D01*
X134330001Y-134015714D01*
X134258572Y-134301429D01*
X134187144Y-134444286D01*
X134044286Y-134587143D01*
X133830001Y-134658571D01*
X133472858Y-134658571D01*
X135544286Y-134587143D02*
X135401429Y-134658571D01*
X135115715Y-134658571D01*
X134972858Y-134587143D01*
X134901429Y-134444286D01*
X134901429Y-133872857D01*
X134972858Y-133730000D01*
X135115715Y-133658571D01*
X135401429Y-133658571D01*
X135544286Y-133730000D01*
X135615715Y-133872857D01*
X135615715Y-134015714D01*
X134901429Y-134158571D01*
X136901429Y-134587143D02*
X136758572Y-134658571D01*
X136472858Y-134658571D01*
X136330000Y-134587143D01*
X136258572Y-134515714D01*
X136187143Y-134372857D01*
X136187143Y-133944286D01*
X136258572Y-133801429D01*
X136330000Y-133730000D01*
X136472858Y-133658571D01*
X136758572Y-133658571D01*
X136901429Y-133730000D01*
X138615714Y-133301429D02*
X138687143Y-133230000D01*
X138830000Y-133158571D01*
X139187143Y-133158571D01*
X139330000Y-133230000D01*
X139401429Y-133301429D01*
X139472857Y-133444286D01*
X139472857Y-133587143D01*
X139401429Y-133801429D01*
X138544286Y-134658571D01*
X139472857Y-134658571D01*
X140401428Y-133158571D02*
X140544285Y-133158571D01*
X140687142Y-133230000D01*
X140758571Y-133301429D01*
X140830000Y-133444286D01*
X140901428Y-133730000D01*
X140901428Y-134087143D01*
X140830000Y-134372857D01*
X140758571Y-134515714D01*
X140687142Y-134587143D01*
X140544285Y-134658571D01*
X140401428Y-134658571D01*
X140258571Y-134587143D01*
X140187142Y-134515714D01*
X140115714Y-134372857D01*
X140044285Y-134087143D01*
X140044285Y-133730000D01*
X140115714Y-133444286D01*
X140187142Y-133301429D01*
X140258571Y-133230000D01*
X140401428Y-133158571D01*
X142329999Y-134658571D02*
X141472856Y-134658571D01*
X141901428Y-134658571D02*
X141901428Y-133158571D01*
X141758571Y-133372857D01*
X141615713Y-133515714D01*
X141472856Y-133587143D01*
X142829999Y-133158571D02*
X143829999Y-133158571D01*
X143187142Y-134658571D01*
X124937143Y-136065714D02*
X124794285Y-135994286D01*
X124508571Y-135994286D01*
X124365714Y-136065714D01*
X124222857Y-136208571D01*
X124151428Y-136351429D01*
X124151428Y-136637143D01*
X124222857Y-136780000D01*
X124365714Y-136922857D01*
X124508571Y-136994286D01*
X124794285Y-136994286D01*
X124937143Y-136922857D01*
X124651428Y-135494286D02*
X124294285Y-135565714D01*
X123937143Y-135780000D01*
X123722857Y-136137143D01*
X123651428Y-136494286D01*
X123722857Y-136851429D01*
X123937143Y-137208571D01*
X124294285Y-137422857D01*
X124651428Y-137494286D01*
X125008571Y-137422857D01*
X125365714Y-137208571D01*
X125580000Y-136851429D01*
X125651428Y-136494286D01*
X125580000Y-136137143D01*
X125365714Y-135780000D01*
X125008571Y-135565714D01*
X124651428Y-135494286D01*
X127865714Y-135708571D02*
X127865714Y-136780000D01*
X127794286Y-136994286D01*
X127651429Y-137137143D01*
X127437143Y-137208571D01*
X127294286Y-137208571D01*
X128794286Y-137208571D02*
X128651428Y-137137143D01*
X128580000Y-137065714D01*
X128508571Y-136922857D01*
X128508571Y-136494286D01*
X128580000Y-136351429D01*
X128651428Y-136280000D01*
X128794286Y-136208571D01*
X129008571Y-136208571D01*
X129151428Y-136280000D01*
X129222857Y-136351429D01*
X129294286Y-136494286D01*
X129294286Y-136922857D01*
X129222857Y-137065714D01*
X129151428Y-137137143D01*
X129008571Y-137208571D01*
X128794286Y-137208571D01*
X129937143Y-137208571D02*
X129937143Y-135708571D01*
X130580000Y-137208571D02*
X130580000Y-136422857D01*
X130508571Y-136280000D01*
X130365714Y-136208571D01*
X130151429Y-136208571D01*
X130008571Y-136280000D01*
X129937143Y-136351429D01*
X131937143Y-137208571D02*
X131937143Y-136422857D01*
X131865714Y-136280000D01*
X131722857Y-136208571D01*
X131437143Y-136208571D01*
X131294286Y-136280000D01*
X131937143Y-137137143D02*
X131794286Y-137208571D01*
X131437143Y-137208571D01*
X131294286Y-137137143D01*
X131222857Y-136994286D01*
X131222857Y-136851429D01*
X131294286Y-136708571D01*
X131437143Y-136637143D01*
X131794286Y-136637143D01*
X131937143Y-136565714D01*
X132651429Y-136208571D02*
X132651429Y-137208571D01*
X132651429Y-136351429D02*
X132722857Y-136280000D01*
X132865715Y-136208571D01*
X133080000Y-136208571D01*
X133222857Y-136280000D01*
X133294286Y-136422857D01*
X133294286Y-137208571D01*
X135937143Y-135780000D02*
X135794286Y-135708571D01*
X135580000Y-135708571D01*
X135365715Y-135780000D01*
X135222857Y-135922857D01*
X135151429Y-136065714D01*
X135080000Y-136351429D01*
X135080000Y-136565714D01*
X135151429Y-136851429D01*
X135222857Y-136994286D01*
X135365715Y-137137143D01*
X135580000Y-137208571D01*
X135722857Y-137208571D01*
X135937143Y-137137143D01*
X136008572Y-137065714D01*
X136008572Y-136565714D01*
X135722857Y-136565714D01*
X136651429Y-137208571D02*
X136651429Y-136208571D01*
X136651429Y-136494286D02*
X136722857Y-136351429D01*
X136794286Y-136280000D01*
X136937143Y-136208571D01*
X137080000Y-136208571D01*
X137794286Y-137208571D02*
X137651428Y-137137143D01*
X137580000Y-137065714D01*
X137508571Y-136922857D01*
X137508571Y-136494286D01*
X137580000Y-136351429D01*
X137651428Y-136280000D01*
X137794286Y-136208571D01*
X138008571Y-136208571D01*
X138151428Y-136280000D01*
X138222857Y-136351429D01*
X138294286Y-136494286D01*
X138294286Y-136922857D01*
X138222857Y-137065714D01*
X138151428Y-137137143D01*
X138008571Y-137208571D01*
X137794286Y-137208571D01*
X138722857Y-136208571D02*
X139294286Y-136208571D01*
X138937143Y-135708571D02*
X138937143Y-136994286D01*
X139008571Y-137137143D01*
X139151429Y-137208571D01*
X139294286Y-137208571D01*
X139794286Y-137208571D02*
X139794286Y-135708571D01*
X140437143Y-137208571D02*
X140437143Y-136422857D01*
X140365714Y-136280000D01*
X140222857Y-136208571D01*
X140008572Y-136208571D01*
X139865714Y-136280000D01*
X139794286Y-136351429D01*
D13*
X141515000Y-111800000D02*
X136695000Y-111800000D01*
X141515000Y-109180000D02*
X136695000Y-109180000D01*
X141515000Y-111800000D02*
X141515000Y-111486000D01*
X141515000Y-109494000D02*
X141515000Y-109180000D01*
X136695000Y-111800000D02*
X136695000Y-111486000D01*
X136695000Y-109494000D02*
X136695000Y-109180000D01*
X86400000Y-128995000D02*
X86400000Y-133815000D01*
X83780000Y-128995000D02*
X83780000Y-133815000D01*
X86400000Y-128995000D02*
X86086000Y-128995000D01*
X84094000Y-128995000D02*
X83780000Y-128995000D01*
X86400000Y-133815000D02*
X86086000Y-133815000D01*
X84094000Y-133815000D02*
X83780000Y-133815000D01*
X107990000Y-120740000D02*
X107990000Y-125560000D01*
X105370000Y-120740000D02*
X105370000Y-125560000D01*
X107990000Y-120740000D02*
X107676000Y-120740000D01*
X105684000Y-120740000D02*
X105370000Y-120740000D01*
X107990000Y-125560000D02*
X107676000Y-125560000D01*
X105684000Y-125560000D02*
X105370000Y-125560000D01*
X153580000Y-127675000D02*
X148760000Y-127675000D01*
X153580000Y-125055000D02*
X148760000Y-125055000D01*
X153580000Y-127675000D02*
X153580000Y-127361000D01*
X153580000Y-125369000D02*
X153580000Y-125055000D01*
X148760000Y-127675000D02*
X148760000Y-127361000D01*
X148760000Y-125369000D02*
X148760000Y-125055000D01*
X71849998Y-46443811D02*
G75*
G03X67809307Y-46445000I-2019998J-1181189D01*
G01*
X71849998Y-48806189D02*
G75*
G02X67809307Y-48805000I-2019998J1181189D01*
G01*
X71849998Y-48806189D02*
G75*
G03X71850693Y-46445000I-2019998J1181189D01*
G01*
X66380000Y-47625000D02*
X67580000Y-47625000D01*
X66980000Y-46975000D02*
X66980000Y-48275000D01*
X87541189Y-52799998D02*
G75*
G03X87540000Y-48759307I-1181189J2019998D01*
G01*
X85178811Y-52799998D02*
G75*
G02X85180000Y-48759307I1181189J2019998D01*
G01*
X85178811Y-52799998D02*
G75*
G03X87540000Y-52800693I1181189J2019998D01*
G01*
X86360000Y-47330000D02*
X86360000Y-48530000D01*
X87010000Y-47930000D02*
X85710000Y-47930000D01*
X68668811Y-39910002D02*
G75*
G03X68670000Y-43950693I1181189J-2019998D01*
G01*
X71031189Y-39910002D02*
G75*
G02X71030000Y-43950693I-1181189J-2019998D01*
G01*
X71031189Y-39910002D02*
G75*
G03X68670000Y-39909307I-1181189J-2019998D01*
G01*
X69850000Y-45380000D02*
X69850000Y-44180000D01*
X69200000Y-44780000D02*
X70500000Y-44780000D01*
X71031189Y-55339998D02*
G75*
G03X71030000Y-51299307I-1181189J2019998D01*
G01*
X68668811Y-55339998D02*
G75*
G02X68670000Y-51299307I1181189J2019998D01*
G01*
X68668811Y-55339998D02*
G75*
G03X71030000Y-55340693I1181189J2019998D01*
G01*
X69850000Y-49870000D02*
X69850000Y-51070000D01*
X70500000Y-50470000D02*
X69200000Y-50470000D01*
X85178811Y-54515002D02*
G75*
G03X85180000Y-58555693I1181189J-2019998D01*
G01*
X87541189Y-54515002D02*
G75*
G02X87540000Y-58555693I-1181189J-2019998D01*
G01*
X87541189Y-54515002D02*
G75*
G03X85180000Y-54514307I-1181189J-2019998D01*
G01*
X86360000Y-59985000D02*
X86360000Y-58785000D01*
X85710000Y-59385000D02*
X87010000Y-59385000D01*
X99735000Y-45810000D02*
X99735000Y-50630000D01*
X97115000Y-45810000D02*
X97115000Y-50630000D01*
X99735000Y-45810000D02*
X99421000Y-45810000D01*
X97429000Y-45810000D02*
X97115000Y-45810000D01*
X99735000Y-50630000D02*
X99421000Y-50630000D01*
X97429000Y-50630000D02*
X97115000Y-50630000D01*
X106770000Y-90765000D02*
X111590000Y-90765000D01*
X106770000Y-93385000D02*
X111590000Y-93385000D01*
X106770000Y-90765000D02*
X106770000Y-91079000D01*
X106770000Y-93071000D02*
X106770000Y-93385000D01*
X111590000Y-90765000D02*
X111590000Y-91079000D01*
X111590000Y-93071000D02*
X111590000Y-93385000D01*
X128945000Y-69940000D02*
X128945000Y-74760000D01*
X126325000Y-69940000D02*
X126325000Y-74760000D01*
X128945000Y-69940000D02*
X128631000Y-69940000D01*
X126639000Y-69940000D02*
X126325000Y-69940000D01*
X128945000Y-74760000D02*
X128631000Y-74760000D01*
X126639000Y-74760000D02*
X126325000Y-74760000D01*
X75332335Y-128461392D02*
G75*
G03X72100000Y-128304484I-1672335J-1078608D01*
G01*
X75332335Y-130618608D02*
G75*
G02X72100000Y-130775516I-1672335J1078608D01*
G01*
X74701130Y-128460163D02*
G75*
G03X72619039Y-128460000I-1041130J-1079837D01*
G01*
X74701130Y-130619837D02*
G75*
G02X72619039Y-130620000I-1041130J1079837D01*
G01*
X72100000Y-128304000D02*
X72100000Y-128460000D01*
X72100000Y-130620000D02*
X72100000Y-130776000D01*
X167883000Y-30134000D02*
X159123000Y-30134000D01*
X159123000Y-30134000D02*
X159123000Y-41374000D01*
X159123000Y-41374000D02*
X167883000Y-41374000D01*
X167883000Y-41374000D02*
X167883000Y-30134000D01*
X159123000Y-31854000D02*
X158653000Y-31854000D01*
X158653000Y-31854000D02*
X158653000Y-32154000D01*
X158653000Y-32154000D02*
X159123000Y-32154000D01*
X159123000Y-32154000D02*
X159123000Y-31854000D01*
X159123000Y-34354000D02*
X158653000Y-34354000D01*
X158653000Y-34354000D02*
X158653000Y-34654000D01*
X158653000Y-34654000D02*
X159123000Y-34654000D01*
X159123000Y-34654000D02*
X159123000Y-34354000D01*
X159123000Y-36854000D02*
X158653000Y-36854000D01*
X158653000Y-36854000D02*
X158653000Y-37154000D01*
X158653000Y-37154000D02*
X159123000Y-37154000D01*
X159123000Y-37154000D02*
X159123000Y-36854000D01*
X159123000Y-39354000D02*
X158653000Y-39354000D01*
X158653000Y-39354000D02*
X158653000Y-39654000D01*
X158653000Y-39654000D02*
X159123000Y-39654000D01*
X159123000Y-39654000D02*
X159123000Y-39354000D01*
X157353000Y-30604000D02*
X157053000Y-30004000D01*
X157053000Y-30004000D02*
X157653000Y-30004000D01*
X157653000Y-30004000D02*
X157353000Y-30604000D01*
X65635000Y-28305000D02*
X65635000Y-49165000D01*
X65635000Y-49165000D02*
X56285000Y-49165000D01*
X56285000Y-49165000D02*
X56285000Y-28305000D01*
X56285000Y-28305000D02*
X65635000Y-28305000D01*
X56035000Y-28055000D02*
X56035000Y-30595000D01*
X56035000Y-28055000D02*
X58575000Y-28055000D01*
X65635000Y-50530000D02*
X65635000Y-71390000D01*
X65635000Y-71390000D02*
X56285000Y-71390000D01*
X56285000Y-71390000D02*
X56285000Y-50530000D01*
X56285000Y-50530000D02*
X65635000Y-50530000D01*
X56035000Y-50280000D02*
X56035000Y-52820000D01*
X56035000Y-50280000D02*
X58575000Y-50280000D01*
X157885000Y-70755000D02*
X157885000Y-49895000D01*
X157885000Y-49895000D02*
X167235000Y-49895000D01*
X167235000Y-49895000D02*
X167235000Y-70755000D01*
X167235000Y-70755000D02*
X157885000Y-70755000D01*
X167485000Y-71005000D02*
X167485000Y-68465000D01*
X167485000Y-71005000D02*
X164945000Y-71005000D01*
X65635000Y-72755000D02*
X65635000Y-131715000D01*
X65635000Y-131715000D02*
X56285000Y-131715000D01*
X56285000Y-131715000D02*
X56285000Y-72755000D01*
X56285000Y-72755000D02*
X65635000Y-72755000D01*
X56035000Y-72505000D02*
X56035000Y-75045000D01*
X56035000Y-72505000D02*
X58575000Y-72505000D01*
X67200000Y-112960000D02*
X66720000Y-112960000D01*
X66720000Y-112960000D02*
X66720000Y-102940000D01*
X66720000Y-102940000D02*
X67200000Y-102940000D01*
X69960000Y-112960000D02*
X70440000Y-112960000D01*
X70440000Y-112960000D02*
X70440000Y-102940000D01*
X70440000Y-102940000D02*
X69960000Y-102940000D01*
X67200000Y-128835000D02*
X66720000Y-128835000D01*
X66720000Y-128835000D02*
X66720000Y-118815000D01*
X66720000Y-118815000D02*
X67200000Y-118815000D01*
X69960000Y-128835000D02*
X70440000Y-128835000D01*
X70440000Y-128835000D02*
X70440000Y-118815000D01*
X70440000Y-118815000D02*
X69960000Y-118815000D01*
X72280000Y-112960000D02*
X71800000Y-112960000D01*
X71800000Y-112960000D02*
X71800000Y-102940000D01*
X71800000Y-102940000D02*
X72280000Y-102940000D01*
X75040000Y-112960000D02*
X75520000Y-112960000D01*
X75520000Y-112960000D02*
X75520000Y-102940000D01*
X75520000Y-102940000D02*
X75040000Y-102940000D01*
X144910000Y-60155000D02*
X142110000Y-60155000D01*
X142110000Y-60155000D02*
X142110000Y-80815000D01*
X142110000Y-80815000D02*
X144910000Y-80815000D01*
X144910000Y-80815000D02*
X144910000Y-60155000D01*
X144910000Y-62865000D02*
X142110000Y-62865000D01*
X127130000Y-91270000D02*
X124330000Y-91270000D01*
X124330000Y-91270000D02*
X124330000Y-111930000D01*
X124330000Y-111930000D02*
X127130000Y-111930000D01*
X127130000Y-111930000D02*
X127130000Y-91270000D01*
X127130000Y-93980000D02*
X124330000Y-93980000D01*
X148955000Y-56300000D02*
X153455000Y-56300000D01*
X147705000Y-52300000D02*
X147705000Y-53800000D01*
X153455000Y-49800000D02*
X148955000Y-49800000D01*
X154705000Y-53800000D02*
X154705000Y-52300000D01*
X128485000Y-96885000D02*
X128485000Y-106735000D01*
X128485000Y-106735000D02*
X129485000Y-107735000D01*
X129485000Y-107735000D02*
X152185000Y-107735000D01*
X152185000Y-107735000D02*
X152185000Y-84035000D01*
X152185000Y-84035000D02*
X128485000Y-84035000D01*
X128485000Y-84035000D02*
X128485000Y-94885000D01*
X87900000Y-137855000D02*
G75*
G02X89900000Y-137855000I1000000J0D01*
G01*
X89900000Y-137855000D02*
X95360000Y-137855000D01*
X95360000Y-137855000D02*
X95360000Y-102175000D01*
X95360000Y-102175000D02*
X82440000Y-102175000D01*
X82440000Y-102175000D02*
X82440000Y-137855000D01*
X82440000Y-137855000D02*
X87900000Y-137855000D01*
X97850000Y-137915000D02*
X97850000Y-102115000D01*
X97850000Y-102115000D02*
X79950000Y-102115000D01*
X79950000Y-102115000D02*
X79950000Y-137915000D01*
X79950000Y-137915000D02*
X97850000Y-137915000D01*
X109490000Y-130870000D02*
G75*
G02X111490000Y-130870000I1000000J0D01*
G01*
X111490000Y-130870000D02*
X116950000Y-130870000D01*
X116950000Y-130870000D02*
X116950000Y-95190000D01*
X116950000Y-95190000D02*
X104030000Y-95190000D01*
X104030000Y-95190000D02*
X104030000Y-130870000D01*
X104030000Y-130870000D02*
X109490000Y-130870000D01*
X119440000Y-130930000D02*
X119440000Y-95130000D01*
X119440000Y-95130000D02*
X101540000Y-95130000D01*
X101540000Y-95130000D02*
X101540000Y-130930000D01*
X101540000Y-130930000D02*
X119440000Y-130930000D01*
X156905000Y-123555000D02*
G75*
G02X156905000Y-121555000I0J1000000D01*
G01*
X156905000Y-121555000D02*
X156905000Y-116095000D01*
X156905000Y-116095000D02*
X121225000Y-116095000D01*
X121225000Y-116095000D02*
X121225000Y-129015000D01*
X121225000Y-129015000D02*
X156905000Y-129015000D01*
X156905000Y-129015000D02*
X156905000Y-123555000D01*
X156965000Y-113605000D02*
X121165000Y-113605000D01*
X121165000Y-113605000D02*
X121165000Y-131505000D01*
X121165000Y-131505000D02*
X156965000Y-131505000D01*
X156965000Y-131505000D02*
X156965000Y-113605000D01*
X112030000Y-66255000D02*
X102180000Y-66255000D01*
X102180000Y-66255000D02*
X101180000Y-67255000D01*
X101180000Y-67255000D02*
X101180000Y-89955000D01*
X101180000Y-89955000D02*
X124880000Y-89955000D01*
X124880000Y-89955000D02*
X124880000Y-66255000D01*
X124880000Y-66255000D02*
X114030000Y-66255000D01*
X144205000Y-47990000D02*
G75*
G02X144205000Y-45990000I0J1000000D01*
G01*
X144205000Y-45990000D02*
X144205000Y-44340000D01*
X144205000Y-44340000D02*
X126305000Y-44340000D01*
X126305000Y-44340000D02*
X126305000Y-49640000D01*
X126305000Y-49640000D02*
X144205000Y-49640000D01*
X144205000Y-49640000D02*
X144205000Y-47990000D01*
X144265000Y-41850000D02*
X126245000Y-41850000D01*
X126245000Y-41850000D02*
X126245000Y-52130000D01*
X126245000Y-52130000D02*
X144265000Y-52130000D01*
X144265000Y-52130000D02*
X144265000Y-41850000D01*
X84185000Y-63440000D02*
G75*
G02X82185000Y-63440000I-1000000J0D01*
G01*
X82185000Y-63440000D02*
X80535000Y-63440000D01*
X80535000Y-63440000D02*
X80535000Y-88960000D01*
X80535000Y-88960000D02*
X85835000Y-88960000D01*
X85835000Y-88960000D02*
X85835000Y-63440000D01*
X85835000Y-63440000D02*
X84185000Y-63440000D01*
X78045000Y-63380000D02*
X78045000Y-89020000D01*
X78045000Y-89020000D02*
X88325000Y-89020000D01*
X88325000Y-89020000D02*
X88325000Y-63380000D01*
X88325000Y-63380000D02*
X78045000Y-63380000D01*
X95615000Y-63440000D02*
G75*
G02X93615000Y-63440000I-1000000J0D01*
G01*
X93615000Y-63440000D02*
X91965000Y-63440000D01*
X91965000Y-63440000D02*
X91965000Y-88960000D01*
X91965000Y-88960000D02*
X97265000Y-88960000D01*
X97265000Y-88960000D02*
X97265000Y-63440000D01*
X97265000Y-63440000D02*
X95615000Y-63440000D01*
X89475000Y-63380000D02*
X89475000Y-89020000D01*
X89475000Y-89020000D02*
X99755000Y-89020000D01*
X99755000Y-89020000D02*
X99755000Y-63380000D01*
X99755000Y-63380000D02*
X89475000Y-63380000D01*
X70755000Y-88960000D02*
G75*
G02X72755000Y-88960000I1000000J0D01*
G01*
X72755000Y-88960000D02*
X74405000Y-88960000D01*
X74405000Y-88960000D02*
X74405000Y-63440000D01*
X74405000Y-63440000D02*
X69105000Y-63440000D01*
X69105000Y-63440000D02*
X69105000Y-88960000D01*
X69105000Y-88960000D02*
X70755000Y-88960000D01*
X76895000Y-89020000D02*
X76895000Y-63380000D01*
X76895000Y-63380000D02*
X66615000Y-63380000D01*
X66615000Y-63380000D02*
X66615000Y-89020000D01*
X66615000Y-89020000D02*
X76895000Y-89020000D01*
X79105000Y-27880000D02*
G75*
G02X77105000Y-27880000I-1000000J0D01*
G01*
X77105000Y-27880000D02*
X75455000Y-27880000D01*
X75455000Y-27880000D02*
X75455000Y-58480000D01*
X75455000Y-58480000D02*
X80755000Y-58480000D01*
X80755000Y-58480000D02*
X80755000Y-27880000D01*
X80755000Y-27880000D02*
X79105000Y-27880000D01*
X72965000Y-27820000D02*
X72965000Y-58540000D01*
X72965000Y-58540000D02*
X83245000Y-58540000D01*
X83245000Y-58540000D02*
X83245000Y-27820000D01*
X83245000Y-27820000D02*
X72965000Y-27820000D01*
X101180000Y-54340000D02*
X101180000Y-64190000D01*
X101180000Y-64190000D02*
X102180000Y-65190000D01*
X102180000Y-65190000D02*
X124880000Y-65190000D01*
X124880000Y-65190000D02*
X124880000Y-41490000D01*
X124880000Y-41490000D02*
X101180000Y-41490000D01*
X101180000Y-41490000D02*
X101180000Y-52340000D01*
X126265000Y-53990000D02*
X126265000Y-66140000D01*
X138415000Y-53240000D02*
X127015000Y-53240000D01*
X139165000Y-65390000D02*
X139165000Y-53990000D01*
X126265000Y-66140000D02*
X138415000Y-66140000D01*
X138415000Y-66140000D02*
G75*
G03X139165000Y-65390000I0J750000D01*
G01*
X139165000Y-53990000D02*
G75*
G03X138415000Y-53240000I-750000J0D01*
G01*
X127015000Y-53240000D02*
G75*
G03X126265000Y-53990000I0J-750000D01*
G01*
X96505000Y-31650000D02*
X84355000Y-31650000D01*
X97255000Y-43800000D02*
X97255000Y-32400000D01*
X85105000Y-44550000D02*
X96505000Y-44550000D01*
X84355000Y-31650000D02*
X84355000Y-43800000D01*
X84355000Y-43800000D02*
G75*
G03X85105000Y-44550000I750000J0D01*
G01*
X96505000Y-44550000D02*
G75*
G03X97255000Y-43800000I0J750000D01*
G01*
X97255000Y-32400000D02*
G75*
G03X96505000Y-31650000I-750000J0D01*
G01*
X147595335Y-34989392D02*
G75*
G03X144363000Y-34832484I-1672335J-1078608D01*
G01*
X147595335Y-37146608D02*
G75*
G02X144363000Y-37303516I-1672335J1078608D01*
G01*
X146964130Y-34988163D02*
G75*
G03X144882039Y-34988000I-1041130J-1079837D01*
G01*
X146964130Y-37147837D02*
G75*
G02X144882039Y-37148000I-1041130J1079837D01*
G01*
X144363000Y-34832000D02*
X144363000Y-34988000D01*
X144363000Y-37148000D02*
X144363000Y-37304000D01*
X147341000Y-30708000D02*
X147341000Y-27908000D01*
X147341000Y-23908000D02*
X147341000Y-21108000D01*
X124841000Y-23908000D02*
X124841000Y-21108000D01*
X124841000Y-21108000D02*
X147341000Y-21108000D01*
X124841000Y-30708000D02*
X147341000Y-30708000D01*
X124841000Y-30708000D02*
X124841000Y-27908000D01*
X113605000Y-137855000D02*
X116265000Y-137855000D01*
X113605000Y-137795000D02*
X113605000Y-137855000D01*
X116265000Y-137795000D02*
X116265000Y-137855000D01*
X113605000Y-137795000D02*
X116265000Y-137795000D01*
X113605000Y-136525000D02*
X113605000Y-135195000D01*
X113605000Y-135195000D02*
X114935000Y-135195000D01*
X103445000Y-137855000D02*
X106105000Y-137855000D01*
X103445000Y-137795000D02*
X103445000Y-137855000D01*
X106105000Y-137795000D02*
X106105000Y-137855000D01*
X103445000Y-137795000D02*
X106105000Y-137795000D01*
X103445000Y-136525000D02*
X103445000Y-135195000D01*
X103445000Y-135195000D02*
X104775000Y-135195000D01*
X150435000Y-80705000D02*
X153095000Y-80705000D01*
X150435000Y-80645000D02*
X150435000Y-80705000D01*
X153095000Y-80645000D02*
X153095000Y-80705000D01*
X150435000Y-80645000D02*
X153095000Y-80645000D01*
X150435000Y-79375000D02*
X150435000Y-78045000D01*
X150435000Y-78045000D02*
X151765000Y-78045000D01*
X150435000Y-71180000D02*
X153095000Y-71180000D01*
X150435000Y-71120000D02*
X150435000Y-71180000D01*
X153095000Y-71120000D02*
X153095000Y-71180000D01*
X150435000Y-71120000D02*
X153095000Y-71120000D01*
X150435000Y-69850000D02*
X150435000Y-68520000D01*
X150435000Y-68520000D02*
X151765000Y-68520000D01*
X74870000Y-24190000D02*
X77530000Y-24190000D01*
X74870000Y-24130000D02*
X74870000Y-24190000D01*
X77530000Y-24130000D02*
X77530000Y-24190000D01*
X74870000Y-24130000D02*
X77530000Y-24130000D01*
X74870000Y-22860000D02*
X74870000Y-21530000D01*
X74870000Y-21530000D02*
X76200000Y-21530000D01*
X127705000Y-34688000D02*
X127705000Y-34208000D01*
X127705000Y-34208000D02*
X137725000Y-34208000D01*
X137725000Y-34208000D02*
X137725000Y-34688000D01*
X127705000Y-37448000D02*
X127705000Y-37928000D01*
X127705000Y-37928000D02*
X137725000Y-37928000D01*
X137725000Y-37928000D02*
X137725000Y-37448000D01*
X68520000Y-24190000D02*
X71180000Y-24190000D01*
X68520000Y-24130000D02*
X68520000Y-24190000D01*
X71180000Y-24130000D02*
X71180000Y-24190000D01*
X68520000Y-24130000D02*
X71180000Y-24130000D01*
X68520000Y-22860000D02*
X68520000Y-21530000D01*
X68520000Y-21530000D02*
X69850000Y-21530000D01*
D14*
X109220000Y-20447000D02*
X109220000Y-16256000D01*
X109220000Y-16256000D02*
X111760000Y-16256000D01*
X111760000Y-16256000D02*
X111760000Y-20447000D01*
X106426000Y-20447000D02*
X114554000Y-20447000D01*
X114554000Y-20447000D02*
X114554000Y-31877000D01*
X114554000Y-31877000D02*
X106426000Y-31877000D01*
X106426000Y-31877000D02*
X106426000Y-20447000D01*
D13*
X75659998Y-95973811D02*
G75*
G03X71619307Y-95975000I-2019998J-1181189D01*
G01*
X75659998Y-98336189D02*
G75*
G02X71619307Y-98335000I-2019998J1181189D01*
G01*
X75659998Y-98336189D02*
G75*
G03X75660693Y-95975000I-2019998J1181189D01*
G01*
X70190000Y-97155000D02*
X71390000Y-97155000D01*
X70790000Y-96505000D02*
X70790000Y-97805000D01*
X135345000Y-78700000D02*
X140165000Y-78700000D01*
X135345000Y-81320000D02*
X140165000Y-81320000D01*
X135345000Y-78700000D02*
X135345000Y-79014000D01*
X135345000Y-81006000D02*
X135345000Y-81320000D01*
X140165000Y-78700000D02*
X140165000Y-79014000D01*
X140165000Y-81006000D02*
X140165000Y-81320000D01*
X157885000Y-131080000D02*
X157885000Y-72120000D01*
X157885000Y-72120000D02*
X167235000Y-72120000D01*
X167235000Y-72120000D02*
X167235000Y-131080000D01*
X167235000Y-131080000D02*
X157885000Y-131080000D01*
X167485000Y-131330000D02*
X167485000Y-128790000D01*
X167485000Y-131330000D02*
X164945000Y-131330000D01*
X94570000Y-92075000D02*
G75*
G03X94570000Y-92075000I-1860000J0D01*
G01*
X94570000Y-92075000D02*
X98830000Y-92075000D01*
X70440000Y-92075000D02*
G75*
G03X70440000Y-92075000I-1860000J0D01*
G01*
X70440000Y-92075000D02*
X74700000Y-92075000D01*
X82505000Y-92075000D02*
G75*
G03X82505000Y-92075000I-1860000J0D01*
G01*
X82505000Y-92075000D02*
X86765000Y-92075000D01*
X134890000Y-77530000D02*
G75*
G02X136890000Y-77530000I1000000J0D01*
G01*
X136890000Y-77530000D02*
X138540000Y-77530000D01*
X138540000Y-77530000D02*
X138540000Y-67250000D01*
X138540000Y-67250000D02*
X133240000Y-67250000D01*
X133240000Y-67250000D02*
X133240000Y-77530000D01*
X133240000Y-77530000D02*
X134890000Y-77530000D01*
X141030000Y-77590000D02*
X141030000Y-67190000D01*
X141030000Y-67190000D02*
X130750000Y-67190000D01*
X130750000Y-67190000D02*
X130750000Y-77590000D01*
X130750000Y-77590000D02*
X141030000Y-77590000D01*
D14*
X138938334Y-113407143D02*
X138890715Y-113454762D01*
X138747858Y-113502381D01*
X138652620Y-113502381D01*
X138509762Y-113454762D01*
X138414524Y-113359524D01*
X138366905Y-113264286D01*
X138319286Y-113073810D01*
X138319286Y-112930952D01*
X138366905Y-112740476D01*
X138414524Y-112645238D01*
X138509762Y-112550000D01*
X138652620Y-112502381D01*
X138747858Y-112502381D01*
X138890715Y-112550000D01*
X138938334Y-112597619D01*
X139890715Y-113502381D02*
X139319286Y-113502381D01*
X139605000Y-113502381D02*
X139605000Y-112502381D01*
X139509762Y-112645238D01*
X139414524Y-112740476D01*
X139319286Y-112788095D01*
X84923334Y-127357143D02*
X84875715Y-127404762D01*
X84732858Y-127452381D01*
X84637620Y-127452381D01*
X84494762Y-127404762D01*
X84399524Y-127309524D01*
X84351905Y-127214286D01*
X84304286Y-127023810D01*
X84304286Y-126880952D01*
X84351905Y-126690476D01*
X84399524Y-126595238D01*
X84494762Y-126500000D01*
X84637620Y-126452381D01*
X84732858Y-126452381D01*
X84875715Y-126500000D01*
X84923334Y-126547619D01*
X85304286Y-126547619D02*
X85351905Y-126500000D01*
X85447143Y-126452381D01*
X85685239Y-126452381D01*
X85780477Y-126500000D01*
X85828096Y-126547619D01*
X85875715Y-126642857D01*
X85875715Y-126738095D01*
X85828096Y-126880952D01*
X85256667Y-127452381D01*
X85875715Y-127452381D01*
X107037143Y-128436666D02*
X107084762Y-128484285D01*
X107132381Y-128627142D01*
X107132381Y-128722380D01*
X107084762Y-128865238D01*
X106989524Y-128960476D01*
X106894286Y-129008095D01*
X106703810Y-129055714D01*
X106560952Y-129055714D01*
X106370476Y-129008095D01*
X106275238Y-128960476D01*
X106180000Y-128865238D01*
X106132381Y-128722380D01*
X106132381Y-128627142D01*
X106180000Y-128484285D01*
X106227619Y-128436666D01*
X106132381Y-128103333D02*
X106132381Y-127484285D01*
X106513333Y-127817619D01*
X106513333Y-127674761D01*
X106560952Y-127579523D01*
X106608571Y-127531904D01*
X106703810Y-127484285D01*
X106941905Y-127484285D01*
X107037143Y-127531904D01*
X107084762Y-127579523D01*
X107132381Y-127674761D01*
X107132381Y-127960476D01*
X107084762Y-128055714D01*
X107037143Y-128103333D01*
X147042143Y-126531666D02*
X147089762Y-126579285D01*
X147137381Y-126722142D01*
X147137381Y-126817380D01*
X147089762Y-126960238D01*
X146994524Y-127055476D01*
X146899286Y-127103095D01*
X146708810Y-127150714D01*
X146565952Y-127150714D01*
X146375476Y-127103095D01*
X146280238Y-127055476D01*
X146185000Y-126960238D01*
X146137381Y-126817380D01*
X146137381Y-126722142D01*
X146185000Y-126579285D01*
X146232619Y-126531666D01*
X146137381Y-125626904D02*
X146137381Y-126103095D01*
X146613571Y-126150714D01*
X146565952Y-126103095D01*
X146518333Y-126007857D01*
X146518333Y-125769761D01*
X146565952Y-125674523D01*
X146613571Y-125626904D01*
X146708810Y-125579285D01*
X146946905Y-125579285D01*
X147042143Y-125626904D01*
X147089762Y-125674523D01*
X147137381Y-125769761D01*
X147137381Y-126007857D01*
X147089762Y-126103095D01*
X147042143Y-126150714D01*
X67032143Y-46362857D02*
X67079762Y-46410476D01*
X67127381Y-46553333D01*
X67127381Y-46648571D01*
X67079762Y-46791429D01*
X66984524Y-46886667D01*
X66889286Y-46934286D01*
X66698810Y-46981905D01*
X66555952Y-46981905D01*
X66365476Y-46934286D01*
X66270238Y-46886667D01*
X66175000Y-46791429D01*
X66127381Y-46648571D01*
X66127381Y-46553333D01*
X66175000Y-46410476D01*
X66222619Y-46362857D01*
X67127381Y-45410476D02*
X67127381Y-45981905D01*
X67127381Y-45696191D02*
X66127381Y-45696191D01*
X66270238Y-45791429D01*
X66365476Y-45886667D01*
X66413095Y-45981905D01*
X66127381Y-44505714D02*
X66127381Y-44981905D01*
X66603571Y-45029524D01*
X66555952Y-44981905D01*
X66508333Y-44886667D01*
X66508333Y-44648571D01*
X66555952Y-44553333D01*
X66603571Y-44505714D01*
X66698810Y-44458095D01*
X66936905Y-44458095D01*
X67032143Y-44505714D01*
X67079762Y-44553333D01*
X67127381Y-44648571D01*
X67127381Y-44886667D01*
X67079762Y-44981905D01*
X67032143Y-45029524D01*
X85717143Y-47347143D02*
X85669524Y-47394762D01*
X85526667Y-47442381D01*
X85431429Y-47442381D01*
X85288571Y-47394762D01*
X85193333Y-47299524D01*
X85145714Y-47204286D01*
X85098095Y-47013810D01*
X85098095Y-46870952D01*
X85145714Y-46680476D01*
X85193333Y-46585238D01*
X85288571Y-46490000D01*
X85431429Y-46442381D01*
X85526667Y-46442381D01*
X85669524Y-46490000D01*
X85717143Y-46537619D01*
X86669524Y-47442381D02*
X86098095Y-47442381D01*
X86383809Y-47442381D02*
X86383809Y-46442381D01*
X86288571Y-46585238D01*
X86193333Y-46680476D01*
X86098095Y-46728095D01*
X87526667Y-46442381D02*
X87336190Y-46442381D01*
X87240952Y-46490000D01*
X87193333Y-46537619D01*
X87098095Y-46680476D01*
X87050476Y-46870952D01*
X87050476Y-47251905D01*
X87098095Y-47347143D01*
X87145714Y-47394762D01*
X87240952Y-47442381D01*
X87431429Y-47442381D01*
X87526667Y-47394762D01*
X87574286Y-47347143D01*
X87621905Y-47251905D01*
X87621905Y-47013810D01*
X87574286Y-46918571D01*
X87526667Y-46870952D01*
X87431429Y-46823333D01*
X87240952Y-46823333D01*
X87145714Y-46870952D01*
X87098095Y-46918571D01*
X87050476Y-47013810D01*
X69207143Y-38457143D02*
X69159524Y-38504762D01*
X69016667Y-38552381D01*
X68921429Y-38552381D01*
X68778571Y-38504762D01*
X68683333Y-38409524D01*
X68635714Y-38314286D01*
X68588095Y-38123810D01*
X68588095Y-37980952D01*
X68635714Y-37790476D01*
X68683333Y-37695238D01*
X68778571Y-37600000D01*
X68921429Y-37552381D01*
X69016667Y-37552381D01*
X69159524Y-37600000D01*
X69207143Y-37647619D01*
X70159524Y-38552381D02*
X69588095Y-38552381D01*
X69873809Y-38552381D02*
X69873809Y-37552381D01*
X69778571Y-37695238D01*
X69683333Y-37790476D01*
X69588095Y-37838095D01*
X70492857Y-37552381D02*
X71159524Y-37552381D01*
X70730952Y-38552381D01*
X69207143Y-57507143D02*
X69159524Y-57554762D01*
X69016667Y-57602381D01*
X68921429Y-57602381D01*
X68778571Y-57554762D01*
X68683333Y-57459524D01*
X68635714Y-57364286D01*
X68588095Y-57173810D01*
X68588095Y-57030952D01*
X68635714Y-56840476D01*
X68683333Y-56745238D01*
X68778571Y-56650000D01*
X68921429Y-56602381D01*
X69016667Y-56602381D01*
X69159524Y-56650000D01*
X69207143Y-56697619D01*
X70159524Y-57602381D02*
X69588095Y-57602381D01*
X69873809Y-57602381D02*
X69873809Y-56602381D01*
X69778571Y-56745238D01*
X69683333Y-56840476D01*
X69588095Y-56888095D01*
X70730952Y-57030952D02*
X70635714Y-56983333D01*
X70588095Y-56935714D01*
X70540476Y-56840476D01*
X70540476Y-56792857D01*
X70588095Y-56697619D01*
X70635714Y-56650000D01*
X70730952Y-56602381D01*
X70921429Y-56602381D01*
X71016667Y-56650000D01*
X71064286Y-56697619D01*
X71111905Y-56792857D01*
X71111905Y-56840476D01*
X71064286Y-56935714D01*
X71016667Y-56983333D01*
X70921429Y-57030952D01*
X70730952Y-57030952D01*
X70635714Y-57078571D01*
X70588095Y-57126190D01*
X70540476Y-57221429D01*
X70540476Y-57411905D01*
X70588095Y-57507143D01*
X70635714Y-57554762D01*
X70730952Y-57602381D01*
X70921429Y-57602381D01*
X71016667Y-57554762D01*
X71064286Y-57507143D01*
X71111905Y-57411905D01*
X71111905Y-57221429D01*
X71064286Y-57126190D01*
X71016667Y-57078571D01*
X70921429Y-57030952D01*
X86352143Y-60682143D02*
X86304524Y-60729762D01*
X86161667Y-60777381D01*
X86066429Y-60777381D01*
X85923571Y-60729762D01*
X85828333Y-60634524D01*
X85780714Y-60539286D01*
X85733095Y-60348810D01*
X85733095Y-60205952D01*
X85780714Y-60015476D01*
X85828333Y-59920238D01*
X85923571Y-59825000D01*
X86066429Y-59777381D01*
X86161667Y-59777381D01*
X86304524Y-59825000D01*
X86352143Y-59872619D01*
X87304524Y-60777381D02*
X86733095Y-60777381D01*
X87018809Y-60777381D02*
X87018809Y-59777381D01*
X86923571Y-59920238D01*
X86828333Y-60015476D01*
X86733095Y-60063095D01*
X87780714Y-60777381D02*
X87971190Y-60777381D01*
X88066429Y-60729762D01*
X88114048Y-60682143D01*
X88209286Y-60539286D01*
X88256905Y-60348810D01*
X88256905Y-59967857D01*
X88209286Y-59872619D01*
X88161667Y-59825000D01*
X88066429Y-59777381D01*
X87875952Y-59777381D01*
X87780714Y-59825000D01*
X87733095Y-59872619D01*
X87685476Y-59967857D01*
X87685476Y-60205952D01*
X87733095Y-60301190D01*
X87780714Y-60348810D01*
X87875952Y-60396429D01*
X88066429Y-60396429D01*
X88161667Y-60348810D01*
X88209286Y-60301190D01*
X88256905Y-60205952D01*
X96242143Y-48902857D02*
X96289762Y-48950476D01*
X96337381Y-49093333D01*
X96337381Y-49188571D01*
X96289762Y-49331429D01*
X96194524Y-49426667D01*
X96099286Y-49474286D01*
X95908810Y-49521905D01*
X95765952Y-49521905D01*
X95575476Y-49474286D01*
X95480238Y-49426667D01*
X95385000Y-49331429D01*
X95337381Y-49188571D01*
X95337381Y-49093333D01*
X95385000Y-48950476D01*
X95432619Y-48902857D01*
X95432619Y-48521905D02*
X95385000Y-48474286D01*
X95337381Y-48379048D01*
X95337381Y-48140952D01*
X95385000Y-48045714D01*
X95432619Y-47998095D01*
X95527857Y-47950476D01*
X95623095Y-47950476D01*
X95765952Y-47998095D01*
X96337381Y-48569524D01*
X96337381Y-47950476D01*
X95337381Y-47331429D02*
X95337381Y-47236190D01*
X95385000Y-47140952D01*
X95432619Y-47093333D01*
X95527857Y-47045714D01*
X95718333Y-46998095D01*
X95956429Y-46998095D01*
X96146905Y-47045714D01*
X96242143Y-47093333D01*
X96289762Y-47140952D01*
X96337381Y-47236190D01*
X96337381Y-47331429D01*
X96289762Y-47426667D01*
X96242143Y-47474286D01*
X96146905Y-47521905D01*
X95956429Y-47569524D01*
X95718333Y-47569524D01*
X95527857Y-47521905D01*
X95432619Y-47474286D01*
X95385000Y-47426667D01*
X95337381Y-47331429D01*
X114022143Y-92717857D02*
X114069762Y-92765476D01*
X114117381Y-92908333D01*
X114117381Y-93003571D01*
X114069762Y-93146429D01*
X113974524Y-93241667D01*
X113879286Y-93289286D01*
X113688810Y-93336905D01*
X113545952Y-93336905D01*
X113355476Y-93289286D01*
X113260238Y-93241667D01*
X113165000Y-93146429D01*
X113117381Y-93003571D01*
X113117381Y-92908333D01*
X113165000Y-92765476D01*
X113212619Y-92717857D01*
X113212619Y-92336905D02*
X113165000Y-92289286D01*
X113117381Y-92194048D01*
X113117381Y-91955952D01*
X113165000Y-91860714D01*
X113212619Y-91813095D01*
X113307857Y-91765476D01*
X113403095Y-91765476D01*
X113545952Y-91813095D01*
X114117381Y-92384524D01*
X114117381Y-91765476D01*
X114117381Y-90813095D02*
X114117381Y-91384524D01*
X114117381Y-91098810D02*
X113117381Y-91098810D01*
X113260238Y-91194048D01*
X113355476Y-91289286D01*
X113403095Y-91384524D01*
X126992143Y-68302143D02*
X126944524Y-68349762D01*
X126801667Y-68397381D01*
X126706429Y-68397381D01*
X126563571Y-68349762D01*
X126468333Y-68254524D01*
X126420714Y-68159286D01*
X126373095Y-67968810D01*
X126373095Y-67825952D01*
X126420714Y-67635476D01*
X126468333Y-67540238D01*
X126563571Y-67445000D01*
X126706429Y-67397381D01*
X126801667Y-67397381D01*
X126944524Y-67445000D01*
X126992143Y-67492619D01*
X127373095Y-67492619D02*
X127420714Y-67445000D01*
X127515952Y-67397381D01*
X127754048Y-67397381D01*
X127849286Y-67445000D01*
X127896905Y-67492619D01*
X127944524Y-67587857D01*
X127944524Y-67683095D01*
X127896905Y-67825952D01*
X127325476Y-68397381D01*
X127944524Y-68397381D01*
X128325476Y-67492619D02*
X128373095Y-67445000D01*
X128468333Y-67397381D01*
X128706429Y-67397381D01*
X128801667Y-67445000D01*
X128849286Y-67492619D01*
X128896905Y-67587857D01*
X128896905Y-67683095D01*
X128849286Y-67825952D01*
X128277857Y-68397381D01*
X128896905Y-68397381D01*
X72921905Y-127032381D02*
X72921905Y-126032381D01*
X73160000Y-126032381D01*
X73302858Y-126080000D01*
X73398096Y-126175238D01*
X73445715Y-126270476D01*
X73493334Y-126460952D01*
X73493334Y-126603810D01*
X73445715Y-126794286D01*
X73398096Y-126889524D01*
X73302858Y-126984762D01*
X73160000Y-127032381D01*
X72921905Y-127032381D01*
X73826667Y-126032381D02*
X74445715Y-126032381D01*
X74112381Y-126413333D01*
X74255239Y-126413333D01*
X74350477Y-126460952D01*
X74398096Y-126508571D01*
X74445715Y-126603810D01*
X74445715Y-126841905D01*
X74398096Y-126937143D01*
X74350477Y-126984762D01*
X74255239Y-127032381D01*
X73969524Y-127032381D01*
X73874286Y-126984762D01*
X73826667Y-126937143D01*
X156805381Y-43132333D02*
X157519667Y-43132333D01*
X157662524Y-43179953D01*
X157757762Y-43275191D01*
X157805381Y-43418048D01*
X157805381Y-43513286D01*
X157138714Y-42227571D02*
X157805381Y-42227571D01*
X156757762Y-42465667D02*
X157472048Y-42703762D01*
X157472048Y-42084714D01*
X54697381Y-39068333D02*
X55411667Y-39068333D01*
X55554524Y-39115953D01*
X55649762Y-39211191D01*
X55697381Y-39354048D01*
X55697381Y-39449286D01*
X54697381Y-38163571D02*
X54697381Y-38354048D01*
X54745000Y-38449286D01*
X54792619Y-38496905D01*
X54935476Y-38592143D01*
X55125952Y-38639762D01*
X55506905Y-38639762D01*
X55602143Y-38592143D01*
X55649762Y-38544524D01*
X55697381Y-38449286D01*
X55697381Y-38258809D01*
X55649762Y-38163571D01*
X55602143Y-38115952D01*
X55506905Y-38068333D01*
X55268810Y-38068333D01*
X55173571Y-38115952D01*
X55125952Y-38163571D01*
X55078333Y-38258809D01*
X55078333Y-38449286D01*
X55125952Y-38544524D01*
X55173571Y-38592143D01*
X55268810Y-38639762D01*
X54697381Y-61293333D02*
X55411667Y-61293333D01*
X55554524Y-61340953D01*
X55649762Y-61436191D01*
X55697381Y-61579048D01*
X55697381Y-61674286D01*
X54697381Y-60912381D02*
X54697381Y-60245714D01*
X55697381Y-60674286D01*
X160956667Y-47712381D02*
X160956667Y-48426667D01*
X160909047Y-48569524D01*
X160813809Y-48664762D01*
X160670952Y-48712381D01*
X160575714Y-48712381D01*
X161575714Y-48140952D02*
X161480476Y-48093333D01*
X161432857Y-48045714D01*
X161385238Y-47950476D01*
X161385238Y-47902857D01*
X161432857Y-47807619D01*
X161480476Y-47760000D01*
X161575714Y-47712381D01*
X161766191Y-47712381D01*
X161861429Y-47760000D01*
X161909048Y-47807619D01*
X161956667Y-47902857D01*
X161956667Y-47950476D01*
X161909048Y-48045714D01*
X161861429Y-48093333D01*
X161766191Y-48140952D01*
X161575714Y-48140952D01*
X161480476Y-48188571D01*
X161432857Y-48236190D01*
X161385238Y-48331429D01*
X161385238Y-48521905D01*
X161432857Y-48617143D01*
X161480476Y-48664762D01*
X161575714Y-48712381D01*
X161766191Y-48712381D01*
X161861429Y-48664762D01*
X161909048Y-48617143D01*
X161956667Y-48521905D01*
X161956667Y-48331429D01*
X161909048Y-48236190D01*
X161861429Y-48188571D01*
X161766191Y-48140952D01*
X62190476Y-24582381D02*
X62190476Y-23582381D01*
X62523810Y-24296667D01*
X62857143Y-23582381D01*
X62857143Y-24582381D01*
X63333333Y-24582381D02*
X63333333Y-23582381D01*
X63904762Y-24582381D02*
X63476190Y-24010952D01*
X63904762Y-23582381D02*
X63333333Y-24153810D01*
X64857143Y-24582381D02*
X64285714Y-24582381D01*
X64571428Y-24582381D02*
X64571428Y-23582381D01*
X64476190Y-23725238D01*
X64380952Y-23820476D01*
X64285714Y-23868095D01*
X93940476Y-24582381D02*
X93940476Y-23582381D01*
X94273810Y-24296667D01*
X94607143Y-23582381D01*
X94607143Y-24582381D01*
X95083333Y-24582381D02*
X95083333Y-23582381D01*
X95654762Y-24582381D02*
X95226190Y-24010952D01*
X95654762Y-23582381D02*
X95083333Y-24153810D01*
X96035714Y-23677619D02*
X96083333Y-23630000D01*
X96178571Y-23582381D01*
X96416667Y-23582381D01*
X96511905Y-23630000D01*
X96559524Y-23677619D01*
X96607143Y-23772857D01*
X96607143Y-23868095D01*
X96559524Y-24010952D01*
X95988095Y-24582381D01*
X96607143Y-24582381D01*
X158075476Y-24328381D02*
X158075476Y-23328381D01*
X158408810Y-24042667D01*
X158742143Y-23328381D01*
X158742143Y-24328381D01*
X159218333Y-24328381D02*
X159218333Y-23328381D01*
X159789762Y-24328381D02*
X159361190Y-23756952D01*
X159789762Y-23328381D02*
X159218333Y-23899810D01*
X160123095Y-23328381D02*
X160742143Y-23328381D01*
X160408809Y-23709333D01*
X160551667Y-23709333D01*
X160646905Y-23756952D01*
X160694524Y-23804571D01*
X160742143Y-23899810D01*
X160742143Y-24137905D01*
X160694524Y-24233143D01*
X160646905Y-24280762D01*
X160551667Y-24328381D01*
X160265952Y-24328381D01*
X160170714Y-24280762D01*
X160123095Y-24233143D01*
X158075476Y-136977381D02*
X158075476Y-135977381D01*
X158408810Y-136691667D01*
X158742143Y-135977381D01*
X158742143Y-136977381D01*
X159218333Y-136977381D02*
X159218333Y-135977381D01*
X159789762Y-136977381D02*
X159361190Y-136405952D01*
X159789762Y-135977381D02*
X159218333Y-136548810D01*
X160646905Y-136310714D02*
X160646905Y-136977381D01*
X160408809Y-135929762D02*
X160170714Y-136644048D01*
X160789762Y-136644048D01*
X146645476Y-60142381D02*
X146645476Y-59142381D01*
X146978810Y-59856667D01*
X147312143Y-59142381D01*
X147312143Y-60142381D01*
X147788333Y-60142381D02*
X147788333Y-59142381D01*
X148359762Y-60142381D02*
X147931190Y-59570952D01*
X148359762Y-59142381D02*
X147788333Y-59713810D01*
X149264524Y-59142381D02*
X148788333Y-59142381D01*
X148740714Y-59618571D01*
X148788333Y-59570952D01*
X148883571Y-59523333D01*
X149121667Y-59523333D01*
X149216905Y-59570952D01*
X149264524Y-59618571D01*
X149312143Y-59713810D01*
X149312143Y-59951905D01*
X149264524Y-60047143D01*
X149216905Y-60094762D01*
X149121667Y-60142381D01*
X148883571Y-60142381D01*
X148788333Y-60094762D01*
X148740714Y-60047143D01*
X62190476Y-136977381D02*
X62190476Y-135977381D01*
X62523810Y-136691667D01*
X62857143Y-135977381D01*
X62857143Y-136977381D01*
X63333333Y-136977381D02*
X63333333Y-135977381D01*
X63904762Y-136977381D02*
X63476190Y-136405952D01*
X63904762Y-135977381D02*
X63333333Y-136548810D01*
X64761905Y-135977381D02*
X64571428Y-135977381D01*
X64476190Y-136025000D01*
X64428571Y-136072619D01*
X64333333Y-136215476D01*
X64285714Y-136405952D01*
X64285714Y-136786905D01*
X64333333Y-136882143D01*
X64380952Y-136929762D01*
X64476190Y-136977381D01*
X64666667Y-136977381D01*
X64761905Y-136929762D01*
X64809524Y-136882143D01*
X64857143Y-136786905D01*
X64857143Y-136548810D01*
X64809524Y-136453571D01*
X64761905Y-136405952D01*
X64666667Y-136358333D01*
X64476190Y-136358333D01*
X64380952Y-136405952D01*
X64333333Y-136453571D01*
X64285714Y-136548810D01*
X55697381Y-102973095D02*
X54697381Y-102973095D01*
X54697381Y-102592142D01*
X54745000Y-102496904D01*
X54792619Y-102449285D01*
X54887857Y-102401666D01*
X55030714Y-102401666D01*
X55125952Y-102449285D01*
X55173571Y-102496904D01*
X55221190Y-102592142D01*
X55221190Y-102973095D01*
X55697381Y-101449285D02*
X55697381Y-102020714D01*
X55697381Y-101735000D02*
X54697381Y-101735000D01*
X54840238Y-101830238D01*
X54935476Y-101925476D01*
X54983095Y-102020714D01*
X68413334Y-99512381D02*
X68080000Y-99036190D01*
X67841905Y-99512381D02*
X67841905Y-98512381D01*
X68222858Y-98512381D01*
X68318096Y-98560000D01*
X68365715Y-98607619D01*
X68413334Y-98702857D01*
X68413334Y-98845714D01*
X68365715Y-98940952D01*
X68318096Y-98988571D01*
X68222858Y-99036190D01*
X67841905Y-99036190D01*
X69270477Y-98512381D02*
X69080000Y-98512381D01*
X68984762Y-98560000D01*
X68937143Y-98607619D01*
X68841905Y-98750476D01*
X68794286Y-98940952D01*
X68794286Y-99321905D01*
X68841905Y-99417143D01*
X68889524Y-99464762D01*
X68984762Y-99512381D01*
X69175239Y-99512381D01*
X69270477Y-99464762D01*
X69318096Y-99417143D01*
X69365715Y-99321905D01*
X69365715Y-99083810D01*
X69318096Y-98988571D01*
X69270477Y-98940952D01*
X69175239Y-98893333D01*
X68984762Y-98893333D01*
X68889524Y-98940952D01*
X68841905Y-98988571D01*
X68794286Y-99083810D01*
X72207381Y-122721666D02*
X71731190Y-123055000D01*
X72207381Y-123293095D02*
X71207381Y-123293095D01*
X71207381Y-122912142D01*
X71255000Y-122816904D01*
X71302619Y-122769285D01*
X71397857Y-122721666D01*
X71540714Y-122721666D01*
X71635952Y-122769285D01*
X71683571Y-122816904D01*
X71731190Y-122912142D01*
X71731190Y-123293095D01*
X71207381Y-122388333D02*
X71207381Y-121721666D01*
X72207381Y-122150238D01*
X73493334Y-117292381D02*
X73160000Y-116816190D01*
X72921905Y-117292381D02*
X72921905Y-116292381D01*
X73302858Y-116292381D01*
X73398096Y-116340000D01*
X73445715Y-116387619D01*
X73493334Y-116482857D01*
X73493334Y-116625714D01*
X73445715Y-116720952D01*
X73398096Y-116768571D01*
X73302858Y-116816190D01*
X72921905Y-116816190D01*
X74064762Y-116720952D02*
X73969524Y-116673333D01*
X73921905Y-116625714D01*
X73874286Y-116530476D01*
X73874286Y-116482857D01*
X73921905Y-116387619D01*
X73969524Y-116340000D01*
X74064762Y-116292381D01*
X74255239Y-116292381D01*
X74350477Y-116340000D01*
X74398096Y-116387619D01*
X74445715Y-116482857D01*
X74445715Y-116530476D01*
X74398096Y-116625714D01*
X74350477Y-116673333D01*
X74255239Y-116720952D01*
X74064762Y-116720952D01*
X73969524Y-116768571D01*
X73921905Y-116816190D01*
X73874286Y-116911429D01*
X73874286Y-117101905D01*
X73921905Y-117197143D01*
X73969524Y-117244762D01*
X74064762Y-117292381D01*
X74255239Y-117292381D01*
X74350477Y-117244762D01*
X74398096Y-117197143D01*
X74445715Y-117101905D01*
X74445715Y-116911429D01*
X74398096Y-116816190D01*
X74350477Y-116768571D01*
X74255239Y-116720952D01*
X146362381Y-72445476D02*
X145886190Y-72778810D01*
X146362381Y-73016905D02*
X145362381Y-73016905D01*
X145362381Y-72635952D01*
X145410000Y-72540714D01*
X145457619Y-72493095D01*
X145552857Y-72445476D01*
X145695714Y-72445476D01*
X145790952Y-72493095D01*
X145838571Y-72540714D01*
X145886190Y-72635952D01*
X145886190Y-73016905D01*
X146362381Y-72016905D02*
X145362381Y-72016905D01*
X146362381Y-71445476D01*
X145362381Y-71445476D01*
X146362381Y-70445476D02*
X146362381Y-71016905D01*
X146362381Y-70731191D02*
X145362381Y-70731191D01*
X145505238Y-70826429D01*
X145600476Y-70921667D01*
X145648095Y-71016905D01*
X123642381Y-93400476D02*
X123166190Y-93733810D01*
X123642381Y-93971905D02*
X122642381Y-93971905D01*
X122642381Y-93590952D01*
X122690000Y-93495714D01*
X122737619Y-93448095D01*
X122832857Y-93400476D01*
X122975714Y-93400476D01*
X123070952Y-93448095D01*
X123118571Y-93495714D01*
X123166190Y-93590952D01*
X123166190Y-93971905D01*
X123642381Y-92971905D02*
X122642381Y-92971905D01*
X123642381Y-92400476D01*
X122642381Y-92400476D01*
X122737619Y-91971905D02*
X122690000Y-91924286D01*
X122642381Y-91829048D01*
X122642381Y-91590952D01*
X122690000Y-91495714D01*
X122737619Y-91448095D01*
X122832857Y-91400476D01*
X122928095Y-91400476D01*
X123070952Y-91448095D01*
X123642381Y-92019524D01*
X123642381Y-91400476D01*
X149871667Y-49204762D02*
X150014524Y-49252381D01*
X150252620Y-49252381D01*
X150347858Y-49204762D01*
X150395477Y-49157143D01*
X150443096Y-49061905D01*
X150443096Y-48966667D01*
X150395477Y-48871429D01*
X150347858Y-48823810D01*
X150252620Y-48776190D01*
X150062143Y-48728571D01*
X149966905Y-48680952D01*
X149919286Y-48633333D01*
X149871667Y-48538095D01*
X149871667Y-48442857D01*
X149919286Y-48347619D01*
X149966905Y-48300000D01*
X150062143Y-48252381D01*
X150300239Y-48252381D01*
X150443096Y-48300000D01*
X150776429Y-48252381D02*
X151014524Y-49252381D01*
X151205001Y-48538095D01*
X151395477Y-49252381D01*
X151633572Y-48252381D01*
X152538334Y-49252381D02*
X151966905Y-49252381D01*
X152252619Y-49252381D02*
X152252619Y-48252381D01*
X152157381Y-48395238D01*
X152062143Y-48490476D01*
X151966905Y-48538095D01*
X133858095Y-82002381D02*
X133858095Y-82811905D01*
X133905714Y-82907143D01*
X133953333Y-82954762D01*
X134048571Y-83002381D01*
X134239048Y-83002381D01*
X134334286Y-82954762D01*
X134381905Y-82907143D01*
X134429524Y-82811905D01*
X134429524Y-82002381D01*
X135429524Y-83002381D02*
X134858095Y-83002381D01*
X135143809Y-83002381D02*
X135143809Y-82002381D01*
X135048571Y-82145238D01*
X134953333Y-82240476D01*
X134858095Y-82288095D01*
X88138095Y-138307381D02*
X88138095Y-139116905D01*
X88185714Y-139212143D01*
X88233333Y-139259762D01*
X88328571Y-139307381D01*
X88519048Y-139307381D01*
X88614286Y-139259762D01*
X88661905Y-139212143D01*
X88709524Y-139116905D01*
X88709524Y-138307381D01*
X89138095Y-138402619D02*
X89185714Y-138355000D01*
X89280952Y-138307381D01*
X89519048Y-138307381D01*
X89614286Y-138355000D01*
X89661905Y-138402619D01*
X89709524Y-138497857D01*
X89709524Y-138593095D01*
X89661905Y-138735952D01*
X89090476Y-139307381D01*
X89709524Y-139307381D01*
X109728095Y-131322381D02*
X109728095Y-132131905D01*
X109775714Y-132227143D01*
X109823333Y-132274762D01*
X109918571Y-132322381D01*
X110109048Y-132322381D01*
X110204286Y-132274762D01*
X110251905Y-132227143D01*
X110299524Y-132131905D01*
X110299524Y-131322381D01*
X110680476Y-131322381D02*
X111299524Y-131322381D01*
X110966190Y-131703333D01*
X111109048Y-131703333D01*
X111204286Y-131750952D01*
X111251905Y-131798571D01*
X111299524Y-131893810D01*
X111299524Y-132131905D01*
X111251905Y-132227143D01*
X111204286Y-132274762D01*
X111109048Y-132322381D01*
X110823333Y-132322381D01*
X110728095Y-132274762D01*
X110680476Y-132227143D01*
X153757381Y-113156905D02*
X154566905Y-113156905D01*
X154662143Y-113109286D01*
X154709762Y-113061667D01*
X154757381Y-112966429D01*
X154757381Y-112775952D01*
X154709762Y-112680714D01*
X154662143Y-112633095D01*
X154566905Y-112585476D01*
X153757381Y-112585476D01*
X154090714Y-111680714D02*
X154757381Y-111680714D01*
X153709762Y-111918810D02*
X154424048Y-112156905D01*
X154424048Y-111537857D01*
X116078095Y-90892381D02*
X116078095Y-91701905D01*
X116125714Y-91797143D01*
X116173333Y-91844762D01*
X116268571Y-91892381D01*
X116459048Y-91892381D01*
X116554286Y-91844762D01*
X116601905Y-91797143D01*
X116649524Y-91701905D01*
X116649524Y-90892381D01*
X117030476Y-90892381D02*
X117697143Y-90892381D01*
X117268571Y-91892381D01*
X144657381Y-47751905D02*
X145466905Y-47751905D01*
X145562143Y-47704286D01*
X145609762Y-47656667D01*
X145657381Y-47561429D01*
X145657381Y-47370952D01*
X145609762Y-47275714D01*
X145562143Y-47228095D01*
X145466905Y-47180476D01*
X144657381Y-47180476D01*
X145085952Y-46561429D02*
X145038333Y-46656667D01*
X144990714Y-46704286D01*
X144895476Y-46751905D01*
X144847857Y-46751905D01*
X144752619Y-46704286D01*
X144705000Y-46656667D01*
X144657381Y-46561429D01*
X144657381Y-46370952D01*
X144705000Y-46275714D01*
X144752619Y-46228095D01*
X144847857Y-46180476D01*
X144895476Y-46180476D01*
X144990714Y-46228095D01*
X145038333Y-46275714D01*
X145085952Y-46370952D01*
X145085952Y-46561429D01*
X145133571Y-46656667D01*
X145181190Y-46704286D01*
X145276429Y-46751905D01*
X145466905Y-46751905D01*
X145562143Y-46704286D01*
X145609762Y-46656667D01*
X145657381Y-46561429D01*
X145657381Y-46370952D01*
X145609762Y-46275714D01*
X145562143Y-46228095D01*
X145466905Y-46180476D01*
X145276429Y-46180476D01*
X145181190Y-46228095D01*
X145133571Y-46275714D01*
X145085952Y-46370952D01*
X81946905Y-61892381D02*
X81946905Y-62701905D01*
X81994524Y-62797143D01*
X82042143Y-62844762D01*
X82137381Y-62892381D01*
X82327858Y-62892381D01*
X82423096Y-62844762D01*
X82470715Y-62797143D01*
X82518334Y-62701905D01*
X82518334Y-61892381D01*
X83518334Y-62892381D02*
X82946905Y-62892381D01*
X83232619Y-62892381D02*
X83232619Y-61892381D01*
X83137381Y-62035238D01*
X83042143Y-62130476D01*
X82946905Y-62178095D01*
X83994524Y-62892381D02*
X84185000Y-62892381D01*
X84280239Y-62844762D01*
X84327858Y-62797143D01*
X84423096Y-62654286D01*
X84470715Y-62463810D01*
X84470715Y-62082857D01*
X84423096Y-61987619D01*
X84375477Y-61940000D01*
X84280239Y-61892381D01*
X84089762Y-61892381D01*
X83994524Y-61940000D01*
X83946905Y-61987619D01*
X83899286Y-62082857D01*
X83899286Y-62320952D01*
X83946905Y-62416190D01*
X83994524Y-62463810D01*
X84089762Y-62511429D01*
X84280239Y-62511429D01*
X84375477Y-62463810D01*
X84423096Y-62416190D01*
X84470715Y-62320952D01*
X93376905Y-61892381D02*
X93376905Y-62701905D01*
X93424524Y-62797143D01*
X93472143Y-62844762D01*
X93567381Y-62892381D01*
X93757858Y-62892381D01*
X93853096Y-62844762D01*
X93900715Y-62797143D01*
X93948334Y-62701905D01*
X93948334Y-61892381D01*
X94376905Y-61987619D02*
X94424524Y-61940000D01*
X94519762Y-61892381D01*
X94757858Y-61892381D01*
X94853096Y-61940000D01*
X94900715Y-61987619D01*
X94948334Y-62082857D01*
X94948334Y-62178095D01*
X94900715Y-62320952D01*
X94329286Y-62892381D01*
X94948334Y-62892381D01*
X95567381Y-61892381D02*
X95662620Y-61892381D01*
X95757858Y-61940000D01*
X95805477Y-61987619D01*
X95853096Y-62082857D01*
X95900715Y-62273333D01*
X95900715Y-62511429D01*
X95853096Y-62701905D01*
X95805477Y-62797143D01*
X95757858Y-62844762D01*
X95662620Y-62892381D01*
X95567381Y-62892381D01*
X95472143Y-62844762D01*
X95424524Y-62797143D01*
X95376905Y-62701905D01*
X95329286Y-62511429D01*
X95329286Y-62273333D01*
X95376905Y-62082857D01*
X95424524Y-61987619D01*
X95472143Y-61940000D01*
X95567381Y-61892381D01*
X71151905Y-61682381D02*
X71151905Y-62491905D01*
X71199524Y-62587143D01*
X71247143Y-62634762D01*
X71342381Y-62682381D01*
X71532858Y-62682381D01*
X71628096Y-62634762D01*
X71675715Y-62587143D01*
X71723334Y-62491905D01*
X71723334Y-61682381D01*
X72151905Y-61777619D02*
X72199524Y-61730000D01*
X72294762Y-61682381D01*
X72532858Y-61682381D01*
X72628096Y-61730000D01*
X72675715Y-61777619D01*
X72723334Y-61872857D01*
X72723334Y-61968095D01*
X72675715Y-62110952D01*
X72104286Y-62682381D01*
X72723334Y-62682381D01*
X73675715Y-62682381D02*
X73104286Y-62682381D01*
X73390000Y-62682381D02*
X73390000Y-61682381D01*
X73294762Y-61825238D01*
X73199524Y-61920476D01*
X73104286Y-61968095D01*
X76866905Y-26122381D02*
X76866905Y-26931905D01*
X76914524Y-27027143D01*
X76962143Y-27074762D01*
X77057381Y-27122381D01*
X77247858Y-27122381D01*
X77343096Y-27074762D01*
X77390715Y-27027143D01*
X77438334Y-26931905D01*
X77438334Y-26122381D01*
X77866905Y-26217619D02*
X77914524Y-26170000D01*
X78009762Y-26122381D01*
X78247858Y-26122381D01*
X78343096Y-26170000D01*
X78390715Y-26217619D01*
X78438334Y-26312857D01*
X78438334Y-26408095D01*
X78390715Y-26550952D01*
X77819286Y-27122381D01*
X78438334Y-27122381D01*
X78819286Y-26217619D02*
X78866905Y-26170000D01*
X78962143Y-26122381D01*
X79200239Y-26122381D01*
X79295477Y-26170000D01*
X79343096Y-26217619D01*
X79390715Y-26312857D01*
X79390715Y-26408095D01*
X79343096Y-26550952D01*
X78771667Y-27122381D01*
X79390715Y-27122381D01*
X99732381Y-54578095D02*
X100541905Y-54578095D01*
X100637143Y-54530476D01*
X100684762Y-54482857D01*
X100732381Y-54387619D01*
X100732381Y-54197142D01*
X100684762Y-54101904D01*
X100637143Y-54054285D01*
X100541905Y-54006666D01*
X99732381Y-54006666D01*
X99827619Y-53578095D02*
X99780000Y-53530476D01*
X99732381Y-53435238D01*
X99732381Y-53197142D01*
X99780000Y-53101904D01*
X99827619Y-53054285D01*
X99922857Y-53006666D01*
X100018095Y-53006666D01*
X100160952Y-53054285D01*
X100732381Y-53625714D01*
X100732381Y-53006666D01*
X99732381Y-52673333D02*
X99732381Y-52054285D01*
X100113333Y-52387619D01*
X100113333Y-52244761D01*
X100160952Y-52149523D01*
X100208571Y-52101904D01*
X100303810Y-52054285D01*
X100541905Y-52054285D01*
X100637143Y-52101904D01*
X100684762Y-52149523D01*
X100732381Y-52244761D01*
X100732381Y-52530476D01*
X100684762Y-52625714D01*
X100637143Y-52673333D01*
X139525476Y-64857381D02*
X140192143Y-65857381D01*
X140192143Y-64857381D02*
X139525476Y-65857381D01*
X141096905Y-65857381D02*
X140525476Y-65857381D01*
X140811190Y-65857381D02*
X140811190Y-64857381D01*
X140715952Y-65000238D01*
X140620714Y-65095476D01*
X140525476Y-65143095D01*
X97707381Y-38909524D02*
X98707381Y-38242857D01*
X97707381Y-38242857D02*
X98707381Y-38909524D01*
X97802619Y-37909524D02*
X97755000Y-37861905D01*
X97707381Y-37766667D01*
X97707381Y-37528571D01*
X97755000Y-37433333D01*
X97802619Y-37385714D01*
X97897857Y-37338095D01*
X97993095Y-37338095D01*
X98135952Y-37385714D01*
X98707381Y-37957143D01*
X98707381Y-37338095D01*
X145184905Y-33560381D02*
X145184905Y-32560381D01*
X145423000Y-32560381D01*
X145565858Y-32608000D01*
X145661096Y-32703238D01*
X145708715Y-32798476D01*
X145756334Y-32988952D01*
X145756334Y-33131810D01*
X145708715Y-33322286D01*
X145661096Y-33417524D01*
X145565858Y-33512762D01*
X145423000Y-33560381D01*
X145184905Y-33560381D01*
X146708715Y-33560381D02*
X146137286Y-33560381D01*
X146423000Y-33560381D02*
X146423000Y-32560381D01*
X146327762Y-32703238D01*
X146232524Y-32798476D01*
X146137286Y-32846095D01*
X148637667Y-22661571D02*
X148304333Y-22661571D01*
X148304333Y-23185381D02*
X148304333Y-22185381D01*
X148780524Y-22185381D01*
X149685286Y-23185381D02*
X149113857Y-23185381D01*
X149399571Y-23185381D02*
X149399571Y-22185381D01*
X149304333Y-22328238D01*
X149209095Y-22423476D01*
X149113857Y-22471095D01*
X114601667Y-133647381D02*
X114601667Y-134361667D01*
X114554047Y-134504524D01*
X114458809Y-134599762D01*
X114315952Y-134647381D01*
X114220714Y-134647381D01*
X115601667Y-134647381D02*
X115030238Y-134647381D01*
X115315952Y-134647381D02*
X115315952Y-133647381D01*
X115220714Y-133790238D01*
X115125476Y-133885476D01*
X115030238Y-133933095D01*
X104441667Y-133647381D02*
X104441667Y-134361667D01*
X104394047Y-134504524D01*
X104298809Y-134599762D01*
X104155952Y-134647381D01*
X104060714Y-134647381D01*
X104870238Y-133742619D02*
X104917857Y-133695000D01*
X105013095Y-133647381D01*
X105251191Y-133647381D01*
X105346429Y-133695000D01*
X105394048Y-133742619D01*
X105441667Y-133837857D01*
X105441667Y-133933095D01*
X105394048Y-134075952D01*
X104822619Y-134647381D01*
X105441667Y-134647381D01*
X151431667Y-76497381D02*
X151431667Y-77211667D01*
X151384047Y-77354524D01*
X151288809Y-77449762D01*
X151145952Y-77497381D01*
X151050714Y-77497381D01*
X151812619Y-76497381D02*
X152431667Y-76497381D01*
X152098333Y-76878333D01*
X152241191Y-76878333D01*
X152336429Y-76925952D01*
X152384048Y-76973571D01*
X152431667Y-77068810D01*
X152431667Y-77306905D01*
X152384048Y-77402143D01*
X152336429Y-77449762D01*
X152241191Y-77497381D01*
X151955476Y-77497381D01*
X151860238Y-77449762D01*
X151812619Y-77402143D01*
X151431667Y-66972381D02*
X151431667Y-67686667D01*
X151384047Y-67829524D01*
X151288809Y-67924762D01*
X151145952Y-67972381D01*
X151050714Y-67972381D01*
X152384048Y-66972381D02*
X151907857Y-66972381D01*
X151860238Y-67448571D01*
X151907857Y-67400952D01*
X152003095Y-67353333D01*
X152241191Y-67353333D01*
X152336429Y-67400952D01*
X152384048Y-67448571D01*
X152431667Y-67543810D01*
X152431667Y-67781905D01*
X152384048Y-67877143D01*
X152336429Y-67924762D01*
X152241191Y-67972381D01*
X152003095Y-67972381D01*
X151907857Y-67924762D01*
X151860238Y-67877143D01*
X79200477Y-21042381D02*
X79200477Y-21756667D01*
X79152857Y-21899524D01*
X79057619Y-21994762D01*
X78914762Y-22042381D01*
X78819524Y-22042381D01*
X80200477Y-22042381D02*
X79629048Y-22042381D01*
X79914762Y-22042381D02*
X79914762Y-21042381D01*
X79819524Y-21185238D01*
X79724286Y-21280476D01*
X79629048Y-21328095D01*
X80819524Y-21042381D02*
X80914763Y-21042381D01*
X81010001Y-21090000D01*
X81057620Y-21137619D01*
X81105239Y-21232857D01*
X81152858Y-21423333D01*
X81152858Y-21661429D01*
X81105239Y-21851905D01*
X81057620Y-21947143D01*
X81010001Y-21994762D01*
X80914763Y-22042381D01*
X80819524Y-22042381D01*
X80724286Y-21994762D01*
X80676667Y-21947143D01*
X80629048Y-21851905D01*
X80581429Y-21661429D01*
X80581429Y-21423333D01*
X80629048Y-21232857D01*
X80676667Y-21137619D01*
X80724286Y-21090000D01*
X80819524Y-21042381D01*
X132548334Y-33660381D02*
X132215000Y-33184190D01*
X131976905Y-33660381D02*
X131976905Y-32660381D01*
X132357858Y-32660381D01*
X132453096Y-32708000D01*
X132500715Y-32755619D01*
X132548334Y-32850857D01*
X132548334Y-32993714D01*
X132500715Y-33088952D01*
X132453096Y-33136571D01*
X132357858Y-33184190D01*
X131976905Y-33184190D01*
X133500715Y-33660381D02*
X132929286Y-33660381D01*
X133215000Y-33660381D02*
X133215000Y-32660381D01*
X133119762Y-32803238D01*
X133024524Y-32898476D01*
X132929286Y-32946095D01*
X66341667Y-21042381D02*
X66341667Y-21756667D01*
X66294047Y-21899524D01*
X66198809Y-21994762D01*
X66055952Y-22042381D01*
X65960714Y-22042381D01*
X66865476Y-22042381D02*
X67055952Y-22042381D01*
X67151191Y-21994762D01*
X67198810Y-21947143D01*
X67294048Y-21804286D01*
X67341667Y-21613810D01*
X67341667Y-21232857D01*
X67294048Y-21137619D01*
X67246429Y-21090000D01*
X67151191Y-21042381D01*
X66960714Y-21042381D01*
X66865476Y-21090000D01*
X66817857Y-21137619D01*
X66770238Y-21232857D01*
X66770238Y-21470952D01*
X66817857Y-21566190D01*
X66865476Y-21613810D01*
X66960714Y-21661429D01*
X67151191Y-21661429D01*
X67246429Y-21613810D01*
X67294048Y-21566190D01*
X67341667Y-21470952D01*
X109728095Y-33678762D02*
X109870952Y-33726381D01*
X110109048Y-33726381D01*
X110204286Y-33678762D01*
X110251905Y-33631143D01*
X110299524Y-33535905D01*
X110299524Y-33440667D01*
X110251905Y-33345429D01*
X110204286Y-33297810D01*
X110109048Y-33250190D01*
X109918571Y-33202571D01*
X109823333Y-33154952D01*
X109775714Y-33107333D01*
X109728095Y-33012095D01*
X109728095Y-32916857D01*
X109775714Y-32821619D01*
X109823333Y-32774000D01*
X109918571Y-32726381D01*
X110156667Y-32726381D01*
X110299524Y-32774000D01*
X111251905Y-33726381D02*
X110680476Y-33726381D01*
X110966190Y-33726381D02*
X110966190Y-32726381D01*
X110870952Y-32869238D01*
X110775714Y-32964476D01*
X110680476Y-33012095D01*
X77303334Y-96242143D02*
X77255715Y-96289762D01*
X77112858Y-96337381D01*
X77017620Y-96337381D01*
X76874762Y-96289762D01*
X76779524Y-96194524D01*
X76731905Y-96099286D01*
X76684286Y-95908810D01*
X76684286Y-95765952D01*
X76731905Y-95575476D01*
X76779524Y-95480238D01*
X76874762Y-95385000D01*
X77017620Y-95337381D01*
X77112858Y-95337381D01*
X77255715Y-95385000D01*
X77303334Y-95432619D01*
X78160477Y-95670714D02*
X78160477Y-96337381D01*
X77922381Y-95289762D02*
X77684286Y-96004048D01*
X78303334Y-96004048D01*
X140168334Y-82907143D02*
X140120715Y-82954762D01*
X139977858Y-83002381D01*
X139882620Y-83002381D01*
X139739762Y-82954762D01*
X139644524Y-82859524D01*
X139596905Y-82764286D01*
X139549286Y-82573810D01*
X139549286Y-82430952D01*
X139596905Y-82240476D01*
X139644524Y-82145238D01*
X139739762Y-82050000D01*
X139882620Y-82002381D01*
X139977858Y-82002381D01*
X140120715Y-82050000D01*
X140168334Y-82097619D01*
X141025477Y-82002381D02*
X140835000Y-82002381D01*
X140739762Y-82050000D01*
X140692143Y-82097619D01*
X140596905Y-82240476D01*
X140549286Y-82430952D01*
X140549286Y-82811905D01*
X140596905Y-82907143D01*
X140644524Y-82954762D01*
X140739762Y-83002381D01*
X140930239Y-83002381D01*
X141025477Y-82954762D01*
X141073096Y-82907143D01*
X141120715Y-82811905D01*
X141120715Y-82573810D01*
X141073096Y-82478571D01*
X141025477Y-82430952D01*
X140930239Y-82383333D01*
X140739762Y-82383333D01*
X140644524Y-82430952D01*
X140596905Y-82478571D01*
X140549286Y-82573810D01*
X161750477Y-131786381D02*
X161750477Y-132500667D01*
X161702857Y-132643524D01*
X161607619Y-132738762D01*
X161464762Y-132786381D01*
X161369524Y-132786381D01*
X162750477Y-132786381D02*
X162179048Y-132786381D01*
X162464762Y-132786381D02*
X162464762Y-131786381D01*
X162369524Y-131929238D01*
X162274286Y-132024476D01*
X162179048Y-132072095D01*
X163702858Y-132786381D02*
X163131429Y-132786381D01*
X163417143Y-132786381D02*
X163417143Y-131786381D01*
X163321905Y-131929238D01*
X163226667Y-132024476D01*
X163131429Y-132072095D01*
X99528334Y-95702381D02*
X99195000Y-95226190D01*
X98956905Y-95702381D02*
X98956905Y-94702381D01*
X99337858Y-94702381D01*
X99433096Y-94750000D01*
X99480715Y-94797619D01*
X99528334Y-94892857D01*
X99528334Y-95035714D01*
X99480715Y-95130952D01*
X99433096Y-95178571D01*
X99337858Y-95226190D01*
X98956905Y-95226190D01*
X99909286Y-94797619D02*
X99956905Y-94750000D01*
X100052143Y-94702381D01*
X100290239Y-94702381D01*
X100385477Y-94750000D01*
X100433096Y-94797619D01*
X100480715Y-94892857D01*
X100480715Y-94988095D01*
X100433096Y-95130952D01*
X99861667Y-95702381D01*
X100480715Y-95702381D01*
X68413334Y-95702381D02*
X68080000Y-95226190D01*
X67841905Y-95702381D02*
X67841905Y-94702381D01*
X68222858Y-94702381D01*
X68318096Y-94750000D01*
X68365715Y-94797619D01*
X68413334Y-94892857D01*
X68413334Y-95035714D01*
X68365715Y-95130952D01*
X68318096Y-95178571D01*
X68222858Y-95226190D01*
X67841905Y-95226190D01*
X68746667Y-94702381D02*
X69365715Y-94702381D01*
X69032381Y-95083333D01*
X69175239Y-95083333D01*
X69270477Y-95130952D01*
X69318096Y-95178571D01*
X69365715Y-95273810D01*
X69365715Y-95511905D01*
X69318096Y-95607143D01*
X69270477Y-95654762D01*
X69175239Y-95702381D01*
X68889524Y-95702381D01*
X68794286Y-95654762D01*
X68746667Y-95607143D01*
X88098334Y-95702381D02*
X87765000Y-95226190D01*
X87526905Y-95702381D02*
X87526905Y-94702381D01*
X87907858Y-94702381D01*
X88003096Y-94750000D01*
X88050715Y-94797619D01*
X88098334Y-94892857D01*
X88098334Y-95035714D01*
X88050715Y-95130952D01*
X88003096Y-95178571D01*
X87907858Y-95226190D01*
X87526905Y-95226190D01*
X88955477Y-95035714D02*
X88955477Y-95702381D01*
X88717381Y-94654762D02*
X88479286Y-95369048D01*
X89098334Y-95369048D01*
X131318095Y-78192381D02*
X131318095Y-79001905D01*
X131365714Y-79097143D01*
X131413333Y-79144762D01*
X131508571Y-79192381D01*
X131699048Y-79192381D01*
X131794286Y-79144762D01*
X131841905Y-79097143D01*
X131889524Y-79001905D01*
X131889524Y-78192381D01*
X132841905Y-78192381D02*
X132365714Y-78192381D01*
X132318095Y-78668571D01*
X132365714Y-78620952D01*
X132460952Y-78573333D01*
X132699048Y-78573333D01*
X132794286Y-78620952D01*
X132841905Y-78668571D01*
X132889524Y-78763810D01*
X132889524Y-79001905D01*
X132841905Y-79097143D01*
X132794286Y-79144762D01*
X132699048Y-79192381D01*
X132460952Y-79192381D01*
X132365714Y-79144762D01*
X132318095Y-79097143D01*
%LPC*%
D15*
X141605000Y-110490000D03*
X136605000Y-110490000D03*
X85090000Y-128905000D03*
X85090000Y-133905000D03*
X106680000Y-120650000D03*
X106680000Y-125650000D03*
X153670000Y-126365000D03*
X148670000Y-126365000D03*
D16*
X68580000Y-47625000D03*
D15*
X71080000Y-47625000D03*
D16*
X86360000Y-49530000D03*
D15*
X86360000Y-52030000D03*
D16*
X69850000Y-43180000D03*
D15*
X69850000Y-40680000D03*
D16*
X69850000Y-52070000D03*
D15*
X69850000Y-54570000D03*
D16*
X86360000Y-57785000D03*
D15*
X86360000Y-55285000D03*
X98425000Y-45720000D03*
X98425000Y-50720000D03*
X106680000Y-92075000D03*
X111680000Y-92075000D03*
X127635000Y-69850000D03*
X127635000Y-74850000D03*
D17*
X72390000Y-129540000D03*
D18*
X74930000Y-129540000D03*
D19*
X157353000Y-32004000D03*
D20*
X157353000Y-34504000D03*
X157353000Y-37004000D03*
X157353000Y-39504000D03*
D15*
X164533000Y-32004000D03*
X164533000Y-39504000D03*
D21*
X59690000Y-33655000D03*
D22*
X62230000Y-33655000D03*
X59690000Y-36195000D03*
X62230000Y-36195000D03*
X59690000Y-38735000D03*
X62230000Y-38735000D03*
X59690000Y-41275000D03*
X62230000Y-41275000D03*
X59690000Y-43815000D03*
X62230000Y-43815000D03*
D21*
X59690000Y-55880000D03*
D22*
X62230000Y-55880000D03*
X59690000Y-58420000D03*
X62230000Y-58420000D03*
X59690000Y-60960000D03*
X62230000Y-60960000D03*
X59690000Y-63500000D03*
X62230000Y-63500000D03*
X59690000Y-66040000D03*
X62230000Y-66040000D03*
D21*
X163830000Y-65405000D03*
D22*
X161290000Y-65405000D03*
X163830000Y-62865000D03*
X161290000Y-62865000D03*
X163830000Y-60325000D03*
X161290000Y-60325000D03*
X163830000Y-57785000D03*
X161290000Y-57785000D03*
X163830000Y-55245000D03*
X161290000Y-55245000D03*
D23*
X58420000Y-24130000D03*
X100330000Y-24130000D03*
X164465000Y-23876000D03*
X164465000Y-136525000D03*
X151765000Y-62230000D03*
X58420000Y-136525000D03*
D21*
X59690000Y-78105000D03*
D22*
X62230000Y-78105000D03*
X59690000Y-80645000D03*
X62230000Y-80645000D03*
X59690000Y-83185000D03*
X62230000Y-83185000D03*
X59690000Y-85725000D03*
X62230000Y-85725000D03*
X59690000Y-88265000D03*
X62230000Y-88265000D03*
X59690000Y-90805000D03*
X62230000Y-90805000D03*
X59690000Y-93345000D03*
X62230000Y-93345000D03*
X59690000Y-95885000D03*
X62230000Y-95885000D03*
X59690000Y-98425000D03*
X62230000Y-98425000D03*
X59690000Y-100965000D03*
X62230000Y-100965000D03*
X59690000Y-103505000D03*
X62230000Y-103505000D03*
X59690000Y-106045000D03*
X62230000Y-106045000D03*
X59690000Y-108585000D03*
X62230000Y-108585000D03*
X59690000Y-111125000D03*
X62230000Y-111125000D03*
X59690000Y-113665000D03*
X62230000Y-113665000D03*
X59690000Y-116205000D03*
X62230000Y-116205000D03*
X59690000Y-118745000D03*
X62230000Y-118745000D03*
X59690000Y-121285000D03*
X62230000Y-121285000D03*
X59690000Y-123825000D03*
X62230000Y-123825000D03*
X59690000Y-126365000D03*
X62230000Y-126365000D03*
D24*
X68580000Y-114300000D03*
D25*
X68580000Y-101600000D03*
D24*
X68580000Y-130175000D03*
D25*
X68580000Y-117475000D03*
D24*
X73660000Y-114300000D03*
D25*
X73660000Y-101600000D03*
D16*
X143510000Y-61595000D03*
D26*
X143510000Y-64135000D03*
X143510000Y-66675000D03*
X143510000Y-69215000D03*
X143510000Y-71755000D03*
X143510000Y-74295000D03*
X143510000Y-76835000D03*
X143510000Y-79375000D03*
D16*
X125730000Y-92710000D03*
D26*
X125730000Y-95250000D03*
X125730000Y-97790000D03*
X125730000Y-100330000D03*
X125730000Y-102870000D03*
X125730000Y-105410000D03*
X125730000Y-107950000D03*
X125730000Y-110490000D03*
D27*
X147955000Y-55300000D03*
X147955000Y-50800000D03*
X154455000Y-55300000D03*
X154455000Y-50800000D03*
D28*
X133985000Y-94615000D03*
D29*
X133985000Y-97155000D03*
X133985000Y-99695000D03*
X133985000Y-92075000D03*
X133985000Y-89535000D03*
X133985000Y-86995000D03*
X131445000Y-97155000D03*
X131445000Y-99695000D03*
X131445000Y-102235000D03*
X131445000Y-94615000D03*
X131445000Y-92075000D03*
X131445000Y-89535000D03*
X133985000Y-102235000D03*
X136525000Y-102235000D03*
X139065000Y-102235000D03*
X141605000Y-102235000D03*
X144145000Y-102235000D03*
X133985000Y-104775000D03*
X136525000Y-104775000D03*
X139065000Y-104775000D03*
X141605000Y-104775000D03*
X144145000Y-104775000D03*
X146685000Y-104775000D03*
X146685000Y-102235000D03*
X146685000Y-99695000D03*
X146685000Y-97155000D03*
X146685000Y-94615000D03*
X146685000Y-92075000D03*
X146685000Y-89535000D03*
X149225000Y-102235000D03*
X149225000Y-99695000D03*
X149225000Y-97155000D03*
X149225000Y-94615000D03*
X149225000Y-92075000D03*
X149225000Y-89535000D03*
X144145000Y-89535000D03*
X141605000Y-89535000D03*
X139065000Y-89535000D03*
X136525000Y-89535000D03*
X131445000Y-89535000D03*
X146685000Y-86995000D03*
X144145000Y-86995000D03*
X141605000Y-86995000D03*
X139065000Y-86995000D03*
X136525000Y-86995000D03*
X133985000Y-86995000D03*
D16*
X96520000Y-136525000D03*
D26*
X81280000Y-103505000D03*
X96520000Y-133985000D03*
X81280000Y-106045000D03*
X96520000Y-131445000D03*
X81280000Y-108585000D03*
X96520000Y-128905000D03*
X81280000Y-111125000D03*
X96520000Y-126365000D03*
X81280000Y-113665000D03*
X96520000Y-123825000D03*
X81280000Y-116205000D03*
X96520000Y-121285000D03*
X81280000Y-118745000D03*
X96520000Y-118745000D03*
X81280000Y-121285000D03*
X96520000Y-116205000D03*
X81280000Y-123825000D03*
X96520000Y-113665000D03*
X81280000Y-126365000D03*
X96520000Y-111125000D03*
X81280000Y-128905000D03*
X96520000Y-108585000D03*
X81280000Y-131445000D03*
X96520000Y-106045000D03*
X81280000Y-133985000D03*
X96520000Y-103505000D03*
X81280000Y-136525000D03*
D16*
X118110000Y-129540000D03*
D26*
X102870000Y-96520000D03*
X118110000Y-127000000D03*
X102870000Y-99060000D03*
X118110000Y-124460000D03*
X102870000Y-101600000D03*
X118110000Y-121920000D03*
X102870000Y-104140000D03*
X118110000Y-119380000D03*
X102870000Y-106680000D03*
X118110000Y-116840000D03*
X102870000Y-109220000D03*
X118110000Y-114300000D03*
X102870000Y-111760000D03*
X118110000Y-111760000D03*
X102870000Y-114300000D03*
X118110000Y-109220000D03*
X102870000Y-116840000D03*
X118110000Y-106680000D03*
X102870000Y-119380000D03*
X118110000Y-104140000D03*
X102870000Y-121920000D03*
X118110000Y-101600000D03*
X102870000Y-124460000D03*
X118110000Y-99060000D03*
X102870000Y-127000000D03*
X118110000Y-96520000D03*
X102870000Y-129540000D03*
D16*
X155575000Y-114935000D03*
D26*
X122555000Y-130175000D03*
X153035000Y-114935000D03*
X125095000Y-130175000D03*
X150495000Y-114935000D03*
X127635000Y-130175000D03*
X147955000Y-114935000D03*
X130175000Y-130175000D03*
X145415000Y-114935000D03*
X132715000Y-130175000D03*
X142875000Y-114935000D03*
X135255000Y-130175000D03*
X140335000Y-114935000D03*
X137795000Y-130175000D03*
X137795000Y-114935000D03*
X140335000Y-130175000D03*
X135255000Y-114935000D03*
X142875000Y-130175000D03*
X132715000Y-114935000D03*
X145415000Y-130175000D03*
X130175000Y-114935000D03*
X147955000Y-130175000D03*
X127635000Y-114935000D03*
X150495000Y-130175000D03*
X125095000Y-114935000D03*
X153035000Y-130175000D03*
X122555000Y-114935000D03*
X155575000Y-130175000D03*
D28*
X114300000Y-71755000D03*
D29*
X111760000Y-71755000D03*
X109220000Y-71755000D03*
X116840000Y-71755000D03*
X119380000Y-71755000D03*
X121920000Y-71755000D03*
X111760000Y-69215000D03*
X109220000Y-69215000D03*
X106680000Y-69215000D03*
X114300000Y-69215000D03*
X116840000Y-69215000D03*
X119380000Y-69215000D03*
X106680000Y-71755000D03*
X106680000Y-74295000D03*
X106680000Y-76835000D03*
X106680000Y-79375000D03*
X106680000Y-81915000D03*
X104140000Y-71755000D03*
X104140000Y-74295000D03*
X104140000Y-76835000D03*
X104140000Y-79375000D03*
X104140000Y-81915000D03*
X104140000Y-84455000D03*
X106680000Y-84455000D03*
X109220000Y-84455000D03*
X111760000Y-84455000D03*
X114300000Y-84455000D03*
X116840000Y-84455000D03*
X119380000Y-84455000D03*
X106680000Y-86995000D03*
X109220000Y-86995000D03*
X111760000Y-86995000D03*
X114300000Y-86995000D03*
X116840000Y-86995000D03*
X119380000Y-86995000D03*
X119380000Y-81915000D03*
X119380000Y-79375000D03*
X119380000Y-76835000D03*
X119380000Y-74295000D03*
X119380000Y-69215000D03*
X121920000Y-84455000D03*
X121920000Y-81915000D03*
X121920000Y-79375000D03*
X121920000Y-76835000D03*
X121920000Y-74295000D03*
X121920000Y-71755000D03*
D16*
X142875000Y-43180000D03*
D26*
X127635000Y-50800000D03*
X140335000Y-43180000D03*
X130175000Y-50800000D03*
X137795000Y-43180000D03*
X132715000Y-50800000D03*
X135255000Y-43180000D03*
X135255000Y-50800000D03*
X132715000Y-43180000D03*
X137795000Y-50800000D03*
X130175000Y-43180000D03*
X140335000Y-50800000D03*
X127635000Y-43180000D03*
X142875000Y-50800000D03*
D16*
X79375000Y-64770000D03*
D26*
X86995000Y-87630000D03*
X79375000Y-67310000D03*
X86995000Y-85090000D03*
X79375000Y-69850000D03*
X86995000Y-82550000D03*
X79375000Y-72390000D03*
X86995000Y-80010000D03*
X79375000Y-74930000D03*
X86995000Y-77470000D03*
X79375000Y-77470000D03*
X86995000Y-74930000D03*
X79375000Y-80010000D03*
X86995000Y-72390000D03*
X79375000Y-82550000D03*
X86995000Y-69850000D03*
X79375000Y-85090000D03*
X86995000Y-67310000D03*
X79375000Y-87630000D03*
X86995000Y-64770000D03*
D16*
X90805000Y-64770000D03*
D26*
X98425000Y-87630000D03*
X90805000Y-67310000D03*
X98425000Y-85090000D03*
X90805000Y-69850000D03*
X98425000Y-82550000D03*
X90805000Y-72390000D03*
X98425000Y-80010000D03*
X90805000Y-74930000D03*
X98425000Y-77470000D03*
X90805000Y-77470000D03*
X98425000Y-74930000D03*
X90805000Y-80010000D03*
X98425000Y-72390000D03*
X90805000Y-82550000D03*
X98425000Y-69850000D03*
X90805000Y-85090000D03*
X98425000Y-67310000D03*
X90805000Y-87630000D03*
X98425000Y-64770000D03*
D16*
X75565000Y-87630000D03*
D26*
X67945000Y-64770000D03*
X75565000Y-85090000D03*
X67945000Y-67310000D03*
X75565000Y-82550000D03*
X67945000Y-69850000D03*
X75565000Y-80010000D03*
X67945000Y-72390000D03*
X75565000Y-77470000D03*
X67945000Y-74930000D03*
X75565000Y-74930000D03*
X67945000Y-77470000D03*
X75565000Y-72390000D03*
X67945000Y-80010000D03*
X75565000Y-69850000D03*
X67945000Y-82550000D03*
X75565000Y-67310000D03*
X67945000Y-85090000D03*
X75565000Y-64770000D03*
X67945000Y-87630000D03*
D16*
X74295000Y-29210000D03*
D26*
X81915000Y-57150000D03*
X74295000Y-31750000D03*
X81915000Y-54610000D03*
X74295000Y-34290000D03*
X81915000Y-52070000D03*
X74295000Y-36830000D03*
X81915000Y-49530000D03*
X74295000Y-39370000D03*
X81915000Y-46990000D03*
X74295000Y-41910000D03*
X81915000Y-44450000D03*
X74295000Y-44450000D03*
X81915000Y-41910000D03*
X74295000Y-46990000D03*
X81915000Y-39370000D03*
X74295000Y-49530000D03*
X81915000Y-36830000D03*
X74295000Y-52070000D03*
X81915000Y-34290000D03*
X74295000Y-54610000D03*
X81915000Y-31750000D03*
X74295000Y-57150000D03*
X81915000Y-29210000D03*
D28*
X106680000Y-52070000D03*
D29*
X106680000Y-54610000D03*
X106680000Y-57150000D03*
X106680000Y-49530000D03*
X106680000Y-46990000D03*
X106680000Y-44450000D03*
X104140000Y-54610000D03*
X104140000Y-57150000D03*
X104140000Y-59690000D03*
X104140000Y-52070000D03*
X104140000Y-49530000D03*
X104140000Y-46990000D03*
X106680000Y-59690000D03*
X109220000Y-59690000D03*
X111760000Y-59690000D03*
X114300000Y-59690000D03*
X116840000Y-59690000D03*
X106680000Y-62230000D03*
X109220000Y-62230000D03*
X111760000Y-62230000D03*
X114300000Y-62230000D03*
X116840000Y-62230000D03*
X119380000Y-62230000D03*
X119380000Y-59690000D03*
X119380000Y-57150000D03*
X119380000Y-54610000D03*
X119380000Y-52070000D03*
X119380000Y-49530000D03*
X119380000Y-46990000D03*
X121920000Y-59690000D03*
X121920000Y-57150000D03*
X121920000Y-54610000D03*
X121920000Y-52070000D03*
X121920000Y-49530000D03*
X121920000Y-46990000D03*
X116840000Y-46990000D03*
X114300000Y-46990000D03*
X111760000Y-46990000D03*
X109220000Y-46990000D03*
X104140000Y-46990000D03*
X119380000Y-44450000D03*
X116840000Y-44450000D03*
X114300000Y-44450000D03*
X111760000Y-44450000D03*
X109220000Y-44450000D03*
X106680000Y-44450000D03*
D16*
X128905000Y-63500000D03*
D15*
X128905000Y-55880000D03*
X136525000Y-55880000D03*
X136525000Y-63500000D03*
D16*
X86995000Y-34290000D03*
D15*
X94615000Y-34290000D03*
X94615000Y-41910000D03*
X86995000Y-41910000D03*
D17*
X144653000Y-36068000D03*
D18*
X147193000Y-36068000D03*
D30*
X124841000Y-25908000D03*
X147341000Y-25908000D03*
D31*
X136091000Y-25908000D03*
D32*
X114935000Y-136525000D03*
X104775000Y-136525000D03*
X151765000Y-79375000D03*
X151765000Y-69850000D03*
X76200000Y-22860000D03*
D24*
X126365000Y-36068000D03*
D25*
X139065000Y-36068000D03*
D32*
X69850000Y-22860000D03*
D33*
X113030000Y-24765000D03*
X107950000Y-24765000D03*
X113030000Y-30353000D03*
X110490000Y-30353000D03*
X107950000Y-30353000D03*
D16*
X72390000Y-97155000D03*
D15*
X74890000Y-97155000D03*
X135255000Y-80010000D03*
X140255000Y-80010000D03*
D21*
X163830000Y-125730000D03*
D22*
X161290000Y-125730000D03*
X163830000Y-123190000D03*
X161290000Y-123190000D03*
X163830000Y-120650000D03*
X161290000Y-120650000D03*
X163830000Y-118110000D03*
X161290000Y-118110000D03*
X163830000Y-115570000D03*
X161290000Y-115570000D03*
X163830000Y-113030000D03*
X161290000Y-113030000D03*
X163830000Y-110490000D03*
X161290000Y-110490000D03*
X163830000Y-107950000D03*
X161290000Y-107950000D03*
X163830000Y-105410000D03*
X161290000Y-105410000D03*
X163830000Y-102870000D03*
X161290000Y-102870000D03*
X163830000Y-100330000D03*
X161290000Y-100330000D03*
X163830000Y-97790000D03*
X161290000Y-97790000D03*
X163830000Y-95250000D03*
X161290000Y-95250000D03*
X163830000Y-92710000D03*
X161290000Y-92710000D03*
X163830000Y-90170000D03*
X161290000Y-90170000D03*
X163830000Y-87630000D03*
X161290000Y-87630000D03*
X163830000Y-85090000D03*
X161290000Y-85090000D03*
X163830000Y-82550000D03*
X161290000Y-82550000D03*
X163830000Y-80010000D03*
X161290000Y-80010000D03*
X163830000Y-77470000D03*
X161290000Y-77470000D03*
D24*
X92710000Y-92075000D03*
D25*
X100330000Y-92075000D03*
D24*
X68580000Y-92075000D03*
D25*
X76200000Y-92075000D03*
D24*
X80645000Y-92075000D03*
D25*
X88265000Y-92075000D03*
D16*
X139700000Y-76200000D03*
D26*
X132080000Y-68580000D03*
X139700000Y-73660000D03*
X132080000Y-71120000D03*
X139700000Y-71120000D03*
X132080000Y-73660000D03*
X139700000Y-68580000D03*
X132080000Y-76200000D03*
M02*
