G04 #@! TF.GenerationSoftware,KiCad,Pcbnew,5.1.5+dfsg1-2build2*
G04 #@! TF.CreationDate,2021-07-25T17:31:02+01:00*
G04 #@! TF.ProjectId,pluto,706c7574-6f2e-46b6-9963-61645f706362,rev?*
G04 #@! TF.SameCoordinates,Original*
G04 #@! TF.FileFunction,Copper,L4,Bot*
G04 #@! TF.FilePolarity,Positive*
%FSLAX46Y46*%
G04 Gerber Fmt 4.6, Leading zero omitted, Abs format (unit mm)*
G04 Created by KiCad (PCBNEW 5.1.5+dfsg1-2build2) date 2021-07-25 17:31:02*
%MOMM*%
%LPD*%
G04 APERTURE LIST*
%ADD10C,1.422400*%
%ADD11R,1.422400X1.422400*%
%ADD12C,1.700000*%
%ADD13C,0.100000*%
%ADD14R,1.800000X1.800000*%
%ADD15C,1.800000*%
%ADD16C,1.778000*%
%ADD17O,2.200000X1.700000*%
%ADD18R,1.727200X1.727200*%
%ADD19O,1.727200X1.727200*%
%ADD20C,6.400000*%
%ADD21C,2.000000*%
%ADD22O,1.600000X1.600000*%
%ADD23R,1.600000X1.600000*%
%ADD24R,1.700000X1.700000*%
%ADD25C,0.500000*%
%ADD26C,0.150000*%
G04 APERTURE END LIST*
D10*
X114300000Y-83185000D03*
X114300000Y-85725000D03*
X114300000Y-88265000D03*
X114300000Y-90805000D03*
X114300000Y-93345000D03*
X111760000Y-80645000D03*
X111760000Y-85725000D03*
X111760000Y-88265000D03*
X111760000Y-90805000D03*
X111760000Y-93345000D03*
X111760000Y-95885000D03*
X111760000Y-98425000D03*
X109220000Y-98425000D03*
X106680000Y-98425000D03*
X104140000Y-98425000D03*
X101600000Y-98425000D03*
X99060000Y-98425000D03*
X114300000Y-95885000D03*
X109220000Y-95885000D03*
X106680000Y-95885000D03*
X104140000Y-95885000D03*
X101600000Y-95885000D03*
X99060000Y-95885000D03*
X96520000Y-95885000D03*
X96520000Y-93345000D03*
X96520000Y-90805000D03*
X96520000Y-88265000D03*
X96520000Y-85725000D03*
X96520000Y-83185000D03*
X99060000Y-93345000D03*
X99060000Y-90805000D03*
X99060000Y-88265000D03*
X99060000Y-85725000D03*
X99060000Y-83185000D03*
X109220000Y-80645000D03*
X106680000Y-80645000D03*
X99060000Y-80645000D03*
X101600000Y-80645000D03*
X104140000Y-80645000D03*
X111760000Y-83185000D03*
X109220000Y-83185000D03*
X101600000Y-83185000D03*
X104140000Y-83185000D03*
D11*
X106680000Y-83185000D03*
D12*
X60960000Y-64135000D03*
X60960000Y-61595000D03*
X60960000Y-59055000D03*
X60960000Y-56515000D03*
X60960000Y-53975000D03*
X58420000Y-64135000D03*
X58420000Y-61595000D03*
X58420000Y-59055000D03*
X58420000Y-56515000D03*
G04 #@! TA.AperFunction,ComponentPad*
D13*
G36*
X59044504Y-53126204D02*
G01*
X59068773Y-53129804D01*
X59092571Y-53135765D01*
X59115671Y-53144030D01*
X59137849Y-53154520D01*
X59158893Y-53167133D01*
X59178598Y-53181747D01*
X59196777Y-53198223D01*
X59213253Y-53216402D01*
X59227867Y-53236107D01*
X59240480Y-53257151D01*
X59250970Y-53279329D01*
X59259235Y-53302429D01*
X59265196Y-53326227D01*
X59268796Y-53350496D01*
X59270000Y-53375000D01*
X59270000Y-54575000D01*
X59268796Y-54599504D01*
X59265196Y-54623773D01*
X59259235Y-54647571D01*
X59250970Y-54670671D01*
X59240480Y-54692849D01*
X59227867Y-54713893D01*
X59213253Y-54733598D01*
X59196777Y-54751777D01*
X59178598Y-54768253D01*
X59158893Y-54782867D01*
X59137849Y-54795480D01*
X59115671Y-54805970D01*
X59092571Y-54814235D01*
X59068773Y-54820196D01*
X59044504Y-54823796D01*
X59020000Y-54825000D01*
X57820000Y-54825000D01*
X57795496Y-54823796D01*
X57771227Y-54820196D01*
X57747429Y-54814235D01*
X57724329Y-54805970D01*
X57702151Y-54795480D01*
X57681107Y-54782867D01*
X57661402Y-54768253D01*
X57643223Y-54751777D01*
X57626747Y-54733598D01*
X57612133Y-54713893D01*
X57599520Y-54692849D01*
X57589030Y-54670671D01*
X57580765Y-54647571D01*
X57574804Y-54623773D01*
X57571204Y-54599504D01*
X57570000Y-54575000D01*
X57570000Y-53375000D01*
X57571204Y-53350496D01*
X57574804Y-53326227D01*
X57580765Y-53302429D01*
X57589030Y-53279329D01*
X57599520Y-53257151D01*
X57612133Y-53236107D01*
X57626747Y-53216402D01*
X57643223Y-53198223D01*
X57661402Y-53181747D01*
X57681107Y-53167133D01*
X57702151Y-53154520D01*
X57724329Y-53144030D01*
X57747429Y-53135765D01*
X57771227Y-53129804D01*
X57795496Y-53126204D01*
X57820000Y-53125000D01*
X59020000Y-53125000D01*
X59044504Y-53126204D01*
G37*
G04 #@! TD.AperFunction*
D11*
X71501000Y-116332000D03*
D10*
X71501000Y-118872000D03*
X71501000Y-121412000D03*
X71501000Y-113792000D03*
X71501000Y-111252000D03*
X68961000Y-118872000D03*
X68961000Y-121412000D03*
X68961000Y-123952000D03*
X68961000Y-116332000D03*
X68961000Y-113792000D03*
X71501000Y-123952000D03*
X74041000Y-123952000D03*
X76581000Y-123952000D03*
X79121000Y-123952000D03*
X81661000Y-123952000D03*
X71501000Y-126492000D03*
X74041000Y-126492000D03*
X76581000Y-126492000D03*
X79121000Y-126492000D03*
X81661000Y-126492000D03*
X84201000Y-126492000D03*
X84201000Y-123952000D03*
X84201000Y-121412000D03*
X84201000Y-118872000D03*
X84201000Y-116332000D03*
X84201000Y-113792000D03*
X84201000Y-108712000D03*
X86741000Y-123952000D03*
X86741000Y-121412000D03*
X86741000Y-118872000D03*
X86741000Y-116332000D03*
X86741000Y-113792000D03*
X86741000Y-111252000D03*
X84201000Y-111252000D03*
X81661000Y-111252000D03*
X79121000Y-111252000D03*
X76581000Y-111252000D03*
X74041000Y-111252000D03*
X68961000Y-111252000D03*
X81661000Y-108712000D03*
X79121000Y-108712000D03*
X76581000Y-108712000D03*
X74041000Y-108712000D03*
X71501000Y-108712000D03*
X86741000Y-83312000D03*
X86741000Y-85852000D03*
X86741000Y-88392000D03*
X86741000Y-90932000D03*
X86741000Y-93472000D03*
X84201000Y-80772000D03*
X84201000Y-85852000D03*
X84201000Y-88392000D03*
X84201000Y-90932000D03*
X84201000Y-93472000D03*
X84201000Y-96012000D03*
X84201000Y-98552000D03*
X81661000Y-98552000D03*
X79121000Y-98552000D03*
X76581000Y-98552000D03*
X74041000Y-98552000D03*
X71501000Y-98552000D03*
X86741000Y-96012000D03*
X81661000Y-96012000D03*
X79121000Y-96012000D03*
X76581000Y-96012000D03*
X74041000Y-96012000D03*
X71501000Y-96012000D03*
X68961000Y-96012000D03*
X68961000Y-93472000D03*
X68961000Y-90932000D03*
X68961000Y-88392000D03*
X68961000Y-85852000D03*
X68961000Y-83312000D03*
X71501000Y-93472000D03*
X71501000Y-90932000D03*
X71501000Y-88392000D03*
X71501000Y-85852000D03*
X71501000Y-83312000D03*
X81661000Y-80772000D03*
X79121000Y-80772000D03*
X71501000Y-80772000D03*
X74041000Y-80772000D03*
X76581000Y-80772000D03*
X84201000Y-83312000D03*
X81661000Y-83312000D03*
X74041000Y-83312000D03*
X76581000Y-83312000D03*
D11*
X79121000Y-83312000D03*
D14*
X118948000Y-104648000D03*
D15*
X118948000Y-107188000D03*
D14*
X133731000Y-42164000D03*
D15*
X133731000Y-44704000D03*
D16*
X153289000Y-54356000D03*
X153289000Y-49276000D03*
X147701000Y-54356000D03*
X147701000Y-51816000D03*
X147701000Y-49276000D03*
G04 #@! TA.AperFunction,ComponentPad*
D13*
G36*
X144511504Y-60619204D02*
G01*
X144535773Y-60622804D01*
X144559571Y-60628765D01*
X144582671Y-60637030D01*
X144604849Y-60647520D01*
X144625893Y-60660133D01*
X144645598Y-60674747D01*
X144663777Y-60691223D01*
X144680253Y-60709402D01*
X144694867Y-60729107D01*
X144707480Y-60750151D01*
X144717970Y-60772329D01*
X144726235Y-60795429D01*
X144732196Y-60819227D01*
X144735796Y-60843496D01*
X144737000Y-60868000D01*
X144737000Y-62068000D01*
X144735796Y-62092504D01*
X144732196Y-62116773D01*
X144726235Y-62140571D01*
X144717970Y-62163671D01*
X144707480Y-62185849D01*
X144694867Y-62206893D01*
X144680253Y-62226598D01*
X144663777Y-62244777D01*
X144645598Y-62261253D01*
X144625893Y-62275867D01*
X144604849Y-62288480D01*
X144582671Y-62298970D01*
X144559571Y-62307235D01*
X144535773Y-62313196D01*
X144511504Y-62316796D01*
X144487000Y-62318000D01*
X142787000Y-62318000D01*
X142762496Y-62316796D01*
X142738227Y-62313196D01*
X142714429Y-62307235D01*
X142691329Y-62298970D01*
X142669151Y-62288480D01*
X142648107Y-62275867D01*
X142628402Y-62261253D01*
X142610223Y-62244777D01*
X142593747Y-62226598D01*
X142579133Y-62206893D01*
X142566520Y-62185849D01*
X142556030Y-62163671D01*
X142547765Y-62140571D01*
X142541804Y-62116773D01*
X142538204Y-62092504D01*
X142537000Y-62068000D01*
X142537000Y-60868000D01*
X142538204Y-60843496D01*
X142541804Y-60819227D01*
X142547765Y-60795429D01*
X142556030Y-60772329D01*
X142566520Y-60750151D01*
X142579133Y-60729107D01*
X142593747Y-60709402D01*
X142610223Y-60691223D01*
X142628402Y-60674747D01*
X142648107Y-60660133D01*
X142669151Y-60647520D01*
X142691329Y-60637030D01*
X142714429Y-60628765D01*
X142738227Y-60622804D01*
X142762496Y-60619204D01*
X142787000Y-60618000D01*
X144487000Y-60618000D01*
X144511504Y-60619204D01*
G37*
G04 #@! TD.AperFunction*
D17*
X143637000Y-63968000D03*
X143637000Y-66468000D03*
X143637000Y-68968000D03*
D18*
X127127000Y-135890000D03*
D19*
X127127000Y-133350000D03*
X129667000Y-135890000D03*
X129667000Y-133350000D03*
X132207000Y-135890000D03*
X132207000Y-133350000D03*
X134747000Y-135890000D03*
X134747000Y-133350000D03*
X137287000Y-135890000D03*
X137287000Y-133350000D03*
X139827000Y-135890000D03*
X139827000Y-133350000D03*
X142367000Y-135890000D03*
X142367000Y-133350000D03*
D20*
X58394600Y-44856400D03*
X150749000Y-43688000D03*
X151257000Y-136398000D03*
X58420000Y-136398000D03*
D18*
X58801000Y-75692000D03*
D19*
X61341000Y-75692000D03*
X58801000Y-78232000D03*
X61341000Y-78232000D03*
X58801000Y-80772000D03*
X61341000Y-80772000D03*
X58801000Y-83312000D03*
X61341000Y-83312000D03*
X58801000Y-85852000D03*
X61341000Y-85852000D03*
X58801000Y-88392000D03*
X61341000Y-88392000D03*
X58801000Y-90932000D03*
X61341000Y-90932000D03*
X58801000Y-93472000D03*
X61341000Y-93472000D03*
X58801000Y-96012000D03*
X61341000Y-96012000D03*
X58801000Y-98552000D03*
X61341000Y-98552000D03*
X58801000Y-101092000D03*
X61341000Y-101092000D03*
X58801000Y-103632000D03*
X61341000Y-103632000D03*
X58801000Y-106172000D03*
X61341000Y-106172000D03*
X58801000Y-108712000D03*
X61341000Y-108712000D03*
X58801000Y-111252000D03*
X61341000Y-111252000D03*
X58801000Y-113792000D03*
X61341000Y-113792000D03*
X58801000Y-116332000D03*
X61341000Y-116332000D03*
X58801000Y-118872000D03*
X61341000Y-118872000D03*
X58801000Y-121412000D03*
X61341000Y-121412000D03*
X58801000Y-123952000D03*
X61341000Y-123952000D03*
D21*
X128293000Y-54428000D03*
X128293000Y-58928000D03*
X121793000Y-54428000D03*
X121793000Y-58928000D03*
X101069000Y-58928000D03*
X101069000Y-54428000D03*
X107569000Y-58928000D03*
X107569000Y-54428000D03*
D10*
X95377000Y-123952000D03*
X95377000Y-121412000D03*
X95377000Y-118872000D03*
X95377000Y-116332000D03*
X95377000Y-113792000D03*
X97917000Y-126492000D03*
X97917000Y-121412000D03*
X97917000Y-118872000D03*
X97917000Y-116332000D03*
X97917000Y-113792000D03*
X97917000Y-111252000D03*
X97917000Y-108712000D03*
X100457000Y-108712000D03*
X102997000Y-108712000D03*
X105537000Y-108712000D03*
X108077000Y-108712000D03*
X110617000Y-108712000D03*
X95377000Y-111252000D03*
X100457000Y-111252000D03*
X102997000Y-111252000D03*
X105537000Y-111252000D03*
X108077000Y-111252000D03*
X110617000Y-111252000D03*
X113157000Y-111252000D03*
X113157000Y-113792000D03*
X113157000Y-116332000D03*
X113157000Y-118872000D03*
X113157000Y-121412000D03*
X113157000Y-123952000D03*
X110617000Y-113792000D03*
X110617000Y-116332000D03*
X110617000Y-118872000D03*
X110617000Y-121412000D03*
X110617000Y-123952000D03*
X100457000Y-126492000D03*
X102997000Y-126492000D03*
X110617000Y-126492000D03*
X108077000Y-126492000D03*
X105537000Y-126492000D03*
X97917000Y-123952000D03*
X100457000Y-123952000D03*
X108077000Y-123952000D03*
X105537000Y-123952000D03*
D11*
X102997000Y-123952000D03*
D22*
X151511000Y-125984000D03*
X118491000Y-110744000D03*
X148971000Y-125984000D03*
X121031000Y-110744000D03*
X146431000Y-125984000D03*
X123571000Y-110744000D03*
X143891000Y-125984000D03*
X126111000Y-110744000D03*
X141351000Y-125984000D03*
X128651000Y-110744000D03*
X138811000Y-125984000D03*
X131191000Y-110744000D03*
X136271000Y-125984000D03*
X133731000Y-110744000D03*
X133731000Y-125984000D03*
X136271000Y-110744000D03*
X131191000Y-125984000D03*
X138811000Y-110744000D03*
X128651000Y-125984000D03*
X141351000Y-110744000D03*
X126111000Y-125984000D03*
X143891000Y-110744000D03*
X123571000Y-125984000D03*
X146431000Y-110744000D03*
X121031000Y-125984000D03*
X148971000Y-110744000D03*
X118491000Y-125984000D03*
D23*
X151511000Y-110744000D03*
X69215000Y-74295000D03*
D22*
X97155000Y-66675000D03*
X71755000Y-74295000D03*
X94615000Y-66675000D03*
X74295000Y-74295000D03*
X92075000Y-66675000D03*
X76835000Y-74295000D03*
X89535000Y-66675000D03*
X79375000Y-74295000D03*
X86995000Y-66675000D03*
X81915000Y-74295000D03*
X84455000Y-66675000D03*
X84455000Y-74295000D03*
X81915000Y-66675000D03*
X86995000Y-74295000D03*
X79375000Y-66675000D03*
X89535000Y-74295000D03*
X76835000Y-66675000D03*
X92075000Y-74295000D03*
X74295000Y-66675000D03*
X94615000Y-74295000D03*
X71755000Y-66675000D03*
X97155000Y-74295000D03*
X69215000Y-66675000D03*
D24*
X127381000Y-43688000D03*
X120777000Y-43688000D03*
X114173000Y-43688000D03*
X107569000Y-43688000D03*
X100457000Y-43688000D03*
X93853000Y-43688000D03*
D10*
X134706300Y-90198600D03*
X132166300Y-87658600D03*
X134706300Y-87658600D03*
X134706300Y-92738600D03*
X134706300Y-95278600D03*
X134706300Y-97818600D03*
X134706300Y-100358600D03*
X134706300Y-102898600D03*
X132166300Y-102898600D03*
X137246300Y-90198600D03*
X137246300Y-92738600D03*
X137246300Y-95278600D03*
X137246300Y-97818600D03*
X137246300Y-100358600D03*
X132166300Y-100358600D03*
X129626300Y-100358600D03*
X127086300Y-100358600D03*
X124546300Y-100358600D03*
X124546300Y-97818600D03*
X124546300Y-95278600D03*
X124546300Y-92738600D03*
X129626300Y-102898600D03*
X127086300Y-102898600D03*
X127086300Y-97818600D03*
X127086300Y-95278600D03*
X127086300Y-92738600D03*
X127086300Y-90198600D03*
X127086300Y-87658600D03*
X129626300Y-87658600D03*
X124546300Y-90198600D03*
X129626300Y-90198600D03*
D11*
X132166300Y-90198600D03*
D18*
X67437000Y-136144000D03*
D19*
X67437000Y-133604000D03*
X69977000Y-136144000D03*
X69977000Y-133604000D03*
X72517000Y-136144000D03*
X72517000Y-133604000D03*
X75057000Y-136144000D03*
X75057000Y-133604000D03*
X77597000Y-136144000D03*
X77597000Y-133604000D03*
X80137000Y-136144000D03*
X80137000Y-133604000D03*
X82677000Y-136144000D03*
X82677000Y-133604000D03*
X85217000Y-136144000D03*
X85217000Y-133604000D03*
X87757000Y-136144000D03*
X87757000Y-133604000D03*
X90297000Y-136144000D03*
X90297000Y-133604000D03*
X92837000Y-136144000D03*
X92837000Y-133604000D03*
X95377000Y-136144000D03*
X95377000Y-133604000D03*
X97917000Y-136144000D03*
X97917000Y-133604000D03*
X100457000Y-136144000D03*
X100457000Y-133604000D03*
X102997000Y-136144000D03*
X102997000Y-133604000D03*
X105537000Y-136144000D03*
X105537000Y-133604000D03*
X108077000Y-136144000D03*
X108077000Y-133604000D03*
X110617000Y-136144000D03*
X110617000Y-133604000D03*
X113157000Y-136144000D03*
X113157000Y-133604000D03*
X115697000Y-136144000D03*
X115697000Y-133604000D03*
D25*
X146189000Y-121757000D03*
X141811000Y-78314400D03*
X138376000Y-46868300D03*
X111322000Y-57907100D03*
X121285000Y-68779100D03*
X134493000Y-70258500D03*
X143129000Y-46501300D03*
X123978000Y-78275100D03*
X129163000Y-82723400D03*
X126873000Y-70297500D03*
X136057000Y-81049700D03*
X88314000Y-49530000D03*
X89945800Y-119837000D03*
X146196000Y-104450000D03*
X75057000Y-71120000D03*
X143617000Y-82020600D03*
X140628000Y-102100000D03*
X127269000Y-80325700D03*
X147188000Y-77844200D03*
X92383700Y-51008600D03*
X105377000Y-76693200D03*
X73478000Y-103631000D03*
X68404800Y-103771000D03*
X129649000Y-63813900D03*
X148567000Y-72981700D03*
X143617000Y-72987800D03*
X70459800Y-103771000D03*
X119541000Y-83347100D03*
X135407000Y-75770300D03*
X131823000Y-65082900D03*
X89740000Y-47556400D03*
X93980000Y-49080100D03*
X124333000Y-61883300D03*
X126162000Y-83443800D03*
X133731000Y-51423900D03*
X143129000Y-48551400D03*
X131850000Y-119245000D03*
X58653100Y-130840000D03*
X124946000Y-116341000D03*
X148254000Y-104378000D03*
X89935300Y-121901000D03*
X107414000Y-76221200D03*
X131220000Y-83431800D03*
X150333000Y-84794100D03*
X148248000Y-121251000D03*
X76835000Y-54491300D03*
X101757000Y-68434000D03*
X126656000Y-107028000D03*
X72517000Y-71120000D03*
X136713000Y-78076500D03*
X142205000Y-77344400D03*
X114850000Y-58143500D03*
X124080000Y-83356600D03*
X138371000Y-50315600D03*
X134135000Y-80279400D03*
X93345400Y-107433000D03*
X92523600Y-119892000D03*
X97837400Y-77382900D03*
X128295000Y-73253500D03*
X88466800Y-97356500D03*
X86933100Y-106940000D03*
X87805000Y-105621000D03*
X89472800Y-97683800D03*
X98677700Y-127354000D03*
X139248000Y-112444000D03*
X107119000Y-132037000D03*
X112673000Y-87382700D03*
X109505000Y-132501000D03*
X92848300Y-114958000D03*
X92255300Y-114497000D03*
X96788400Y-109009000D03*
X90979500Y-103200000D03*
X99036900Y-113269000D03*
X90191100Y-103877000D03*
X78138800Y-97034800D03*
X87917700Y-92731000D03*
X93035200Y-103778000D03*
X119882000Y-100396000D03*
X97945500Y-106321000D03*
X91398700Y-99774100D03*
X116145000Y-102312000D03*
X90690500Y-98524700D03*
X77306900Y-94175000D03*
X100577000Y-130997000D03*
X86125000Y-109649000D03*
X139444000Y-97818600D03*
X82173700Y-63206600D03*
X94147100Y-100106000D03*
X88367700Y-107227000D03*
X87233400Y-105070000D03*
X90316700Y-105276000D03*
X103696000Y-103728000D03*
X106577000Y-106650000D03*
X83220600Y-119997000D03*
X101007000Y-131912000D03*
X116946000Y-128144000D03*
X112885000Y-68669900D03*
X96035100Y-63688100D03*
X112243000Y-68140600D03*
D26*
X108077000Y-123952000D02*
X109018000Y-124893000D01*
X109018000Y-124893000D02*
X109018000Y-132727000D01*
X109018000Y-132727000D02*
X109347000Y-133056000D01*
X109347000Y-133056000D02*
X109347000Y-133898000D01*
X109347000Y-133898000D02*
X110504000Y-135055000D01*
X110504000Y-135055000D02*
X110617000Y-135055000D01*
X110617000Y-135055000D02*
X110617000Y-136144000D01*
X93345400Y-107433000D02*
X93345400Y-119070000D01*
X93345400Y-119070000D02*
X92523600Y-119892000D01*
X93345400Y-107433000D02*
X95297000Y-105482000D01*
X95297000Y-105482000D02*
X95297000Y-79923300D01*
X95297000Y-79923300D02*
X97837400Y-77382900D01*
X143891000Y-110744000D02*
X143891000Y-91399600D01*
X143891000Y-91399600D02*
X128295000Y-75803600D01*
X128295000Y-75803600D02*
X128295000Y-73253500D01*
X113157000Y-136144000D02*
X112068000Y-136144000D01*
X112068000Y-136144000D02*
X112068000Y-136280000D01*
X112068000Y-136280000D02*
X111102000Y-137246000D01*
X111102000Y-137246000D02*
X110176000Y-137246000D01*
X110176000Y-137246000D02*
X109347000Y-136417000D01*
X109347000Y-136417000D02*
X109347000Y-135814000D01*
X109347000Y-135814000D02*
X108375000Y-134842000D01*
X108375000Y-134842000D02*
X107751000Y-134842000D01*
X107751000Y-134842000D02*
X106657000Y-133748000D01*
X106657000Y-133748000D02*
X106657000Y-132878000D01*
X106657000Y-132878000D02*
X106276000Y-132498000D01*
X106276000Y-132498000D02*
X106276000Y-129771000D01*
X106276000Y-129771000D02*
X102997000Y-126492000D01*
X86741000Y-85852000D02*
X85471000Y-87122000D01*
X85471000Y-87122000D02*
X84136900Y-87122000D01*
X84136900Y-87122000D02*
X80075300Y-91183600D01*
X80075300Y-91183600D02*
X80075300Y-102678000D01*
X80075300Y-102678000D02*
X74041000Y-108712000D01*
X58801000Y-78232000D02*
X59889900Y-78232000D01*
X59889900Y-78232000D02*
X59889900Y-78368200D01*
X59889900Y-78368200D02*
X60842600Y-79320900D01*
X60842600Y-79320900D02*
X62429900Y-79320900D01*
X62429900Y-79320900D02*
X68961000Y-85852000D01*
X61341000Y-78232000D02*
X62429900Y-78232000D01*
X62429900Y-78232000D02*
X68973900Y-84776000D01*
X68973900Y-84776000D02*
X70425000Y-84776000D01*
X70425000Y-84776000D02*
X71501000Y-85852000D01*
X61341000Y-80772000D02*
X62429900Y-80772000D01*
X62429900Y-80772000D02*
X68779900Y-87122000D01*
X68779900Y-87122000D02*
X70231000Y-87122000D01*
X70231000Y-87122000D02*
X71501000Y-88392000D01*
X61341000Y-83312000D02*
X62429900Y-83312000D01*
X62429900Y-83312000D02*
X62429900Y-84400900D01*
X62429900Y-84400900D02*
X68961000Y-90932000D01*
X61341000Y-85852000D02*
X62429900Y-85852000D01*
X62429900Y-85852000D02*
X68448700Y-91870800D01*
X68448700Y-91870800D02*
X70562200Y-91870800D01*
X70562200Y-91870800D02*
X71501000Y-90932000D01*
X61341000Y-88392000D02*
X62429900Y-88392000D01*
X62429900Y-88392000D02*
X67509900Y-93472000D01*
X67509900Y-93472000D02*
X68961000Y-93472000D01*
X61341000Y-90932000D02*
X62429900Y-90932000D01*
X62429900Y-90932000D02*
X65922400Y-94424500D01*
X65922400Y-94424500D02*
X70548500Y-94424500D01*
X70548500Y-94424500D02*
X71501000Y-93472000D01*
X61341000Y-93472000D02*
X62429900Y-93472000D01*
X62429900Y-93472000D02*
X64969900Y-96012000D01*
X64969900Y-96012000D02*
X68961000Y-96012000D01*
X127086300Y-95278600D02*
X127086000Y-95278600D01*
X131191000Y-110744000D02*
X131191000Y-105642000D01*
X131191000Y-105642000D02*
X133438000Y-103395000D01*
X133438000Y-103395000D02*
X133438000Y-100301000D01*
X133438000Y-100301000D02*
X128416000Y-95278600D01*
X128416000Y-95278600D02*
X127086300Y-95278600D01*
X71501000Y-111252000D02*
X72470700Y-112222000D01*
X72470700Y-112222000D02*
X72470700Y-129906000D01*
X72470700Y-129906000D02*
X71400000Y-130977000D01*
X71400000Y-130977000D02*
X71400000Y-134051000D01*
X71400000Y-134051000D02*
X72404200Y-135055000D01*
X72404200Y-135055000D02*
X72517000Y-135055000D01*
X72517000Y-135055000D02*
X72517000Y-136144000D01*
X88425900Y-97356500D02*
X88425900Y-86157700D01*
X88425900Y-86157700D02*
X86850200Y-84582000D01*
X86850200Y-84582000D02*
X85471000Y-84582000D01*
X85471000Y-84582000D02*
X84201000Y-83312000D01*
X88425900Y-97356500D02*
X88466800Y-97356500D01*
X86933100Y-106940000D02*
X86758000Y-106765000D01*
X86758000Y-106765000D02*
X86758000Y-104415000D01*
X86758000Y-104415000D02*
X88425900Y-102747000D01*
X88425900Y-102747000D02*
X88425900Y-97356500D01*
X124546200Y-97818700D02*
X125816000Y-99088600D01*
X125816000Y-99088600D02*
X125816000Y-106884000D01*
X125816000Y-106884000D02*
X128651000Y-109719000D01*
X128651000Y-109719000D02*
X128651000Y-110744000D01*
X124546000Y-97818600D02*
X124546200Y-97818700D01*
X124546300Y-97818600D02*
X124546200Y-97818700D01*
X69977000Y-136144000D02*
X69977000Y-135055000D01*
X69977000Y-135055000D02*
X69840800Y-135055000D01*
X69840800Y-135055000D02*
X68888100Y-134102000D01*
X68888100Y-134102000D02*
X68888100Y-133379000D01*
X68888100Y-133379000D02*
X67994500Y-132485000D01*
X67994500Y-132485000D02*
X67994500Y-114758000D01*
X67994500Y-114758000D02*
X68961000Y-113792000D01*
X128651000Y-110744000D02*
X127626000Y-110744000D01*
X127626000Y-110744000D02*
X118561000Y-119809000D01*
X118561000Y-119809000D02*
X112220000Y-119809000D01*
X112220000Y-119809000D02*
X110617000Y-121412000D01*
X124546000Y-95278600D02*
X124546300Y-95278600D01*
X124546000Y-95278600D02*
X124327000Y-95278600D01*
X124327000Y-95278600D02*
X116838000Y-102767000D01*
X116838000Y-102767000D02*
X116838000Y-112650000D01*
X116838000Y-112650000D02*
X113157000Y-116332000D01*
X68961000Y-111252000D02*
X69897500Y-112188000D01*
X69897500Y-112188000D02*
X69897500Y-129046000D01*
X69897500Y-129046000D02*
X71066000Y-130214000D01*
X71066000Y-130214000D02*
X71066000Y-136255000D01*
X71066000Y-136255000D02*
X72056100Y-137245000D01*
X72056100Y-137245000D02*
X72980100Y-137245000D01*
X72980100Y-137245000D02*
X73968100Y-136257000D01*
X73968100Y-136257000D02*
X73968100Y-136144000D01*
X73968100Y-136144000D02*
X75057000Y-136144000D01*
X84201000Y-80772000D02*
X85550500Y-80772000D01*
X85550500Y-80772000D02*
X89472800Y-84694300D01*
X89472800Y-84694300D02*
X89472800Y-97683800D01*
X89472800Y-97683800D02*
X89472800Y-103954000D01*
X89472800Y-103954000D02*
X87805000Y-105621000D01*
X100457000Y-133604000D02*
X100457000Y-132515000D01*
X100457000Y-132515000D02*
X98677700Y-130736000D01*
X98677700Y-130736000D02*
X98677700Y-127354000D01*
X113157000Y-123952000D02*
X114248000Y-125043000D01*
X114248000Y-125043000D02*
X114248000Y-136636000D01*
X114248000Y-136636000D02*
X113320000Y-137564000D01*
X113320000Y-137564000D02*
X100282000Y-137564000D01*
X100282000Y-137564000D02*
X99067700Y-136350000D01*
X99067700Y-136350000D02*
X99067700Y-135731000D01*
X99067700Y-135731000D02*
X98029800Y-134693000D01*
X98029800Y-134693000D02*
X97917000Y-134693000D01*
X97917000Y-134693000D02*
X97917000Y-133604000D01*
X139248000Y-112444000D02*
X139930000Y-111762000D01*
X139930000Y-111762000D02*
X139930000Y-89555600D01*
X139930000Y-89555600D02*
X107569000Y-57194900D01*
X107569000Y-57194900D02*
X107569000Y-54428000D01*
X126618000Y-90666900D02*
X126150000Y-91135200D01*
X126150000Y-91135200D02*
X124825000Y-91135200D01*
X124825000Y-91135200D02*
X114269000Y-101691000D01*
X114269000Y-101691000D02*
X114269000Y-111489000D01*
X114269000Y-111489000D02*
X113570000Y-112189000D01*
X113570000Y-112189000D02*
X112220000Y-112189000D01*
X112220000Y-112189000D02*
X110617000Y-113792000D01*
X127086000Y-90198600D02*
X126618000Y-90666900D01*
X126618000Y-90666900D02*
X127086300Y-90198600D01*
X110617000Y-113792000D02*
X107119000Y-117290000D01*
X107119000Y-117290000D02*
X107119000Y-132037000D01*
X112673000Y-87382700D02*
X112285000Y-86995000D01*
X112285000Y-86995000D02*
X111670000Y-86995000D01*
X111670000Y-86995000D02*
X108206000Y-83531600D01*
X108206000Y-83531600D02*
X108206000Y-78751800D01*
X108206000Y-78751800D02*
X97155000Y-67700300D01*
X97155000Y-67700300D02*
X97155000Y-66675000D01*
X124546300Y-92738600D02*
X124546000Y-92738600D01*
X124546000Y-92738600D02*
X114593000Y-102692000D01*
X114593000Y-102692000D02*
X114593000Y-112356000D01*
X114593000Y-112356000D02*
X113157000Y-113792000D01*
X113157000Y-113792000D02*
X111584000Y-115364000D01*
X111584000Y-115364000D02*
X111584000Y-116736000D01*
X111584000Y-116736000D02*
X110718000Y-117602000D01*
X110718000Y-117602000D02*
X110459000Y-117602000D01*
X110459000Y-117602000D02*
X109325000Y-118735000D01*
X109325000Y-118735000D02*
X109325000Y-132321000D01*
X109325000Y-132321000D02*
X109505000Y-132501000D01*
X124546300Y-90198600D02*
X124546000Y-90198600D01*
X113157000Y-111252000D02*
X113157000Y-101588000D01*
X113157000Y-101588000D02*
X124546000Y-90198600D01*
X85217000Y-136144000D02*
X86305900Y-136144000D01*
X86305900Y-136144000D02*
X86305900Y-136257000D01*
X86305900Y-136257000D02*
X87287100Y-137238000D01*
X87287100Y-137238000D02*
X90746200Y-137238000D01*
X90746200Y-137238000D02*
X91748000Y-136236000D01*
X91748000Y-136236000D02*
X91748000Y-116058000D01*
X91748000Y-116058000D02*
X92848300Y-114958000D01*
X94615000Y-74295000D02*
X94615000Y-75320300D01*
X94615000Y-75320300D02*
X94922700Y-75628000D01*
X94922700Y-75628000D02*
X94922700Y-104871000D01*
X94922700Y-104871000D02*
X92848300Y-106945000D01*
X92848300Y-106945000D02*
X92848300Y-114958000D01*
X137246300Y-90198600D02*
X137246000Y-90198600D01*
X110617000Y-111252000D02*
X112821000Y-109048000D01*
X112821000Y-109048000D02*
X112821000Y-100591000D01*
X112821000Y-100591000D02*
X124156000Y-89256000D01*
X124156000Y-89256000D02*
X127515000Y-89256000D01*
X127515000Y-89256000D02*
X128356000Y-90097800D01*
X128356000Y-90097800D02*
X128356000Y-90261300D01*
X128356000Y-90261300D02*
X129260000Y-91164700D01*
X129260000Y-91164700D02*
X136280000Y-91164700D01*
X136280000Y-91164700D02*
X137246000Y-90198600D01*
X90297000Y-136144000D02*
X90297000Y-135055000D01*
X90297000Y-135055000D02*
X90409800Y-135055000D01*
X90409800Y-135055000D02*
X91447600Y-134017000D01*
X91447600Y-134017000D02*
X91447600Y-115305000D01*
X91447600Y-115305000D02*
X92255300Y-114497000D01*
X89535000Y-74295000D02*
X90560300Y-74295000D01*
X90560300Y-74295000D02*
X91590400Y-73264900D01*
X91590400Y-73264900D02*
X92524000Y-73264900D01*
X92524000Y-73264900D02*
X93345000Y-74085900D01*
X93345000Y-74085900D02*
X93345000Y-98218800D01*
X93345000Y-98218800D02*
X94622400Y-99496200D01*
X94622400Y-99496200D02*
X94622400Y-104586000D01*
X94622400Y-104586000D02*
X92255300Y-106953000D01*
X92255300Y-106953000D02*
X92255300Y-114497000D01*
X95377000Y-136144000D02*
X95377000Y-135055000D01*
X95377000Y-135055000D02*
X95264200Y-135055000D01*
X95264200Y-135055000D02*
X94265700Y-134057000D01*
X94265700Y-134057000D02*
X94265700Y-132838000D01*
X94265700Y-132838000D02*
X96313700Y-130790000D01*
X96313700Y-130790000D02*
X96313700Y-109484000D01*
X96313700Y-109484000D02*
X96788400Y-109009000D01*
X84455000Y-74295000D02*
X84455000Y-75320300D01*
X84455000Y-75320300D02*
X91177900Y-82043200D01*
X91177900Y-82043200D02*
X91177900Y-99180400D01*
X91177900Y-99180400D02*
X90912900Y-99445400D01*
X90912900Y-99445400D02*
X90912900Y-103134000D01*
X90912900Y-103134000D02*
X90979500Y-103200000D01*
X129626300Y-90198600D02*
X129626000Y-90198600D01*
X129626000Y-90198600D02*
X128265000Y-88837100D01*
X128265000Y-88837100D02*
X128265000Y-87473100D01*
X128265000Y-87473100D02*
X127495000Y-86703600D01*
X127495000Y-86703600D02*
X125832000Y-86703600D01*
X125832000Y-86703600D02*
X104511000Y-108024000D01*
X104511000Y-108024000D02*
X104511000Y-109738000D01*
X104511000Y-109738000D02*
X102997000Y-111252000D01*
X100457000Y-136144000D02*
X100457000Y-135055000D01*
X100457000Y-135055000D02*
X100344000Y-135055000D01*
X100344000Y-135055000D02*
X99368100Y-134079000D01*
X99368100Y-134079000D02*
X99368100Y-132604000D01*
X99368100Y-132604000D02*
X96934500Y-130170000D01*
X96934500Y-130170000D02*
X96934500Y-123501000D01*
X96934500Y-123501000D02*
X97662000Y-122774000D01*
X97662000Y-122774000D02*
X97889400Y-122774000D01*
X97889400Y-122774000D02*
X99036900Y-121626000D01*
X99036900Y-121626000D02*
X99036900Y-113269000D01*
X79375000Y-74295000D02*
X80400300Y-74295000D01*
X80400300Y-74295000D02*
X90191100Y-84085800D01*
X90191100Y-84085800D02*
X90191100Y-103877000D01*
X129626300Y-87658600D02*
X129626000Y-87658600D01*
X101652000Y-111252000D02*
X103153000Y-109751000D01*
X103153000Y-109751000D02*
X103346000Y-109751000D01*
X103346000Y-109751000D02*
X103967000Y-109131000D01*
X103967000Y-109131000D02*
X103967000Y-108144000D01*
X103967000Y-108144000D02*
X125707000Y-86403200D01*
X125707000Y-86403200D02*
X128371000Y-86403200D01*
X128371000Y-86403200D02*
X129626000Y-87658600D01*
X74295000Y-74295000D02*
X74295000Y-75320300D01*
X74295000Y-75320300D02*
X77583500Y-78608800D01*
X77583500Y-78608800D02*
X77583500Y-93779300D01*
X77583500Y-93779300D02*
X77782200Y-93978000D01*
X77782200Y-93978000D02*
X77782200Y-96678200D01*
X77782200Y-96678200D02*
X78138800Y-97034800D01*
X105537000Y-136144000D02*
X105537000Y-135055000D01*
X105537000Y-135055000D02*
X105424000Y-135055000D01*
X105424000Y-135055000D02*
X104267000Y-133898000D01*
X104267000Y-133898000D02*
X104267000Y-129086000D01*
X104267000Y-129086000D02*
X102060000Y-126880000D01*
X102060000Y-126880000D02*
X102060000Y-111661000D01*
X102060000Y-111661000D02*
X101652000Y-111252000D01*
X100457000Y-111252000D02*
X101652000Y-111252000D01*
X134706300Y-100358600D02*
X134706000Y-100358900D01*
X134706000Y-100358900D02*
X134706000Y-100359000D01*
X125085000Y-126440000D02*
X125085000Y-124872000D01*
X125085000Y-124872000D02*
X132705000Y-117251000D01*
X132705000Y-117251000D02*
X132705000Y-108629000D01*
X132705000Y-108629000D02*
X135658000Y-105677000D01*
X135658000Y-105677000D02*
X135658000Y-101310000D01*
X135658000Y-101310000D02*
X134706000Y-100359000D01*
X87757000Y-133604000D02*
X87757000Y-132515000D01*
X87757000Y-132515000D02*
X85216800Y-129975000D01*
X85216800Y-129975000D02*
X85216800Y-121100000D01*
X85216800Y-121100000D02*
X84443900Y-120327000D01*
X84443900Y-120327000D02*
X84328100Y-120327000D01*
X84328100Y-120327000D02*
X83241300Y-119240000D01*
X83241300Y-119240000D02*
X83241300Y-115963000D01*
X83241300Y-115963000D02*
X84313300Y-114891000D01*
X84313300Y-114891000D02*
X84539400Y-114891000D01*
X84539400Y-114891000D02*
X85154400Y-114276000D01*
X85154400Y-114276000D02*
X85154400Y-112839000D01*
X85154400Y-112839000D02*
X86741000Y-111252000D01*
X128651000Y-125984000D02*
X127626000Y-125984000D01*
X127626000Y-125984000D02*
X126585000Y-127025000D01*
X126585000Y-127025000D02*
X125669000Y-127025000D01*
X125669000Y-127025000D02*
X125085000Y-126440000D01*
X87757000Y-133604000D02*
X86668100Y-133604000D01*
X86668100Y-133604000D02*
X86668100Y-133717000D01*
X86668100Y-133717000D02*
X85630200Y-134755000D01*
X85630200Y-134755000D02*
X85045800Y-134755000D01*
X85045800Y-134755000D02*
X84097200Y-135703000D01*
X84097200Y-135703000D02*
X84097200Y-136599000D01*
X84097200Y-136599000D02*
X85724900Y-138227000D01*
X85724900Y-138227000D02*
X115210000Y-138227000D01*
X115210000Y-138227000D02*
X116838000Y-136600000D01*
X116838000Y-136600000D02*
X116838000Y-128888000D01*
X116838000Y-128888000D02*
X116471000Y-128521000D01*
X116471000Y-128521000D02*
X116471000Y-127947000D01*
X116471000Y-127947000D02*
X116749000Y-127669000D01*
X116749000Y-127669000D02*
X123856000Y-127669000D01*
X123856000Y-127669000D02*
X125085000Y-126440000D01*
X84201000Y-98552000D02*
X85471100Y-97281900D01*
X85471100Y-97281900D02*
X85471100Y-93386700D01*
X85471100Y-93386700D02*
X86322400Y-92535400D01*
X86322400Y-92535400D02*
X87722100Y-92535400D01*
X87722100Y-92535400D02*
X87917700Y-92731000D01*
X86741000Y-111252000D02*
X86741000Y-107441000D01*
X86741000Y-107441000D02*
X86457700Y-107158000D01*
X86457700Y-107158000D02*
X86457700Y-104278000D01*
X86457700Y-104278000D02*
X87991500Y-102744000D01*
X87991500Y-102744000D02*
X87991500Y-92804800D01*
X87991500Y-92804800D02*
X87917700Y-92731000D01*
X127086000Y-87658600D02*
X127086300Y-87658600D01*
X110617000Y-108712000D02*
X110617000Y-102371000D01*
X110617000Y-102371000D02*
X125329000Y-87658600D01*
X125329000Y-87658600D02*
X127086000Y-87658600D01*
X92075000Y-74295000D02*
X92075000Y-75320300D01*
X92075000Y-75320300D02*
X92206400Y-75451700D01*
X92206400Y-75451700D02*
X92206400Y-103778000D01*
X87757000Y-136144000D02*
X87757000Y-135055000D01*
X87757000Y-135055000D02*
X87869800Y-135055000D01*
X87869800Y-135055000D02*
X89027000Y-133898000D01*
X89027000Y-133898000D02*
X89027000Y-117481000D01*
X89027000Y-117481000D02*
X90674700Y-115834000D01*
X90674700Y-115834000D02*
X90674700Y-106526000D01*
X90674700Y-106526000D02*
X92206400Y-104994000D01*
X92206400Y-104994000D02*
X92206400Y-103778000D01*
X93035200Y-103778000D02*
X92206400Y-103778000D01*
X134706300Y-92738600D02*
X134706000Y-92738600D01*
X134706000Y-92738600D02*
X133469000Y-93975600D01*
X133469000Y-93975600D02*
X127040000Y-93975600D01*
X127040000Y-93975600D02*
X125850000Y-95165500D01*
X125850000Y-95165500D02*
X125850000Y-95402600D01*
X125850000Y-95402600D02*
X124569000Y-96684100D01*
X124569000Y-96684100D02*
X123594000Y-96684100D01*
X123594000Y-96684100D02*
X119882000Y-100396000D01*
X97945500Y-106321000D02*
X93965300Y-110301000D01*
X93965300Y-110301000D02*
X93965300Y-134040000D01*
X93965300Y-134040000D02*
X92949800Y-135055000D01*
X92949800Y-135055000D02*
X92837000Y-135055000D01*
X92837000Y-135055000D02*
X92837000Y-136144000D01*
X86995000Y-74295000D02*
X86995000Y-75320300D01*
X86995000Y-75320300D02*
X91482600Y-79807900D01*
X91482600Y-79807900D02*
X91482600Y-99690200D01*
X91482600Y-99690200D02*
X91398700Y-99774100D01*
X137246300Y-92738600D02*
X137246000Y-92738600D01*
X137246000Y-92738600D02*
X136277000Y-91769200D01*
X136277000Y-91769200D02*
X130796000Y-91769200D01*
X130796000Y-91769200D02*
X128890000Y-93675200D01*
X128890000Y-93675200D02*
X124781000Y-93675200D01*
X124781000Y-93675200D02*
X116145000Y-102312000D01*
X97917000Y-136144000D02*
X99699700Y-137927000D01*
X99699700Y-137927000D02*
X113388000Y-137927000D01*
X113388000Y-137927000D02*
X114553000Y-136761000D01*
X114553000Y-136761000D02*
X114553000Y-124009000D01*
X114553000Y-124009000D02*
X113226000Y-122682000D01*
X113226000Y-122682000D02*
X110536000Y-122682000D01*
X110536000Y-122682000D02*
X109663000Y-121809000D01*
X109663000Y-121809000D02*
X109663000Y-120978000D01*
X109663000Y-120978000D02*
X110257000Y-120384000D01*
X110257000Y-120384000D02*
X110488000Y-120384000D01*
X110488000Y-120384000D02*
X112185000Y-118687000D01*
X112185000Y-118687000D02*
X112185000Y-115892000D01*
X112185000Y-115892000D02*
X113349000Y-114729000D01*
X113349000Y-114729000D02*
X113586000Y-114729000D01*
X113586000Y-114729000D02*
X116145000Y-112170000D01*
X116145000Y-112170000D02*
X116145000Y-102312000D01*
X81915000Y-74295000D02*
X81915000Y-75320300D01*
X81915000Y-75320300D02*
X90690500Y-84095800D01*
X90690500Y-84095800D02*
X90690500Y-98524700D01*
X134706300Y-87658600D02*
X134706000Y-87658600D01*
X113036000Y-93234100D02*
X114124000Y-92146200D01*
X114124000Y-92146200D02*
X119006000Y-92146200D01*
X119006000Y-92146200D02*
X125049000Y-86102900D01*
X125049000Y-86102900D02*
X133151000Y-86102900D01*
X133151000Y-86102900D02*
X134706000Y-87658600D01*
X76835000Y-74295000D02*
X76835000Y-73227300D01*
X76835000Y-73227300D02*
X70718600Y-67110900D01*
X70718600Y-67110900D02*
X70718600Y-66252500D01*
X70718600Y-66252500D02*
X72323000Y-64648100D01*
X72323000Y-64648100D02*
X94079100Y-64648100D01*
X94079100Y-64648100D02*
X95698900Y-66267900D01*
X95698900Y-66267900D02*
X95698900Y-68747300D01*
X95698900Y-68747300D02*
X105744000Y-78791900D01*
X105744000Y-78791900D02*
X105744000Y-86176300D01*
X105744000Y-86176300D02*
X111642000Y-92075000D01*
X111642000Y-92075000D02*
X111876000Y-92075000D01*
X111876000Y-92075000D02*
X113036000Y-93234100D01*
X102997000Y-136144000D02*
X102997000Y-135055000D01*
X102997000Y-135055000D02*
X102884000Y-135055000D01*
X102884000Y-135055000D02*
X101862000Y-134033000D01*
X101862000Y-134033000D02*
X101862000Y-127183000D01*
X101862000Y-127183000D02*
X101742000Y-127062000D01*
X101742000Y-127062000D02*
X101742000Y-113932000D01*
X101742000Y-113932000D02*
X99516600Y-111707000D01*
X99516600Y-111707000D02*
X99516600Y-109652000D01*
X99516600Y-109652000D02*
X100457000Y-108712000D01*
X113036000Y-93234100D02*
X113036000Y-93455000D01*
X113036000Y-93455000D02*
X111876000Y-94615000D01*
X111876000Y-94615000D02*
X111612000Y-94615000D01*
X111612000Y-94615000D02*
X110823000Y-95404000D01*
X110823000Y-95404000D02*
X110823000Y-95664800D01*
X110823000Y-95664800D02*
X109091000Y-97396900D01*
X109091000Y-97396900D02*
X108889000Y-97396900D01*
X108889000Y-97396900D02*
X108165000Y-98120900D01*
X108165000Y-98120900D02*
X108165000Y-101004000D01*
X108165000Y-101004000D02*
X100457000Y-108712000D01*
X108077000Y-136144000D02*
X106988000Y-136144000D01*
X106988000Y-136144000D02*
X106988000Y-136257000D01*
X106988000Y-136257000D02*
X105981000Y-137264000D01*
X105981000Y-137264000D02*
X102543000Y-137264000D01*
X102543000Y-137264000D02*
X101546000Y-136267000D01*
X101546000Y-136267000D02*
X101546000Y-127292000D01*
X101546000Y-127292000D02*
X101441000Y-127187000D01*
X101441000Y-127187000D02*
X101441000Y-114268000D01*
X101441000Y-114268000D02*
X98853600Y-111681000D01*
X98853600Y-111681000D02*
X98853600Y-109649000D01*
X98853600Y-109649000D02*
X97917000Y-108712000D01*
X71755000Y-74295000D02*
X71755000Y-75320300D01*
X71755000Y-75320300D02*
X72480000Y-76045300D01*
X72480000Y-76045300D02*
X72480000Y-89348100D01*
X72480000Y-89348100D02*
X77306900Y-94175000D01*
X137246300Y-100358600D02*
X137246000Y-100358900D01*
X137246000Y-100358900D02*
X137246000Y-100359000D01*
X126111000Y-125984000D02*
X126111000Y-124271000D01*
X126111000Y-124271000D02*
X134939000Y-115443000D01*
X134939000Y-115443000D02*
X134939000Y-106821000D01*
X134939000Y-106821000D02*
X137246000Y-104513000D01*
X137246000Y-104513000D02*
X137246000Y-100359000D01*
X97917000Y-111252000D02*
X99520500Y-112856000D01*
X99520500Y-112856000D02*
X99520500Y-129941000D01*
X99520500Y-129941000D02*
X100577000Y-130997000D01*
X86741000Y-96012000D02*
X86741000Y-101170000D01*
X86741000Y-101170000D02*
X84201000Y-103710000D01*
X84201000Y-103710000D02*
X84201000Y-108712000D01*
X132166300Y-100358600D02*
X132166000Y-100358900D01*
X132166000Y-100358900D02*
X132166000Y-100359000D01*
X121031000Y-125984000D02*
X121031000Y-124959000D01*
X121031000Y-124959000D02*
X130166000Y-115824000D01*
X130166000Y-115824000D02*
X130166000Y-106242000D01*
X130166000Y-106242000D02*
X133104000Y-103304000D01*
X133104000Y-103304000D02*
X133104000Y-101296000D01*
X133104000Y-101296000D02*
X132166000Y-100359000D01*
X80137000Y-133604000D02*
X80137000Y-130119000D01*
X80137000Y-130119000D02*
X78184400Y-128166000D01*
X78184400Y-128166000D02*
X78184400Y-115020000D01*
X78184400Y-115020000D02*
X80533600Y-112671000D01*
X80533600Y-112671000D02*
X80533600Y-110846000D01*
X80533600Y-110846000D02*
X81661000Y-109718000D01*
X81661000Y-109718000D02*
X81661000Y-108712000D01*
X86741000Y-93472000D02*
X87691100Y-94422100D01*
X87691100Y-94422100D02*
X87691100Y-101783000D01*
X87691100Y-101783000D02*
X86125000Y-103349000D01*
X86125000Y-103349000D02*
X86125000Y-109649000D01*
X84201000Y-90932000D02*
X80676000Y-94457000D01*
X80676000Y-94457000D02*
X80676000Y-107906000D01*
X80676000Y-107906000D02*
X80375700Y-108206000D01*
X80375700Y-108206000D02*
X80375700Y-109997000D01*
X80375700Y-109997000D02*
X79121000Y-111252000D01*
X79121000Y-111252000D02*
X75057000Y-115316000D01*
X75057000Y-115316000D02*
X75057000Y-133604000D01*
X124546300Y-100358600D02*
X124546000Y-100358900D01*
X124546000Y-100358900D02*
X124546000Y-100359000D01*
X124546000Y-100359000D02*
X124546000Y-108154000D01*
X124546000Y-108154000D02*
X126111000Y-109719000D01*
X126111000Y-109719000D02*
X126111000Y-110744000D01*
X76581000Y-111252000D02*
X77517600Y-110315000D01*
X77517600Y-110315000D02*
X77517600Y-107775000D01*
X77517600Y-107775000D02*
X80375700Y-104917000D01*
X80375700Y-104917000D02*
X80375700Y-92217300D01*
X80375700Y-92217300D02*
X84201000Y-88392000D01*
X134706000Y-102899000D02*
X134706300Y-102898700D01*
X134706300Y-102898700D02*
X134706300Y-102898600D01*
X123571000Y-125984000D02*
X123571000Y-124792000D01*
X123571000Y-124792000D02*
X132255000Y-116108000D01*
X132255000Y-116108000D02*
X132255000Y-105350000D01*
X132255000Y-105350000D02*
X134706000Y-102899000D01*
X82927600Y-111252000D02*
X84201000Y-111252000D01*
X82677000Y-133604000D02*
X82677000Y-132515000D01*
X82677000Y-132515000D02*
X82640500Y-132479000D01*
X82640500Y-132479000D02*
X82640500Y-111539000D01*
X82640500Y-111539000D02*
X82927600Y-111252000D01*
X82927600Y-111252000D02*
X82927600Y-97285400D01*
X82927600Y-97285400D02*
X84201000Y-96012000D01*
X132166300Y-102898600D02*
X132166000Y-102898900D01*
X132166000Y-102898900D02*
X132166000Y-102899000D01*
X132166000Y-102899000D02*
X129865000Y-105200000D01*
X129865000Y-105200000D02*
X129865000Y-113584000D01*
X129865000Y-113584000D02*
X118491000Y-124959000D01*
X118491000Y-124959000D02*
X118491000Y-125984000D01*
X82238800Y-107775000D02*
X82597600Y-108134000D01*
X82597600Y-108134000D02*
X82597600Y-110315000D01*
X82597600Y-110315000D02*
X81661000Y-111252000D01*
X77597000Y-133604000D02*
X77597000Y-132515000D01*
X77597000Y-132515000D02*
X75644400Y-130562000D01*
X75644400Y-130562000D02*
X75644400Y-116985000D01*
X75644400Y-116985000D02*
X80083300Y-112546000D01*
X80083300Y-112546000D02*
X80083300Y-110871000D01*
X80083300Y-110871000D02*
X80676000Y-110278000D01*
X80676000Y-110278000D02*
X80676000Y-108330000D01*
X80676000Y-108330000D02*
X81231000Y-107775000D01*
X81231000Y-107775000D02*
X82238800Y-107775000D01*
X84201000Y-93472000D02*
X82597600Y-95075400D01*
X82597600Y-95075400D02*
X82597600Y-107417000D01*
X82597600Y-107417000D02*
X82238800Y-107775000D01*
X95377000Y-118872000D02*
X94423900Y-117919000D01*
X94423900Y-117919000D02*
X94423900Y-110674000D01*
X94423900Y-110674000D02*
X102870000Y-102228000D01*
X102870000Y-102228000D02*
X102870000Y-84455000D01*
X102870000Y-84455000D02*
X104140000Y-83185000D01*
X82173700Y-63206600D02*
X112142000Y-63206600D01*
X112142000Y-63206600D02*
X139444000Y-90508500D01*
X139444000Y-90508500D02*
X139444000Y-97818600D01*
X137246200Y-95278700D02*
X138183000Y-96215200D01*
X138183000Y-96215200D02*
X138183000Y-106126000D01*
X138183000Y-106126000D02*
X135246000Y-109063000D01*
X135246000Y-109063000D02*
X135246000Y-123933000D01*
X135246000Y-123933000D02*
X136271000Y-124959000D01*
X136271000Y-124959000D02*
X136271000Y-125984000D01*
X137246000Y-95278600D02*
X137246200Y-95278700D01*
X137246300Y-95278600D02*
X137246200Y-95278700D01*
X74295000Y-66675000D02*
X75320300Y-66675000D01*
X75320300Y-66675000D02*
X77002800Y-64992500D01*
X77002800Y-64992500D02*
X91879400Y-64992500D01*
X91879400Y-64992500D02*
X93345000Y-66458100D01*
X93345000Y-66458100D02*
X93345000Y-67942900D01*
X93345000Y-67942900D02*
X105143000Y-79740700D01*
X105143000Y-79740700D02*
X105143000Y-96887800D01*
X105143000Y-96887800D02*
X106680000Y-98425000D01*
X94147100Y-100106000D02*
X94147100Y-103478000D01*
X94147100Y-103478000D02*
X90986800Y-106639000D01*
X90986800Y-106639000D02*
X90986800Y-131825000D01*
X90986800Y-131825000D02*
X90297000Y-132515000D01*
X90297000Y-132515000D02*
X90297000Y-133604000D01*
X92837000Y-133604000D02*
X92837000Y-132515000D01*
X92837000Y-132515000D02*
X93645800Y-131706000D01*
X93645800Y-131706000D02*
X93645800Y-108515000D01*
X93645800Y-108515000D02*
X101600000Y-100561000D01*
X101600000Y-100561000D02*
X101600000Y-98425000D01*
X101600000Y-98425000D02*
X100645000Y-97469600D01*
X100645000Y-97469600D02*
X100645000Y-79093000D01*
X100645000Y-79093000D02*
X97253000Y-75701400D01*
X97253000Y-75701400D02*
X97077500Y-75701400D01*
X97077500Y-75701400D02*
X96096400Y-74720300D01*
X96096400Y-74720300D02*
X96096400Y-72809800D01*
X96096400Y-72809800D02*
X91049600Y-67763000D01*
X91049600Y-67763000D02*
X91049600Y-66275000D01*
X91049600Y-66275000D02*
X90067500Y-65292900D01*
X90067500Y-65292900D02*
X79242400Y-65292900D01*
X79242400Y-65292900D02*
X77860300Y-66675000D01*
X77860300Y-66675000D02*
X76835000Y-66675000D01*
X84201000Y-118872000D02*
X85606600Y-117466000D01*
X85606600Y-117466000D02*
X85606600Y-116106000D01*
X85606600Y-116106000D02*
X86983700Y-114729000D01*
X86983700Y-114729000D02*
X87153500Y-114729000D01*
X87153500Y-114729000D02*
X88367700Y-113514000D01*
X88367700Y-113514000D02*
X88367700Y-107227000D01*
X127086200Y-92738500D02*
X127086000Y-92738600D01*
X136271000Y-110744000D02*
X136271000Y-109719000D01*
X136271000Y-109719000D02*
X138483000Y-107506000D01*
X138483000Y-107506000D02*
X138483000Y-92623700D01*
X138483000Y-92623700D02*
X137328000Y-91468800D01*
X137328000Y-91468800D02*
X128356000Y-91468800D01*
X128356000Y-91468800D02*
X127086200Y-92738500D01*
X127086300Y-92738600D02*
X127086200Y-92738500D01*
X77597000Y-136144000D02*
X76508100Y-136144000D01*
X76508100Y-136144000D02*
X76508100Y-136008000D01*
X76508100Y-136008000D02*
X75555400Y-135055000D01*
X75555400Y-135055000D02*
X74933700Y-135055000D01*
X74933700Y-135055000D02*
X73787000Y-133908000D01*
X73787000Y-133908000D02*
X73787000Y-129043000D01*
X73787000Y-129043000D02*
X72771100Y-128027000D01*
X72771100Y-128027000D02*
X72771100Y-109982000D01*
X72771100Y-109982000D02*
X71501000Y-108712000D01*
X87233400Y-105070000D02*
X88942100Y-103362000D01*
X88942100Y-103362000D02*
X88942100Y-85513100D01*
X88942100Y-85513100D02*
X86741000Y-83312000D01*
X71755000Y-66675000D02*
X71755000Y-67700300D01*
X71755000Y-67700300D02*
X72780300Y-67700300D01*
X72780300Y-67700300D02*
X77883900Y-72803900D01*
X77883900Y-72803900D02*
X77883900Y-93654900D01*
X77883900Y-93654900D02*
X78082500Y-93853500D01*
X78082500Y-93853500D02*
X78082500Y-96302900D01*
X78082500Y-96302900D02*
X79121000Y-97341400D01*
X79121000Y-97341400D02*
X79121000Y-98552000D01*
X90316700Y-105276000D02*
X90316700Y-112756000D01*
X90316700Y-112756000D02*
X86741000Y-116332000D01*
X97917000Y-121412000D02*
X96634100Y-122695000D01*
X96634100Y-122695000D02*
X96634100Y-131258000D01*
X96634100Y-131258000D02*
X95377000Y-132515000D01*
X95377000Y-132515000D02*
X95377000Y-133604000D01*
X94615000Y-66675000D02*
X94615000Y-68088200D01*
X94615000Y-68088200D02*
X105443000Y-78916400D01*
X105443000Y-78916400D02*
X105443000Y-95988900D01*
X105443000Y-95988900D02*
X106862000Y-97407500D01*
X106862000Y-97407500D02*
X107110000Y-97407500D01*
X107110000Y-97407500D02*
X107652000Y-97949800D01*
X107652000Y-97949800D02*
X107652000Y-99771800D01*
X107652000Y-99771800D02*
X103696000Y-103728000D01*
X108077000Y-133604000D02*
X108077000Y-132515000D01*
X108077000Y-132515000D02*
X106888000Y-132515000D01*
X106888000Y-132515000D02*
X106577000Y-132204000D01*
X106577000Y-132204000D02*
X106577000Y-106650000D01*
X84201000Y-113792000D02*
X82940900Y-115052000D01*
X82940900Y-115052000D02*
X82940900Y-119718000D01*
X82940900Y-119718000D02*
X83220600Y-119997000D01*
X97917000Y-123952000D02*
X99220200Y-125255000D01*
X99220200Y-125255000D02*
X99220200Y-130313000D01*
X99220200Y-130313000D02*
X100819000Y-131912000D01*
X100819000Y-131912000D02*
X101007000Y-131912000D01*
X81661000Y-96012000D02*
X81661000Y-94684100D01*
X81661000Y-94684100D02*
X83816800Y-92528300D01*
X83816800Y-92528300D02*
X84593800Y-92528300D01*
X84593800Y-92528300D02*
X85170700Y-93105200D01*
X85170700Y-93105200D02*
X85170700Y-96430500D01*
X85170700Y-96430500D02*
X84227700Y-97373500D01*
X84227700Y-97373500D02*
X83986800Y-97373500D01*
X83986800Y-97373500D02*
X83257500Y-98102800D01*
X83257500Y-98102800D02*
X83257500Y-109144000D01*
X83257500Y-109144000D02*
X84280200Y-110166000D01*
X84280200Y-110166000D02*
X84441300Y-110166000D01*
X84441300Y-110166000D02*
X85154400Y-110880000D01*
X85154400Y-110880000D02*
X85154400Y-111888000D01*
X85154400Y-111888000D02*
X84201000Y-112842000D01*
X84201000Y-112842000D02*
X84201000Y-113792000D01*
X129667000Y-133350000D02*
X128578000Y-133350000D01*
X128578000Y-133350000D02*
X128578000Y-133486000D01*
X128578000Y-133486000D02*
X127625000Y-134439000D01*
X127625000Y-134439000D02*
X120823000Y-134439000D01*
X120823000Y-134439000D02*
X116134000Y-139128000D01*
X116134000Y-139128000D02*
X83686700Y-139128000D01*
X83686700Y-139128000D02*
X81272400Y-136714000D01*
X81272400Y-136714000D02*
X81272400Y-135690000D01*
X81272400Y-135690000D02*
X80275400Y-134693000D01*
X80275400Y-134693000D02*
X79651600Y-134693000D01*
X79651600Y-134693000D02*
X78867000Y-133908000D01*
X78867000Y-133908000D02*
X78867000Y-130740000D01*
X78867000Y-130740000D02*
X77807100Y-129680000D01*
X77807100Y-129680000D02*
X77807100Y-125178000D01*
X77807100Y-125178000D02*
X76581000Y-123952000D01*
X132207000Y-135890000D02*
X132207000Y-134801000D01*
X132207000Y-134801000D02*
X132071000Y-134801000D01*
X132071000Y-134801000D02*
X130811000Y-133541000D01*
X130811000Y-133541000D02*
X130811000Y-132906000D01*
X130811000Y-132906000D02*
X130126000Y-132222000D01*
X130126000Y-132222000D02*
X122589000Y-132222000D01*
X122589000Y-132222000D02*
X115984000Y-138828000D01*
X115984000Y-138828000D02*
X83811200Y-138828000D01*
X83811200Y-138828000D02*
X81572700Y-136589000D01*
X81572700Y-136589000D02*
X81572700Y-135371000D01*
X81572700Y-135371000D02*
X81256800Y-135055000D01*
X81256800Y-135055000D02*
X81256800Y-128628000D01*
X81256800Y-128628000D02*
X79121000Y-126492000D01*
X132207000Y-133350000D02*
X131118000Y-133350000D01*
X131118000Y-133350000D02*
X131118000Y-132789000D01*
X131118000Y-132789000D02*
X130251000Y-131922000D01*
X130251000Y-131922000D02*
X121953000Y-131922000D01*
X121953000Y-131922000D02*
X115348000Y-138527000D01*
X115348000Y-138527000D02*
X85600400Y-138527000D01*
X85600400Y-138527000D02*
X83796900Y-136724000D01*
X83796900Y-136724000D02*
X83796900Y-135689000D01*
X83796900Y-135689000D02*
X82800900Y-134693000D01*
X82800900Y-134693000D02*
X82195100Y-134693000D01*
X82195100Y-134693000D02*
X81557200Y-134055000D01*
X81557200Y-134055000D02*
X81557200Y-128258000D01*
X81557200Y-128258000D02*
X80391100Y-127092000D01*
X80391100Y-127092000D02*
X80391100Y-125222000D01*
X80391100Y-125222000D02*
X79121000Y-123952000D01*
X134747000Y-135890000D02*
X134747000Y-134801000D01*
X134747000Y-134801000D02*
X134611000Y-134801000D01*
X134611000Y-134801000D02*
X133658000Y-133848000D01*
X133658000Y-133848000D02*
X133658000Y-133246000D01*
X133658000Y-133246000D02*
X128556000Y-128144000D01*
X128556000Y-128144000D02*
X116946000Y-128144000D01*
X58801000Y-75692000D02*
X58801000Y-76780900D01*
X58801000Y-76780900D02*
X58664900Y-76780900D01*
X58664900Y-76780900D02*
X57705600Y-77740200D01*
X57705600Y-77740200D02*
X57705600Y-81276200D01*
X57705600Y-81276200D02*
X58652400Y-82223000D01*
X58652400Y-82223000D02*
X59273100Y-82223000D01*
X59273100Y-82223000D02*
X60252000Y-83201900D01*
X60252000Y-83201900D02*
X60252000Y-93953900D01*
X60252000Y-93953900D02*
X60933800Y-94635700D01*
X60933800Y-94635700D02*
X61571500Y-94635700D01*
X61571500Y-94635700D02*
X69753000Y-102817000D01*
X69753000Y-102817000D02*
X69753000Y-104236000D01*
X69753000Y-104236000D02*
X73071500Y-107554000D01*
X73071500Y-107554000D02*
X73071500Y-125522000D01*
X73071500Y-125522000D02*
X74041000Y-126492000D01*
X58801000Y-106172000D02*
X59889900Y-106172000D01*
X59889900Y-106172000D02*
X59889900Y-106308000D01*
X59889900Y-106308000D02*
X60842600Y-107261000D01*
X60842600Y-107261000D02*
X66295000Y-107261000D01*
X66295000Y-107261000D02*
X70359100Y-111325000D01*
X70359100Y-111325000D02*
X70359100Y-122810000D01*
X70359100Y-122810000D02*
X71501000Y-123952000D01*
X112885000Y-68669900D02*
X117149000Y-68669900D01*
X117149000Y-68669900D02*
X138784000Y-90304200D01*
X138784000Y-90304200D02*
X138784000Y-108326000D01*
X138784000Y-108326000D02*
X137541000Y-109568000D01*
X137541000Y-109568000D02*
X137541000Y-126166000D01*
X137541000Y-126166000D02*
X136697000Y-127010000D01*
X136697000Y-127010000D02*
X133242000Y-127010000D01*
X133242000Y-127010000D02*
X132216000Y-125984000D01*
X132216000Y-125984000D02*
X131191000Y-125984000D01*
X89535000Y-66675000D02*
X89535000Y-67700300D01*
X89535000Y-67700300D02*
X88503100Y-68732200D01*
X88503100Y-68732200D02*
X88503100Y-75558500D01*
X88503100Y-75558500D02*
X91906000Y-78961400D01*
X91906000Y-78961400D02*
X91906000Y-103002000D01*
X91906000Y-103002000D02*
X87872600Y-107035000D01*
X87872600Y-107035000D02*
X87872600Y-111456000D01*
X87872600Y-111456000D02*
X86524200Y-112804000D01*
X86524200Y-112804000D02*
X86398800Y-112804000D01*
X86398800Y-112804000D02*
X85628500Y-113574000D01*
X85628500Y-113574000D02*
X85628500Y-114904000D01*
X85628500Y-114904000D02*
X84201000Y-116332000D01*
X86995000Y-66675000D02*
X88020300Y-66675000D01*
X88020300Y-66675000D02*
X89049500Y-65645800D01*
X89049500Y-65645800D02*
X89961100Y-65645800D01*
X89961100Y-65645800D02*
X90749200Y-66433900D01*
X90749200Y-66433900D02*
X90749200Y-68250100D01*
X90749200Y-68250100D02*
X95640400Y-73141300D01*
X95640400Y-73141300D02*
X95640400Y-74689200D01*
X95640400Y-74689200D02*
X97121300Y-76170100D01*
X97121300Y-76170100D02*
X97296900Y-76170100D01*
X97296900Y-76170100D02*
X100033000Y-78906200D01*
X100033000Y-78906200D02*
X100033000Y-92372000D01*
X100033000Y-92372000D02*
X99060000Y-93345000D01*
X79375000Y-66675000D02*
X79375000Y-67700300D01*
X79375000Y-67700300D02*
X78184400Y-68890900D01*
X78184400Y-68890900D02*
X78184400Y-93530600D01*
X78184400Y-93530600D02*
X79121000Y-94467200D01*
X79121000Y-94467200D02*
X79121000Y-96012000D01*
X96035100Y-63688100D02*
X96035100Y-68658500D01*
X96035100Y-68658500D02*
X107616000Y-80239900D01*
X107616000Y-80239900D02*
X107616000Y-84121500D01*
X107616000Y-84121500D02*
X111760000Y-88265000D01*
X112243000Y-68140600D02*
X112243000Y-68700200D01*
X112243000Y-68700200D02*
X113308000Y-69765500D01*
X113308000Y-69765500D02*
X113308000Y-89813100D01*
X113308000Y-89813100D02*
X114300000Y-90805000D01*
X99060000Y-85725000D02*
X97790100Y-86994900D01*
X97790100Y-86994900D02*
X97790100Y-94614900D01*
X97790100Y-94614900D02*
X96520000Y-95885000D01*
M02*
