M48
; DRILL file {KiCad 5.1.5+dfsg1-2build2} date Sun 25 Jul 2021 16:12:10 BST
; FORMAT={-:-/ absolute / inch / decimal}
; #@! TF.CreationDate,2021-07-25T16:12:10+01:00
; #@! TF.GenerationSoftware,Kicad,Pcbnew,5.1.5+dfsg1-2build2
FMAT,2
INCH
T1C0.0118
T2C0.0315
T3C0.0354
T4C0.0394
T5C0.0400
T6C0.0430
T7C0.0433
T8C0.0472
T9C0.1260
T10C0.0669
%
G90
G05
T1
X2.3092Y-5.1512
X2.6931Y-4.0855
X2.774Y-4.0855
X2.855Y-2.8
X2.8928Y-4.08
X2.955Y-2.8
X3.025Y-2.1453
X3.0436Y-3.7077
X3.0763Y-3.8203
X3.2352Y-2.4884
X3.2764Y-4.7243
X3.3907Y-4.3169
X3.4226Y-4.2102
X3.4344Y-4.1366
X3.4569Y-4.1583
X3.4613Y-3.6508
X3.4769Y-1.95
X3.479Y-4.2215
X3.4829Y-3.8329
X3.5226Y-3.8458
X3.5331Y-1.8723
X3.5408Y-4.7993
X3.5412Y-4.718
X3.5508Y-4.0896
X3.5558Y-4.1447
X3.5705Y-3.8789
X3.5819Y-4.063
X3.5984Y-3.9281
X3.6321Y-4.5078
X3.6372Y-2.0082
X3.6427Y-4.7202
X3.6554Y-4.5259
X3.6628Y-4.0857
X3.675Y-4.2296
X3.7Y-1.9323
X3.7066Y-3.9412
X3.7809Y-2.5074
X3.8106Y-4.2917
X3.8519Y-3.0466
X3.8561Y-4.1859
X3.8849Y-5.0139
X3.8991Y-4.4594
X3.9597Y-5.1574
X3.9767Y-5.1934
X4.0062Y-2.6943
X4.0825Y-4.0838
X4.1487Y-3.0194
X4.1959Y-4.1988
X4.2173Y-5.1983
X4.2289Y-3.0008
X4.3112Y-5.2166
X4.3828Y-2.2798
X4.419Y-2.6827
X4.4359Y-3.4403
X4.4443Y-2.7035
X4.5217Y-2.2891
X4.5726Y-4.028
X4.6042Y-5.045
X4.7063Y-3.2814
X4.7198Y-3.9526
X4.775Y-2.7078
X4.881Y-3.0817
X4.885Y-3.2818
X4.895Y-2.4364
X4.9191Y-4.5804
X4.967Y-3.2852
X4.9865Y-4.2137
X4.995Y-2.7676
X5.0106Y-3.1624
X5.051Y-2.884
X5.0852Y-3.2568
X5.1043Y-2.5124
X5.1661Y-3.2847
X5.1899Y-2.5623
X5.1909Y-4.6947
X5.265Y-2.0246
X5.2809Y-3.1606
X5.295Y-2.7661
X5.331Y-2.9831
X5.3566Y-3.1909
X5.3824Y-3.0739
X5.4477Y-1.9809
X5.4479Y-1.8452
X5.4822Y-4.4269
X5.4899Y-3.8511
X5.5365Y-4.0197
X5.5831Y-3.0832
X5.5986Y-3.0451
X5.635Y-1.8308
X5.635Y-1.9115
X5.6542Y-2.8735
X5.6542Y-3.2292
X5.7555Y-4.7936
X5.7557Y-4.1122
X5.7948Y-3.0647
X5.8365Y-4.7737
X5.8368Y-4.1094
X5.8491Y-2.8733
X5.9186Y-3.3384
T2
X4.9034Y-3.5511
X4.9034Y-3.6511
X4.9034Y-3.7511
X4.9034Y-3.8511
X4.9034Y-3.9511
X5.0034Y-3.4511
X5.0034Y-3.5511
X5.0034Y-3.6511
X5.0034Y-3.7511
X5.0034Y-3.8511
X5.0034Y-3.9511
X5.0034Y-4.0511
X5.1034Y-3.4511
X5.1034Y-3.5511
X5.1034Y-3.9511
X5.1034Y-4.0511
X5.2034Y-3.4511
X5.2034Y-3.5511
X5.2034Y-3.9511
X5.2034Y-4.0511
X5.3034Y-3.4511
X5.3034Y-3.5511
X5.3034Y-3.6511
X5.3034Y-3.7511
X5.3034Y-3.8511
X5.3034Y-3.9511
X5.3034Y-4.0511
X5.4034Y-3.5511
X5.4034Y-3.6511
X5.4034Y-3.7511
X5.4034Y-3.8511
X5.4034Y-3.9511
X2.715Y-3.28
X2.715Y-3.38
X2.715Y-3.48
X2.715Y-3.58
X2.715Y-3.68
X2.715Y-3.78
X2.815Y-3.18
X2.815Y-3.28
X2.815Y-3.38
X2.815Y-3.48
X2.815Y-3.58
X2.815Y-3.68
X2.815Y-3.78
X2.815Y-3.88
X2.915Y-3.18
X2.915Y-3.28
X2.915Y-3.78
X2.915Y-3.88
X3.015Y-3.18
X3.015Y-3.28
X3.015Y-3.78
X3.015Y-3.88
X3.115Y-3.18
X3.115Y-3.28
X3.115Y-3.78
X3.115Y-3.88
X3.215Y-3.18
X3.215Y-3.28
X3.215Y-3.78
X3.215Y-3.88
X3.315Y-3.18
X3.315Y-3.28
X3.315Y-3.38
X3.315Y-3.48
X3.315Y-3.58
X3.315Y-3.68
X3.315Y-3.78
X3.315Y-3.88
X3.415Y-3.28
X3.415Y-3.38
X3.415Y-3.48
X3.415Y-3.58
X3.415Y-3.68
X3.415Y-3.78
X2.715Y-4.38
X2.715Y-4.48
X2.715Y-4.58
X2.715Y-4.68
X2.715Y-4.78
X2.715Y-4.88
X2.815Y-4.28
X2.815Y-4.38
X2.815Y-4.48
X2.815Y-4.58
X2.815Y-4.68
X2.815Y-4.78
X2.815Y-4.88
X2.815Y-4.98
X2.915Y-4.28
X2.915Y-4.38
X2.915Y-4.88
X2.915Y-4.98
X3.015Y-4.28
X3.015Y-4.38
X3.015Y-4.88
X3.015Y-4.98
X3.115Y-4.28
X3.115Y-4.38
X3.115Y-4.88
X3.115Y-4.98
X3.215Y-4.28
X3.215Y-4.38
X3.215Y-4.88
X3.215Y-4.98
X3.315Y-4.28
X3.315Y-4.38
X3.315Y-4.48
X3.315Y-4.58
X3.315Y-4.68
X3.315Y-4.78
X3.315Y-4.88
X3.315Y-4.98
X3.415Y-4.38
X3.415Y-4.48
X3.415Y-4.58
X3.415Y-4.68
X3.415Y-4.78
X3.415Y-4.88
X3.755Y-4.38
X3.755Y-4.48
X3.755Y-4.58
X3.755Y-4.68
X3.755Y-4.78
X3.755Y-4.88
X3.855Y-4.28
X3.855Y-4.38
X3.855Y-4.48
X3.855Y-4.58
X3.855Y-4.68
X3.855Y-4.78
X3.855Y-4.88
X3.855Y-4.98
X3.955Y-4.28
X3.955Y-4.38
X3.955Y-4.88
X3.955Y-4.98
X4.055Y-4.28
X4.055Y-4.38
X4.055Y-4.88
X4.055Y-4.98
X4.155Y-4.28
X4.155Y-4.38
X4.155Y-4.88
X4.155Y-4.98
X4.255Y-4.28
X4.255Y-4.38
X4.255Y-4.88
X4.255Y-4.98
X4.355Y-4.28
X4.355Y-4.38
X4.355Y-4.48
X4.355Y-4.58
X4.355Y-4.68
X4.355Y-4.78
X4.355Y-4.88
X4.355Y-4.98
X4.455Y-4.38
X4.455Y-4.48
X4.455Y-4.58
X4.455Y-4.68
X4.455Y-4.78
X4.455Y-4.88
X4.665Y-4.36
X4.665Y-4.96
X4.765Y-4.36
X4.765Y-4.96
X4.865Y-4.36
X4.865Y-4.96
X4.965Y-4.36
X4.965Y-4.96
X5.065Y-4.36
X5.065Y-4.96
X5.165Y-4.36
X5.165Y-4.96
X5.265Y-4.36
X5.265Y-4.96
X5.365Y-4.36
X5.365Y-4.96
X5.465Y-4.36
X5.465Y-4.96
X5.565Y-4.36
X5.565Y-4.96
X5.665Y-4.36
X5.665Y-4.96
X5.765Y-4.36
X5.765Y-4.96
X5.865Y-4.36
X5.865Y-4.96
X5.965Y-4.36
X5.965Y-4.96
X2.725Y-2.625
X2.725Y-2.925
X2.825Y-2.625
X2.825Y-2.925
X2.925Y-2.625
X2.925Y-2.925
X3.025Y-2.625
X3.025Y-2.925
X3.125Y-2.625
X3.125Y-2.925
X3.225Y-2.625
X3.225Y-2.925
X3.325Y-2.625
X3.325Y-2.925
X3.425Y-2.625
X3.425Y-2.925
X3.525Y-2.625
X3.525Y-2.925
X3.625Y-2.625
X3.625Y-2.925
X3.725Y-2.625
X3.725Y-2.925
X3.825Y-2.625
X3.825Y-2.925
X3.8Y-3.275
X3.8Y-3.375
X3.8Y-3.475
X3.8Y-3.575
X3.8Y-3.675
X3.8Y-3.775
X3.9Y-3.175
X3.9Y-3.275
X3.9Y-3.375
X3.9Y-3.475
X3.9Y-3.575
X3.9Y-3.675
X3.9Y-3.775
X3.9Y-3.875
X4.0Y-3.175
X4.0Y-3.275
X4.0Y-3.775
X4.0Y-3.875
X4.1Y-3.175
X4.1Y-3.275
X4.1Y-3.775
X4.1Y-3.875
X4.2Y-3.175
X4.2Y-3.275
X4.2Y-3.775
X4.2Y-3.875
X4.3Y-3.175
X4.3Y-3.275
X4.3Y-3.775
X4.3Y-3.875
X4.4Y-3.175
X4.4Y-3.275
X4.4Y-3.375
X4.4Y-3.475
X4.4Y-3.575
X4.4Y-3.675
X4.4Y-3.775
X4.4Y-3.875
X4.5Y-3.275
X4.5Y-3.375
X4.5Y-3.475
X4.5Y-3.575
X4.5Y-3.675
X4.5Y-3.775
T3
X4.683Y-4.12
X4.683Y-4.22
X5.265Y-1.66
X5.265Y-1.76
T4
X5.015Y-1.72
X4.495Y-1.72
X3.695Y-1.72
X4.755Y-1.72
X2.3Y-2.125
X2.3Y-2.225
X2.3Y-2.325
X2.3Y-2.425
X2.3Y-2.525
X2.4Y-2.125
X2.4Y-2.225
X2.4Y-2.325
X2.4Y-2.425
X2.4Y-2.525
X4.235Y-1.72
X3.955Y-1.72
T5
X2.655Y-5.26
X2.655Y-5.36
X2.755Y-5.26
X2.755Y-5.36
X2.855Y-5.26
X2.855Y-5.36
X2.955Y-5.26
X2.955Y-5.36
X3.055Y-5.26
X3.055Y-5.36
X3.155Y-5.26
X3.155Y-5.36
X3.255Y-5.26
X3.255Y-5.36
X3.355Y-5.26
X3.355Y-5.36
X3.455Y-5.26
X3.455Y-5.36
X3.555Y-5.26
X3.555Y-5.36
X3.655Y-5.26
X3.655Y-5.36
X3.755Y-5.26
X3.755Y-5.36
X3.855Y-5.26
X3.855Y-5.36
X3.955Y-5.26
X3.955Y-5.36
X4.055Y-5.26
X4.055Y-5.36
X4.155Y-5.26
X4.155Y-5.36
X4.255Y-5.26
X4.255Y-5.36
X4.355Y-5.26
X4.355Y-5.36
X4.455Y-5.26
X4.455Y-5.36
X4.555Y-5.26
X4.555Y-5.36
X2.315Y-2.98
X2.315Y-3.08
X2.315Y-3.18
X2.315Y-3.28
X2.315Y-3.38
X2.315Y-3.48
X2.315Y-3.58
X2.315Y-3.68
X2.315Y-3.78
X2.315Y-3.88
X2.315Y-3.98
X2.315Y-4.08
X2.315Y-4.18
X2.315Y-4.28
X2.315Y-4.38
X2.315Y-4.48
X2.315Y-4.58
X2.315Y-4.68
X2.315Y-4.78
X2.315Y-4.88
X2.415Y-2.98
X2.415Y-3.08
X2.415Y-3.18
X2.415Y-3.28
X2.415Y-3.38
X2.415Y-3.48
X2.415Y-3.58
X2.415Y-3.68
X2.415Y-3.78
X2.415Y-3.88
X2.415Y-3.98
X2.415Y-4.08
X2.415Y-4.18
X2.415Y-4.28
X2.415Y-4.38
X2.415Y-4.48
X2.415Y-4.58
X2.415Y-4.68
X2.415Y-4.78
X2.415Y-4.88
X5.005Y-5.25
X5.005Y-5.35
X5.105Y-5.25
X5.105Y-5.35
X5.205Y-5.25
X5.205Y-5.35
X5.305Y-5.25
X5.305Y-5.35
X5.405Y-5.25
X5.405Y-5.35
X5.505Y-5.25
X5.505Y-5.35
X5.605Y-5.25
X5.605Y-5.35
T6
X5.815Y-1.94
X5.815Y-2.04
X5.815Y-2.14
X6.035Y-1.94
X6.035Y-2.14
T7
X4.795Y-2.1428
X4.795Y-2.32
X5.0509Y-2.1428
X5.0509Y-2.32
X3.9791Y-2.1428
X3.9791Y-2.32
X4.235Y-2.1428
X4.235Y-2.32
T8
X5.655Y-2.42
X5.655Y-2.5184
X5.655Y-2.6169
X5.655Y-2.7153
T9
X2.3Y-5.37
X2.299Y-1.766
X5.935Y-1.72
X5.955Y-5.37
T10
X5.9377Y-2.42
X5.9377Y-2.7153
T0
M30
